<?xml version="1.0" standalone="no"?>
<!DOCTYPE svg PUBLIC "-//W3C//DTD SVG 1.1//EN" "http://www.w3.org/Graphics/SVG/1.1/DTD/svg11.dtd" >
<svg xmlns="http://www.w3.org/2000/svg" xmlns:xlink="http://www.w3.org/1999/xlink" version="1.1">
<metadata></metadata>
<defs>
<font id="lufgaextrabold" horiz-adv-x="1288" >
<font-face units-per-em="2048" ascent="1597" descent="-451" />
<missing-glyph horiz-adv-x="436" />
<glyph unicode="&#xfb01;" horiz-adv-x="1363" d="M47 741v303h148v60q0 181 96 288t289 107q117 0 204 -47v-291q-59 35 -129 35q-64 0 -96.5 -30t-32.5 -85v-37h234v-303h-234v-741h-331v741h-148zM885 1358q0 88 57.5 145.5t144.5 57.5q88 0 145.5 -57.5t57.5 -145.5q0 -86 -57.5 -143.5t-145.5 -57.5q-86 0 -144 57.5 t-58 143.5zM922 0v1044h331v-1044h-331z" />
<glyph unicode="&#xfb02;" horiz-adv-x="1363" d="M47 741v303h148v60q0 181 96 288t289 107q117 0 204 -47v-291q-59 35 -129 35q-64 0 -96.5 -30t-32.5 -85v-37h234v-303h-234v-741h-331v741h-148zM922 0v1475h331v-1475h-331z" />
<glyph horiz-adv-x="0" />
<glyph unicode="&#xd;" horiz-adv-x="682" />
<glyph unicode=" "  horiz-adv-x="436" />
<glyph unicode="&#x09;" horiz-adv-x="436" />
<glyph unicode="&#xa0;" horiz-adv-x="436" />
<glyph unicode="!" horiz-adv-x="585" d="M76 195q0 92 61.5 153.5t155.5 61.5t156.5 -61.5t62.5 -153.5q0 -93 -63 -155.5t-156 -62.5t-155 62.5t-62 155.5zM119 1065v348h350v-348l-20 -576h-310z" />
<glyph unicode="&#x22;" horiz-adv-x="946" d="M78 1413h328l-23 -590h-285zM541 1413h327l-22 -590h-283z" />
<glyph unicode="#" horiz-adv-x="1579" d="M41 317v287h289l59 205h-237v287h323l94 317h308l-95 -317h230l94 317h307l-94 -317h201v-287h-287l-62 -205h238v-287h-324l-94 -317h-305l94 317h-231l-94 -317h-305l94 317h-203zM635 604h231l60 205h-230z" />
<glyph unicode="$" horiz-adv-x="1206" d="M59 203l170 235q69 -63 160 -106t182 -53v284q-211 57 -333.5 171t-122.5 282q0 169 125 283t331 131v126h123v-126q124 -10 230.5 -56t177.5 -114l-156 -236q-47 41 -114.5 70.5t-137.5 38.5v-271q34 -9 68 -20t82 -32t89 -45t84 -60.5t73.5 -77.5t49.5 -97t19 -118 q0 -171 -131 -289.5t-334 -138.5v-125h-123v125q-140 11 -277.5 69.5t-234.5 149.5zM446 1020q0 -72 125 -121v231q-58 -12 -91.5 -41.5t-33.5 -68.5zM694 285q60 13 96.5 44t36.5 77q0 40 -34 68t-99 52v-241z" />
<glyph unicode="%" horiz-adv-x="1802" d="M72 1083q0 151 103.5 253t258.5 102t260 -102t105 -253q0 -152 -105 -254t-260 -102t-258.5 102t-103.5 254zM213 0l1024 1413h352l-1024 -1413h-352zM346 1083q0 -39 25 -65.5t63 -26.5t64 27t26 65q0 37 -26 62.5t-64 25.5t-63 -25.5t-25 -62.5zM1004 334 q0 151 103.5 251.5t258.5 100.5t260 -100.5t105 -251.5q0 -154 -105 -256.5t-260 -102.5t-258.5 102.5t-103.5 256.5zM1278 334q0 -40 25 -66t63 -26t64 26t26 66q0 37 -26 62.5t-64 25.5t-63 -25.5t-25 -62.5z" />
<glyph unicode="&#x26;" horiz-adv-x="1349" d="M47 436q0 233 221 379q-96 150 -96 285q0 147 114 242.5t285 95.5q169 0 284.5 -95.5t115.5 -240.5q0 -58 -20 -109.5t-59 -93.5t-82 -74.5t-101 -66.5l243 -273q67 102 101 228l286 -82q-57 -213 -180 -377l227 -254h-399l-65 72q-124 -97 -330 -97q-244 0 -394.5 127.5 t-150.5 333.5zM373 455q0 -79 65.5 -131t167.5 -52q62 0 117 21l-277 305q-73 -67 -73 -143zM475 1096q0 -55 62 -140q129 73 129 144q0 37 -27.5 59.5t-67.5 22.5q-41 0 -68.5 -22.5t-27.5 -63.5z" />
<glyph unicode="'" horiz-adv-x="483" d="M78 1413h328l-23 -590h-285z" />
<glyph unicode="(" horiz-adv-x="729" d="M125 573q0 261 81 525t214 438h334q-126 -173 -202.5 -437t-76.5 -526t76.5 -525.5t202.5 -436.5h-334q-133 174 -214 437.5t-81 524.5z" />
<glyph unicode=")" horiz-adv-x="729" d="M-25 -389q127 173 204 436t77 526t-77 526.5t-204 436.5h334q133 -174 214 -438t81 -525t-81 -524.5t-214 -437.5h-334z" />
<glyph unicode="*" horiz-adv-x="765" d="M37 1065l98 55l68 25l-68 26l-98 52l102 174l101 -51l55 -48l-12 72v105h200v-105l-10 -70l53 46l101 51l102 -174l-100 -54l-68 -24l68 -27l100 -53l-102 -174l-101 53l-53 45l10 -69v-107h-200v107l12 69l-57 -45l-99 -53z" />
<glyph unicode="+" horiz-adv-x="1093" d="M111 455v299h284v286h303v-286h285v-299h-285v-287h-303v287h-284z" />
<glyph unicode="," horiz-adv-x="559" d="M-12 -297l145 627h385l-246 -627h-284z" />
<glyph unicode="-" horiz-adv-x="835" d="M111 401v320h614v-320h-614z" />
<glyph unicode="." horiz-adv-x="552" d="M51 201q0 96 64.5 160.5t160.5 64.5t161 -65t65 -160t-64.5 -159.5t-161.5 -64.5q-96 0 -160.5 64.5t-64.5 159.5z" />
<glyph unicode="/" horiz-adv-x="1118" d="M-16 -307l819 1843h334l-820 -1843h-333z" />
<glyph unicode="0" horiz-adv-x="1286" d="M80 707q0 213 71 380t199.5 259t292.5 92t292.5 -92t199.5 -259t71 -380t-71 -380t-199.5 -259.5t-292.5 -92.5t-292.5 92.5t-199.5 259.5t-71 380zM440 707q0 -172 57.5 -282t145.5 -110q89 0 145 109.5t56 282.5t-56 282t-145 109q-88 0 -145.5 -109.5t-57.5 -281.5z " />
<glyph unicode="1" horiz-adv-x="837" d="M8 1167l445 246h249v-1413h-352v993l-192 -110z" />
<glyph unicode="2" horiz-adv-x="1091" d="M16 1184q78 115 211.5 184.5t288.5 69.5q216 0 349.5 -126t133.5 -319q0 -125 -50 -220t-128 -177l-256 -264h453v-332h-948v287l442 469q38 42 59 67.5t44.5 69.5t23.5 78q0 52 -39.5 83t-103.5 31q-119 0 -240 -131z" />
<glyph unicode="3" horiz-adv-x="1165" d="M31 172l198 260q57 -54 141 -85.5t169 -31.5q92 0 149 36t57 95q0 60 -55.5 98t-144.5 38h-197v301h197q75 0 123.5 29t48.5 75q0 49 -54.5 80t-142.5 31q-69 0 -139 -21.5t-117 -56.5l-184 256q85 74 215.5 118t267.5 44q229 0 371.5 -110.5t142.5 -287.5 q0 -96 -46 -175t-130 -130q96 -53 150.5 -142t54.5 -198q0 -186 -151 -303t-392 -117q-154 0 -298 53.5t-234 143.5z" />
<glyph unicode="4" horiz-adv-x="1200" d="M35 530l600 883h389v-838h129v-331h-129v-244h-352v244h-555zM412 575h260v392z" />
<glyph unicode="5" horiz-adv-x="1167" d="M61 156l172 282q65 -59 148 -91t166 -32q99 0 158 45t59 111q0 60 -48.5 99.5t-121.5 39.5q-97 0 -160 -63l-311 90l72 776h833v-332h-539l-12 -178q69 29 160 29q206 0 347.5 -134.5t141.5 -334.5q0 -211 -156.5 -349.5t-400.5 -138.5q-127 0 -259 44.5t-249 136.5z" />
<glyph unicode="6" horiz-adv-x="1155" d="M45 567q0 166 62 315.5t175.5 266t284 193t377.5 96.5l68 -328q-174 -20 -303.5 -84t-200.5 -156q86 45 192 45q184 0 308.5 -131t124.5 -321q0 -211 -155 -349.5t-386 -138.5q-248 0 -397.5 163t-149.5 429zM406 457q0 -61 52 -101.5t132 -40.5q78 0 130 40t52 100 t-51.5 99.5t-128.5 39.5t-131.5 -37.5t-54.5 -99.5z" />
<glyph unicode="7" horiz-adv-x="1071" d="M68 1081v332h958v-276l-500 -1137h-395l477 1081h-540z" />
<glyph unicode="8" horiz-adv-x="1218" d="M59 406q0 101 52 185.5t145 141.5q-81 55 -125.5 132.5t-44.5 168.5q0 170 149 287t373 117t374.5 -117t150.5 -287q0 -183 -170 -301q92 -56 144 -141t52 -186q0 -182 -158 -306.5t-393 -124.5q-234 0 -391.5 124t-157.5 307zM422 440q0 -54 53 -89.5t133 -35.5 q82 0 136.5 35.5t54.5 89.5t-54.5 90.5t-136.5 36.5q-79 0 -132.5 -36.5t-53.5 -90.5zM449 997q0 -44 45 -74t114 -30t115.5 30t46.5 74q0 43 -46.5 72t-115.5 29t-114 -29t-45 -72z" />
<glyph unicode="9" horiz-adv-x="1155" d="M23 950q0 211 154.5 349.5t387.5 138.5q247 0 397 -163t150 -429q0 -167 -62 -318.5t-175 -270t-285 -194t-379 -88.5l-66 328q174 10 306 77t202 165q-94 -47 -196 -47q-184 0 -309 131t-125 321zM385 958q0 -60 50.5 -99.5t127.5 -39.5q78 0 132.5 37.5t54.5 99.5 t-52 102t-133 40q-77 0 -128.5 -40t-51.5 -100z" />
<glyph unicode=":" horiz-adv-x="573" d="M61 201q0 95 64.5 160t161.5 65q96 0 160.5 -64.5t64.5 -160.5q0 -95 -64 -159.5t-161 -64.5t-161.5 64.5t-64.5 159.5zM61 827q0 95 64.5 159.5t161.5 64.5t161 -64.5t64 -159.5q0 -96 -64.5 -160.5t-160.5 -64.5q-97 0 -161.5 65t-64.5 160z" />
<glyph unicode=";" horiz-adv-x="604" d="M-12 -297l145 627h385l-246 -627h-284zM92 827q0 95 65 159.5t162 64.5q95 0 160.5 -64.5t65.5 -159.5t-65.5 -160t-160.5 -65q-97 0 -162 65t-65 160z" />
<glyph unicode="&#x3c;" horiz-adv-x="950" d="M111 457v299l729 348v-330l-387 -168l387 -168v-329z" />
<glyph unicode="=" horiz-adv-x="1093" d="M111 240v299h872v-299h-872zM111 674v299h872v-299h-872z" />
<glyph unicode="&#x3e;" horiz-adv-x="950" d="M111 109v329l387 168l-387 168v330l729 -348v-299z" />
<glyph unicode="?" horiz-adv-x="1015" d="M-10 1190q101 118 233.5 183t280.5 65q202 0 337.5 -118.5t135.5 -287.5q0 -66 -23 -125t-57.5 -100.5t-75 -82t-75 -70t-57.5 -63t-23 -63.5v-36h-351v36q0 67 31 127.5t75.5 105t88.5 84.5t75 80t31 76q0 43 -35 70t-96 27q-144 0 -268 -142zM272 195q0 92 61.5 153.5 t155.5 61.5t157 -61.5t63 -153.5t-63 -155t-157 -63q-93 0 -155 62.5t-62 155.5z" />
<glyph unicode="@" horiz-adv-x="1695" d="M74 551q0 161 59 302.5t162 243.5t249 161t312 59q213 0 388 -91.5t276.5 -254.5t101.5 -363q0 -192 -94 -308t-260 -116q-86 0 -158.5 30.5t-116.5 84.5q-71 -117 -219 -117t-245 106t-97 261q0 158 95.5 264.5t230.5 106.5q109 0 182 -76v51h272v-426q0 -31 19.5 -50.5 t50.5 -19.5q52 0 83.5 59t31.5 154q0 139 -71.5 252t-195.5 176.5t-274 63.5q-241 0 -399 -157.5t-158 -395.5q0 -116 42 -218t115 -175t177 -115.5t223 -42.5q194 0 324 88l96 -197q-191 -104 -422 -104q-166 0 -311 58.5t-248 160t-162 243.5t-59 302zM711 551 q0 -46 32.5 -77.5t81.5 -31.5t82 31.5t33 77.5q0 47 -33.5 77.5t-81.5 30.5t-81 -30.5t-33 -77.5z" />
<glyph unicode="A" horiz-adv-x="1472" d="M8 0l520 1413h416l520 -1413h-385l-75 223h-541l-76 -223h-379zM571 547h324l-162 477z" />
<glyph unicode="B" horiz-adv-x="1308" d="M127 0v1413h702q162 0 272.5 -103.5t110.5 -260.5q0 -94 -41.5 -175t-109.5 -124q96 -40 156.5 -141.5t60.5 -223.5q0 -169 -115.5 -277t-288.5 -108h-747zM467 317h319q55 0 92 37.5t37 91.5t-37 91.5t-92 37.5h-319v-258zM467 874h272q47 0 79 32t32 79t-32 79t-79 32 h-272v-222z" />
<glyph unicode="C" horiz-adv-x="1466" d="M59 707q0 205 97.5 372.5t269 263t381.5 95.5q198 0 362.5 -85t264.5 -233l-304 -188q-53 78 -137.5 122t-185.5 44q-165 0 -276 -112t-111 -279t111.5 -279.5t275.5 -112.5q101 0 185.5 44t137.5 122l304 -188q-100 -148 -264.5 -233t-362.5 -85q-157 0 -296 56.5 t-238 153.5t-156.5 232.5t-57.5 289.5z" />
<glyph unicode="D" horiz-adv-x="1468" d="M127 0v1413h559q204 0 370 -92t260.5 -253.5t94.5 -360.5t-94.5 -361t-260.5 -254t-370 -92h-559zM479 332h199q159 0 265 107.5t106 267.5t-106 267t-265 107h-199v-749z" />
<glyph unicode="E" horiz-adv-x="1179" d="M127 0v1413h967v-332h-615v-204h549v-332h-549v-213h625v-332h-977z" />
<glyph unicode="F" horiz-adv-x="1114" d="M127 0v1413h936v-332h-584v-221h506v-332h-506v-528h-352z" />
<glyph unicode="G" horiz-adv-x="1566" d="M59 707q0 205 97.5 372.5t269 263t381.5 95.5q182 0 337 -70t249 -194l-267 -213q-55 66 -136 103.5t-175 37.5q-168 0 -281.5 -113.5t-113.5 -281.5q0 -169 113 -282.5t280 -113.5q115 0 202.5 55t123.5 146h-316v313h695v-123q0 -207 -92 -373.5t-256 -260t-369 -93.5 q-156 0 -294 56.5t-236.5 153.5t-155 232.5t-56.5 289.5z" />
<glyph unicode="H" horiz-adv-x="1464" d="M127 0v1413h352v-536h508v536h352v-1413h-352v545h-508v-545h-352z" />
<glyph unicode="I" horiz-adv-x="604" d="M127 0v1413h352v-1413h-352z" />
<glyph unicode="J" horiz-adv-x="888" d="M49 14v334q97 -33 182 -33q98 0 150.5 45.5t52.5 133.5v919h352v-938q0 -235 -141 -367.5t-377 -132.5q-127 0 -219 39z" />
<glyph unicode="K" horiz-adv-x="1394" d="M127 0v1413h352v-573l475 573h447l-592 -678l623 -735h-457l-391 477l-105 -121v-356h-352z" />
<glyph unicode="L" horiz-adv-x="1081" d="M127 0v1413h352v-1081h563v-332h-915z" />
<glyph unicode="M" horiz-adv-x="1806" d="M127 0v1413h436l342 -659l344 659h430v-1413h-352v848l-323 -625h-201l-324 625v-848h-352z" />
<glyph unicode="N" horiz-adv-x="1488" d="M127 0v1413h352l531 -799v799h352v-1413h-352l-531 797v-797h-352z" />
<glyph unicode="O" horiz-adv-x="1615" d="M59 707q0 205 97.5 372.5t269 263t381.5 95.5q211 0 382.5 -95.5t269 -263t97.5 -372.5t-97.5 -373t-269 -263.5t-382.5 -95.5q-157 0 -296 56.5t-238 153.5t-156.5 232.5t-57.5 289.5zM420 707q0 -167 111.5 -279.5t275.5 -112.5q166 0 277.5 112.5t111.5 279.5 t-111.5 279t-277.5 112q-165 0 -276 -112t-111 -279z" />
<glyph unicode="P" horiz-adv-x="1304" d="M127 0v1413h641q217 0 362.5 -140.5t145.5 -350.5q0 -209 -145.5 -349.5t-362.5 -140.5h-289v-432h-352zM479 764h281q66 0 110.5 45.5t44.5 112.5q0 69 -44.5 114t-110.5 45h-281v-317z" />
<glyph unicode="Q" horiz-adv-x="1615" d="M59 707q0 205 97.5 372.5t269 263t381.5 95.5q211 0 382.5 -95.5t269 -263t97.5 -372.5q0 -155 -57.5 -290t-161.5 -235l131 -186l-264 -184l-143 204q-118 -41 -254 -41q-157 0 -296 56.5t-238 153.5t-156.5 232.5t-57.5 289.5zM420 707q0 -167 111.5 -279.5 t275.5 -112.5q29 0 43 2l-105 148l265 184l118 -168q68 96 68 226q0 167 -111.5 279t-277.5 112q-165 0 -276 -112t-111 -279z" />
<glyph unicode="R" horiz-adv-x="1314" d="M127 0v1413h623q142 0 257.5 -62.5t181.5 -174t66 -248.5q0 -139 -71.5 -248.5t-194.5 -167.5l307 -512h-422l-256 461h-139v-461h-352zM479 768h262q66 0 110 45t44 113q0 66 -44 110.5t-110 44.5h-262v-313z" />
<glyph unicode="S" horiz-adv-x="1241" d="M31 197l180 268q91 -79 207.5 -127.5t222.5 -48.5q88 0 148.5 32t60.5 85q0 19 -8 34t-27 28t-38 22.5t-54.5 20.5t-61 17.5t-73.5 18.5q-500 122 -500 461q0 195 153 312.5t404 117.5q157 0 290.5 -48t217.5 -126l-162 -269q-64 58 -159 93.5t-191 35.5q-84 0 -137 -29 t-53 -75q0 -49 62.5 -81t172.5 -58q37 -8 68.5 -16.5t88 -28t102 -42.5t97.5 -60t86.5 -80t58 -104t23.5 -130q0 -130 -75 -232.5t-204 -157.5t-288 -55q-165 0 -331 61t-281 161z" />
<glyph unicode="T" horiz-adv-x="1204" d="M47 1081v332h1108v-332h-377v-1081h-352v1081h-379z" />
<glyph unicode="U" horiz-adv-x="1394" d="M104 551v862h351v-856q0 -104 69 -173t172 -69q104 0 173 69t69 173v856h352v-862q0 -162 -77.5 -294t-213.5 -207t-303 -75q-166 0 -301.5 75t-213 207t-77.5 294z" />
<glyph unicode="V" horiz-adv-x="1460" d="M4 1413h393l338 -938l336 938h385l-545 -1413h-360z" />
<glyph unicode="W" horiz-adv-x="2050" d="M14 1413h373l246 -921l244 921h307l246 -917l243 917h363l-432 -1413h-353l-225 858l-227 -858h-350z" />
<glyph unicode="X" horiz-adv-x="1480" d="M8 0l492 711l-484 702h435l292 -452l291 452h430l-483 -702l492 -711h-435l-301 459l-299 -459h-430z" />
<glyph unicode="Y" horiz-adv-x="1382" d="M-16 1413h401l311 -571l310 571h393l-533 -938v-475h-352v475z" />
<glyph unicode="Z" horiz-adv-x="1257" d="M66 0v252l626 829h-618v332h1104v-252l-627 -829h641v-332h-1126z" />
<glyph unicode="[" horiz-adv-x="743" d="M145 -389v1925h557v-313h-213v-1299h213v-313h-557z" />
<glyph unicode="\" horiz-adv-x="1118" d="M-16 1536h333l820 -1843h-334z" />
<glyph unicode="]" horiz-adv-x="743" d="M39 -76h215v1299h-215v313h557v-1925h-557v313z" />
<glyph unicode="^" horiz-adv-x="903" d="M37 881l264 532h303l264 -532h-299l-116 258l-119 -258h-297z" />
<glyph unicode="_" horiz-adv-x="980" d="M20 -98h941v-281h-941v281z" />
<glyph unicode="`" horiz-adv-x="616" d="M0 1456h414l202 -313h-346z" />
<glyph unicode="a" d="M55 522q0 153 65 278.5t180 197t255 71.5q170 0 291 -111v86h332v-1044h-332v86q-121 -111 -291 -111q-140 0 -255 71.5t-180 197t-65 278.5zM397 522q0 -97 63.5 -161t160.5 -64t161 64t64 161t-64 161.5t-161 64.5t-160.5 -64.5t-63.5 -161.5z" />
<glyph unicode="b" d="M111 0v1475h331v-517q121 111 291 111q140 0 255 -71.5t180 -197t65 -278.5t-65 -278.5t-180 -197t-255 -71.5q-170 0 -291 111v-86h-331zM442 522q0 -97 64.5 -161t161.5 -64t160 64t63 161t-63.5 161.5t-159.5 64.5q-97 0 -161.5 -64.5t-64.5 -161.5z" />
<glyph unicode="c" horiz-adv-x="1118" d="M51 522q0 154 73 279t202.5 196.5t289.5 71.5q155 0 283 -69t201 -189l-289 -176q-28 52 -80 82.5t-115 30.5q-97 0 -161 -64.5t-64 -161.5t64 -161t161 -64q63 0 115 30.5t80 82.5l289 -177q-73 -120 -201 -189t-283 -69q-160 0 -289.5 71.5t-202.5 196.5t-73 279z" />
<glyph unicode="d" d="M55 522q0 153 65 278.5t180 197t255 71.5q170 0 291 -111v517h332v-1475h-332v86q-121 -111 -291 -111q-140 0 -255 71.5t-180 197t-65 278.5zM397 522q0 -97 63.5 -161t160.5 -64t161 64t64 161t-64 161.5t-161 64.5t-160.5 -64.5t-63.5 -161.5z" />
<glyph unicode="e" horiz-adv-x="1208" d="M51 528q0 151 72.5 275t200.5 195t284 71q117 0 219.5 -42t175.5 -114.5t115.5 -175.5t42.5 -221q0 -58 -8 -94h-745q26 -76 88.5 -119t148.5 -43q73 0 136.5 30t101.5 72l219 -190q-85 -93 -206 -145t-261 -52q-250 0 -417 158.5t-167 394.5zM406 627h401 q-22 73 -76 116t-125 43q-70 0 -123.5 -42.5t-76.5 -116.5z" />
<glyph unicode="f" horiz-adv-x="794" d="M47 741v303h148v60q0 181 96 288t289 107q117 0 204 -47v-291q-59 35 -129 35q-64 0 -96.5 -30t-32.5 -85v-37h234v-303h-234v-741h-331v741h-148z" />
<glyph unicode="g" horiz-adv-x="1157" d="M55 2q0 85 40.5 161.5t107.5 117.5q-137 134 -137 325q0 198 143 330.5t358 132.5q111 0 209 -39q25 87 102 138t185 51h90v-308h-74q-32 0 -56.5 -14t-33.5 -37q78 -115 78 -254q0 -130 -65.5 -236.5t-180 -166.5t-254.5 -60q-56 0 -133 15q-47 -24 -47 -72 q0 -29 22.5 -47.5t59.5 -18.5h307q162 0 272 -86t142 -241l-342 -94q-6 46 -43 74t-92 28h-310q-157 0 -252.5 83t-95.5 218zM408 606q0 -65 45 -107t114 -42q68 0 113 42.5t45 106.5t-45 107t-113 43q-69 0 -114 -42.5t-45 -107.5z" />
<glyph unicode="h" horiz-adv-x="1228" d="M111 0v1475h331v-529q120 123 301 123q177 0 285.5 -107t108.5 -284v-678h-332v567q0 82 -47 131.5t-125 49.5q-86 0 -138.5 -51t-52.5 -134v-563h-331z" />
<glyph unicode="i" horiz-adv-x="555" d="M74 1358q0 88 58 145.5t144 57.5q88 0 145.5 -57.5t57.5 -145.5q0 -86 -57.5 -143.5t-145.5 -57.5q-86 0 -144 57.5t-58 143.5zM111 0v1044h331v-1044h-331z" />
<glyph unicode="j" horiz-adv-x="563" d="M-61 -92q49 -19 88 -19q94 0 94 88v1067h332v-1105q0 -160 -91 -256.5t-272 -96.5q-84 0 -151 25v297zM84 1358q0 88 57.5 145.5t145.5 57.5q87 0 144.5 -57.5t57.5 -145.5q0 -86 -58 -143.5t-144 -57.5q-88 0 -145.5 57.5t-57.5 143.5z" />
<glyph unicode="k" horiz-adv-x="1157" d="M111 0v1475h331v-781l303 350h429l-437 -475l451 -569h-434l-250 315l-62 -69v-246h-331z" />
<glyph unicode="l" horiz-adv-x="555" d="M111 0v1475h331v-1475h-331z" />
<glyph unicode="m" horiz-adv-x="1855" d="M111 0v1044h331v-88q116 113 285 113q207 0 311 -151q130 151 340 151q176 0 280.5 -105t104.5 -280v-684h-331v584q0 74 -43 119t-115 45q-75 0 -122.5 -46.5t-47.5 -121.5v-580h-332v584q0 74 -43 119t-115 45q-75 0 -123.5 -46.5t-48.5 -121.5v-580h-331z" />
<glyph unicode="n" horiz-adv-x="1228" d="M111 0v1044h331v-92q120 117 301 117q177 0 285.5 -107t108.5 -284v-678h-332v567q0 82 -47.5 131.5t-126.5 49.5q-85 0 -137 -51t-52 -134v-563h-331z" />
<glyph unicode="o" horiz-adv-x="1230" d="M51 522q0 154 73 279t202.5 196.5t289.5 71.5q241 0 403.5 -157t162.5 -390t-162.5 -390t-403.5 -157q-160 0 -289.5 71.5t-202.5 196.5t-73 279zM391 522q0 -97 64 -161t161 -64q96 0 160 64.5t64 160.5q0 97 -64.5 161.5t-159.5 64.5q-97 0 -161 -64.5t-64 -161.5z" />
<glyph unicode="p" d="M111 -389v1433h331v-86q121 111 291 111q140 0 255 -71.5t180 -197t65 -278.5t-65 -278.5t-180 -197t-255 -71.5q-170 0 -291 111v-475h-331zM442 522q0 -97 64.5 -161t161.5 -64t160 64t63 161t-63.5 161.5t-159.5 64.5q-97 0 -161.5 -64.5t-64.5 -161.5z" />
<glyph unicode="q" d="M55 522q0 153 65 278.5t180 197t255 71.5q170 0 291 -111v86h332v-1433h-332v475q-121 -111 -291 -111q-140 0 -255 71.5t-180 197t-65 278.5zM397 522q0 -97 63.5 -161t160.5 -64t161 64t64 161t-64 161.5t-161 64.5t-160.5 -64.5t-63.5 -161.5z" />
<glyph unicode="r" horiz-adv-x="776" d="M111 0v1044h331v-104q109 121 263 121h49v-342h-49q-126 0 -194.5 -65t-68.5 -177v-477h-331z" />
<glyph unicode="s" horiz-adv-x="985" d="M31 131l147 209q145 -109 297 -109q66 0 106 18.5t40 51.5q0 34 -41.5 52t-128.5 36q-46 10 -73.5 16.5t-73.5 21.5t-74.5 30.5t-64 41.5t-55 56.5t-33.5 74t-14 95.5q0 112 61 191t160 116t224 37q231 0 424 -135l-148 -209q-141 88 -264 88q-56 0 -91.5 -15t-35.5 -46 q0 -33 40 -50.5t128 -35.5q43 -8 73 -15t74 -21t74.5 -30t64.5 -41.5t55 -56.5t34.5 -74.5t13.5 -95.5q0 -169 -130.5 -263t-334.5 -94q-251 0 -454 156z" />
<glyph unicode="t" horiz-adv-x="849" d="M47 741v303h150v252h331v-252h256v-303h-256v-329q0 -115 123 -115q61 0 133 35v-309q-89 -48 -204 -48q-193 0 -288 103t-95 278v385h-150z" />
<glyph unicode="u" horiz-adv-x="1181" d="M92 418v626h332v-579q0 -76 46.5 -122t121.5 -46t121.5 46t46.5 122v579h332v-626q0 -200 -137 -321.5t-363 -121.5t-363 121.5t-137 321.5z" />
<glyph unicode="v" horiz-adv-x="1163" d="M-4 1044h379l211 -614l211 614h370l-415 -1044h-340z" />
<glyph unicode="w" horiz-adv-x="1751" d="M2 1044h371l168 -606l172 606h336l172 -604l168 604h362l-362 -1044h-340l-172 629l-175 -629h-340z" />
<glyph unicode="x" horiz-adv-x="1159" d="M0 0l356 524l-350 520h402l174 -280l172 280h399l-352 -520l358 -524h-403l-181 287l-178 -287h-397z" />
<glyph unicode="y" horiz-adv-x="1163" d="M-4 1044h379l211 -612l211 612h370l-481 -1200q-46 -119 -141.5 -188.5t-212.5 -69.5q-75 0 -158 30t-143 79l127 260q53 -47 118 -47q75 0 107 72l18 43z" />
<glyph unicode="z" horiz-adv-x="1013" d="M68 0v242l397 481h-389v321h856v-241l-397 -481h411v-322h-878z" />
<glyph unicode="{" horiz-adv-x="886" d="M104 418v313h80q51 0 81 32t30 83v377q0 141 86.5 227t226.5 86h240v-313h-109q-45 0 -72.5 -29.5t-27.5 -75.5v-360q0 -61 -34.5 -109.5t-94.5 -73.5q61 -26 95 -74.5t34 -109.5v-362q0 -46 27.5 -75.5t72.5 -29.5h109v-313h-240q-140 0 -226.5 86t-86.5 227v379 q0 53 -30 84t-81 31h-80z" />
<glyph unicode="|" horiz-adv-x="636" d="M168 -389v1925h301v-1925h-301z" />
<glyph unicode="}" horiz-adv-x="886" d="M39 -76h108q46 0 74.5 29.5t28.5 75.5v362q0 61 34 109t93 75q-59 25 -93 73.5t-34 109.5v360q0 46 -28.5 75.5t-74.5 29.5h-108v313h242q140 0 225.5 -86t85.5 -227v-377q0 -52 30 -83.5t80 -31.5h80v-313h-80q-51 0 -80.5 -31t-29.5 -84v-379q0 -141 -85.5 -227 t-225.5 -86h-242v313z" />
<glyph unicode="~" horiz-adv-x="1226" d="M111 414q0 89 17.5 160t54.5 127t100.5 86t150.5 30q66 0 127 -20t105.5 -40t70.5 -20q34 0 55 21t21 53h303q0 -89 -17.5 -160t-54.5 -127t-100.5 -86t-150.5 -30q-66 0 -127 20t-106 39.5t-71 19.5q-34 0 -54.5 -20.5t-20.5 -52.5h-303z" />
<glyph unicode="&#xa1;" horiz-adv-x="585" d="M76 850q0 93 62 155t155 62q94 0 156.5 -62.5t62.5 -154.5t-62.5 -153.5t-156.5 -61.5t-155.5 61.5t-61.5 153.5zM119 -20l20 575h310l20 -575v-349h-350v349z" />
<glyph unicode="&#xa2;" horiz-adv-x="1189" d="M80 705q0 210 133.5 360.5t341.5 179.5v168h182v-168q126 -20 228.5 -86t162.5 -166l-282 -166q-40 69 -109 95v-435q66 25 111 97l282 -168q-62 -101 -164 -167.5t-229 -84.5v-164h-182v164q-208 29 -341.5 180t-133.5 361zM412 705q0 -75 39 -134.5t104 -85.5v439 q-65 -26 -104 -85.5t-39 -133.5z" />
<glyph unicode="&#xa3;" horiz-adv-x="1204" d="M96 0v332h99v203h-99v303h99v112q0 209 148.5 348.5t371.5 139.5q124 0 236.5 -45t197.5 -123l-180 -258q-53 39 -120.5 62.5t-129.5 23.5q-77 0 -124.5 -41.5t-47.5 -106.5v-112h360v-303h-360v-203h602v-332h-1053z" />
<glyph unicode="&#xa4;" horiz-adv-x="1138" d="M68 414l127 125q-39 80 -39 170q0 92 39 172l-127 125l202 200l140 -135q79 29 161 29q83 0 162 -29l137 135l201 -202l-123 -123q39 -80 39 -172t-39 -172l123 -123l-201 -203l-137 137q-79 -29 -162 -29q-82 0 -161 29l-138 -137zM436 709q0 -59 38.5 -97.5t96.5 -38.5 q57 0 96.5 39t39.5 97q0 59 -39 98t-97 39t-96.5 -39t-38.5 -98z" />
<glyph unicode="&#xa5;" horiz-adv-x="1339" d="M8 1413h393l273 -569l272 569h385l-407 -788h151v-179h-229v-79h229v-179h-229v-188h-352v188h-228v179h228v79h-228v179h150z" />
<glyph unicode="&#xa6;" horiz-adv-x="636" d="M168 -389v840h301v-840h-301zM168 696v840h301v-840h-301z" />
<glyph unicode="&#xa7;" horiz-adv-x="1087" d="M100 598q0 158 119 256q-106 92 -106 233q0 163 126 257t316 94q115 0 225 -33.5t178 -91.5l-124 -203q-39 33 -108 55.5t-138 22.5q-67 0 -107.5 -23.5t-40.5 -60.5q0 -77 199 -119q57 -13 103.5 -29t95.5 -43.5t82 -62.5t54 -87t21 -116q0 -162 -121 -256 q109 -88 109 -231q0 -112 -61 -194t-160.5 -121.5t-222.5 -39.5q-126 0 -241.5 40.5t-188.5 107.5l131 203q39 -42 111 -71.5t153 -29.5q70 0 110.5 23.5t40.5 62.5q0 24 -17.5 44t-50.5 34t-60.5 23t-67.5 18q-58 13 -103 28t-95.5 42.5t-83.5 61.5t-55 87.5t-22 118.5z M426 633q0 -79 131 -109q49 4 80 29t31 59q0 80 -131 109q-50 -5 -80.5 -29t-30.5 -59z" />
<glyph unicode="&#xa8;" horiz-adv-x="819" d="M0 1311q0 77 52 128.5t130 51.5q76 0 128 -51.5t52 -128.5t-52 -129t-128 -52q-78 0 -130 52t-52 129zM455 1311q0 76 52.5 128t129.5 52t129.5 -52t52.5 -128t-52.5 -128.5t-129.5 -52.5t-129.5 52.5t-52.5 128.5z" />
<glyph unicode="&#xa9;" horiz-adv-x="1622" d="M80 707q0 205 95.5 372.5t263 263t372.5 95.5t372.5 -95.5t263 -263t95.5 -372.5t-95.5 -373t-263 -263.5t-372.5 -95.5t-372.5 95.5t-263 263.5t-95.5 373zM307 707q0 -218 145 -365t359 -147t358 147t144 365t-144 365t-358 147t-359 -147t-145 -365zM451 707 q0 157 106 262.5t264 105.5q106 0 193 -50.5t133 -137.5l-232 -117q-27 53 -94 53q-49 0 -80.5 -34t-31.5 -82t31.5 -82.5t80.5 -34.5q64 0 94 53l232 -117q-46 -87 -133 -137.5t-193 -50.5q-158 0 -264 106t-106 263z" />
<glyph unicode="&#xaa;" horiz-adv-x="737" d="M37 1137q0 126 75.5 210.5t186.5 84.5q74 0 139 -58v43h242v-561h-242v43q-64 -57 -139 -57q-111 0 -186.5 84.5t-75.5 210.5zM281 1137q0 -35 22.5 -58.5t56.5 -23.5q33 0 55.5 23.5t22.5 58.5t-22.5 58.5t-55.5 23.5q-34 0 -56.5 -23.5t-22.5 -58.5z" />
<glyph unicode="&#xab;" horiz-adv-x="1347" d="M49 541l293 420h387l-293 -420l293 -420h-387zM629 541l291 420h387l-293 -420l293 -420h-387z" />
<glyph unicode="&#xac;" horiz-adv-x="1093" d="M111 455v299h872v-586h-303v287h-569z" />
<glyph unicode="&#xad;" horiz-adv-x="835" d="M111 401v320h614v-320h-614z" />
<glyph unicode="&#xae;" horiz-adv-x="835" d="M37 1055q0 164 109.5 273.5t273.5 109.5q163 0 271 -109.5t108 -273.5q0 -163 -108 -272t-271 -109q-164 0 -273.5 109t-109.5 272zM156 1055q0 -114 75 -190.5t189 -76.5q110 0 185 76.5t75 190.5t-75 191t-185 77q-114 0 -189 -77t-75 -191zM291 883v374h149 q58 0 96.5 -38.5t38.5 -96.5q0 -70 -55 -108l66 -131h-123l-47 108h-15v-108h-110zM401 1087h31q15 0 25 10.5t10 24.5q0 15 -10 26t-25 11h-31v-72z" />
<glyph unicode="&#xaf;" horiz-adv-x="579" d="M0 1159v277h580v-277h-580z" />
<glyph unicode="&#xb0;" horiz-adv-x="790" d="M47 1098q0 145 99.5 242.5t248.5 97.5t248.5 -97.5t99.5 -242.5q0 -148 -99.5 -246t-248.5 -98t-248.5 98t-99.5 246zM311 1098q0 -37 23.5 -61.5t60.5 -24.5t60.5 24.5t23.5 61.5q0 36 -24 60t-60 24t-60 -24t-24 -60z" />
<glyph unicode="&#xb1;" horiz-adv-x="1093" d="M111 23v299h872v-299h-872zM111 631v299h284v219h303v-219h285v-299h-285v-221h-303v221h-284z" />
<glyph unicode="&#xb2;" horiz-adv-x="665" d="M10 1460q48 69 130 110.5t177 41.5q132 0 213.5 -77.5t81.5 -197.5q0 -128 -104 -237l-123 -125h236v-225h-574v196l250 260q72 78 72 117q0 23 -19.5 36t-48.5 13q-62 0 -129 -67z" />
<glyph unicode="&#xb3;" horiz-adv-x="706" d="M8 852l137 178q31 -29 78.5 -47t93.5 -18t74.5 16.5t28.5 42.5q0 27 -28.5 44t-72.5 17h-114v205h114q39 0 63 11.5t24 31.5q0 21 -29.5 35t-71.5 14q-78 0 -141 -39l-125 175q51 43 132 68.5t163 25.5q141 0 229 -67.5t88 -174.5q0 -55 -27 -102t-75 -78 q56 -33 87.5 -85t31.5 -116q0 -113 -93.5 -183.5t-240.5 -70.5q-92 0 -181 31t-145 86z" />
<glyph unicode="&#xb4;" horiz-adv-x="616" d="M0 1143l203 313h413l-268 -313h-348z" />
<glyph unicode="&#xb6;" horiz-adv-x="1366" d="M51 977q0 186 125 311t311 125h756v-1802h-285v1522h-122v-1522h-283v930h-66q-186 0 -311 125t-125 311z" />
<glyph unicode="&#xb7;" horiz-adv-x="673" d="M111 561q0 95 65 159t160 64q97 0 161 -64t64 -159t-64 -159t-161 -64q-95 0 -160 64t-65 159z" />
<glyph unicode="&#xb8;" horiz-adv-x="524" d="M0 -420l111 137q69 -65 137 -65q35 0 57.5 18.5t22.5 46.5t-20 46t-50 18q-37 0 -55 -25l-185 82l134 162v4h229v-4l-49 -55q83 -11 137.5 -75t54.5 -153q0 -104 -76.5 -173.5t-193.5 -69.5q-148 0 -254 106z" />
<glyph unicode="&#xb9;" horiz-adv-x="526" d="M4 1446l270 151h172v-847h-241v561l-96 -58z" />
<glyph unicode="&#xba;" horiz-adv-x="720" d="M37 1137q0 126 93 210.5t230 84.5t230.5 -84.5t93.5 -210.5t-93.5 -210.5t-230.5 -84.5t-230 84.5t-93 210.5zM281 1137q0 -35 23 -58.5t56 -23.5t56.5 23.5t23.5 58.5q0 34 -24 58t-56 24q-33 0 -56 -23.5t-23 -58.5z" />
<glyph unicode="&#xbb;" horiz-adv-x="1347" d="M53 121l293 420l-293 420h387l293 -420l-293 -420h-387zM631 121l295 420l-295 420h387l293 -420l-293 -420h-387z" />
<glyph unicode="&#xbc;" horiz-adv-x="1693" d="M4 1262l270 151h172v-848h-241v561l-96 -57zM213 0l954 1413h301l-954 -1413h-301zM956 328l344 520h267v-490h67v-225h-67v-133h-240v133h-313zM1196 358h131v209z" />
<glyph unicode="&#xbd;" horiz-adv-x="1728" d="M4 1262l270 151h172v-848h-241v561l-96 -57zM213 0l954 1413h301l-954 -1413h-301zM1073 711q48 69 130 110t177 41q132 0 213.5 -77t81.5 -197q0 -129 -104 -238l-123 -125h235v-225h-573v197l250 260q72 78 72 116q0 23 -19.5 36.5t-48.5 13.5q-61 0 -129 -68z" />
<glyph unicode="&#xbe;" horiz-adv-x="1794" d="M8 668l137 178q31 -29 78.5 -47.5t93.5 -18.5t74.5 17t28.5 43q0 27 -28.5 44t-72.5 17h-114v205h114q39 0 63 11.5t24 31.5q0 21 -29.5 35t-71.5 14q-78 0 -141 -39l-125 174q51 43 132 68.5t163 25.5q141 0 229 -67t88 -174q0 -55 -27 -102t-75 -78q56 -33 87.5 -85 t31.5 -116q0 -113 -93.5 -183.5t-240.5 -70.5q-92 0 -181 31t-145 86zM311 0l955 1413h301l-955 -1413h-301zM1055 328l344 520h266v-490h68v-225h-68v-133h-240v133h-313zM1294 358h131v209z" />
<glyph unicode="&#xbf;" horiz-adv-x="964" d="M31 12q0 66 23 125t57.5 100.5t75 82t75 70t57.5 63t23 63.5v37h350v-37q0 -67 -31 -127.5t-75 -105t-88.5 -84.5t-75.5 -80t-31 -76q0 -43 34 -69.5t95 -26.5q148 0 271 141l225 -233q-101 -118 -233.5 -183t-280.5 -65q-202 0 -336.5 118t-134.5 287zM299 850 q0 93 62 155t155 62q94 0 156.5 -62.5t62.5 -154.5t-62.5 -153.5t-156.5 -61.5t-155.5 61.5t-61.5 153.5z" />
<glyph unicode="&#xc0;" horiz-adv-x="1472" d="M8 0l520 1413h416l520 -1413h-385l-75 223h-541l-76 -223h-379zM307 1825h414l203 -314h-346zM571 547h324l-162 477z" />
<glyph unicode="&#xc1;" horiz-adv-x="1472" d="M8 0l520 1413h416l520 -1413h-385l-75 223h-541l-76 -223h-379zM547 1511l203 314h413l-268 -314h-348zM571 547h324l-162 477z" />
<glyph unicode="&#xc2;" horiz-adv-x="1472" d="M8 0l520 1413h416l520 -1413h-385l-75 223h-541l-76 -223h-379zM334 1511l201 314h399l203 -314h-312l-90 136l-90 -136h-311zM571 547h324l-162 477z" />
<glyph unicode="&#xc3;" horiz-adv-x="1472" d="M8 0l520 1413h416l520 -1413h-385l-75 223h-541l-76 -223h-379zM352 1526q0 144 65 234.5t187 90.5q38 0 73 -10.5t56.5 -23t45.5 -23t42 -10.5q27 0 45.5 18t18.5 45h231q0 -144 -64.5 -233.5t-187.5 -89.5q-49 0 -91.5 16.5t-74.5 32.5t-53 16q-27 0 -44 -18t-17 -45 h-232zM571 547h324l-162 477z" />
<glyph unicode="&#xc4;" horiz-adv-x="1472" d="M8 0l520 1413h416l520 -1413h-385l-75 223h-541l-76 -223h-379zM326 1679q0 77 52 129t130 52q76 0 128 -52t52 -129t-52 -128.5t-128 -51.5q-78 0 -130 51.5t-52 128.5zM571 547h324l-162 477zM780 1679q0 76 53 128.5t130 52.5t129.5 -52.5t52.5 -128.5t-52.5 -128 t-129.5 -52t-130 52t-53 128z" />
<glyph unicode="&#xc5;" horiz-adv-x="1472" d="M8 0l520 1413h416l520 -1413h-385l-75 223h-541l-76 -223h-379zM504 1716q0 96 67 161t166 65q98 0 165 -65.5t67 -160.5q0 -96 -66.5 -160.5t-165.5 -64.5q-100 0 -166.5 64t-66.5 161zM571 547h324l-162 477zM676 1716q0 -28 17.5 -45.5t43.5 -17.5q27 0 44.5 17.5 t17.5 45.5t-18 46t-44 18t-43.5 -18t-17.5 -46z" />
<glyph unicode="&#xc6;" horiz-adv-x="1869" d="M-76 0l799 1413h1061v-332h-533v-204h467v-332h-467v-213h543v-332h-895v215h-455l-120 -215h-400zM627 541h272v487z" />
<glyph unicode="&#xc7;" horiz-adv-x="1466" d="M59 707q0 205 97.5 372.5t269 263t381.5 95.5q198 0 362.5 -85t264.5 -233l-304 -188q-53 78 -137.5 122t-185.5 44q-165 0 -276 -112t-111 -279t111.5 -279.5t275.5 -112.5q101 0 185.5 44t137.5 122l304 -188q-84 -125 -215.5 -205.5t-292.5 -103.5l-37 -41 q83 -11 137.5 -75t54.5 -153q0 -104 -76.5 -173.5t-193.5 -69.5q-148 0 -254 106l111 137q69 -65 137 -65q35 0 57.5 18.5t22.5 46.5t-20 46t-50 18q-37 0 -55 -25l-185 82l121 148q-279 37 -458 238.5t-179 484.5z" />
<glyph unicode="&#xc8;" horiz-adv-x="1179" d="M127 0v1413h967v-332h-615v-204h549v-332h-549v-213h625v-332h-977zM186 1825h414l203 -314h-346z" />
<glyph unicode="&#xc9;" horiz-adv-x="1179" d="M127 0v1413h967v-332h-615v-204h549v-332h-549v-213h625v-332h-977zM428 1511l203 314h413l-268 -314h-348z" />
<glyph unicode="&#xca;" horiz-adv-x="1179" d="M127 0v1413h967v-332h-615v-204h549v-332h-549v-213h625v-332h-977zM215 1511l201 314h399l203 -314h-311l-91 136l-90 -136h-311z" />
<glyph unicode="&#xcb;" horiz-adv-x="1179" d="M127 0v1413h967v-332h-615v-204h549v-332h-549v-213h625v-332h-977zM207 1679q0 77 52 129t130 52q76 0 128 -52t52 -129t-51.5 -128.5t-128.5 -51.5q-78 0 -130 51.5t-52 128.5zM662 1679q0 76 52.5 128.5t129.5 52.5t129.5 -52.5t52.5 -128.5t-52.5 -128t-129.5 -52 t-129.5 52t-52.5 128z" />
<glyph unicode="&#xcc;" horiz-adv-x="604" d="M-125 1825h414l203 -314h-347zM127 0v1413h352v-1413h-352z" />
<glyph unicode="&#xcd;" horiz-adv-x="604" d="M115 1511l202 314h414l-268 -314h-348zM127 0v1413h352v-1413h-352z" />
<glyph unicode="&#xce;" horiz-adv-x="604" d="M-98 1511l200 314h400l203 -314h-312l-90 136l-90 -136h-311zM127 0v1413h352v-1413h-352z" />
<glyph unicode="&#xcf;" horiz-adv-x="604" d="M-106 1679q0 77 52 129t130 52q76 0 128 -52t52 -129t-52 -128.5t-128 -51.5q-78 0 -130 51.5t-52 128.5zM127 0v1413h352v-1413h-352zM348 1679q0 76 52.5 128.5t129.5 52.5t130 -52.5t53 -128.5t-53 -128t-130 -52t-129.5 52t-52.5 128z" />
<glyph unicode="&#xd0;" horiz-adv-x="1468" d="M4 588v237h123v588h559q204 0 370 -92t260.5 -253.5t94.5 -360.5t-94.5 -361t-260.5 -254t-370 -92h-559v588h-123zM479 332h199q159 0 265 107.5t106 267.5t-106 267t-265 107h-199v-256h174v-237h-174v-256z" />
<glyph unicode="&#xd1;" horiz-adv-x="1488" d="M127 0v1413h352l531 -799v799h352v-1413h-352l-531 797v-797h-352zM371 1526q0 144 65 234.5t187 90.5q38 0 73 -10.5t56.5 -23t45.5 -23t42 -10.5q27 0 45 18t18 45h232q0 -144 -64.5 -233.5t-187.5 -89.5q-49 0 -91.5 16.5t-74.5 32.5t-53 16q-27 0 -44.5 -18 t-17.5 -45h-231z" />
<glyph unicode="&#xd2;" horiz-adv-x="1615" d="M59 707q0 205 97.5 372.5t269 263t381.5 95.5q211 0 382.5 -95.5t269 -263t97.5 -372.5t-97.5 -373t-269 -263.5t-382.5 -95.5q-157 0 -296 56.5t-238 153.5t-156.5 232.5t-57.5 289.5zM379 1825h414l202 -314h-346zM420 707q0 -167 111.5 -279.5t275.5 -112.5 q166 0 277.5 112.5t111.5 279.5t-111.5 279t-277.5 112q-165 0 -276 -112t-111 -279z" />
<glyph unicode="&#xd3;" horiz-adv-x="1615" d="M59 707q0 205 97.5 372.5t269 263t381.5 95.5q211 0 382.5 -95.5t269 -263t97.5 -372.5t-97.5 -373t-269 -263.5t-382.5 -95.5q-157 0 -296 56.5t-238 153.5t-156.5 232.5t-57.5 289.5zM420 707q0 -167 111.5 -279.5t275.5 -112.5q166 0 277.5 112.5t111.5 279.5 t-111.5 279t-277.5 112q-165 0 -276 -112t-111 -279zM621 1511l202 314h414l-268 -314h-348z" />
<glyph unicode="&#xd4;" horiz-adv-x="1615" d="M59 707q0 205 97.5 372.5t269 263t381.5 95.5q211 0 382.5 -95.5t269 -263t97.5 -372.5t-97.5 -373t-269 -263.5t-382.5 -95.5q-157 0 -296 56.5t-238 153.5t-156.5 232.5t-57.5 289.5zM408 1511l200 314h400l202 -314h-311l-90 136l-90 -136h-311zM420 707 q0 -167 111.5 -279.5t275.5 -112.5q166 0 277.5 112.5t111.5 279.5t-111.5 279t-277.5 112q-165 0 -276 -112t-111 -279z" />
<glyph unicode="&#xd5;" horiz-adv-x="1615" d="M59 707q0 205 97.5 372.5t269 263t381.5 95.5q211 0 382.5 -95.5t269 -263t97.5 -372.5t-97.5 -373t-269 -263.5t-382.5 -95.5q-157 0 -296 56.5t-238 153.5t-156.5 232.5t-57.5 289.5zM420 707q0 -167 111.5 -279.5t275.5 -112.5q166 0 277.5 112.5t111.5 279.5 t-111.5 279t-277.5 112q-165 0 -276 -112t-111 -279zM426 1526q0 144 65 234.5t187 90.5q38 0 73 -10.5t56.5 -23t45.5 -23t42 -10.5q27 0 45 18t18 45h232q0 -144 -64.5 -233.5t-187.5 -89.5q-49 0 -91.5 16.5t-74.5 32.5t-53 16q-27 0 -44.5 -18t-17.5 -45h-231z" />
<glyph unicode="&#xd6;" horiz-adv-x="1615" d="M59 707q0 205 97.5 372.5t269 263t381.5 95.5q211 0 382.5 -95.5t269 -263t97.5 -372.5t-97.5 -373t-269 -263.5t-382.5 -95.5q-157 0 -296 56.5t-238 153.5t-156.5 232.5t-57.5 289.5zM399 1679q0 77 52.5 129t130.5 52q76 0 128 -52t52 -129t-52 -128.5t-128 -51.5 q-78 0 -130.5 51.5t-52.5 128.5zM420 707q0 -167 111.5 -279.5t275.5 -112.5q166 0 277.5 112.5t111.5 279.5t-111.5 279t-277.5 112q-165 0 -276 -112t-111 -279zM854 1679q0 76 52.5 128.5t129.5 52.5t130 -52.5t53 -128.5t-53 -128t-130 -52t-129.5 52t-52.5 128z" />
<glyph unicode="&#xd7;" horiz-adv-x="1056" d="M111 406l198 198l-198 199l217 219l200 -199l199 199l217 -219l-199 -199l199 -198l-217 -220l-199 201l-200 -201z" />
<glyph unicode="&#xd8;" horiz-adv-x="1615" d="M59 707q0 205 97.5 372.5t269 263t381.5 95.5t391 -101l66 76h288l-182 -215q186 -202 186 -491q0 -205 -97.5 -373t-269 -263.5t-382.5 -95.5q-215 0 -391 103l-66 -78h-287l183 215q-89 97 -138 223t-49 269zM420 707q0 -120 61 -215l488 573q-81 33 -162 33 q-165 0 -276 -112t-111 -279zM647 348q78 -33 160 -33q166 0 277.5 112.5t111.5 279.5q0 123 -61 215z" />
<glyph unicode="&#xd9;" horiz-adv-x="1394" d="M104 551v862h351v-856q0 -104 69 -173t172 -69q104 0 173 69t69 173v856h352v-862q0 -162 -77.5 -294t-213.5 -207t-303 -75q-166 0 -301.5 75t-213 207t-77.5 294zM268 1825h414l203 -314h-346z" />
<glyph unicode="&#xda;" horiz-adv-x="1394" d="M104 551v862h351v-856q0 -104 69 -173t172 -69q104 0 173 69t69 173v856h352v-862q0 -162 -77.5 -294t-213.5 -207t-303 -75q-166 0 -301.5 75t-213 207t-77.5 294zM510 1511l203 314h413l-268 -314h-348z" />
<glyph unicode="&#xdb;" horiz-adv-x="1394" d="M104 551v862h351v-856q0 -104 69 -173t172 -69q104 0 173 69t69 173v856h352v-862q0 -162 -77.5 -294t-213.5 -207t-303 -75q-166 0 -301.5 75t-213 207t-77.5 294zM297 1511l201 314h399l203 -314h-312l-90 136l-90 -136h-311z" />
<glyph unicode="&#xdc;" horiz-adv-x="1394" d="M104 551v862h351v-856q0 -104 69 -173t172 -69q104 0 173 69t69 173v856h352v-862q0 -162 -77.5 -294t-213.5 -207t-303 -75q-166 0 -301.5 75t-213 207t-77.5 294zM289 1679q0 77 52 129t130 52q76 0 128 -52t52 -129t-51.5 -128.5t-128.5 -51.5q-78 0 -130 51.5 t-52 128.5zM743 1679q0 76 53 128.5t130 52.5t129.5 -52.5t52.5 -128.5t-52.5 -128t-129.5 -52t-130 52t-53 128z" />
<glyph unicode="&#xdd;" horiz-adv-x="1382" d="M-16 1413h401l311 -571l310 571h393l-533 -938v-475h-352v475zM504 1511l203 314h413l-268 -314h-348z" />
<glyph unicode="&#xde;" horiz-adv-x="1298" d="M127 0v1413h352v-215h289q217 0 362.5 -140.5t145.5 -350.5t-145.5 -350t-362.5 -140h-289v-217h-352zM479 549h281q66 0 110.5 45.5t44.5 112.5q0 68 -44.5 113.5t-110.5 45.5h-281v-317z" />
<glyph unicode="&#xdf;" horiz-adv-x="1159" d="M104 0v1049q0 193 139 321.5t353 128.5q208 0 349.5 -123t141.5 -301q0 -100 -48.5 -185.5t-131.5 -135.5q99 -41 161 -135.5t62 -217.5q0 -181 -129.5 -303.5t-326.5 -122.5q-81 0 -144 19v319q43 -16 103 -16q73 0 115.5 42.5t42.5 104.5q0 64 -44 107t-106 43h-78v317 h55q53 0 90 38t37 93q0 60 -42 98t-107 38q-68 0 -114 -44.5t-46 -111.5v-1022h-332z" />
<glyph unicode="&#xe0;" d="M55 522q0 153 65 278.5t180 197t255 71.5q170 0 291 -111v86h332v-1044h-332v86q-121 -111 -291 -111q-140 0 -255 71.5t-180 197t-65 278.5zM225 1456h414l203 -313h-346zM397 522q0 -97 63.5 -161t160.5 -64t161 64t64 161t-64 161.5t-161 64.5t-160.5 -64.5 t-63.5 -161.5z" />
<glyph unicode="&#xe1;" d="M55 522q0 153 65 278.5t180 197t255 71.5q170 0 291 -111v86h332v-1044h-332v86q-121 -111 -291 -111q-140 0 -255 71.5t-180 197t-65 278.5zM397 522q0 -97 63.5 -161t160.5 -64t161 64t64 161t-64 161.5t-161 64.5t-160.5 -64.5t-63.5 -161.5zM467 1143l203 313h413 l-268 -313h-348z" />
<glyph unicode="&#xe2;" d="M55 522q0 153 65 278.5t180 197t255 71.5q170 0 291 -111v86h332v-1044h-332v86q-121 -111 -291 -111q-140 0 -255 71.5t-180 197t-65 278.5zM254 1143l201 313h399l203 -313h-312l-90 135l-90 -135h-311zM397 522q0 -97 63.5 -161t160.5 -64t161 64t64 161t-64 161.5 t-161 64.5t-160.5 -64.5t-63.5 -161.5z" />
<glyph unicode="&#xe3;" d="M55 522q0 153 65 278.5t180 197t255 71.5q170 0 291 -111v86h332v-1044h-332v86q-121 -111 -291 -111q-140 0 -255 71.5t-180 197t-65 278.5zM272 1157q0 144 65 235t187 91q48 0 90.5 -17t74 -34t52.5 -17q27 0 45.5 18.5t18.5 45.5h231q0 -145 -64.5 -234.5 t-187.5 -89.5q-49 0 -91.5 16.5t-74.5 33t-53 16.5q-27 0 -44 -18.5t-17 -45.5h-232zM397 522q0 -97 63.5 -161t160.5 -64t161 64t64 161t-64 161.5t-161 64.5t-160.5 -64.5t-63.5 -161.5z" />
<glyph unicode="&#xe4;" d="M55 522q0 153 65 278.5t180 197t255 71.5q170 0 291 -111v86h332v-1044h-332v86q-121 -111 -291 -111q-140 0 -255 71.5t-180 197t-65 278.5zM246 1311q0 77 52 128.5t130 51.5q76 0 128 -51.5t52 -128.5t-52 -129t-128 -52q-78 0 -130 52t-52 129zM397 522 q0 -97 63.5 -161t160.5 -64t161 64t64 161t-64 161.5t-161 64.5t-160.5 -64.5t-63.5 -161.5zM700 1311q0 76 53 128t130 52t129.5 -52t52.5 -128t-52.5 -128.5t-129.5 -52.5t-130 52.5t-53 128.5z" />
<glyph unicode="&#xe5;" d="M55 522q0 153 65 278.5t180 197t255 71.5q170 0 291 -111v86h332v-1044h-332v86q-121 -111 -291 -111q-140 0 -255 71.5t-180 197t-65 278.5zM397 522q0 -97 63.5 -161t160.5 -64t161 64t64 161t-64 161.5t-161 64.5t-160.5 -64.5t-63.5 -161.5zM422 1348q0 96 67 160.5 t166 64.5q98 0 165 -65t67 -160q0 -97 -67 -161.5t-165 -64.5q-100 0 -166.5 64.5t-66.5 161.5zM594 1348q0 -28 17.5 -46t43.5 -18t44 18t18 46t-17.5 45.5t-44.5 17.5q-26 0 -43.5 -17.5t-17.5 -45.5z" />
<glyph unicode="&#xe6;" horiz-adv-x="1826" d="M39 309q0 140 108.5 230t280.5 90h260v18q0 69 -53 110.5t-141 41.5q-119 0 -201 -88l-191 188q66 78 172 124t234 46q226 0 364 -129q148 129 357 129q236 0 393.5 -157.5t157.5 -397.5q0 -56 -8 -92h-744q27 -76 89 -119t147 -43q73 0 135 30t98 72l221 -190 q-85 -93 -205 -145t-260 -52q-230 0 -389 146q-64 -66 -164.5 -106t-228.5 -40q-196 0 -314 95t-118 239zM379 324q0 -45 43 -74t110 -29q117 0 205 74q-28 63 -39 127h-190q-55 0 -92 -28.5t-37 -69.5zM1026 629h399q-23 73 -77 115t-123 42q-70 0 -123 -42t-76 -115z" />
<glyph unicode="&#xe7;" horiz-adv-x="1118" d="M51 522q0 154 73 279t202.5 196.5t289.5 71.5q155 0 283 -69t201 -189l-289 -176q-28 52 -80 82.5t-115 30.5q-97 0 -161 -64.5t-64 -161.5t64 -161t161 -64q63 0 115 30.5t80 82.5l289 -177q-59 -96 -153 -159.5t-212 -85.5l-39 -45q84 -11 138.5 -75t54.5 -153 q0 -104 -76.5 -173.5t-194.5 -69.5q-147 0 -253 106l110 137q69 -65 137 -65q35 0 57.5 18.5t22.5 46.5t-20 46t-49 18q-38 0 -56 -25l-184 82l123 150q-201 35 -328 183.5t-127 352.5z" />
<glyph unicode="&#xe8;" horiz-adv-x="1208" d="M51 528q0 151 72.5 275t200.5 195t284 71q117 0 219.5 -42t175.5 -114.5t115.5 -175.5t42.5 -221q0 -58 -8 -94h-745q26 -76 88.5 -119t148.5 -43q73 0 136.5 30t101.5 72l219 -190q-85 -93 -206 -145t-261 -52q-250 0 -417 158.5t-167 394.5zM186 1456h414l203 -313 h-346zM406 627h401q-22 73 -76 116t-125 43q-70 0 -123.5 -42.5t-76.5 -116.5z" />
<glyph unicode="&#xe9;" horiz-adv-x="1208" d="M51 528q0 151 72.5 275t200.5 195t284 71q117 0 219.5 -42t175.5 -114.5t115.5 -175.5t42.5 -221q0 -58 -8 -94h-745q26 -76 88.5 -119t148.5 -43q73 0 136.5 30t101.5 72l219 -190q-85 -93 -206 -145t-261 -52q-250 0 -417 158.5t-167 394.5zM406 627h401 q-22 73 -76 116t-125 43q-70 0 -123.5 -42.5t-76.5 -116.5zM428 1143l203 313h413l-268 -313h-348z" />
<glyph unicode="&#xea;" horiz-adv-x="1208" d="M51 528q0 151 72.5 275t200.5 195t284 71q117 0 219.5 -42t175.5 -114.5t115.5 -175.5t42.5 -221q0 -58 -8 -94h-745q26 -76 88.5 -119t148.5 -43q73 0 136.5 30t101.5 72l219 -190q-85 -93 -206 -145t-261 -52q-250 0 -417 158.5t-167 394.5zM215 1143l201 313h399 l203 -313h-311l-91 135l-90 -135h-311zM406 627h401q-22 73 -76 116t-125 43q-70 0 -123.5 -42.5t-76.5 -116.5z" />
<glyph unicode="&#xeb;" horiz-adv-x="1208" d="M51 528q0 151 72.5 275t200.5 195t284 71q117 0 219.5 -42t175.5 -114.5t115.5 -175.5t42.5 -221q0 -58 -8 -94h-745q26 -76 88.5 -119t148.5 -43q73 0 136.5 30t101.5 72l219 -190q-85 -93 -206 -145t-261 -52q-250 0 -417 158.5t-167 394.5zM207 1311q0 77 52 128.5 t130 51.5q77 0 128.5 -51.5t51.5 -128.5t-52 -129t-128 -52q-78 0 -130 52t-52 129zM406 627h401q-22 73 -76 116t-125 43q-70 0 -123.5 -42.5t-76.5 -116.5zM662 1311q0 76 52.5 128t129.5 52t129.5 -52t52.5 -128t-52.5 -128.5t-129.5 -52.5t-129.5 52.5t-52.5 128.5z" />
<glyph unicode="&#xec;" horiz-adv-x="555" d="M-152 1456h414l203 -313h-346zM111 0v1044h331v-1044h-331z" />
<glyph unicode="&#xed;" horiz-adv-x="555" d="M90 1143l203 313h414l-269 -313h-348zM111 0v1044h331v-1044h-331z" />
<glyph unicode="&#xee;" horiz-adv-x="555" d="M-123 1143l201 313h399l203 -313h-311l-90 135l-91 -135h-311zM111 0v1044h331v-1044h-331z" />
<glyph unicode="&#xef;" horiz-adv-x="555" d="M-131 1311q0 77 52 128.5t130 51.5q77 0 128.5 -51.5t51.5 -128.5t-52 -129t-128 -52q-78 0 -130 52t-52 129zM111 0v1044h331v-1044h-331zM324 1311q0 76 52.5 128t129.5 52t129.5 -52t52.5 -128t-52.5 -128.5t-129.5 -52.5t-129.5 52.5t-52.5 128.5z" />
<glyph unicode="&#xf0;" horiz-adv-x="1159" d="M51 487q0 141 65 258.5t174 183.5t238 66q78 0 142 -24q-75 78 -178 131l-54 -68h-237l108 133q-56 14 -123 17v313q173 -3 332 -70l55 70h236l-127 -160q197 -134 311.5 -349t114.5 -451q0 -134 -40.5 -241.5t-111 -177t-166 -106.5t-206.5 -37q-231 0 -382 146 t-151 366zM391 485q0 -81 54.5 -134.5t134.5 -53.5t133 53.5t53 134.5q0 82 -53 136.5t-133 54.5t-134.5 -55t-54.5 -136z" />
<glyph unicode="&#xf1;" horiz-adv-x="1228" d="M111 0v1044h331v-92q120 117 301 117q177 0 285.5 -107t108.5 -284v-678h-332v567q0 82 -47.5 131.5t-126.5 49.5q-85 0 -137 -51t-52 -134v-563h-331zM244 1157q0 144 65 235t187 91q48 0 90.5 -17t74 -34t52.5 -17q27 0 45 18.5t18 45.5h232q0 -145 -64.5 -234.5 t-187.5 -89.5q-49 0 -91.5 16.5t-74.5 33t-53 16.5q-27 0 -44.5 -18.5t-17.5 -45.5h-231z" />
<glyph unicode="&#xf2;" horiz-adv-x="1230" d="M51 522q0 154 73 279t202.5 196.5t289.5 71.5q241 0 403.5 -157t162.5 -390t-162.5 -390t-403.5 -157q-160 0 -289.5 71.5t-202.5 196.5t-73 279zM186 1456h414l203 -313h-346zM391 522q0 -97 64 -161t161 -64q96 0 160 64.5t64 160.5q0 97 -64.5 161.5t-159.5 64.5 q-97 0 -161 -64.5t-64 -161.5z" />
<glyph unicode="&#xf3;" horiz-adv-x="1230" d="M51 522q0 154 73 279t202.5 196.5t289.5 71.5q241 0 403.5 -157t162.5 -390t-162.5 -390t-403.5 -157q-160 0 -289.5 71.5t-202.5 196.5t-73 279zM391 522q0 -97 64 -161t161 -64q96 0 160 64.5t64 160.5q0 97 -64.5 161.5t-159.5 64.5q-97 0 -161 -64.5t-64 -161.5z M428 1143l203 313h413l-268 -313h-348z" />
<glyph unicode="&#xf4;" horiz-adv-x="1230" d="M51 522q0 154 73 279t202.5 196.5t289.5 71.5q241 0 403.5 -157t162.5 -390t-162.5 -390t-403.5 -157q-160 0 -289.5 71.5t-202.5 196.5t-73 279zM215 1143l201 313h399l203 -313h-311l-91 135l-90 -135h-311zM391 522q0 -97 64 -161t161 -64q96 0 160 64.5t64 160.5 q0 97 -64.5 161.5t-159.5 64.5q-97 0 -161 -64.5t-64 -161.5z" />
<glyph unicode="&#xf5;" horiz-adv-x="1230" d="M51 522q0 154 73 279t202.5 196.5t289.5 71.5q241 0 403.5 -157t162.5 -390t-162.5 -390t-403.5 -157q-160 0 -289.5 71.5t-202.5 196.5t-73 279zM233 1157q0 144 65 235t187 91q48 0 90.5 -17t74 -34t52.5 -17q27 0 45.5 18.5t18.5 45.5h231q0 -145 -64.5 -234.5 t-187.5 -89.5q-49 0 -91.5 16.5t-74.5 33t-53 16.5q-27 0 -44 -18.5t-17 -45.5h-232zM391 522q0 -97 64 -161t161 -64q96 0 160 64.5t64 160.5q0 97 -64.5 161.5t-159.5 64.5q-97 0 -161 -64.5t-64 -161.5z" />
<glyph unicode="&#xf6;" horiz-adv-x="1230" d="M51 522q0 154 73 279t202.5 196.5t289.5 71.5q241 0 403.5 -157t162.5 -390t-162.5 -390t-403.5 -157q-160 0 -289.5 71.5t-202.5 196.5t-73 279zM207 1311q0 77 52 128.5t130 51.5q77 0 128.5 -51.5t51.5 -128.5t-52 -129t-128 -52q-78 0 -130 52t-52 129zM391 522 q0 -97 64 -161t161 -64q96 0 160 64.5t64 160.5q0 97 -64.5 161.5t-159.5 64.5q-97 0 -161 -64.5t-64 -161.5zM662 1311q0 76 52.5 128t129.5 52t129.5 -52t52.5 -128t-52.5 -128.5t-129.5 -52.5t-129.5 52.5t-52.5 128.5z" />
<glyph unicode="&#xf7;" horiz-adv-x="1093" d="M111 469v274h872v-274h-872zM375 223q0 72 49 120t123 48t123 -48t49 -120t-49.5 -121t-122.5 -49t-122.5 49t-49.5 121zM375 987q0 72 49.5 121t122.5 49t122.5 -49t49.5 -121t-49 -120t-123 -48t-123 48t-49 120z" />
<glyph unicode="&#xf8;" horiz-adv-x="1230" d="M37 0l145 164q-131 150 -131 358q0 154 73 279t202.5 196.5t289.5 71.5q163 0 297 -78l48 53h233l-145 -163q133 -149 133 -359q0 -233 -162.5 -390t-403.5 -157q-162 0 -299 78l-47 -53h-233zM391 522q0 -47 21 -98l276 313q-42 11 -72 11q-97 0 -161 -64.5t-64 -161.5z M543 307q38 -10 73 -10q96 0 160 64.5t64 160.5q0 48 -21 99z" />
<glyph unicode="&#xf9;" horiz-adv-x="1181" d="M92 418v626h332v-579q0 -76 46.5 -122t121.5 -46t121.5 46t46.5 122v579h332v-626q0 -200 -137 -321.5t-363 -121.5t-363 121.5t-137 321.5zM162 1456h413l203 -313h-346z" />
<glyph unicode="&#xfa;" horiz-adv-x="1181" d="M92 418v626h332v-579q0 -76 46.5 -122t121.5 -46t121.5 46t46.5 122v579h332v-626q0 -200 -137 -321.5t-363 -121.5t-363 121.5t-137 321.5zM403 1143l203 313h414l-268 -313h-349z" />
<glyph unicode="&#xfb;" horiz-adv-x="1181" d="M92 418v626h332v-579q0 -76 46.5 -122t121.5 -46t121.5 46t46.5 122v579h332v-626q0 -200 -137 -321.5t-363 -121.5t-363 121.5t-137 321.5zM190 1143l201 313h400l202 -313h-311l-90 135l-90 -135h-312z" />
<glyph unicode="&#xfc;" horiz-adv-x="1181" d="M92 418v626h332v-579q0 -76 46.5 -122t121.5 -46t121.5 46t46.5 122v579h332v-626q0 -200 -137 -321.5t-363 -121.5t-363 121.5t-137 321.5zM182 1311q0 77 52.5 128.5t130.5 51.5q77 0 128.5 -51.5t51.5 -128.5t-52 -129t-128 -52q-78 0 -130.5 52t-52.5 129zM637 1311 q0 76 52.5 128t129.5 52t129.5 -52t52.5 -128t-52.5 -128.5t-129.5 -52.5t-129.5 52.5t-52.5 128.5z" />
<glyph unicode="&#xfd;" horiz-adv-x="1163" d="M-4 1044h379l211 -612l211 612h370l-481 -1200q-46 -119 -141.5 -188.5t-212.5 -69.5q-75 0 -158 30t-143 79l127 260q53 -47 118 -47q75 0 107 72l18 43zM393 1143l203 313h414l-269 -313h-348z" />
<glyph unicode="&#xfe;" d="M111 -389v1864h331v-517q121 111 291 111q140 0 255 -71.5t180 -197t65 -278.5t-65 -278.5t-180 -197t-255 -71.5q-170 0 -291 111v-475h-331zM442 522q0 -97 64.5 -161t161.5 -64t160 64t63 161t-63.5 161.5t-159.5 64.5q-97 0 -161.5 -64.5t-64.5 -161.5z" />
<glyph unicode="&#xff;" horiz-adv-x="1163" d="M-4 1044h379l211 -612l211 612h370l-481 -1200q-46 -119 -141.5 -188.5t-212.5 -69.5q-75 0 -158 30t-143 79l127 260q53 -47 118 -47q75 0 107 72l18 43zM172 1311q0 77 52 128.5t130 51.5q77 0 129 -52t52 -128q0 -77 -52.5 -129t-128.5 -52q-78 0 -130 52t-52 129z M627 1311q0 76 52.5 128t129.5 52t129.5 -52t52.5 -128t-52.5 -128.5t-129.5 -52.5t-129.5 52.5t-52.5 128.5z" />
<glyph unicode="&#x152;" horiz-adv-x="1830" d="M59 707q0 199 94 360.5t259.5 253.5t369.5 92h963v-332h-533v-204h467v-332h-467v-213h543v-332h-973q-153 0 -287.5 54t-230 148t-150.5 225t-55 280zM420 707q0 -160 106.5 -267.5t264.5 -107.5h69v749h-69q-158 0 -264.5 -107t-106.5 -267z" />
<glyph unicode="&#x153;" horiz-adv-x="1996" d="M51 522q0 153 72.5 278.5t198.5 197t278 71.5q127 0 233.5 -51.5t178.5 -143.5q71 92 178 143.5t233 51.5q149 0 269.5 -71t189 -198t68.5 -286q0 -56 -8 -92h-744q27 -76 89 -119t147 -43q74 0 135.5 29.5t97.5 72.5l221 -190q-79 -92 -193.5 -144.5t-244.5 -52.5 q-134 0 -247 53t-187 148q-72 -94 -180 -147.5t-236 -53.5q-152 0 -278 71.5t-198.5 197t-72.5 278.5zM391 522q0 -97 64 -161t161 -64q96 0 160 64.5t64 160.5q0 97 -64.5 161.5t-159.5 64.5q-97 0 -161 -64.5t-64 -161.5zM1196 629h399q-23 73 -77 115t-123 42 q-70 0 -123 -42t-76 -115z" />
<glyph unicode="&#x178;" horiz-adv-x="1382" d="M-16 1413h401l311 -571l310 571h393l-533 -938v-475h-352v475zM283 1679q0 77 52 129t130 52q76 0 128 -52t52 -129t-51.5 -128.5t-128.5 -51.5q-78 0 -130 51.5t-52 128.5zM737 1679q0 76 53 128.5t130 52.5t129.5 -52.5t52.5 -128.5t-52.5 -128t-129.5 -52t-130 52 t-53 128z" />
<glyph unicode="&#x2c6;" horiz-adv-x="802" d="M0 1143l201 313h399l203 -313h-311l-91 135l-90 -135h-311z" />
<glyph unicode="&#x2dc;" horiz-adv-x="763" d="M0 1157q0 144 65 235t187 91q48 0 90.5 -17t74 -34t52.5 -17q27 0 45 18.5t18 45.5h232q0 -145 -64.5 -234.5t-187.5 -89.5q-49 0 -91.5 16.5t-74.5 33t-53 16.5q-27 0 -44.5 -18.5t-17.5 -45.5h-231z" />
<glyph unicode="&#x2000;" horiz-adv-x="971" />
<glyph unicode="&#x2001;" horiz-adv-x="1942" />
<glyph unicode="&#x2002;" horiz-adv-x="971" />
<glyph unicode="&#x2003;" horiz-adv-x="1942" />
<glyph unicode="&#x2004;" horiz-adv-x="647" />
<glyph unicode="&#x2005;" horiz-adv-x="485" />
<glyph unicode="&#x2006;" horiz-adv-x="323" />
<glyph unicode="&#x2007;" horiz-adv-x="323" />
<glyph unicode="&#x2008;" horiz-adv-x="242" />
<glyph unicode="&#x2009;" horiz-adv-x="388" />
<glyph unicode="&#x200a;" horiz-adv-x="107" />
<glyph unicode="&#x2010;" horiz-adv-x="835" d="M111 401v320h614v-320h-614z" />
<glyph unicode="&#x2011;" horiz-adv-x="835" d="M111 401v320h614v-320h-614z" />
<glyph unicode="&#x2012;" horiz-adv-x="835" d="M111 401v320h614v-320h-614z" />
<glyph unicode="&#x2013;" horiz-adv-x="1245" d="M111 412v299h1024v-299h-1024z" />
<glyph unicode="&#x2014;" horiz-adv-x="2187" d="M111 412v299h1966v-299h-1966z" />
<glyph unicode="&#x2018;" horiz-adv-x="606" d="M61 805l246 608h285l-146 -608h-385z" />
<glyph unicode="&#x2019;" horiz-adv-x="606" d="M61 805l146 608h385l-246 -608h-285z" />
<glyph unicode="&#x201a;" horiz-adv-x="559" d="M-12 -279l145 609h385l-246 -609h-284z" />
<glyph unicode="&#x201c;" horiz-adv-x="1118" d="M61 805l246 608h285l-146 -608h-385zM573 805l246 608h285l-143 -608h-388z" />
<glyph unicode="&#x201d;" horiz-adv-x="1118" d="M61 805l146 608h385l-246 -608h-285zM573 805l146 608h385l-246 -608h-285z" />
<glyph unicode="&#x201e;" horiz-adv-x="1071" d="M-12 -279l145 609h385l-246 -609h-284zM500 -279l145 609h387l-248 -609h-284z" />
<glyph unicode="&#x2022;" horiz-adv-x="763" d="M111 561q0 115 77 191.5t193 76.5q117 0 194.5 -76.5t77.5 -191.5t-77.5 -191.5t-194.5 -76.5q-116 0 -193 76.5t-77 191.5z" />
<glyph unicode="&#x2026;" horiz-adv-x="1736" d="M51 201q0 96 64.5 160.5t160.5 64.5t161 -65t65 -160t-64.5 -159.5t-161.5 -64.5q-96 0 -160.5 64.5t-64.5 159.5zM643 201q0 96 64.5 160.5t160.5 64.5t161 -65t65 -160t-64.5 -159.5t-161.5 -64.5q-96 0 -160.5 64.5t-64.5 159.5zM1235 201q0 96 64.5 160.5t160.5 64.5 t161 -65t65 -160t-64.5 -159.5t-161.5 -64.5q-96 0 -160.5 64.5t-64.5 159.5z" />
<glyph unicode="&#x202f;" horiz-adv-x="388" />
<glyph unicode="&#x2039;" horiz-adv-x="770" d="M49 541l293 420h387l-293 -420l293 -420h-387z" />
<glyph unicode="&#x203a;" horiz-adv-x="770" d="M53 121l293 420l-293 420h387l293 -420l-293 -420h-387z" />
<glyph unicode="&#x205f;" horiz-adv-x="485" />
<glyph unicode="&#x20ac;" horiz-adv-x="1531" d="M55 489l41 177h92q-2 14 -2 41t2 41h-133l41 176h121q68 229 264 371.5t455 142.5q285 0 494 -162v-373q-85 90 -204 142.5t-247 52.5q-119 0 -214 -46.5t-153 -127.5h633l-41 -176h-655q-2 -14 -2 -41t2 -41h639l-41 -177h-535q58 -81 153 -127.5t214 -46.5 q128 0 247 52.5t204 142.5v-373q-209 -162 -494 -162q-260 0 -455.5 142t-263.5 372h-162z" />
<glyph unicode="&#x2122;" horiz-adv-x="1318" d="M12 1245v168h465v-168h-145v-444h-176v444h-144zM555 801v612h221l125 -287l125 287h215v-612h-176v346l-115 -264h-102l-117 266v-348h-176z" />
<glyph unicode="&#x25fc;" horiz-adv-x="1045" d="M0 0v1045h1045v-1045h-1045z" />
</font>
</defs>
</svg>
