<?xml version="1.0" standalone="no"?>
<!DOCTYPE svg PUBLIC "-//W3C//DTD SVG 1.1//EN" "http://www.w3.org/Graphics/SVG/1.1/DTD/svg11.dtd" >
<svg xmlns="http://www.w3.org/2000/svg" xmlns:xlink="http://www.w3.org/1999/xlink" version="1.1">
<metadata></metadata>
<defs>
<font id="lufgamedium" horiz-adv-x="1323" >
<font-face units-per-em="2048" ascent="1597" descent="-451" />
<missing-glyph horiz-adv-x="483" />
<glyph unicode="&#xfb01;" horiz-adv-x="1306" d="M61 836v208h177v115q0 161 84 250.5t249 89.5q104 0 189 -43v-203q-62 35 -139 35q-154 0 -154 -143v-101h278v-208h-278v-836h-229v836h-177zM909 1366q0 63 42 104t104 41q63 0 105 -41t42 -104q0 -62 -42 -103.5t-105 -41.5q-62 0 -104 42t-42 103zM940 0v1044h229 v-1044h-229z" />
<glyph unicode="&#xfb02;" horiz-adv-x="1306" d="M61 836v208h177v115q0 161 84 250.5t249 89.5q104 0 189 -43v-203q-62 35 -139 35q-154 0 -154 -143v-101h278v-208h-278v-836h-229v836h-177zM940 0v1475h229v-1475h-229z" />
<glyph horiz-adv-x="0" />
<glyph unicode="&#xd;" horiz-adv-x="682" />
<glyph unicode=" "  horiz-adv-x="483" />
<glyph unicode="&#x09;" horiz-adv-x="483" />
<glyph unicode="&#xa0;" horiz-adv-x="483" />
<glyph unicode="!" horiz-adv-x="542" d="M113 141q0 68 45 113t112 45q69 0 114.5 -45t45.5 -113t-45.5 -112.5t-114.5 -44.5q-68 0 -112.5 45t-44.5 112zM150 1065v348h243v-348l-14 -637h-215z" />
<glyph unicode="&#x22;" horiz-adv-x="866" d="M111 1413h227l-16 -526h-197zM528 1413h228l-15 -526h-198z" />
<glyph unicode="#" horiz-adv-x="1564" d="M59 360v201h287l84 291h-262v201h321l107 360h215l-106 -360h342l106 360h213l-106 -360h227v-201h-287l-86 -291h264v-201h-323l-107 -360h-211l107 360h-344l-107 -360h-213l107 360h-228zM559 561h344l84 291h-342z" />
<glyph unicode="$" horiz-adv-x="1185" d="M72 215l121 172q72 -66 163.5 -113t186.5 -61v403q-90 23 -163.5 57t-133.5 82t-93.5 115.5t-33.5 149.5q0 160 116.5 267.5t307.5 127.5v141h147v-141q118 -10 218 -56t165 -114l-117 -172q-45 45 -115.5 80.5t-150.5 46.5v-383q44 -10 86 -24t96.5 -37t99 -55.5 t84 -73.5t61.5 -98t22 -123q0 -167 -126 -278t-323 -130v-139h-147v139q-133 13 -258 71t-213 146zM365 1032q0 -114 178 -176v344q-80 -15 -129 -60.5t-49 -107.5zM690 211q92 14 147.5 61t55.5 121q0 121 -203 185v-367z" />
<glyph unicode="%" horiz-adv-x="1742" d="M88 1102q0 143 98.5 239.5t245.5 96.5q146 0 244 -96.5t98 -239.5q0 -145 -98 -241.5t-244 -96.5q-148 0 -246 96.5t-98 241.5zM238 0l1024 1413h245l-1024 -1413h-245zM281 1102q0 -65 43.5 -109.5t107.5 -44.5q63 0 106.5 44.5t43.5 109.5q0 64 -43.5 106.5 t-106.5 42.5q-65 0 -108 -42.5t-43 -106.5zM969 313q0 145 97.5 240.5t244.5 95.5t244.5 -95.5t97.5 -240.5t-98 -241.5t-244 -96.5t-244 96.5t-98 241.5zM1161 313q0 -65 43 -108t107 -43q65 0 108 43t43 108t-43.5 108.5t-107.5 43.5t-107 -43.5t-43 -108.5z" />
<glyph unicode="&#x26;" d="M66 430q0 72 20 134.5t58 111t81 85t99 70.5q-119 163 -119 295q0 134 104.5 223t257.5 89q156 0 261.5 -87.5t105.5 -220.5q0 -58 -22 -109.5t-64.5 -93.5t-87.5 -73.5t-107 -65.5l326 -362q74 106 125 264l203 -67q-73 -219 -183 -361l236 -262h-301l-90 100 q-155 -125 -381 -125q-230 0 -376 127.5t-146 327.5zM307 444q0 -110 83 -182t208 -72q119 0 225 72l-368 414q-148 -99 -148 -232zM434 1126q0 -71 92 -190q87 47 133 91.5t46 100.5q0 53 -40 89t-98 36q-55 0 -94 -35.5t-39 -91.5z" />
<glyph unicode="'" horiz-adv-x="446" d="M111 1413h227l-16 -526h-197z" />
<glyph unicode="(" horiz-adv-x="679" d="M145 573q0 262 80 525.5t211 437.5h232q-126 -174 -203.5 -437.5t-77.5 -525.5q0 -261 77 -524.5t204 -437.5h-232q-131 174 -211 437.5t-80 524.5z" />
<glyph unicode=")" horiz-adv-x="679" d="M12 -389q127 173 204 436t77 526t-77 526.5t-204 436.5h232q131 -174 211 -437.5t80 -525.5q0 -261 -80 -524.5t-211 -437.5h-232z" />
<glyph unicode="*" horiz-adv-x="770" d="M70 1063l137 78l51 18l-51 21l-137 75l71 123l140 -75l41 -35l-9 53v154h144v-154l-8 -51l40 33l140 75l71 -123l-137 -77l-51 -19l51 -20l137 -76l-71 -123l-140 76l-40 33l8 -54v-151h-144v151l9 56l-43 -35l-138 -76z" />
<glyph unicode="+" horiz-adv-x="1093" d="M123 502v207h319v319h209v-319h320v-207h-320v-322h-209v322h-319z" />
<glyph unicode="," horiz-adv-x="514" d="M23 -297l143 551h270l-215 -551h-198z" />
<glyph unicode="-" horiz-adv-x="835" d="M123 451v221h590v-221h-590z" />
<glyph unicode="." horiz-adv-x="505" d="M88 145q0 69 47.5 116.5t116.5 47.5q70 0 117 -47.5t47 -116.5t-47 -115t-117 -46q-69 0 -116.5 46t-47.5 115z" />
<glyph unicode="/" horiz-adv-x="1069" d="M10 -307l819 1843h232l-819 -1843h-232z" />
<glyph unicode="0" horiz-adv-x="1306" d="M102 707q0 213 70 380t195.5 259t285.5 92t285.5 -92t195.5 -259t70 -380t-70 -380t-195.5 -259.5t-285.5 -92.5t-285.5 92.5t-195.5 259.5t-70 380zM352 707q0 -219 84.5 -357.5t216.5 -138.5t216.5 138.5t84.5 357.5t-84.5 357t-216.5 138t-216.5 -138t-84.5 -357z" />
<glyph unicode="1" horiz-adv-x="790" d="M29 1178l426 235h172v-1413h-242v1124l-252 -141z" />
<glyph unicode="2" horiz-adv-x="1097" d="M53 1180q73 118 200 188t277 70q200 0 327.5 -118t127.5 -300q0 -116 -49 -208.5t-133 -182.5l-377 -400h588v-229h-930v197l506 544q68 77 105.5 139.5t37.5 125.5q0 84 -61 136t-156 52q-169 0 -295 -172z" />
<glyph unicode="3" horiz-adv-x="1173" d="M61 176l142 178q65 -68 160 -105.5t196 -37.5q126 0 206.5 59.5t80.5 151.5t-77.5 151.5t-197.5 59.5h-206v211h206q104 0 172 50t68 128t-74 129t-190 51q-87 0 -168.5 -31t-134.5 -86l-131 177q83 83 207 129.5t258 46.5q213 0 348 -107.5t135 -273.5q0 -102 -54 -185 t-149 -131q111 -50 174.5 -143t63.5 -211q0 -180 -145.5 -296t-375.5 -116q-150 0 -286 53t-228 148z" />
<glyph unicode="4" horiz-adv-x="1198" d="M51 489l662 924h268v-891h164v-229h-164v-293h-244v293h-628zM319 522h418v584z" />
<glyph unicode="5" horiz-adv-x="1185" d="M88 176l123 195q69 -75 163.5 -117.5t194.5 -42.5q133 0 217 70.5t84 173.5q0 99 -75.5 165t-190.5 66q-68 0 -131 -25t-108 -67l-215 63l69 756h803v-229h-598l-29 -336q101 61 240 61q206 0 345.5 -132t139.5 -328q0 -204 -151.5 -339t-384.5 -135q-132 0 -260.5 51 t-235.5 150z" />
<glyph unicode="6" horiz-adv-x="1146" d="M51 541q0 219 106.5 409t306 320t458.5 168l47 -228q-223 -40 -380 -151.5t-224 -261.5q119 102 301 102q191 0 318.5 -129.5t127.5 -318.5q0 -205 -150 -340.5t-378 -135.5q-241 0 -387 153.5t-146 412.5zM301 455q0 -107 79 -175.5t206 -68.5q119 0 197.5 66.5 t78.5 168.5q0 98 -76.5 164t-193.5 66q-115 0 -203 -58t-88 -163z" />
<glyph unicode="7" horiz-adv-x="1075" d="M84 1184v229h934v-190l-563 -1223h-275l547 1184h-643z" />
<glyph unicode="8" horiz-adv-x="1208" d="M78 391q0 108 61.5 197.5t169.5 144.5q-95 52 -149 134.5t-54 181.5q0 165 142 277t356 112q213 0 355.5 -112t142.5 -277q0 -99 -54.5 -181.5t-148.5 -134.5q108 -55 169.5 -144.5t61.5 -197.5q0 -177 -150.5 -296.5t-375.5 -119.5q-148 0 -268.5 54t-189 149.5 t-68.5 212.5zM328 414q0 -88 78.5 -145.5t197.5 -57.5t198 57.5t79 145.5q0 86 -79.5 144t-197.5 58t-197 -58t-79 -144zM356 1024q0 -77 71 -128.5t177 -51.5q105 0 176.5 52t71.5 128t-71.5 127t-176.5 51q-106 0 -177 -51t-71 -127z" />
<glyph unicode="9" horiz-adv-x="1146" d="M35 963q0 204 150.5 339.5t377.5 135.5q243 0 389 -153t146 -413q0 -165 -61.5 -318t-172 -274t-276.5 -202.5t-363 -102.5l-47 228q227 31 385 144.5t225 270.5q-121 -104 -305 -104q-191 0 -319.5 130t-128.5 319zM285 967q0 -97 77 -163.5t193 -66.5t203.5 58 t87.5 163q0 107 -78.5 175.5t-204.5 68.5q-120 0 -199 -66.5t-79 -168.5z" />
<glyph unicode=":" horiz-adv-x="526" d="M98 145q0 69 47.5 116.5t116.5 47.5q70 0 117 -47.5t47 -116.5t-47 -115t-117 -46q-69 0 -116.5 46t-47.5 115zM98 838q0 69 47.5 115t116.5 46q70 0 117 -46t47 -115q0 -70 -47 -117t-117 -47q-69 0 -116.5 47t-47.5 117z" />
<glyph unicode=";" horiz-adv-x="555" d="M23 -297l141 551h270l-215 -551h-196zM129 838q0 69 47.5 115t116.5 46q70 0 117 -46t47 -115q0 -70 -46.5 -117t-117.5 -47q-69 0 -116.5 47t-47.5 117z" />
<glyph unicode="&#x3c;" horiz-adv-x="950" d="M123 502v209l704 348v-230l-475 -223l475 -223v-229z" />
<glyph unicode="=" horiz-adv-x="1093" d="M123 311v207h848v-207h-848zM123 694v207h848v-207h-848z" />
<glyph unicode="&#x3e;" horiz-adv-x="950" d="M123 154v229l475 223l-475 223v230l704 -348v-209z" />
<glyph unicode="?" horiz-adv-x="1001" d="M10 1188q89 118 215.5 184t270.5 66q189 0 314.5 -111t125.5 -274q0 -79 -34 -150.5t-82.5 -124t-97 -99.5t-82.5 -95.5t-34 -94.5v-57h-241v57q0 67 33.5 131t80.5 113.5t94.5 96.5t81 99.5t33.5 102.5q0 74 -57.5 123t-147.5 49q-89 0 -171 -46t-144 -130zM326 141 q0 67 45.5 112.5t113.5 45.5q69 0 114.5 -45t45.5 -113t-45.5 -112.5t-114.5 -44.5q-68 0 -113.5 45t-45.5 112z" />
<glyph unicode="@" horiz-adv-x="1718" d="M96 553q0 158 59 298t160.5 240.5t244 159t304.5 58.5q158 0 297.5 -54t240.5 -148t159.5 -227t58.5 -284q0 -186 -85.5 -300t-234.5 -114q-86 0 -151.5 33.5t-99.5 93.5q-80 -129 -248 -129q-153 0 -254 106.5t-101 264.5q0 159 99.5 266t242.5 107q146 0 232 -109v84 h201v-467q0 -38 24 -63t62 -25q61 0 99 71.5t38 182.5q0 153 -76 277t-209 194t-295 70q-168 0 -303 -76t-211 -210t-76 -300t76 -300.5t212 -211t304 -76.5q103 0 196.5 28.5t160.5 78.5l86 -150q-202 -125 -447 -125q-162 0 -304 58t-243.5 158.5t-160 240.5t-58.5 299z M655 553q0 -78 52 -129t129 -51q78 0 131 52t53 128q0 75 -53.5 125.5t-130.5 50.5t-129 -50t-52 -126z" />
<glyph unicode="A" horiz-adv-x="1464" d="M31 0l557 1413h289l557 -1413h-269l-114 301h-643l-115 -301h-262zM494 526h471l-236 621z" />
<glyph unicode="B" horiz-adv-x="1286" d="M154 0v1413h641q157 0 262.5 -101.5t105.5 -254.5q0 -101 -47.5 -184.5t-122.5 -122.5q108 -34 176 -136t68 -231q0 -166 -112.5 -274.5t-282.5 -108.5h-688zM389 219h395q86 0 143.5 59t57.5 146q0 86 -57.5 144.5t-143.5 58.5h-395v-408zM389 834h346q74 0 126 52 t52 128q0 77 -51 128.5t-127 51.5h-346v-360z" />
<glyph unicode="C" horiz-adv-x="1501" d="M80 707q0 205 96.5 372.5t266.5 263t378 95.5q195 0 358 -85t263 -233l-209 -129q-67 98 -175 154.5t-237 56.5q-210 0 -350.5 -141.5t-140.5 -353.5t141 -354t350 -142q129 0 237 56.5t175 154.5l209 -129q-100 -148 -263 -233t-358 -85q-156 0 -293.5 56.5 t-235.5 153.5t-155 232.5t-57 289.5z" />
<glyph unicode="D" horiz-adv-x="1499" d="M154 0v1413h548q152 0 285.5 -54t228.5 -147.5t150 -224.5t55 -280t-55 -280t-150 -225t-228.5 -148t-285.5 -54h-548zM397 229h301q202 0 337.5 137t135.5 341t-135.5 340.5t-337.5 136.5h-301v-955z" />
<glyph unicode="E" horiz-adv-x="1193" d="M154 0v1413h940v-229h-697v-359h629v-229h-629v-367h707v-229h-950z" />
<glyph unicode="F" horiz-adv-x="1128" d="M154 0v1413h909v-229h-666v-373h582v-229h-582v-582h-243z" />
<glyph unicode="G" horiz-adv-x="1601" d="M80 707q0 205 96.5 372.5t266.5 263t378 95.5q185 0 341.5 -75.5t252.5 -207.5l-184 -145q-67 91 -172.5 142.5t-231.5 51.5q-213 0 -355 -142t-142 -355q0 -214 141.5 -356t353.5 -142q174 0 298.5 97t152.5 253h-416v217h672v-82q0 -204 -92 -368.5t-255.5 -257.5 t-367.5 -93q-155 0 -292 56.5t-234.5 153.5t-154 232.5t-56.5 289.5z" />
<glyph unicode="H" horiz-adv-x="1484" d="M154 0v1413h243v-588h693v588h241v-1413h-241v596h-693v-596h-243z" />
<glyph unicode="I" horiz-adv-x="548" d="M154 0v1413h243v-1413h-243z" />
<glyph unicode="J" horiz-adv-x="880" d="M55 25v235q96 -49 209 -49q117 0 183.5 62t66.5 171v969h244v-981q0 -211 -128.5 -334t-340.5 -123q-125 0 -234 50z" />
<glyph unicode="K" horiz-adv-x="1345" d="M154 0v1413h243v-680l635 680h314l-644 -686l668 -727h-317l-510 557l-146 -156v-401h-243z" />
<glyph unicode="L" horiz-adv-x="1095" d="M154 0v1413h243v-1184h645v-229h-888z" />
<glyph unicode="M" horiz-adv-x="1781" d="M154 0v1413h303l436 -776l436 776h301v-1413h-244v1036l-425 -764h-138l-426 762v-1034h-243z" />
<glyph unicode="N" horiz-adv-x="1505" d="M154 0v1413h247l707 -999v999h244v-1413h-248l-707 999v-999h-243z" />
<glyph unicode="O" horiz-adv-x="1644" d="M80 707q0 205 96.5 372.5t266.5 263t378 95.5q209 0 379.5 -95.5t267.5 -263t97 -372.5q0 -154 -57 -289.5t-155.5 -232.5t-236.5 -153.5t-295 -56.5q-156 0 -293.5 56.5t-235.5 153.5t-155 232.5t-57 289.5zM330 707q0 -212 141 -354t350 -142q211 0 352.5 142 t141.5 354t-141.5 353.5t-352.5 141.5q-210 0 -350.5 -141.5t-140.5 -353.5z" />
<glyph unicode="P" horiz-adv-x="1277" d="M154 0v1413h600q132 0 240.5 -59.5t170.5 -165.5t62 -236q0 -196 -136 -327t-337 -131h-357v-494h-243zM397 723h353q97 0 162 65.5t65 163.5q0 100 -65 166t-162 66h-353v-461z" />
<glyph unicode="Q" horiz-adv-x="1644" d="M80 707q0 205 96.5 372.5t266.5 263t378 95.5q209 0 379.5 -95.5t267.5 -263t97 -372.5q0 -168 -65.5 -311.5t-184.5 -243.5l139 -199l-184 -129l-148 209q-141 -58 -301 -58q-156 0 -293.5 56.5t-235.5 153.5t-155 232.5t-57 289.5zM330 707q0 -212 141 -354t350 -142 q83 0 160 25l-131 186l184 127l140 -197q67 67 104 159t37 196q0 212 -141.5 353.5t-352.5 141.5q-210 0 -350.5 -141.5t-140.5 -353.5z" />
<glyph unicode="R" horiz-adv-x="1284" d="M154 0v1413h587q198 0 331.5 -128t133.5 -320q0 -160 -96.5 -276t-251.5 -150l381 -539h-293l-364 526h-185v-526h-243zM397 739h340q94 0 156.5 64.5t62.5 159.5t-62.5 158t-156.5 63h-340v-445z" />
<glyph unicode="S" horiz-adv-x="1220" d="M57 197l127 186q85 -85 204.5 -136.5t242.5 -51.5t207 53t84 137q0 33 -14 61.5t-42 49.5t-56 36.5t-72.5 29t-73 21t-74.5 17.5q-102 24 -185 58.5t-153 85.5t-109 124.5t-39 163.5q0 182 146 294t379 112q149 0 274 -48t205 -128l-115 -185q-60 62 -160.5 102 t-207.5 40q-118 0 -193.5 -50t-75.5 -129q0 -145 303 -206q38 -8 71 -17t88 -28t99 -41t93.5 -57.5t83 -76t55.5 -97.5t22 -122q0 -185 -154 -302.5t-386 -117.5q-160 0 -315 60.5t-259 161.5z" />
<glyph unicode="T" horiz-adv-x="1208" d="M55 1184v229h1098v-229h-426v-1184h-244v1184h-428z" />
<glyph unicode="U" horiz-adv-x="1411" d="M125 545v868h242v-864q0 -145 96.5 -241.5t241.5 -96.5q146 0 241.5 96.5t95.5 241.5v864h244v-868q0 -244 -166 -407t-415 -163q-122 0 -229.5 43.5t-184.5 119t-121.5 181.5t-44.5 226z" />
<glyph unicode="V" horiz-adv-x="1452" d="M29 1413h274l426 -1091l426 1091h266l-569 -1413h-252z" />
<glyph unicode="W" horiz-adv-x="2074" d="M39 1413h260l315 -1085l320 1085h215l319 -1085l316 1085h252l-445 -1413h-245l-308 1047l-309 -1047h-244z" />
<glyph unicode="X" horiz-adv-x="1468" d="M37 0l530 709l-522 704h301l391 -539l387 539h299l-522 -704l531 -709h-302l-397 545l-397 -545h-299z" />
<glyph unicode="Y" horiz-adv-x="1380" d="M6 1413h279l409 -661l408 661h272l-561 -907v-506h-244v506z" />
<glyph unicode="Z" horiz-adv-x="1257" d="M78 0v174l753 1010h-745v229h1079v-174l-753 -1010h768v-229h-1102z" />
<glyph unicode="[" horiz-adv-x="702" d="M166 -389v1925h481v-217h-244v-1491h244v-217h-481z" />
<glyph unicode="\" horiz-adv-x="1069" d="M10 1536h232l819 -1843h-232z" />
<glyph unicode="]" horiz-adv-x="702" d="M53 -172h246v1491h-246v217h482v-1925h-482v217z" />
<glyph unicode="^" horiz-adv-x="866" d="M70 905l258 508h211l258 -508h-209l-156 320l-153 -320h-209z" />
<glyph unicode="_" horiz-adv-x="1032" d="M57 -141h918v-195h-918v195z" />
<glyph unicode="`" horiz-adv-x="499" d="M0 1450h291l209 -283h-242z" />
<glyph unicode="a" d="M76 522q0 154 66.5 279t184.5 196.5t263 71.5q229 0 366 -174v149h230v-1044h-230v150q-138 -175 -366 -175q-145 0 -263 71.5t-184.5 196.5t-66.5 279zM311 522q0 -138 92.5 -231.5t231.5 -93.5q138 0 229.5 93.5t91.5 231.5q0 139 -91.5 232.5t-229.5 93.5 q-139 0 -231.5 -93.5t-92.5 -232.5z" />
<glyph unicode="b" d="M135 0v1475h230v-582q65 84 159.5 130t208.5 46q144 0 262 -71.5t185 -197t67 -278.5t-67 -278.5t-185 -197t-262 -71.5q-114 0 -208 46t-160 131v-152h-230zM365 522q0 -138 92.5 -231.5t230.5 -93.5t230 93.5t92 231.5t-92 232t-230 94t-230.5 -94t-92.5 -232z" />
<glyph unicode="c" horiz-adv-x="1159" d="M72 522q0 233 160 390t399 157q155 0 281 -70t198 -190l-199 -121q-42 74 -116 117t-164 43q-138 0 -231 -94t-93 -232t93 -231.5t231 -93.5q91 0 164.5 43t115.5 116l199 -120q-72 -120 -198.5 -190.5t-280.5 -70.5q-239 0 -399 157t-160 390z" />
<glyph unicode="d" d="M76 522q0 154 66.5 279t184.5 196.5t263 71.5q229 0 366 -174v580h230v-1475h-230v150q-138 -175 -366 -175q-145 0 -263 71.5t-184.5 196.5t-66.5 279zM311 522q0 -138 92.5 -231.5t231.5 -93.5q138 0 229.5 93.5t91.5 231.5q0 139 -91.5 232.5t-229.5 93.5 q-139 0 -231.5 -93.5t-92.5 -232.5z" />
<glyph unicode="e" horiz-adv-x="1236" d="M72 526q0 152 72 276.5t198.5 195.5t280.5 71q235 0 391.5 -156.5t156.5 -392.5q0 -46 -6 -90h-846q28 -113 118.5 -180.5t217.5 -67.5q98 0 182.5 41t131.5 103l155 -133q-81 -102 -205.5 -160t-269.5 -58q-248 0 -412.5 158t-164.5 393zM317 618h609 q-26 110 -109.5 177t-195.5 67q-111 0 -193.5 -67t-110.5 -177z" />
<glyph unicode="f" horiz-adv-x="786" d="M61 836v208h177v115q0 161 84 250.5t249 89.5q104 0 189 -43v-203q-62 35 -139 35q-154 0 -154 -143v-101h278v-208h-278v-836h-229v836h-177z" />
<glyph unicode="g" horiz-adv-x="1153" d="M80 612q0 195 139 326t346 131q128 0 238 -55q20 84 88.5 132t167.5 48h84v-213h-72q-48 0 -80.5 -24.5t-36.5 -65.5q97 -121 97 -279q0 -194 -140 -325t-346 -131q-107 0 -194 34q-56 -37 -56 -100q0 -44 34 -72t89 -28h359q152 0 253 -79.5t124 -217.5l-238 -64 q-4 63 -54 100.5t-128 37.5h-359q-139 0 -225 73.5t-86 192.5q0 78 37 146.5t100 105.5q-141 131 -141 327zM315 612q0 -102 71.5 -170.5t178.5 -68.5q106 0 177 69t71 170q0 103 -71 171.5t-177 68.5q-107 0 -178.5 -68.5t-71.5 -171.5z" />
<glyph unicode="h" horiz-adv-x="1249" d="M135 0v1475h230v-572q128 166 352 166q186 0 299.5 -113t113.5 -299v-657h-229v582q0 120 -71 193t-189 73q-124 0 -200 -74t-76 -196v-578h-230z" />
<glyph unicode="i" horiz-adv-x="501" d="M104 1366q0 63 42 104t104 41q63 0 105 -41t42 -104q0 -62 -42 -103.5t-105 -41.5q-62 0 -104 42t-42 103zM135 0v1044h230v-1044h-230z" />
<glyph unicode="j" horiz-adv-x="512" d="M-72 -182q43 -21 97 -21q122 0 122 123v1124h230v-1150q0 -144 -79.5 -226t-231.5 -82q-77 0 -138 25v207zM115 1366q0 63 42 104t105 41q62 0 104 -41t42 -104q0 -61 -42 -103t-104 -42q-63 0 -105 41.5t-42 103.5z" />
<glyph unicode="k" horiz-adv-x="1103" d="M135 0v1475h230v-902l432 471h299l-459 -487l473 -557h-303l-332 385l-110 -119v-266h-230z" />
<glyph unicode="l" horiz-adv-x="501" d="M135 0v1475h230v-1475h-230z" />
<glyph unicode="m" horiz-adv-x="1902" d="M135 0v1044h230v-122q119 147 323 147q114 0 201 -48.5t135 -135.5q127 184 367 184q178 0 284.5 -107t106.5 -284v-678h-230v610q0 108 -63 173t-168 65q-111 0 -179.5 -67t-68.5 -175v-606h-229v610q0 108 -63.5 173t-168.5 65q-110 0 -178.5 -66.5t-68.5 -175.5v-606 h-230z" />
<glyph unicode="n" horiz-adv-x="1249" d="M135 0v1044h230v-135q129 160 352 160q186 0 299.5 -113t113.5 -299v-657h-229v582q0 120 -71 193t-189 73q-124 0 -200 -74t-76 -196v-578h-230z" />
<glyph unicode="o" horiz-adv-x="1261" d="M72 522q0 233 160 390t399 157q156 0 284.5 -71.5t201.5 -197t73 -278.5t-73 -278.5t-201.5 -197t-284.5 -71.5q-239 0 -399 157t-160 390zM307 522q0 -138 93 -231.5t231 -93.5t229.5 93.5t91.5 231.5q0 139 -91.5 232.5t-229.5 93.5t-231 -94t-93 -232z" />
<glyph unicode="p" d="M135 -389v1433h230v-151q65 84 159.5 130t208.5 46q144 0 262 -71.5t185 -197t67 -278.5t-67 -278.5t-185 -197t-262 -71.5q-114 0 -208 46t-160 131v-541h-230zM365 522q0 -138 92.5 -231.5t230.5 -93.5t230 93.5t92 231.5t-92 232t-230 94t-230.5 -94t-92.5 -232z" />
<glyph unicode="q" d="M76 522q0 154 66.5 279t184.5 196.5t263 71.5q229 0 366 -174v149h230v-1433h-230v539q-138 -175 -366 -175q-145 0 -263 71.5t-184.5 196.5t-66.5 279zM311 522q0 -138 92.5 -231.5t231.5 -93.5q138 0 229.5 93.5t91.5 231.5q0 139 -91.5 232.5t-229.5 93.5 q-139 0 -231.5 -93.5t-92.5 -232.5z" />
<glyph unicode="r" horiz-adv-x="763" d="M135 0v1044h230v-153q125 170 325 170h39v-236h-39q-152 0 -238.5 -85.5t-86.5 -231.5v-508h-230z" />
<glyph unicode="s" horiz-adv-x="985" d="M55 135l119 162q129 -123 311 -123q91 0 149 30.5t58 84.5q0 24 -12.5 43t-30 32t-51.5 25t-59.5 19t-71.5 18t-75 18.5t-73 22.5t-72.5 30t-61.5 40t-52 54t-32 69t-13 88q0 104 58 178t150 108.5t208 34.5q229 0 397 -139l-121 -162q-120 102 -272 102 q-81 0 -133.5 -27t-52.5 -79q0 -20 7 -36t24.5 -29t33.5 -22t47.5 -18.5t53 -15t61.5 -14.5q45 -10 74.5 -17.5t73 -22t72.5 -30t61 -40t51.5 -53t32 -68.5t12.5 -87q0 -105 -59 -182.5t-156.5 -115.5t-221.5 -38q-252 0 -434 160z" />
<glyph unicode="t" horiz-adv-x="835" d="M63 836v208h177v271h229v-271h295v-208h-295v-494q0 -72 39.5 -108.5t112.5 -36.5q69 0 143 36v-215q-85 -43 -191 -43q-165 0 -249 87t-84 243v531h-177z" />
<glyph unicode="u" horiz-adv-x="1202" d="M119 416v628h229v-598q0 -112 70 -180.5t184 -68.5t183 68t69 181v598h229v-628q0 -199 -132 -320t-349 -121q-218 0 -350.5 121t-132.5 320z" />
<glyph unicode="v" horiz-adv-x="1163" d="M18 1044h263l303 -761l305 761h256l-445 -1044h-237z" />
<glyph unicode="w" horiz-adv-x="1771" d="M25 1044h256l243 -755l248 755h234l249 -757l244 757h248l-375 -1044h-237l-248 770l-250 -770h-238z" />
<glyph unicode="x" horiz-adv-x="1161" d="M37 0l387 524l-381 520h281l258 -364l258 364h278l-381 -520l387 -524h-280l-264 369l-265 -369h-278z" />
<glyph unicode="y" horiz-adv-x="1163" d="M18 1044h263l303 -761l305 761h256l-535 -1243q-42 -101 -122.5 -158t-176.5 -57q-66 0 -137.5 28.5t-122.5 74.5l92 178q57 -60 131 -60q83 0 125 89l56 116z" />
<glyph unicode="z" horiz-adv-x="1019" d="M82 0v166l522 657h-514v221h834v-165l-523 -658h537v-221h-856z" />
<glyph unicode="{" horiz-adv-x="843" d="M125 467v217h80q50 0 80 31.5t30 83.5v467q0 120 75 195t194 75h207v-217h-119q-52 0 -85.5 -34.5t-33.5 -88.5v-457q0 -55 -31 -98.5t-84 -65.5q53 -24 84 -67t31 -98v-459q0 -54 33.5 -88.5t85.5 -34.5h119v-217h-207q-119 0 -194 75t-75 195v471q0 51 -30.5 83 t-79.5 32h-80z" />
<glyph unicode="|" horiz-adv-x="598" d="M195 -389v1925h208v-1925h-208z" />
<glyph unicode="}" horiz-adv-x="843" d="M53 -172h119q54 0 87.5 34.5t33.5 88.5v459q0 55 31 98t84 67q-53 22 -84 65.5t-31 98.5v457q0 54 -33.5 88.5t-87.5 34.5h-119v217h207q119 0 193.5 -75t74.5 -195v-467q0 -52 30.5 -83.5t80.5 -31.5h80v-217h-80q-49 0 -80 -32t-31 -83v-471q0 -120 -74.5 -195 t-193.5 -75h-207v217z" />
<glyph unicode="~" horiz-adv-x="1165" d="M123 451q0 151 70 243t210 92q53 0 103.5 -19t82 -41t68.5 -41t68 -19q46 0 76 31t30 77h211q0 -151 -70 -243.5t-210 -92.5q-53 0 -103.5 19t-82 41.5t-68.5 41.5t-68 19q-46 0 -76 -30.5t-30 -77.5h-211z" />
<glyph unicode="&#xa1;" horiz-adv-x="542" d="M113 903q0 68 45 113t112 45q69 0 114.5 -45t45.5 -113t-45.5 -113t-114.5 -45q-67 0 -112 45t-45 113zM150 -20l14 636h215l14 -636v-349h-243v349z" />
<glyph unicode="&#xa2;" horiz-adv-x="1226" d="M98 705q0 216 136.5 367.5t351.5 176.5v164h151v-164q129 -17 234.5 -84.5t167.5 -171.5l-205 -110q-69 111 -197 141v-637q128 27 199 141l205 -108q-64 -105 -168.5 -173t-235.5 -85v-162h-151v162q-214 25 -351 176.5t-137 366.5zM334 705q0 -119 70.5 -207 t181.5 -111v637q-111 -23 -181.5 -111t-70.5 -208z" />
<glyph unicode="&#xa3;" horiz-adv-x="1191" d="M98 0v229h121v340h-121v209h121v197q0 198 139.5 330.5t348.5 132.5q120 0 227 -47t184 -129l-127 -177q-56 55 -130.5 86t-151.5 31q-107 0 -175.5 -64t-68.5 -163v-197h409v-209h-409v-340h659v-229h-1026z" />
<glyph unicode="&#xa4;" horiz-adv-x="1112" d="M86 383l129 129q-55 86 -55 197q0 108 55 198l-127 127l139 142l133 -134q88 48 197 48q105 0 195 -46l133 132l141 -142l-125 -127q55 -90 55 -198q0 -111 -55 -201l125 -125l-141 -141l-131 131q-88 -45 -197 -45t-195 47l-133 -133zM356 709q0 -88 57.5 -145.5 t143.5 -57.5q87 0 145 58t58 145t-58 144.5t-145 57.5q-86 0 -143.5 -58t-57.5 -144z" />
<glyph unicode="&#xa5;" horiz-adv-x="1320" d="M35 1413h274l355 -661l356 661h266l-424 -764h187v-170h-267v-98h267v-170h-267v-211h-241v211h-267v170h267v98h-267v170h187z" />
<glyph unicode="&#xa6;" horiz-adv-x="598" d="M195 -389v840h208v-840h-208zM195 696v840h208v-840h-208z" />
<glyph unicode="&#xa7;" horiz-adv-x="1085" d="M135 -55l94 141q43 -46 118.5 -76t160.5 -30q96 0 156.5 40t60.5 103q0 112 -242 166q-75 17 -133 40.5t-109 60t-78.5 92t-27.5 126.5q0 86 39.5 154t110.5 110q-142 87 -142 242q0 148 118 236t296 88q110 0 210 -34t165 -93l-90 -142q-44 42 -115.5 68.5t-148.5 26.5 q-92 0 -150.5 -40t-58.5 -100q0 -111 237 -163q355 -71 355 -316q0 -86 -42.5 -154.5t-115.5 -111.5q149 -85 149 -244q0 -152 -120.5 -242t-301.5 -90q-117 0 -221 38t-174 104zM360 631q0 -116 193 -158q78 3 129 45.5t51 102.5q0 114 -196 155q-77 -3 -127 -44t-50 -101z " />
<glyph unicode="&#xa8;" horiz-adv-x="702" d="M0 1303q0 57 38 95t95 38t96 -38t39 -95q0 -56 -39 -94t-96 -38t-95 38t-38 94zM434 1303q0 57 39 95t96 38t95 -38t38 -95q0 -56 -38 -94t-95 -38t-96 38t-39 94z" />
<glyph unicode="&#xa9;" horiz-adv-x="1665" d="M100 707q0 205 95.5 372.5t263 263t372.5 95.5t373 -95.5t263.5 -263t95.5 -372.5q0 -154 -56.5 -289.5t-153.5 -232.5t-232.5 -153.5t-289.5 -56.5q-205 0 -372.5 95.5t-263 263.5t-95.5 373zM264 707q0 -121 43.5 -228t119 -183.5t180.5 -120.5t224 -44q160 0 290.5 75 t205 207t74.5 294t-74.5 293.5t-205 206.5t-290.5 75q-159 0 -289 -75t-204 -206.5t-74 -293.5zM449 707q0 168 113.5 281.5t281.5 113.5q113 0 203.5 -52.5t140.5 -142.5l-162 -82q-26 46 -74.5 72.5t-107.5 26.5q-92 0 -153.5 -62.5t-61.5 -154.5q0 -93 61.5 -155.5 t153.5 -62.5q59 0 106.5 26.5t75.5 72.5l162 -82q-50 -90 -140.5 -142.5t-203.5 -52.5q-168 0 -281.5 114t-113.5 282z" />
<glyph unicode="&#xaa;" horiz-adv-x="784" d="M70 1137q0 126 78 210.5t194 84.5q106 0 182 -89v72h170v-557h-170v72q-75 -88 -182 -88q-116 0 -194 84.5t-78 210.5zM242 1137q0 -61 40.5 -102.5t100.5 -41.5t100.5 41.5t40.5 102.5t-40.5 102t-100.5 41t-100.5 -41t-40.5 -102z" />
<glyph unicode="&#xab;" horiz-adv-x="1273" d="M74 541l325 417h269l-324 -417l324 -418h-269zM602 541l326 417h268l-324 -417l324 -418h-268z" />
<glyph unicode="&#xac;" horiz-adv-x="1093" d="M123 502v207h848v-529h-211v322h-637z" />
<glyph unicode="&#xad;" horiz-adv-x="835" d="M123 451v221h590v-221h-590z" />
<glyph unicode="&#xae;" horiz-adv-x="888" d="M70 1063q0 160 107 267.5t267 107.5q161 0 268 -107.5t107 -267.5q0 -161 -107 -268t-268 -107q-160 0 -267 107t-107 268zM160 1063q0 -124 81 -207.5t203 -83.5t203.5 83.5t81.5 207.5q0 123 -82 206t-203 83t-202.5 -83t-81.5 -206zM319 883v387h158q54 0 90.5 -36.5 t36.5 -90.5q0 -41 -22 -73t-58 -44l92 -143h-94l-84 135h-37v-135h-82zM401 1090h70q23 0 38 15t15 38t-15 38t-38 15h-70v-106z" />
<glyph unicode="&#xaf;" horiz-adv-x="518" d="M0 1194v192h518v-192h-518z" />
<glyph unicode="&#xb0;" horiz-adv-x="792" d="M80 1126q0 134 90 223t225 89q136 0 227 -89t91 -223t-91 -223.5t-227 -89.5q-135 0 -225 89.5t-90 223.5zM264 1126q0 -57 37.5 -95t93.5 -38q57 0 95 38t38 95t-38 94t-95 37q-56 0 -93.5 -37t-37.5 -94z" />
<glyph unicode="&#xb1;" horiz-adv-x="1093" d="M123 84v207h848v-207h-848zM123 651v207h319v242h209v-242h320v-207h-320v-241h-209v241h-319z" />
<glyph unicode="&#xb2;" horiz-adv-x="659" d="M29 1458q45 70 122 112t168 42q123 0 201 -72.5t78 -183.5q0 -123 -109 -236l-200 -211h323v-159h-561v137l291 311q84 89 84 148q0 44 -33.5 71t-83.5 27q-92 0 -164 -96z" />
<glyph unicode="&#xb3;" horiz-adv-x="690" d="M23 854l96 125q38 -38 93 -60t112 -22q68 0 111.5 31.5t43.5 79.5q0 49 -42.5 80.5t-106.5 31.5h-123v144h123q57 0 93 26t36 66q0 41 -41 67.5t-103 26.5q-47 0 -94 -17.5t-78 -46.5l-90 123q50 47 126 75t157 28q130 0 213.5 -65.5t83.5 -166.5q0 -59 -31.5 -107.5 t-87.5 -78.5q65 -31 102 -86.5t37 -124.5q0 -109 -89.5 -178.5t-229.5 -69.5q-89 0 -172 31.5t-139 87.5z" />
<glyph unicode="&#xb4;" horiz-adv-x="499" d="M0 1167l209 283h291l-258 -283h-242z" />
<glyph unicode="&#xb6;" horiz-adv-x="1277" d="M61 989q0 181 121.5 302.5t302.5 121.5h650v-1802h-199v1608h-154v-1608h-198v954h-99q-181 0 -302.5 122t-121.5 302z" />
<glyph unicode="&#xb7;" horiz-adv-x="573" d="M123 561q0 69 47.5 115.5t116.5 46.5q70 0 117 -46.5t47 -115.5t-47 -115.5t-117 -46.5q-69 0 -116.5 46.5t-47.5 115.5z" />
<glyph unicode="&#xb8;" horiz-adv-x="450" d="M0 -381l82 96q56 -73 131 -73q42 0 70 26t28 64q0 37 -26 61.5t-64 24.5q-40 0 -65 -29l-129 59l120 152v4h162v-4l-53 -63q83 -1 139 -60.5t56 -144.5q0 -93 -66.5 -155t-167.5 -62q-63 0 -119.5 28t-97.5 76z" />
<glyph unicode="&#xb9;" horiz-adv-x="489" d="M14 1454l260 143h121v-847h-170v647l-137 -78z" />
<glyph unicode="&#xba;" horiz-adv-x="765" d="M70 1137q0 126 89.5 210.5t223.5 84.5t224.5 -84.5t90.5 -210.5t-90.5 -210.5t-224.5 -84.5t-223.5 84.5t-89.5 210.5zM242 1137q0 -61 40.5 -102.5t100.5 -41.5t101.5 41.5t41.5 102.5t-41.5 102t-101.5 41t-100.5 -41t-40.5 -102z" />
<glyph unicode="&#xbb;" horiz-adv-x="1273" d="M86 123l324 418l-324 417h268l326 -417l-326 -418h-268zM614 123l324 418l-324 417h269l325 -417l-325 -418h-269z" />
<glyph unicode="&#xbc;" horiz-adv-x="1597" d="M14 1270l260 143h121v-848h-170v647l-137 -77zM193 0l976 1413h213l-979 -1413h-210zM893 303l385 545h186v-524h90v-160h-90v-164h-170v164h-360zM1067 324h227v327z" />
<glyph unicode="&#xbd;" horiz-adv-x="1652" d="M14 1270l260 143h121v-848h-170v647l-137 -77zM193 0l976 1413h213l-979 -1413h-210zM1020 709q45 70 122.5 111.5t168.5 41.5q123 0 200.5 -72.5t77.5 -183.5q0 -123 -108 -235l-201 -211h324v-160h-562v137l291 312q84 89 84 147q0 44 -33.5 71t-83.5 27 q-91 0 -163 -96z" />
<glyph unicode="&#xbe;" horiz-adv-x="1716" d="M23 670l96 125q38 -38 93 -60t112 -22q68 0 111.5 31t43.5 79q0 49 -42.5 81t-106.5 32h-123v143h123q57 0 93 26t36 66q0 41 -41 68t-103 27q-47 0 -94 -17.5t-78 -46.5l-90 123q50 47 125.5 74.5t157.5 27.5q130 0 213.5 -65t83.5 -166q0 -59 -31.5 -107.5t-87.5 -78.5 q65 -31 102 -86.5t37 -124.5q0 -109 -89.5 -178.5t-229.5 -69.5q-89 0 -172 31.5t-139 87.5zM311 0l977 1413h213l-979 -1413h-211zM1012 303l385 545h186v-524h90v-160h-90v-164h-170v164h-360zM1186 324h227v327z" />
<glyph unicode="&#xbf;" horiz-adv-x="962" d="M61 -8q0 79 34 150.5t82.5 123.5t97 99t82.5 95.5t34 94.5v57h242v-57q0 -57 -24 -112t-59.5 -96.5t-77.5 -85.5t-77.5 -80.5t-59.5 -81t-24 -87.5q0 -74 56.5 -123t146.5 -49q89 0 171 46t144 130l160 -159q-88 -118 -215.5 -184t-271.5 -66q-188 0 -314.5 111.5 t-126.5 273.5zM352 903q0 67 46 112.5t114 45.5q69 0 114.5 -45t45.5 -113t-45.5 -113t-114.5 -45q-68 0 -114 45.5t-46 112.5z" />
<glyph unicode="&#xc0;" horiz-adv-x="1464" d="M31 0l557 1413h289l557 -1413h-269l-114 301h-643l-115 -301h-262zM367 1819h290l209 -283h-241zM494 526h471l-236 621z" />
<glyph unicode="&#xc1;" horiz-adv-x="1464" d="M31 0l557 1413h289l557 -1413h-269l-114 301h-643l-115 -301h-262zM494 526h471l-236 621zM596 1536l209 283h291l-258 -283h-242z" />
<glyph unicode="&#xc2;" horiz-adv-x="1464" d="M31 0l557 1413h289l557 -1413h-269l-114 301h-643l-115 -301h-262zM389 1536l205 283h276l205 -283h-217l-125 158l-127 -158h-217zM494 526h471l-236 621z" />
<glyph unicode="&#xc3;" horiz-adv-x="1464" d="M31 0l557 1413h289l557 -1413h-269l-114 301h-643l-115 -301h-262zM373 1556q0 118 59.5 194.5t163.5 76.5q40 0 77 -15t60 -33t52 -33t55 -15q37 0 62.5 26t25.5 64h162q0 -120 -58.5 -195.5t-163.5 -75.5q-53 0 -97.5 24t-80.5 47.5t-67 23.5q-38 0 -62 -26t-24 -63 h-164zM494 526h471l-236 621z" />
<glyph unicode="&#xc4;" horiz-adv-x="1464" d="M31 0l557 1413h289l557 -1413h-269l-114 301h-643l-115 -301h-262zM381 1671q0 57 38 95t95 38t96 -38t39 -95q0 -55 -39 -93t-96 -38t-95 37.5t-38 93.5zM494 526h471l-236 621zM815 1671q0 57 39 95t96 38t95 -38t38 -95q0 -56 -38 -93.5t-95 -37.5t-96 38t-39 93z" />
<glyph unicode="&#xc5;" horiz-adv-x="1464" d="M31 0l557 1413h289l557 -1413h-269l-114 301h-643l-115 -301h-262zM494 526h471l-236 621zM535 1704q0 82 56.5 137t139.5 55q85 0 141 -55t56 -137t-56.5 -137.5t-140.5 -55.5q-83 0 -139.5 55.5t-56.5 137.5zM657 1704q0 -33 21.5 -54.5t52.5 -21.5q32 0 53 21t21 55 q0 32 -21 54t-53 22q-31 0 -52.5 -22t-21.5 -54z" />
<glyph unicode="&#xc6;" horiz-adv-x="1859" d="M-59 0l837 1413h981v-229h-614v-359h547v-229h-547v-367h624v-229h-868v297h-508l-174 -297h-278zM526 522h375v637z" />
<glyph unicode="&#xc7;" horiz-adv-x="1501" d="M80 707q0 205 96.5 372.5t266.5 263t378 95.5q195 0 358 -85t263 -233l-209 -129q-67 98 -175 154.5t-237 56.5q-210 0 -350.5 -141.5t-140.5 -353.5t141 -354t350 -142q129 0 237 56.5t175 154.5l209 -129q-88 -131 -229 -213.5t-312 -99.5l-37 -46q83 -1 139 -60 t56 -144q0 -93 -66.5 -155t-167.5 -62q-63 0 -119.5 28t-97.5 76l82 96q56 -73 131 -73q43 0 71 26t28 64q0 37 -26.5 61.5t-64.5 24.5q-40 0 -65 -29l-129 59l106 134q-141 14 -263.5 75t-210 156t-137.5 223.5t-50 272.5z" />
<glyph unicode="&#xc8;" horiz-adv-x="1193" d="M154 0v1413h940v-229h-697v-359h629v-229h-629v-367h707v-229h-950zM264 1819h291l209 -283h-242z" />
<glyph unicode="&#xc9;" horiz-adv-x="1193" d="M154 0v1413h940v-229h-697v-359h629v-229h-629v-367h707v-229h-950zM494 1536l208 283h291l-258 -283h-241z" />
<glyph unicode="&#xca;" horiz-adv-x="1193" d="M154 0v1413h940v-229h-697v-359h629v-229h-629v-367h707v-229h-950zM287 1536l205 283h276l205 -283h-217l-125 158l-127 -158h-217z" />
<glyph unicode="&#xcb;" horiz-adv-x="1193" d="M154 0v1413h940v-229h-697v-359h629v-229h-629v-367h707v-229h-950zM279 1671q0 57 38 95t95 38t96 -38t39 -95q0 -55 -39 -93t-96 -38t-95 37.5t-38 93.5zM713 1671q0 57 39 95t96 38t95 -38t38 -95q0 -56 -38 -93.5t-95 -37.5t-96 38t-39 93z" />
<glyph unicode="&#xcc;" horiz-adv-x="548" d="M-88 1819h291l209 -283h-242zM154 0v1413h243v-1413h-243z" />
<glyph unicode="&#xcd;" horiz-adv-x="548" d="M139 1536l209 283h291l-258 -283h-242zM154 0v1413h243v-1413h-243z" />
<glyph unicode="&#xce;" horiz-adv-x="548" d="M-68 1536l205 283h277l204 -283h-217l-125 158l-126 -158h-218zM154 0v1413h243v-1413h-243z" />
<glyph unicode="&#xcf;" horiz-adv-x="548" d="M-76 1671q0 57 38 95t95 38t96.5 -38t39.5 -95q0 -55 -39.5 -93t-96.5 -38t-95 37.5t-38 93.5zM154 0v1413h243v-1413h-243zM358 1671q0 57 39.5 95t96.5 38t95 -38t38 -95q0 -56 -38 -93.5t-95 -37.5t-96.5 38t-39.5 93z" />
<glyph unicode="&#xd0;" horiz-adv-x="1499" d="M16 623v165h138v625h548q152 0 285.5 -54t228.5 -147.5t150 -224.5t55 -280t-55 -280t-150 -225t-228.5 -148t-285.5 -54h-548v623h-138zM397 229h301q202 0 337.5 137t135.5 341t-135.5 340.5t-337.5 136.5h-301v-396h232v-165h-232v-394z" />
<glyph unicode="&#xd1;" horiz-adv-x="1505" d="M154 0v1413h247l707 -999v999h244v-1413h-248l-707 999v-999h-243zM399 1556q0 118 60 194.5t164 76.5q40 0 76.5 -15t59.5 -33t52 -33t55 -15q37 0 62.5 26t25.5 64h162q0 -121 -58.5 -196t-162.5 -75q-53 0 -97.5 24t-81 47.5t-67.5 23.5q-38 0 -62 -26t-24 -63h-164z " />
<glyph unicode="&#xd2;" horiz-adv-x="1644" d="M80 707q0 205 96.5 372.5t266.5 263t378 95.5q209 0 379.5 -95.5t267.5 -263t97 -372.5q0 -154 -57 -289.5t-155.5 -232.5t-236.5 -153.5t-295 -56.5q-156 0 -293.5 56.5t-235.5 153.5t-155 232.5t-57 289.5zM330 707q0 -212 141 -354t350 -142q211 0 352.5 142 t141.5 354t-141.5 353.5t-352.5 141.5q-210 0 -350.5 -141.5t-140.5 -353.5zM457 1819h291l208 -283h-241z" />
<glyph unicode="&#xd3;" horiz-adv-x="1644" d="M80 707q0 205 96.5 372.5t266.5 263t378 95.5q209 0 379.5 -95.5t267.5 -263t97 -372.5q0 -154 -57 -289.5t-155.5 -232.5t-236.5 -153.5t-295 -56.5q-156 0 -293.5 56.5t-235.5 153.5t-155 232.5t-57 289.5zM330 707q0 -212 141 -354t350 -142q211 0 352.5 142 t141.5 354t-141.5 353.5t-352.5 141.5q-210 0 -350.5 -141.5t-140.5 -353.5zM686 1536l209 283h291l-258 -283h-242z" />
<glyph unicode="&#xd4;" horiz-adv-x="1644" d="M80 707q0 205 96.5 372.5t266.5 263t378 95.5q209 0 379.5 -95.5t267.5 -263t97 -372.5q0 -154 -57 -289.5t-155.5 -232.5t-236.5 -153.5t-295 -56.5q-156 0 -293.5 56.5t-235.5 153.5t-155 232.5t-57 289.5zM330 707q0 -212 141 -354t350 -142q211 0 352.5 142 t141.5 354t-141.5 353.5t-352.5 141.5q-210 0 -350.5 -141.5t-140.5 -353.5zM479 1536l205 283h277l204 -283h-217l-125 158l-127 -158h-217z" />
<glyph unicode="&#xd5;" horiz-adv-x="1644" d="M80 707q0 205 96.5 372.5t266.5 263t378 95.5q209 0 379.5 -95.5t267.5 -263t97 -372.5q0 -154 -57 -289.5t-155.5 -232.5t-236.5 -153.5t-295 -56.5q-156 0 -293.5 56.5t-235.5 153.5t-155 232.5t-57 289.5zM330 707q0 -212 141 -354t350 -142q211 0 352.5 142 t141.5 354t-141.5 353.5t-352.5 141.5q-210 0 -350.5 -141.5t-140.5 -353.5zM463 1556q0 118 59.5 194.5t163.5 76.5q40 0 77 -15t60 -33t52 -33t55 -15q37 0 62.5 26t25.5 64h162q0 -120 -58.5 -195.5t-163.5 -75.5q-53 0 -97.5 24t-80.5 47.5t-67 23.5q-38 0 -62 -26 t-24 -63h-164z" />
<glyph unicode="&#xd6;" horiz-adv-x="1644" d="M80 707q0 205 96.5 372.5t266.5 263t378 95.5q209 0 379.5 -95.5t267.5 -263t97 -372.5q0 -154 -57 -289.5t-155.5 -232.5t-236.5 -153.5t-295 -56.5q-156 0 -293.5 56.5t-235.5 153.5t-155 232.5t-57 289.5zM330 707q0 -212 141 -354t350 -142q211 0 352.5 142 t141.5 354t-141.5 353.5t-352.5 141.5q-210 0 -350.5 -141.5t-140.5 -353.5zM471 1671q0 57 38 95t95 38t96 -38t39 -95q0 -55 -39 -93t-96 -38t-95 37.5t-38 93.5zM905 1671q0 57 39 95t96 38t95.5 -38t38.5 -95q0 -56 -38.5 -93.5t-95.5 -37.5t-96 38t-39 93z" />
<glyph unicode="&#xd7;" horiz-adv-x="997" d="M123 381l223 223l-223 223l151 152l224 -223l225 223l149 -152l-223 -223l223 -223l-149 -152l-225 224l-224 -224z" />
<glyph unicode="&#xd8;" horiz-adv-x="1644" d="M80 707q0 205 96.5 372.5t266.5 263t378 95.5q236 0 424 -123l86 98h205l-172 -199q96 -99 148.5 -229t52.5 -278q0 -154 -57 -289.5t-155.5 -232.5t-236.5 -153.5t-295 -56.5q-238 0 -424 125l-86 -100h-205l173 199q-95 98 -147 228.5t-52 279.5zM330 707 q0 -187 110 -322l645 745q-122 72 -264 72q-210 0 -350.5 -141.5t-140.5 -353.5zM557 285q120 -74 264 -74q211 0 352.5 142t141.5 354q0 186 -113 321z" />
<glyph unicode="&#xd9;" horiz-adv-x="1411" d="M125 545v868h242v-864q0 -145 96.5 -241.5t241.5 -96.5q146 0 241.5 96.5t95.5 241.5v864h244v-868q0 -244 -166 -407t-415 -163q-122 0 -229.5 43.5t-184.5 119t-121.5 181.5t-44.5 226zM340 1819h291l209 -283h-242z" />
<glyph unicode="&#xda;" horiz-adv-x="1411" d="M125 545v868h242v-864q0 -145 96.5 -241.5t241.5 -96.5q146 0 241.5 96.5t95.5 241.5v864h244v-868q0 -244 -166 -407t-415 -163q-122 0 -229.5 43.5t-184.5 119t-121.5 181.5t-44.5 226zM569 1536l209 283h291l-258 -283h-242z" />
<glyph unicode="&#xdb;" horiz-adv-x="1411" d="M125 545v868h242v-864q0 -145 96.5 -241.5t241.5 -96.5q146 0 241.5 96.5t95.5 241.5v864h244v-868q0 -244 -166 -407t-415 -163q-122 0 -229.5 43.5t-184.5 119t-121.5 181.5t-44.5 226zM362 1536l205 283h277l205 -283h-218l-124 158l-127 -158h-218z" />
<glyph unicode="&#xdc;" horiz-adv-x="1411" d="M125 545v868h242v-864q0 -145 96.5 -241.5t241.5 -96.5q146 0 241.5 96.5t95.5 241.5v864h244v-868q0 -244 -166 -407t-415 -163q-122 0 -229.5 43.5t-184.5 119t-121.5 181.5t-44.5 226zM354 1671q0 57 38 95t95 38t96.5 -38t39.5 -95q0 -55 -39.5 -93t-96.5 -38 t-95 37.5t-38 93.5zM788 1671q0 57 39.5 95t96.5 38t95 -38t38 -95q0 -56 -38 -93.5t-95 -37.5t-96.5 38t-39.5 93z" />
<glyph unicode="&#xdd;" horiz-adv-x="1380" d="M6 1413h279l409 -661l408 661h272l-561 -907v-506h-244v506zM555 1536l209 283h291l-258 -283h-242z" />
<glyph unicode="&#xde;" horiz-adv-x="1271" d="M154 0v1413h243v-246h357q201 0 337 -131t136 -327t-136 -328.5t-337 -132.5h-357v-248h-243zM397 477h353q97 0 162 66t65 166q0 98 -65 163.5t-162 65.5h-353v-461z" />
<glyph unicode="&#xdf;" horiz-adv-x="1155" d="M129 0v1069q0 184 130.5 307t330.5 123q194 0 326.5 -115.5t132.5 -283.5q0 -103 -54.5 -192t-142.5 -134q111 -39 181.5 -141.5t70.5 -233.5q0 -181 -125.5 -302.5t-319.5 -121.5q-96 0 -172 27v223q72 -28 144 -28q106 0 171.5 65.5t65.5 163.5q0 100 -67.5 168 t-163.5 68h-100v221h84q79 0 134.5 56t55.5 140q0 86 -63 142.5t-158 56.5q-100 0 -166 -65t-66 -162v-1051h-229z" />
<glyph unicode="&#xe0;" d="M76 522q0 154 66.5 279t184.5 196.5t263 71.5q229 0 366 -174v149h230v-1044h-230v150q-138 -175 -366 -175q-145 0 -263 71.5t-184.5 196.5t-66.5 279zM303 1450h291l209 -283h-242zM311 522q0 -138 92.5 -231.5t231.5 -93.5q138 0 229.5 93.5t91.5 231.5 q0 139 -91.5 232.5t-229.5 93.5q-139 0 -231.5 -93.5t-92.5 -232.5z" />
<glyph unicode="&#xe1;" d="M76 522q0 154 66.5 279t184.5 196.5t263 71.5q229 0 366 -174v149h230v-1044h-230v150q-138 -175 -366 -175q-145 0 -263 71.5t-184.5 196.5t-66.5 279zM311 522q0 -138 92.5 -231.5t231.5 -93.5q138 0 229.5 93.5t91.5 231.5q0 139 -91.5 232.5t-229.5 93.5 q-139 0 -231.5 -93.5t-92.5 -232.5zM532 1167l209 283h291l-258 -283h-242z" />
<glyph unicode="&#xe2;" d="M76 522q0 154 66.5 279t184.5 196.5t263 71.5q229 0 366 -174v149h230v-1044h-230v150q-138 -175 -366 -175q-145 0 -263 71.5t-184.5 196.5t-66.5 279zM311 522q0 -138 92.5 -231.5t231.5 -93.5q138 0 229.5 93.5t91.5 231.5q0 139 -91.5 232.5t-229.5 93.5 q-139 0 -231.5 -93.5t-92.5 -232.5zM326 1167l204 283h277l205 -283h-217l-125 158l-127 -158h-217z" />
<glyph unicode="&#xe3;" d="M76 522q0 154 66.5 279t184.5 196.5t263 71.5q229 0 366 -174v149h230v-1044h-230v150q-138 -175 -366 -175q-145 0 -263 71.5t-184.5 196.5t-66.5 279zM309 1188q0 118 59.5 194t163.5 76q40 0 77 -15t60 -33t52 -33t55 -15q37 0 62.5 26t25.5 64h162q0 -120 -58 -195 t-163 -75q-41 0 -79 14.5t-61 32.5t-51.5 32.5t-54.5 14.5q-38 0 -62 -25.5t-24 -62.5h-164zM311 522q0 -138 92.5 -231.5t231.5 -93.5q138 0 229.5 93.5t91.5 231.5q0 139 -91.5 232.5t-229.5 93.5q-139 0 -231.5 -93.5t-92.5 -232.5z" />
<glyph unicode="&#xe4;" d="M76 522q0 154 66.5 279t184.5 196.5t263 71.5q229 0 366 -174v149h230v-1044h-230v150q-138 -175 -366 -175q-145 0 -263 71.5t-184.5 196.5t-66.5 279zM311 522q0 -138 92.5 -231.5t231.5 -93.5q138 0 229.5 93.5t91.5 231.5q0 139 -91.5 232.5t-229.5 93.5 q-139 0 -231.5 -93.5t-92.5 -232.5zM317 1303q0 57 38.5 95t95.5 38t96 -38t39 -95q0 -56 -39 -94t-96 -38t-95.5 38t-38.5 94zM752 1303q0 57 39 95t96 38t95 -38t38 -95q0 -56 -38 -94t-95 -38t-96 38t-39 94z" />
<glyph unicode="&#xe5;" d="M76 522q0 154 66.5 279t184.5 196.5t263 71.5q229 0 366 -174v149h230v-1044h-230v150q-138 -175 -366 -175q-145 0 -263 71.5t-184.5 196.5t-66.5 279zM311 522q0 -138 92.5 -231.5t231.5 -93.5q138 0 229.5 93.5t91.5 231.5q0 139 -91.5 232.5t-229.5 93.5 q-139 0 -231.5 -93.5t-92.5 -232.5zM471 1335q0 82 57 137.5t140 55.5q84 0 140 -55.5t56 -137.5t-56 -137t-140 -55q-83 0 -140 55t-57 137zM594 1335q0 -33 21.5 -54t52.5 -21q32 0 52.5 20.5t20.5 54.5q0 33 -20.5 54.5t-52.5 21.5q-31 0 -52.5 -22t-21.5 -54z" />
<glyph unicode="&#xe6;" horiz-adv-x="1925" d="M55 301q0 139 113 231.5t281 92.5h325v37q0 92 -72.5 148t-191.5 56q-165 0 -254 -110l-135 131q60 85 164 133.5t235 48.5q127 0 228.5 -45.5t164.5 -126.5q73 81 177 126.5t223 45.5q234 0 390.5 -157t156.5 -394q0 -55 -7 -82h-845q28 -115 117.5 -184.5t215.5 -69.5 q95 0 175.5 40t125.5 102l164 -131q-84 -102 -205.5 -160t-265.5 -58q-130 0 -241 50t-187 139q-69 -83 -186 -136t-254 -53q-183 0 -297.5 93.5t-114.5 232.5zM291 309q0 -59 57.5 -97t147.5 -38q91 0 177.5 38t141.5 99q-21 52 -35 125h-307q-82 0 -132 -36t-50 -91z M1010 625h602q-26 107 -108.5 172t-192.5 65q-109 0 -191 -65t-110 -172z" />
<glyph unicode="&#xe7;" horiz-adv-x="1159" d="M72 522q0 233 160 390t399 157q155 0 281 -70t198 -190l-199 -121q-42 74 -116 117t-164 43q-138 0 -231 -94t-93 -232t93 -231.5t231 -93.5q91 0 164.5 43t115.5 116l199 -120q-62 -104 -166 -171.5t-233 -84.5l-39 -46q83 -1 138.5 -60t55.5 -144q0 -93 -66 -155 t-167 -62q-63 0 -119.5 28t-97.5 76l82 96q56 -73 131 -73q42 0 70 26t28 64q0 37 -26 61.5t-64 24.5q-41 0 -66 -29l-129 59l107 136q-208 26 -342.5 177t-134.5 363z" />
<glyph unicode="&#xe8;" horiz-adv-x="1236" d="M72 526q0 152 72 276.5t198.5 195.5t280.5 71q235 0 391.5 -156.5t156.5 -392.5q0 -46 -6 -90h-846q28 -113 118.5 -180.5t217.5 -67.5q98 0 182.5 41t131.5 103l155 -133q-81 -102 -205.5 -160t-269.5 -58q-248 0 -412.5 158t-164.5 393zM266 1450h291l209 -283h-242z M317 618h609q-26 110 -109.5 177t-195.5 67q-111 0 -193.5 -67t-110.5 -177z" />
<glyph unicode="&#xe9;" horiz-adv-x="1236" d="M72 526q0 152 72 276.5t198.5 195.5t280.5 71q235 0 391.5 -156.5t156.5 -392.5q0 -46 -6 -90h-846q28 -113 118.5 -180.5t217.5 -67.5q98 0 182.5 41t131.5 103l155 -133q-81 -102 -205.5 -160t-269.5 -58q-248 0 -412.5 158t-164.5 393zM317 618h609 q-26 110 -109.5 177t-195.5 67q-111 0 -193.5 -67t-110.5 -177zM496 1167l209 283h290l-258 -283h-241z" />
<glyph unicode="&#xea;" horiz-adv-x="1236" d="M72 526q0 152 72 276.5t198.5 195.5t280.5 71q235 0 391.5 -156.5t156.5 -392.5q0 -46 -6 -90h-846q28 -113 118.5 -180.5t217.5 -67.5q98 0 182.5 41t131.5 103l155 -133q-81 -102 -205.5 -160t-269.5 -58q-248 0 -412.5 158t-164.5 393zM289 1167l205 283h276l205 -283 h-217l-125 158l-127 -158h-217zM317 618h609q-26 110 -109.5 177t-195.5 67q-111 0 -193.5 -67t-110.5 -177z" />
<glyph unicode="&#xeb;" horiz-adv-x="1236" d="M72 526q0 152 72 276.5t198.5 195.5t280.5 71q235 0 391.5 -156.5t156.5 -392.5q0 -46 -6 -90h-846q28 -113 118.5 -180.5t217.5 -67.5q98 0 182.5 41t131.5 103l155 -133q-81 -102 -205.5 -160t-269.5 -58q-248 0 -412.5 158t-164.5 393zM281 1303q0 57 38 95t95 38 t96 -38t39 -95q0 -56 -39 -94t-96 -38t-95 38t-38 94zM317 618h609q-26 110 -109.5 177t-195.5 67q-111 0 -193.5 -67t-110.5 -177zM715 1303q0 57 39 95t96 38t95 -38t38 -95q0 -56 -38 -94t-95 -38t-96 38t-39 94z" />
<glyph unicode="&#xec;" horiz-adv-x="501" d="M-115 1450h291l209 -283h-242zM135 0v1044h230v-1044h-230z" />
<glyph unicode="&#xed;" horiz-adv-x="501" d="M115 1167l209 283h290l-258 -283h-241zM135 0v1044h230v-1044h-230z" />
<glyph unicode="&#xee;" horiz-adv-x="501" d="M-92 1167l205 283h276l205 -283h-217l-125 158l-127 -158h-217zM135 0v1044h230v-1044h-230z" />
<glyph unicode="&#xef;" horiz-adv-x="501" d="M-100 1303q0 57 38 95t95 38t96 -38t39 -95q0 -56 -39 -94t-96 -38t-95 38t-38 94zM135 0v1044h230v-1044h-230zM334 1303q0 57 39 95t96 38t95 -38t38 -95q0 -56 -38 -94t-95 -38t-96 38t-39 94z" />
<glyph unicode="&#xf0;" horiz-adv-x="1212" d="M72 500q0 146 67 265.5t181 187t251 67.5q141 0 254 -78q-108 155 -274 242l-80 -86h-174l129 137q-82 28 -168 37v217q177 -15 324 -84l80 84h172l-138 -148q208 -131 326.5 -348.5t118.5 -460.5q0 -127 -41 -232.5t-112.5 -176t-168.5 -109.5t-209 -39q-232 0 -385 150 t-153 375zM307 498q0 -129 85.5 -215t213.5 -86t213.5 86t85.5 215t-85.5 215t-213.5 86t-213.5 -86t-85.5 -215z" />
<glyph unicode="&#xf1;" horiz-adv-x="1249" d="M135 0v1044h230v-135q129 160 352 160q186 0 299.5 -113t113.5 -299v-657h-229v582q0 120 -71 193t-189 73q-124 0 -200 -74t-76 -196v-578h-230zM274 1188q0 118 60 194t164 76q40 0 77 -15t59.5 -33t51.5 -33t55 -15q37 0 62.5 26t25.5 64h162q0 -120 -58 -195 t-163 -75q-41 0 -79 14.5t-61 32.5t-51.5 32.5t-54.5 14.5q-38 0 -62 -25.5t-24 -62.5h-164z" />
<glyph unicode="&#xf2;" horiz-adv-x="1261" d="M72 522q0 233 160 390t399 157q156 0 284.5 -71.5t201.5 -197t73 -278.5t-73 -278.5t-201.5 -197t-284.5 -71.5q-239 0 -399 157t-160 390zM266 1450h291l209 -283h-242zM307 522q0 -138 93 -231.5t231 -93.5t229.5 93.5t91.5 231.5q0 139 -91.5 232.5t-229.5 93.5 t-231 -94t-93 -232z" />
<glyph unicode="&#xf3;" horiz-adv-x="1261" d="M72 522q0 233 160 390t399 157q156 0 284.5 -71.5t201.5 -197t73 -278.5t-73 -278.5t-201.5 -197t-284.5 -71.5q-239 0 -399 157t-160 390zM307 522q0 -138 93 -231.5t231 -93.5t229.5 93.5t91.5 231.5q0 139 -91.5 232.5t-229.5 93.5t-231 -94t-93 -232zM496 1167 l209 283h290l-258 -283h-241z" />
<glyph unicode="&#xf4;" horiz-adv-x="1261" d="M72 522q0 233 160 390t399 157q156 0 284.5 -71.5t201.5 -197t73 -278.5t-73 -278.5t-201.5 -197t-284.5 -71.5q-239 0 -399 157t-160 390zM287 1167l205 283h276l205 -283h-217l-125 158l-127 -158h-217zM307 522q0 -138 93 -231.5t231 -93.5t229.5 93.5t91.5 231.5 q0 139 -91.5 232.5t-229.5 93.5t-231 -94t-93 -232z" />
<glyph unicode="&#xf5;" horiz-adv-x="1261" d="M72 522q0 233 160 390t399 157q156 0 284.5 -71.5t201.5 -197t73 -278.5t-73 -278.5t-201.5 -197t-284.5 -71.5q-239 0 -399 157t-160 390zM270 1188q0 118 60 194t164 76q40 0 77 -15t59.5 -33t51.5 -33t55 -15q37 0 62.5 26t25.5 64h162q0 -120 -58 -195t-163 -75 q-41 0 -79 14.5t-61 32.5t-51.5 32.5t-54.5 14.5q-38 0 -62 -25.5t-24 -62.5h-164zM307 522q0 -138 93 -231.5t231 -93.5t229.5 93.5t91.5 231.5q0 139 -91.5 232.5t-229.5 93.5t-231 -94t-93 -232z" />
<glyph unicode="&#xf6;" horiz-adv-x="1261" d="M72 522q0 233 160 390t399 157q156 0 284.5 -71.5t201.5 -197t73 -278.5t-73 -278.5t-201.5 -197t-284.5 -71.5q-239 0 -399 157t-160 390zM279 1303q0 57 38 95t95 38t96 -38t39 -95q0 -56 -39 -94t-96 -38t-95 38t-38 94zM307 522q0 -138 93 -231.5t231 -93.5 t229.5 93.5t91.5 231.5q0 139 -91.5 232.5t-229.5 93.5t-231 -94t-93 -232zM713 1303q0 57 39 95t96 38t95 -38t38 -95q0 -56 -38 -94t-95 -38t-96 38t-39 94z" />
<glyph unicode="&#xf7;" horiz-adv-x="1093" d="M123 510v190h848v-190h-848zM418 258q0 54 36.5 89.5t92.5 35.5t92.5 -35.5t36.5 -89.5t-37 -90.5t-92 -36.5t-92 36.5t-37 90.5zM418 952q0 54 37 90.5t92 36.5t92 -36.5t37 -90.5t-36.5 -89.5t-92.5 -35.5t-92.5 35.5t-36.5 89.5z" />
<glyph unicode="&#xf8;" horiz-adv-x="1261" d="M72 522q0 233 160 390t399 157q179 0 319 -92l60 67h168l-134 -147q146 -156 146 -375q0 -153 -73 -278.5t-201.5 -197t-284.5 -71.5q-177 0 -322 95l-61 -70h-168l133 150q-141 154 -141 372zM307 522q0 -113 64 -196l426 479q-78 43 -166 43q-138 0 -231 -94t-93 -232z M463 242q76 -45 168 -45q138 0 229.5 93.5t91.5 231.5q0 114 -63 199z" />
<glyph unicode="&#xf9;" horiz-adv-x="1202" d="M119 416v628h229v-598q0 -112 70 -180.5t184 -68.5t183 68t69 181v598h229v-628q0 -199 -132 -320t-349 -121q-218 0 -350.5 121t-132.5 320zM238 1450h290l209 -283h-241z" />
<glyph unicode="&#xfa;" horiz-adv-x="1202" d="M119 416v628h229v-598q0 -112 70 -180.5t184 -68.5t183 68t69 181v598h229v-628q0 -199 -132 -320t-349 -121q-218 0 -350.5 121t-132.5 320zM465 1167l209 283h291l-258 -283h-242z" />
<glyph unicode="&#xfb;" horiz-adv-x="1202" d="M119 416v628h229v-598q0 -112 70 -180.5t184 -68.5t183 68t69 181v598h229v-628q0 -199 -132 -320t-349 -121q-218 0 -350.5 121t-132.5 320zM258 1167l205 283h276l205 -283h-217l-125 158l-127 -158h-217z" />
<glyph unicode="&#xfc;" horiz-adv-x="1202" d="M119 416v628h229v-598q0 -112 70 -180.5t184 -68.5t183 68t69 181v598h229v-628q0 -199 -132 -320t-349 -121q-218 0 -350.5 121t-132.5 320zM250 1303q0 57 38 95t95 38t96 -38t39 -95q0 -56 -39 -94t-96 -38t-95 38t-38 94zM684 1303q0 57 39 95t96 38t95 -38t38 -95 q0 -56 -38 -94t-95 -38t-96 38t-39 94z" />
<glyph unicode="&#xfd;" horiz-adv-x="1163" d="M18 1044h263l303 -761l305 761h256l-535 -1243q-42 -101 -122.5 -158t-176.5 -57q-66 0 -137.5 28.5t-122.5 74.5l92 178q57 -60 131 -60q83 0 125 89l56 116zM446 1167l209 283h291l-258 -283h-242z" />
<glyph unicode="&#xfe;" d="M135 -389v1864h230v-582q65 84 159.5 130t208.5 46q144 0 262 -71.5t185 -197t67 -278.5t-67 -278.5t-185 -197t-262 -71.5q-114 0 -208 46t-160 131v-541h-230zM365 522q0 -138 92.5 -231.5t230.5 -93.5t230 93.5t92 231.5t-92 232t-230 94t-230.5 -94t-92.5 -232z" />
<glyph unicode="&#xff;" horiz-adv-x="1163" d="M18 1044h263l303 -761l305 761h256l-535 -1243q-42 -101 -122.5 -158t-176.5 -57q-66 0 -137.5 28.5t-122.5 74.5l92 178q57 -60 131 -60q83 0 125 89l56 116zM231 1303q0 57 38.5 95t95.5 38t96 -38t39 -95q0 -56 -39 -94t-96 -38t-95.5 38t-38.5 94zM666 1303 q0 57 39 95t96 38t95 -38t38 -95q0 -56 -38 -94t-95 -38t-96 38t-39 94z" />
<glyph unicode="&#x152;" horiz-adv-x="1882" d="M80 707q0 199 93 360.5t257.5 253.5t366.5 92h985v-229h-615v-359h547v-229h-547v-367h625v-229h-995q-151 0 -284.5 54t-228 148t-149.5 225t-55 280zM330 707q0 -204 135.5 -341t337.5 -137h121v955h-121q-202 0 -337.5 -136.5t-135.5 -340.5z" />
<glyph unicode="&#x153;" horiz-adv-x="2117" d="M72 522q0 153 72.5 278.5t198.5 197t278 71.5q144 0 262 -66t188 -182q70 116 188.5 182t262.5 66q228 0 379 -157t151 -394q0 -59 -4 -82h-848q28 -115 118 -184.5t216 -69.5q96 0 176 40t125 102l164 -131q-80 -102 -198.5 -160t-256.5 -58q-150 0 -274 67.5 t-195 184.5q-70 -117 -189 -184.5t-265 -67.5q-152 0 -278 71.5t-198.5 197t-72.5 278.5zM307 522q0 -138 93 -230.5t231 -92.5t230.5 92.5t92.5 230.5t-92.5 231t-230.5 93t-231 -93t-93 -231zM1202 625h604q-26 107 -109.5 172t-193.5 65q-109 0 -191 -65t-110 -172z" />
<glyph unicode="&#x178;" horiz-adv-x="1380" d="M6 1413h279l409 -661l408 661h272l-561 -907v-506h-244v506zM340 1671q0 57 38 95t95 38t96 -38t39 -95q0 -55 -39 -93t-96 -38t-95 37.5t-38 93.5zM774 1671q0 57 39 95t96 38t95 -38t38 -95q0 -56 -38 -93.5t-95 -37.5t-96 38t-39 93z" />
<glyph unicode="&#x2c6;" horiz-adv-x="686" d="M0 1167l205 283h276l205 -283h-217l-125 158l-127 -158h-217z" />
<glyph unicode="&#x2dc;" horiz-adv-x="716" d="M0 1188q0 118 59.5 194t163.5 76q40 0 77 -15t60 -33t52 -33t55 -15q37 0 62.5 26t25.5 64h162q0 -120 -58 -195t-163 -75q-41 0 -79 14.5t-61 32.5t-51.5 32.5t-54.5 14.5q-38 0 -62 -25.5t-24 -62.5h-164z" />
<glyph unicode="&#x2000;" horiz-adv-x="948" />
<glyph unicode="&#x2001;" horiz-adv-x="1896" />
<glyph unicode="&#x2002;" horiz-adv-x="948" />
<glyph unicode="&#x2003;" horiz-adv-x="1896" />
<glyph unicode="&#x2004;" horiz-adv-x="632" />
<glyph unicode="&#x2005;" horiz-adv-x="474" />
<glyph unicode="&#x2006;" horiz-adv-x="316" />
<glyph unicode="&#x2007;" horiz-adv-x="316" />
<glyph unicode="&#x2008;" horiz-adv-x="237" />
<glyph unicode="&#x2009;" horiz-adv-x="379" />
<glyph unicode="&#x200a;" horiz-adv-x="105" />
<glyph unicode="&#x2010;" horiz-adv-x="835" d="M123 451v221h590v-221h-590z" />
<glyph unicode="&#x2011;" horiz-adv-x="835" d="M123 451v221h590v-221h-590z" />
<glyph unicode="&#x2012;" horiz-adv-x="835" d="M123 451v221h590v-221h-590z" />
<glyph unicode="&#x2013;" horiz-adv-x="1245" d="M123 457v207h999v-207h-999z" />
<glyph unicode="&#x2014;" horiz-adv-x="2187" d="M123 457v207h1941v-207h-1941z" />
<glyph unicode="&#x2018;" horiz-adv-x="538" d="M88 874l215 539h199l-144 -539h-270z" />
<glyph unicode="&#x2019;" horiz-adv-x="538" d="M88 874l143 539h271l-215 -539h-199z" />
<glyph unicode="&#x201a;" horiz-adv-x="514" d="M23 -285l143 539h270l-215 -539h-198z" />
<glyph unicode="&#x201c;" horiz-adv-x="995" d="M88 874l215 539h199l-144 -539h-270zM547 874l213 539h198l-143 -539h-268z" />
<glyph unicode="&#x201d;" horiz-adv-x="995" d="M88 874l143 539h271l-215 -539h-199zM547 874l141 539h270l-215 -539h-196z" />
<glyph unicode="&#x201e;" horiz-adv-x="970" d="M23 -285l143 539h270l-215 -539h-198zM479 -285l144 539h270l-215 -539h-199z" />
<glyph unicode="&#x2022;" horiz-adv-x="690" d="M123 561q0 95 63.5 158t157.5 63q95 0 159 -63t64 -158t-64 -158t-159 -63q-94 0 -157.5 63t-63.5 158z" />
<glyph unicode="&#x2026;" horiz-adv-x="1566" d="M88 145q0 69 47.5 116.5t116.5 47.5q70 0 117 -47.5t47 -116.5t-47 -115t-117 -46q-69 0 -116.5 46t-47.5 115zM618 145q0 69 47.5 116.5t116.5 47.5q70 0 118 -47.5t48 -116.5t-47.5 -115t-118.5 -46q-69 0 -116.5 46t-47.5 115zM1149 145q0 69 48 116.5t118 47.5 q69 0 116.5 -47.5t47.5 -116.5t-47.5 -115t-116.5 -46q-71 0 -118.5 46t-47.5 115z" />
<glyph unicode="&#x202f;" horiz-adv-x="379" />
<glyph unicode="&#x2039;" horiz-adv-x="745" d="M74 541l325 417h269l-324 -417l324 -418h-269z" />
<glyph unicode="&#x203a;" horiz-adv-x="745" d="M86 123l324 418l-324 417h268l326 -417l-326 -418h-268z" />
<glyph unicode="&#x205f;" horiz-adv-x="474" />
<glyph unicode="&#x20ac;" horiz-adv-x="1546" d="M63 487l48 170h98q-2 16 -2 50q0 33 2 49h-146l48 170h127q68 230 261.5 371t450.5 141q280 0 494 -166v-264q-89 91 -210 142.5t-253 51.5q-160 0 -285 -74.5t-188 -201.5h758l-47 -170h-758q-2 -16 -2 -49q0 -34 2 -50h731l-49 -170h-635q63 -127 188 -201.5t285 -74.5 q131 0 252.5 52t210.5 143v-265q-214 -166 -494 -166q-255 0 -448.5 141t-263.5 371h-175z" />
<glyph unicode="&#x2122;" horiz-adv-x="1355" d="M33 1294v119h456v-119h-165v-487h-127v487h-164zM592 807v606h164l166 -354l165 354h158v-606h-125v426l-162 -344h-77l-162 344v-426h-127z" />
<glyph unicode="&#x25fc;" horiz-adv-x="1045" d="M0 0v1045h1045v-1045h-1045z" />
</font>
</defs>
</svg>
