<?xml version="1.0" standalone="no"?>
<!DOCTYPE svg PUBLIC "-//W3C//DTD SVG 1.1//EN" "http://www.w3.org/Graphics/SVG/1.1/DTD/svg11.dtd" >
<svg xmlns="http://www.w3.org/2000/svg" xmlns:xlink="http://www.w3.org/1999/xlink" version="1.1">
<metadata></metadata>
<defs>
<font id="lufgablack" horiz-adv-x="1275" >
<font-face units-per-em="2048" ascent="1597" descent="-451" />
<missing-glyph horiz-adv-x="419" />
<glyph unicode="&#xfb01;" horiz-adv-x="1386" d="M41 709v335h139v39q0 189 100 302.5t304 113.5q119 0 209 -47v-324q-56 35 -125 35q-59 0 -89 -28t-30 -76v-15h217v-335h-217v-709h-369v709h-139zM877 1356q0 95 64 158t159 63t159 -63t64 -158t-64 -158t-159 -63t-159 63t-64 158zM915 0v1044h369v-1044h-369z" />
<glyph unicode="&#xfb02;" horiz-adv-x="1386" d="M41 709v335h139v39q0 189 100 302.5t304 113.5q119 0 209 -47v-324q-56 35 -125 35q-59 0 -89 -28t-30 -76v-15h217v-335h-217v-709h-369v709h-139zM915 0v1475h369v-1475h-369z" />
<glyph horiz-adv-x="0" />
<glyph unicode="&#xd;" horiz-adv-x="682" />
<glyph unicode=" "  horiz-adv-x="419" />
<glyph unicode="&#x09;" horiz-adv-x="419" />
<glyph unicode="&#xa0;" horiz-adv-x="419" />
<glyph unicode="!" horiz-adv-x="602" d="M61 213q0 101 68.5 169.5t171.5 68.5t171.5 -68.5t68.5 -169.5t-68.5 -169.5t-171.5 -68.5t-171.5 68.5t-68.5 169.5zM106 1065v348h392v-348l-25 -553h-342z" />
<glyph unicode="&#x22;" horiz-adv-x="974" d="M66 1413h364l-24 -612h-316zM545 1413h364l-24 -612h-316z" />
<glyph unicode="#" horiz-adv-x="1585" d="M35 301v320h287l53 172h-230v319h324l90 301h340l-90 -301h190l91 301h340l-91 -301h193v-319h-289l-51 -172h229v-320h-325l-90 -301h-338l90 301h-191l-90 -301h-340l90 301h-192zM662 621h190l53 172h-190z" />
<glyph unicode="$" horiz-adv-x="1214" d="M55 199l189 258q69 -61 159.5 -103t178.5 -51v240q-1 0 -3.5 1t-3.5 1q-217 60 -339.5 179.5t-122.5 289.5q0 174 128 290.5t341 129.5v122h114v-122q126 -10 235 -56.5t181 -113.5l-170 -258q-47 39 -112.5 67t-133.5 35v-229q34 -9 67.5 -20.5t82 -33t90.5 -46.5 t86 -62.5t74.5 -80.5t50.5 -100.5t20 -121.5q0 -172 -133 -293.5t-338 -140.5v-121h-114v121q-143 9 -286 68t-241 151zM477 1016q0 -58 105 -103v193q-48 -11 -76.5 -34.5t-28.5 -55.5zM696 309q48 13 78.5 39.5t30.5 61.5q0 31 -27 54t-82 44v-199z" />
<glyph unicode="%" horiz-adv-x="1822" d="M66 1077q0 154 106 257.5t264 103.5t264.5 -103.5t106.5 -257.5q0 -155 -106.5 -259.5t-264.5 -104.5t-264 104.5t-106 259.5zM205 0l1024 1413h391l-1024 -1413h-391zM369 1077q0 -29 19 -49t48 -20t48.5 20t19.5 49q0 28 -19.5 47t-48.5 19t-48 -19t-19 -47zM1016 340 q0 154 106 257t264 103t264.5 -103t106.5 -257q0 -155 -106.5 -260t-264.5 -105t-264 105t-106 260zM1319 340q0 -30 19 -50t48 -20t48.5 20.5t19.5 49.5q0 28 -19.5 47t-48.5 19t-48 -19t-19 -47z" />
<glyph unicode="&#x26;" horiz-adv-x="1359" d="M41 438q0 227 209 369q-90 154 -90 283q0 151 117.5 249.5t293.5 98.5q175 0 294.5 -98.5t119.5 -247.5q0 -112 -68 -193t-190 -154l215 -239q63 98 92 215l318 -88q-51 -210 -181 -383l226 -250h-434l-56 61q-114 -86 -313 -86q-249 0 -401 128t-152 335zM397 459 q0 -68 59 -112t152 -44q39 0 70 8l-234 254q-47 -50 -47 -106zM489 1085q0 -48 52 -120q110 65 110 125q0 31 -23 49t-57 18q-35 0 -58.5 -18.5t-23.5 -53.5z" />
<glyph unicode="'" horiz-adv-x="495" d="M66 1413h364l-24 -612h-316z" />
<glyph unicode="(" horiz-adv-x="747" d="M119 573q0 261 81 525t214 438h370q-126 -173 -202 -436.5t-76 -526.5t76 -526t202 -436h-370q-133 174 -214 437.5t-81 524.5z" />
<glyph unicode=")" horiz-adv-x="747" d="M-37 -389q126 173 202.5 436.5t76.5 525.5t-76.5 526t-202.5 437h371q133 -174 214 -438t81 -525t-81 -524.5t-214 -437.5h-371z" />
<glyph unicode="*" horiz-adv-x="763" d="M25 1067l86 47l71 25l-71 28l-86 43l112 193l88 -43l58 -49l-13 75v89h224v-89l-13 -73l60 47l86 43l112 -193l-86 -45l-75 -26l75 -29l86 -43l-112 -193l-88 44l-58 49l13 -76v-88h-224v88l13 76l-60 -49l-86 -44z" />
<glyph unicode="+" horiz-adv-x="1093" d="M106 438v332h273v274h336v-274h272v-332h-272v-274h-336v274h-273z" />
<glyph unicode="," horiz-adv-x="575" d="M-25 -297l146 653h428l-258 -653h-316z" />
<glyph unicode="-" horiz-adv-x="835" d="M106 383v356h623v-356h-623z" />
<glyph unicode="." horiz-adv-x="569" d="M37 221q0 104 71 175t177 71q105 0 176 -70.5t71 -175.5t-71 -175.5t-176 -70.5q-106 0 -177 71t-71 175z" />
<glyph unicode="/" horiz-adv-x="1136" d="M-27 -307l820 1843h370l-819 -1843h-371z" />
<glyph unicode="0" horiz-adv-x="1277" d="M72 707q0 213 71.5 380t201 259t294.5 92t294.5 -92t201 -259t71.5 -380t-71.5 -380t-201 -259.5t-294.5 -92.5t-294.5 92.5t-201 259.5t-71.5 380zM473 707q0 -156 47 -255.5t119 -99.5q73 0 119.5 99t46.5 256t-46 255.5t-120 98.5q-72 0 -119 -99t-47 -255z" />
<glyph unicode="1" horiz-adv-x="854" d="M0 1163l451 250h278v-1413h-391v946l-170 -98z" />
<glyph unicode="2" horiz-adv-x="1089" d="M4 1186q79 113 214.5 182.5t293.5 69.5q220 0 357 -129t137 -326q0 -69 -16 -131t-45 -112.5t-56 -85t-62 -70.5l-211 -215h404v-369h-957v319l420 443q35 39 54.5 61.5t43 63.5t23.5 71q0 40 -32.5 64.5t-84.5 24.5q-102 0 -219 -117z" />
<glyph unicode="3" horiz-adv-x="1163" d="M18 172l222 289q52 -49 132 -79t158 -30q80 0 129.5 29t49.5 76t-48 76.5t-126 29.5h-193v334h193q66 0 106.5 21.5t40.5 56.5q0 38 -47 62t-125 24q-63 0 -128 -18.5t-110 -47.5l-204 285q87 71 220 114.5t271 43.5q233 0 378.5 -112t145.5 -292q0 -92 -44.5 -169.5 t-123.5 -129.5q92 -55 143.5 -142.5t51.5 -193.5q0 -189 -152.5 -306.5t-398.5 -117.5q-158 0 -304.5 53.5t-236.5 143.5z" />
<glyph unicode="4" horiz-adv-x="1200" d="M29 545l577 868h434v-819h115v-369h-115v-225h-391v225h-530zM440 594h209v324z" />
<glyph unicode="5" horiz-adv-x="1161" d="M51 147l191 316q63 -53 142.5 -82t154.5 -29q88 0 138 36.5t50 88.5q0 46 -38.5 76.5t-98.5 30.5q-77 0 -131 -54l-346 101l73 782h844v-369h-516l-6 -122q56 18 131 18q206 0 347.5 -135.5t141.5 -337.5q0 -212 -158 -352t-405 -140q-280 0 -514 172z" />
<glyph unicode="6" horiz-adv-x="1159" d="M43 578q0 167 62 315.5t176 263.5t287 189.5t384 91.5l74 -365q-152 -12 -271 -59.5t-190 -118.5q77 27 148 27q119 0 217.5 -61t154.5 -165.5t56 -228.5q0 -140 -72 -253t-197 -176t-278 -63q-249 0 -400 166.5t-151 436.5zM444 459q0 -46 42.5 -76.5t105.5 -30.5 t105 30.5t42 76.5t-42 76t-105 30t-105.5 -30t-42.5 -76z" />
<glyph unicode="7" horiz-adv-x="1069" d="M61 1044v369h967v-307l-475 -1106h-440l454 1044h-506z" />
<glyph unicode="8" horiz-adv-x="1222" d="M53 412q0 98 49 180.5t138 140.5q-160 118 -160 295q0 173 151 291.5t379 118.5q229 0 381 -118.5t152 -291.5q0 -177 -160 -295q88 -58 137 -140.5t49 -180.5q0 -185 -160.5 -311t-398.5 -126q-156 0 -284 57t-200.5 157.5t-72.5 222.5zM455 451q0 -41 44.5 -70 t110.5 -29q67 0 112.5 29t45.5 70t-45.5 69.5t-112.5 28.5q-66 0 -110.5 -28.5t-44.5 -69.5zM481 987q0 -32 37 -54t92 -22q56 0 93.5 22t37.5 54t-37.5 53t-93.5 21t-92.5 -21t-36.5 -53z" />
<glyph unicode="9" horiz-adv-x="1159" d="M18 946q0 140 72 253t197 176t278 63q249 0 400 -166t151 -436q0 -167 -62 -318t-176 -268.5t-287.5 -191t-383.5 -83.5l-74 365q153 3 273.5 53t191.5 127q-74 -28 -152 -28q-181 0 -304.5 132t-123.5 322zM420 954q0 -46 42 -76t105 -30t105.5 30t42.5 76t-42.5 76.5 t-105.5 30.5t-105 -30.5t-42 -76.5z" />
<glyph unicode=":" horiz-adv-x="589" d="M47 221q0 104 71 175t177 71t177 -71t71 -175t-71 -175t-177 -71t-177 71t-71 175zM47 823q0 104 71 175t177 71t177 -71t71 -175t-71 -174.5t-177 -70.5t-177 70.5t-71 174.5z" />
<glyph unicode=";" horiz-adv-x="622" d="M-25 -297l146 653h428l-258 -653h-316zM80 823q0 104 71 175t177 71t176.5 -70.5t70.5 -175.5q0 -104 -70.5 -174.5t-176.5 -70.5t-177 70.5t-71 174.5z" />
<glyph unicode="&#x3c;" horiz-adv-x="950" d="M106 440v332l738 348v-366l-355 -148l355 -147v-367z" />
<glyph unicode="=" horiz-adv-x="1093" d="M106 215v332h881v-332h-881zM106 666v331h881v-331h-881z" />
<glyph unicode="&#x3e;" horiz-adv-x="950" d="M106 92v367l355 147l-355 148v366l738 -348v-332z" />
<glyph unicode="?" horiz-adv-x="1019" d="M-16 1190q105 119 239.5 183.5t284.5 64.5q207 0 345 -121t138 -293q0 -77 -31.5 -144t-76.5 -112t-89.5 -83.5t-76 -74.5t-31.5 -67v-31h-389v31q0 48 16 93t42 79.5t57 66.5t62.5 59t57.5 51.5t42 50t16 48.5q0 32 -26.5 51t-76.5 19q-132 0 -254 -131zM252 213 q0 101 68.5 169.5t171.5 68.5q102 0 170.5 -68.5t68.5 -169.5t-68.5 -169.5t-170.5 -68.5q-103 0 -171.5 68.5t-68.5 169.5z" />
<glyph unicode="@" horiz-adv-x="1687" d="M66 551q0 161 59.5 303.5t163 245t250 162t313.5 59.5q214 0 390 -91.5t278 -254.5t102 -363q0 -195 -97.5 -311.5t-269.5 -116.5q-86 0 -159.5 29t-120.5 82q-66 -111 -211 -111q-146 0 -241 105t-95 260q0 158 93 263.5t224 105.5q97 0 166 -66v41h297v-410 q0 -29 18.5 -47t47.5 -18q49 0 77.5 54.5t28.5 143.5q0 134 -70 243.5t-191 171t-267 61.5q-155 0 -280 -70.5t-195 -194t-70 -276.5q0 -151 69.5 -274t195 -194t282.5 -71q184 0 311 82l99 -213q-191 -98 -414 -98q-166 0 -312 59t-249.5 161t-163 244.5t-59.5 303.5z M731 551q0 -35 26 -59.5t64 -24.5t64 24.5t26 59.5q0 36 -26.5 60t-63.5 24t-63.5 -24t-26.5 -60z" />
<glyph unicode="A" horiz-adv-x="1476" d="M0 0l508 1413h461l508 -1413h-428l-64 195h-502l-63 -195h-420zM598 555h272l-135 424z" />
<glyph unicode="B" horiz-adv-x="1316" d="M117 0v1413h725q164 0 275.5 -104t111.5 -262q0 -93 -39.5 -173.5t-104.5 -123.5q91 -41 149 -142.5t58 -222.5q0 -169 -115 -277t-290 -108h-770zM496 352h292q43 0 73 30t30 73t-30 72.5t-73 29.5h-292v-205zM496 889h245q37 0 61.5 24.5t24.5 61.5t-24.5 61.5 t-61.5 24.5h-245v-172z" />
<glyph unicode="C" horiz-adv-x="1454" d="M51 707q0 205 98 372.5t270.5 263t383.5 95.5q198 0 363 -85t266 -233l-338 -209q-48 70 -124 110t-167 40q-150 0 -250 -101t-100 -253t100.5 -253.5t249.5 -101.5q91 0 167 40t124 110l338 -209q-101 -148 -266 -233t-363 -85q-158 0 -297.5 56.5t-239.5 153.5 t-157.5 232.5t-57.5 289.5z" />
<glyph unicode="D" horiz-adv-x="1458" d="M117 0v1413h563q205 0 371.5 -92t261 -253.5t94.5 -360.5t-94.5 -361t-261 -254t-371.5 -92h-563zM508 369h164q143 0 238.5 96.5t95.5 241.5t-95.5 241t-238.5 96h-164v-675z" />
<glyph unicode="E" horiz-adv-x="1173" d="M117 0v1413h977v-369h-586v-149h520v-369h-520v-157h596v-369h-987z" />
<glyph unicode="F" horiz-adv-x="1107" d="M117 0v1413h946v-369h-555v-165h479v-369h-479v-510h-391z" />
<glyph unicode="G" horiz-adv-x="1554" d="M51 707q0 205 98 372.5t270.5 263t383.5 95.5q180 0 333.5 -68.5t247.5 -189.5l-294 -236q-50 57 -123 89t-156 32q-153 0 -255.5 -102.5t-102.5 -255.5q0 -154 102 -256.5t254 -102.5q91 0 163 39.5t111 106.5h-272v348h702v-135q0 -156 -54 -292t-148 -232.5t-228 -152 t-288 -55.5q-157 0 -295 56.5t-236.5 153.5t-155.5 232.5t-57 289.5z" />
<glyph unicode="H" horiz-adv-x="1458" d="M117 0v1413h391v-518h442v518h391v-1413h-391v526h-442v-526h-391z" />
<glyph unicode="I" horiz-adv-x="624" d="M117 0v1413h391v-1413h-391z" />
<glyph unicode="J" horiz-adv-x="892" d="M47 10v371q92 -29 172 -29q187 0 187 160v901h391v-921q0 -245 -145 -381t-390 -136q-128 0 -215 35z" />
<glyph unicode="K" horiz-adv-x="1413" d="M117 0v1413h391v-534l418 534h495l-575 -676l608 -737h-506l-348 451l-92 -109v-342h-391z" />
<glyph unicode="L" horiz-adv-x="1077" d="M117 0v1413h391v-1044h534v-369h-925z" />
<glyph unicode="M" horiz-adv-x="1814" d="M117 0v1413h483l311 -614l310 614h477v-1413h-391v778l-289 -573h-221l-289 573v-778h-391z" />
<glyph unicode="N" horiz-adv-x="1482" d="M117 0v1413h391l467 -723v723h391v-1413h-391l-467 723v-723h-391z" />
<glyph unicode="O" horiz-adv-x="1605" d="M51 707q0 205 98 372.5t270.5 263t383.5 95.5t383 -95.5t270 -263t98 -372.5t-98 -373t-270 -263.5t-383 -95.5q-158 0 -297.5 56.5t-239.5 153.5t-157.5 232.5t-57.5 289.5zM453 707q0 -152 100.5 -253.5t249.5 -101.5t249.5 101.5t100.5 253.5t-100 253t-250 101 t-250 -101t-100 -253z" />
<glyph unicode="P" horiz-adv-x="1314" d="M117 0v1413h655q223 0 372.5 -143.5t149.5 -358.5t-149.5 -358t-372.5 -143h-264v-410h-391zM508 778h256q55 0 92 38t37 95t-37 95t-92 38h-256v-266z" />
<glyph unicode="Q" horiz-adv-x="1605" d="M51 707q0 205 98 372.5t270.5 263t383.5 95.5t383 -95.5t270 -263t98 -372.5q0 -152 -54 -284.5t-154 -232.5l127 -180l-291 -203l-142 203q-113 -35 -237 -35q-158 0 -297.5 56.5t-239.5 153.5t-157.5 232.5t-57.5 289.5zM453 707q0 -151 99 -252t247 -103l-90 129 l290 203l109 -156q45 79 45 179q0 152 -100 253t-250 101t-250 -101t-100 -253z" />
<glyph unicode="R" horiz-adv-x="1325" d="M117 0v1413h635q223 0 372.5 -142.5t149.5 -355.5q0 -132 -64.5 -239t-175.5 -170l283 -506h-469l-217 438h-123v-438h-391zM508 778h235q55 0 92 38t37 95t-37 95t-92 38h-235v-266z" />
<glyph unicode="S" horiz-adv-x="1249" d="M23 197l198 299q91 -78 207 -125t217 -47q74 0 126 24t52 64q0 37 -52 60t-185 56q-504 125 -504 471q0 198 155.5 318.5t413.5 120.5q161 0 296 -47.5t222 -124.5l-178 -299q-65 56 -159 89.5t-185 33.5q-73 0 -118.5 -21t-45.5 -55q0 -67 213 -115q37 -8 67.5 -16.5 t88.5 -28.5t103 -43t98 -61.5t88.5 -82.5t59.5 -106t24 -133q0 -132 -76.5 -236t-208 -160.5t-293.5 -56.5q-166 0 -336 61t-288 161z" />
<glyph unicode="T" horiz-adv-x="1202" d="M45 1044v369h1112v-369h-360v-1044h-391v1044h-361z" />
<glyph unicode="U" horiz-adv-x="1388" d="M96 553v860h391v-854q0 -89 59 -148t148 -59t148 59t59 148v854h391v-860q0 -122 -46 -229.5t-125 -184t-190 -120.5t-237 -44t-237 44t-190 120.5t-125 184t-46 229.5z" />
<glyph unicode="V" horiz-adv-x="1464" d="M-4 1413h436l305 -881l303 881h428l-536 -1413h-400z" />
<glyph unicode="W" horiz-adv-x="2041" d="M6 1413h414l219 -858l217 858h340l219 -858l217 858h404l-428 -1413h-389l-197 786l-199 -786h-387z" />
<glyph unicode="X" horiz-adv-x="1484" d="M-2 0l477 711l-469 702h481l258 -418l256 418h478l-469 -702l477 -711h-481l-267 426l-264 -426h-477z" />
<glyph unicode="Y" horiz-adv-x="1382" d="M-25 1413h445l276 -534l275 534h436l-520 -948v-465h-391v465z" />
<glyph unicode="Z" horiz-adv-x="1257" d="M61 0v281l582 763h-573v369h1112v-280l-582 -764h596v-369h-1135z" />
<glyph unicode="[" horiz-adv-x="757" d="M139 -389v1925h584v-348h-203v-1229h203v-348h-584z" />
<glyph unicode="\" horiz-adv-x="1136" d="M-27 1536h371l819 -1843h-370z" />
<glyph unicode="]" horiz-adv-x="757" d="M35 -41h203v1229h-203v348h583v-1925h-583v348z" />
<glyph unicode="^" horiz-adv-x="917" d="M25 872l266 541h336l266 -541h-330l-104 234l-105 -234h-329z" />
<glyph unicode="_" horiz-adv-x="962" d="M6 -84h950v-311h-950v311z" />
<glyph unicode="`" horiz-adv-x="659" d="M0 1458h459l200 -323h-385z" />
<glyph unicode="a" d="M49 522q0 153 64 278.5t177.5 197t252.5 71.5q148 0 262 -90v65h369v-1044h-369v66q-115 -91 -262 -91q-139 0 -252.5 71.5t-177.5 197t-64 278.5zM428 522q0 -82 53 -136t135 -54t135.5 54t53.5 136t-53.5 136.5t-135.5 54.5q-81 0 -134.5 -54.5t-53.5 -136.5z" />
<glyph unicode="b" d="M102 0v1475h369v-496q114 90 262 90q139 0 252.5 -71.5t177.5 -197t64 -278.5t-64 -278.5t-177.5 -197t-252.5 -71.5q-147 0 -262 91v-66h-369zM471 522q0 -82 53 -136t135 -54t135.5 54t53.5 136t-53.5 136.5t-135.5 54.5q-81 0 -134.5 -54.5t-53.5 -136.5z" />
<glyph unicode="c" horiz-adv-x="1103" d="M43 522q0 153 73.5 278.5t203.5 197t290 71.5q157 0 285 -69t201 -189l-320 -195q-24 44 -68 70.5t-98 26.5q-81 0 -134.5 -54.5t-53.5 -136.5t53 -136t135 -54q54 0 98 26t68 70l320 -195q-73 -120 -201 -189t-285 -69q-160 0 -290 71.5t-203.5 197t-73.5 278.5z" />
<glyph unicode="d" d="M49 522q0 153 64 278.5t177.5 197t252.5 71.5q148 0 262 -90v496h369v-1475h-369v66q-115 -91 -262 -91q-139 0 -252.5 71.5t-177.5 197t-64 278.5zM428 522q0 -82 53 -136t135 -54t135.5 54t53.5 136t-53.5 136.5t-135.5 54.5q-81 0 -134.5 -54.5t-53.5 -136.5z" />
<glyph unicode="e" horiz-adv-x="1198" d="M43 528q0 230 161 385.5t400 155.5q237 0 395 -157.5t158 -397.5q0 -60 -8 -96h-709q25 -62 77.5 -96.5t123.5 -34.5q66 0 121 27t90 63l242 -213q-86 -89 -206 -139t-257 -50q-252 0 -420 158.5t-168 394.5zM436 629h328q-20 61 -64 95t-100 34t-99 -34t-65 -95z" />
<glyph unicode="f" horiz-adv-x="796" d="M41 709v335h139v39q0 189 100 302.5t304 113.5q119 0 209 -47v-324q-56 35 -125 35q-59 0 -89 -28t-30 -76v-15h217v-335h-217v-709h-369v709h-139z" />
<glyph unicode="g" horiz-adv-x="1159" d="M45 -10q0 90 41 169.5t111 121.5q-136 133 -136 323q0 199 144.5 332t361.5 133q107 0 197 -35q28 90 108 141.5t193 51.5h92v-340h-74q-61 0 -79 -41q69 -107 69 -242q0 -199 -145 -332t-361 -133q-44 0 -108 11q-45 -25 -45 -66q0 -23 18 -37t47 -14h291 q165 0 277 -89.5t149 -250.5l-379 -107q-8 41 -40 65.5t-79 24.5h-292q-162 0 -261.5 87t-99.5 227zM440 604q0 -51 36 -84t91 -33q54 0 90.5 33t36.5 84t-36.5 84t-90.5 33q-55 0 -91 -33t-36 -84z" />
<glyph unicode="h" horiz-adv-x="1220" d="M102 0v1475h369v-517q117 111 283 111q173 0 279 -105t106 -278v-686h-369v561q0 69 -38.5 110.5t-102.5 41.5q-71 0 -114.5 -43t-43.5 -113v-557h-369z" />
<glyph unicode="i" horiz-adv-x="573" d="M63 1356q0 95 64 158t160 63q95 0 159 -63t64 -158t-64 -158t-159 -63q-96 0 -160 63t-64 158zM102 0v1044h369v-1044h-369z" />
<glyph unicode="j" horiz-adv-x="581" d="M-57 -59q49 -19 86 -19q41 0 61.5 20.5t20.5 55.5v1046h368v-1089q0 -166 -94.5 -267.5t-286.5 -101.5q-85 0 -155 25v330zM72 1356q0 95 64 158t159 63t159 -63t64 -158t-64 -158t-159 -63t-159 63t-64 158z" />
<glyph unicode="k" horiz-adv-x="1177" d="M102 0v1475h369v-734l256 303h475l-428 -471l443 -573h-484l-219 289l-43 -49v-240h-369z" />
<glyph unicode="l" horiz-adv-x="573" d="M102 0v1475h369v-1475h-369z" />
<glyph unicode="m" horiz-adv-x="1839" d="M102 0v1044h369v-77q111 102 270 102q198 0 301 -141q129 141 332 141q174 0 278.5 -104.5t104.5 -278.5v-686h-368v573q0 63 -36 101.5t-96 38.5q-63 0 -103 -40t-40 -104v-569h-369v573q0 63 -35.5 101.5t-95.5 38.5q-63 0 -103 -40t-40 -104v-569h-369z" />
<glyph unicode="n" horiz-adv-x="1220" d="M102 0v1044h369v-77q117 102 283 102q173 0 279 -105t106 -278v-686h-369v561q0 69 -38.5 110.5t-104.5 41.5q-69 0 -112.5 -43t-43.5 -113v-557h-369z" />
<glyph unicode="o" horiz-adv-x="1220" d="M43 522q0 153 73.5 278.5t203.5 197t290 71.5q243 0 405.5 -157t162.5 -390t-162.5 -390t-405.5 -157q-160 0 -290 71.5t-203.5 197t-73.5 278.5zM422 522q0 -82 53 -136t135 -54t135.5 54t53.5 136t-53.5 136.5t-135.5 54.5q-81 0 -134.5 -54.5t-53.5 -136.5z" />
<glyph unicode="p" d="M102 -389v1433h369v-65q114 90 262 90q139 0 252.5 -71.5t177.5 -197t64 -278.5t-64 -278.5t-177.5 -197t-252.5 -71.5q-147 0 -262 91v-455h-369zM471 522q0 -82 53 -136t135 -54t135.5 54t53.5 136t-53.5 136.5t-135.5 54.5q-81 0 -134.5 -54.5t-53.5 -136.5z" />
<glyph unicode="q" d="M49 522q0 153 64 278.5t177.5 197t252.5 71.5q148 0 262 -90v65h369v-1433h-369v455q-115 -91 -262 -91q-139 0 -252.5 71.5t-177.5 197t-64 278.5zM428 522q0 -82 53 -136t135 -54t135.5 54t53.5 136t-53.5 136.5t-135.5 54.5q-81 0 -134.5 -54.5t-53.5 -136.5z" />
<glyph unicode="r" horiz-adv-x="780" d="M102 0v1044h369v-88q105 105 240 105h51v-379h-51q-118 0 -179 -57t-61 -158v-467h-369z" />
<glyph unicode="s" horiz-adv-x="985" d="M23 129l157 225q145 -102 291 -102q125 0 125 53q0 27 -36 41.5t-116 30.5q-46 9 -73 15.5t-73.5 21t-75 30t-64 42t-55.5 57.5t-34 75.5t-14 98.5q0 115 62 196t163 118.5t230 37.5q232 0 432 -133l-158 -225q-147 82 -260 82q-106 0 -106 -45q0 -25 36 -39.5t111 -28.5 q44 -9 73 -15.5t74 -20.5t75.5 -29.5t65.5 -42t56 -58t35 -76t14 -98.5q0 -117 -63.5 -200.5t-169 -124t-240.5 -40.5q-253 0 -462 154z" />
<glyph unicode="t" horiz-adv-x="854" d="M41 709v335h139v246h369v-246h244v-335h-244v-273q0 -48 28.5 -76t84.5 -28q59 0 131 35v-344q-92 -48 -211 -48q-137 0 -229 53.5t-132.5 141.5t-40.5 205v334h-139z" />
<glyph unicode="u" horiz-adv-x="1175" d="M82 420v624h369v-573q0 -63 37.5 -101t99.5 -38t99.5 38t37.5 101v573h369v-624q0 -201 -138.5 -323t-367.5 -122t-367.5 122t-138.5 323z" />
<glyph unicode="v" horiz-adv-x="1163" d="M-12 1044h420l178 -555l178 555h412l-406 -1044h-377z" />
<glyph unicode="w" horiz-adv-x="1744" d="M-6 1044h412l141 -542l143 542h373l145 -546l142 546h401l-356 -1044h-377l-146 569l-145 -569h-377z" />
<glyph unicode="x" horiz-adv-x="1157" d="M-14 0l346 524l-340 520h446l144 -247l141 247h442l-340 -520l346 -524h-446l-150 254l-147 -254h-442z" />
<glyph unicode="y" horiz-adv-x="1163" d="M-12 1044h420l178 -552l178 552h412l-461 -1183q-50 -125 -151.5 -200t-225.5 -75q-79 0 -165.5 30.5t-147.5 80.5l139 289q49 -43 112 -43q72 0 101 67l6 15z" />
<glyph unicode="z" horiz-adv-x="1011" d="M61 0v268l353 420h-344v356h866v-268l-352 -420h366v-356h-889z" />
<glyph unicode="{" horiz-adv-x="903" d="M98 401v349h80q51 0 81 31t30 83v342q0 149 89.5 239.5t237.5 90.5h252v-348h-104q-43 0 -68.5 -27t-25.5 -71v-326q0 -63 -35.5 -113t-97.5 -76q62 -28 97.5 -78t35.5 -112v-328q0 -44 25.5 -71t68.5 -27h104v-348h-252q-148 0 -237.5 90.5t-89.5 239.5v346q0 52 -30 83 t-81 31h-80z" />
<glyph unicode="|" horiz-adv-x="651" d="M158 -389v1925h336v-1925h-336z" />
<glyph unicode="}" horiz-adv-x="903" d="M35 -41h104q43 0 68.5 27t25.5 71v328q0 62 36 112t98 78q-62 27 -98 77t-36 112v326q0 44 -25.5 71t-68.5 27h-104v348h252q148 0 237.5 -90.5t89.5 -239.5v-342q0 -52 30 -83t81 -31h80v-349h-80q-51 0 -81 -31t-30 -83v-346q0 -149 -89.5 -239.5t-237.5 -90.5h-252 v348z" />
<glyph unicode="~" horiz-adv-x="1249" d="M106 399q0 95 18 170.5t56 135t105 92t159 32.5q66 0 127.5 -16.5t105 -33.5t64.5 -17q29 0 47.5 17.5t18.5 45.5h336q0 -95 -18 -170.5t-56 -135t-105 -92t-159 -32.5q-66 0 -127.5 17t-105 34t-64.5 17q-29 0 -47.5 -18t-18.5 -46h-336z" />
<glyph unicode="&#xa1;" horiz-adv-x="602" d="M61 831q0 101 68.5 169.5t171.5 68.5t171.5 -68.5t68.5 -169.5t-68.5 -169t-171.5 -68t-171.5 68t-68.5 169zM106 -20l25 552h342l25 -552v-349h-392v349z" />
<glyph unicode="&#xa2;" horiz-adv-x="1175" d="M74 705q0 209 132 358t339 182v168h192v-170q124 -19 225.5 -84.5t161.5 -165.5l-309 -186q-28 52 -78 76v-357q48 23 78 78l311 -188q-63 -100 -163.5 -166t-225.5 -84v-166h-192v164q-207 33 -339 182.5t-132 358.5zM440 705q0 -59 28.5 -106.5t76.5 -74.5v361 q-48 -27 -76.5 -74t-28.5 -106z" />
<glyph unicode="&#xa3;" horiz-adv-x="1208" d="M96 0v369h90v153h-90v336h90v84q0 212 152 354t381 142q125 0 239 -45t201 -121l-198 -287q-52 34 -117 55t-121 21q-67 0 -106 -33t-39 -86v-84h342v-336h-342v-153h579v-369h-1061z" />
<glyph unicode="&#xa4;" horiz-adv-x="1148" d="M61 424l125 125q-32 78 -32 160q0 90 34 159l-127 127l224 224l141 -140q73 25 149 25q73 0 150 -23l139 138l223 -226l-122 -123q34 -72 34 -161q0 -90 -34 -162l122 -123l-223 -223l-139 137q-77 -23 -150 -23t-147 23l-141 -137zM465 709q0 -47 31.5 -79t78.5 -32 t80 32t33 79q0 49 -32.5 80.5t-80.5 31.5q-47 0 -78.5 -32.5t-31.5 -79.5z" />
<glyph unicode="&#xa5;" horiz-adv-x="1345" d="M-2 1413h436l244 -534l242 534h428l-404 -799h141v-180h-217v-74h217v-180h-217v-180h-391v180h-215v180h215v74h-215v180h139z" />
<glyph unicode="&#xa6;" horiz-adv-x="651" d="M158 -389v840h336v-840h-336zM158 696v840h336v-840h-336z" />
<glyph unicode="&#xa7;" horiz-adv-x="1089" d="M88 594q0 158 111 254q-97 94 -97 229q0 170 129 265.5t324 95.5q117 0 230 -33.5t184 -91.5l-138 -226q-40 31 -107 52.5t-132 21.5q-59 0 -93 -17.5t-34 -47.5q0 -20 16.5 -37t47.5 -29.5t58 -20.5t64 -16q56 -13 100.5 -28.5t95 -43t84 -62.5t55.5 -89t22 -121 q0 -157 -111 -254q96 -89 96 -227q0 -116 -62.5 -200t-163 -123.5t-226.5 -39.5q-129 0 -248.5 42t-194.5 110l146 223q36 -40 107.5 -69t150.5 -29q61 0 95 17.5t34 47.5q0 21 -17 38t-50 30t-56.5 20t-58.5 15q-40 10 -71 19t-70 24.5t-68.5 33t-59.5 44.5t-49 58t-31 73 t-12 92zM451 633q0 -62 108 -90q38 4 62 23t24 44q0 64 -108 90q-39 -5 -62.5 -23t-23.5 -44z" />
<glyph unicode="&#xa8;" horiz-adv-x="860" d="M0 1313q0 84 57 140t142 56t141.5 -55.5t56.5 -140.5t-56.5 -141t-141.5 -56t-142 56t-57 141zM463 1313q0 84 57 140t142 56t141.5 -55.5t56.5 -140.5t-56.5 -141t-141.5 -56t-142 56t-57 141z" />
<glyph unicode="&#xa9;" horiz-adv-x="1605" d="M72 707q0 205 95.5 372.5t263 263t372.5 95.5t372.5 -95.5t263 -263t95.5 -372.5t-95.5 -373t-263 -263.5t-372.5 -95.5t-372.5 95.5t-263 263.5t-95.5 373zM324 707q0 -209 138 -349.5t341 -140.5t341 140.5t138 349.5t-138 349t-341 140t-341 -140t-138 -349zM453 707 q0 154 102.5 257t257.5 103q105 0 190 -50.5t130 -137.5l-256 -129q-17 36 -64 36q-33 0 -54.5 -23t-21.5 -56t21.5 -56.5t54.5 -23.5q43 0 64 37l256 -129q-45 -87 -130 -138t-190 -51q-155 0 -257.5 103.5t-102.5 257.5z" />
<glyph unicode="&#xaa;" horiz-adv-x="720" d="M25 1137q0 126 75 210.5t185 84.5q65 0 123 -48v33h268v-561h-268v33q-57 -47 -123 -47q-110 0 -185 84.5t-75 210.5zM295 1137q0 -26 16 -43t41 -17q24 0 40 17t16 43t-16 42.5t-40 16.5q-25 0 -41 -16.5t-16 -42.5z" />
<glyph unicode="&#xab;" horiz-adv-x="1374" d="M41 541l281 422h430l-283 -422l283 -422h-430zM637 541l281 422h430l-283 -422l283 -422h-430z" />
<glyph unicode="&#xac;" horiz-adv-x="1093" d="M106 438v332h881v-606h-336v274h-545z" />
<glyph unicode="&#xad;" horiz-adv-x="835" d="M106 383v356h623v-356h-623z" />
<glyph unicode="&#xae;" horiz-adv-x="817" d="M25 1053q0 164 110.5 274.5t274.5 110.5t273.5 -110.5t109.5 -274.5t-109.5 -273.5t-273.5 -109.5t-274.5 109.5t-110.5 273.5zM156 1053q0 -110 72.5 -184t181.5 -74q107 0 179.5 74t72.5 184t-72.5 185t-179.5 75q-109 0 -181.5 -75t-72.5 -185zM281 883v370h147 q58 0 97.5 -39.5t39.5 -97.5q0 -64 -49 -104l59 -129h-133l-34 98h-7v-98h-120zM401 1087h17q12 0 20 8.5t8 20.5t-8 20.5t-20 8.5h-17v-58z" />
<glyph unicode="&#xaf;" horiz-adv-x="602" d="M0 1147v307h602v-307h-602z" />
<glyph unicode="&#xb0;" horiz-adv-x="790" d="M35 1087q0 149 103 250t257 101t257.5 -101t103.5 -250q0 -152 -103.5 -253t-257.5 -101t-257 101t-103 253zM328 1087q0 -29 19 -49t48 -20t48.5 20t19.5 49q0 28 -19.5 47t-48.5 19t-48 -19t-19 -47z" />
<glyph unicode="&#xb1;" horiz-adv-x="1093" d="M106 0v332h881v-332h-881zM106 623v331h273v213h336v-213h272v-331h-272v-213h-336v213h-273z" />
<glyph unicode="&#xb2;" horiz-adv-x="667" d="M4 1462q48 68 131.5 109t179.5 41q136 0 219.5 -79.5t83.5 -201.5q0 -135 -104 -239l-92 -93h203v-249h-580v217l236 243q67 67 67 105q0 15 -14 24t-35 9q-47 0 -117 -60z" />
<glyph unicode="&#xb3;" horiz-adv-x="712" d="M4 852l150 197q30 -26 74.5 -43t86.5 -17q38 0 61 11t23 30q0 20 -23.5 31.5t-60.5 11.5h-112v225h112q70 0 70 27q0 15 -24 24t-60 9q-66 0 -129 -29l-139 193q53 40 135.5 65t165.5 25q144 0 233.5 -68.5t89.5 -177.5q0 -111 -96 -178q111 -68 111 -197 q0 -115 -94 -185.5t-244 -70.5q-94 0 -184 31t-146 86z" />
<glyph unicode="&#xb4;" horiz-adv-x="659" d="M0 1135l201 323h458l-274 -323h-385z" />
<glyph unicode="&#xb6;" horiz-adv-x="1398" d="M47 973q0 187 126.5 313.5t313.5 126.5h795v-1802h-315v1491h-111v-1491h-315v921h-54q-187 0 -313.5 126.5t-126.5 314.5z" />
<glyph unicode="&#xb7;" horiz-adv-x="708" d="M106 561q0 104 71 175t177 71t177 -71t71 -175t-71 -175t-177 -71t-177 71t-71 175z" />
<glyph unicode="&#xb8;" horiz-adv-x="550" d="M0 -434l121 153q70 -63 139 -63q32 0 53 16t21 41q0 23 -18 39.5t-44 16.5q-35 0 -53 -25l-203 90l138 166v4h254v-4l-48 -53q83 -14 137 -79.5t54 -154.5q0 -108 -80.5 -181t-204.5 -73q-150 0 -266 107z" />
<glyph unicode="&#xb9;" horiz-adv-x="538" d="M0 1444l274 153h191v-847h-266v530l-84 -49z" />
<glyph unicode="&#xba;" horiz-adv-x="704" d="M25 1137q0 126 94.5 210.5t232.5 84.5t233 -84.5t95 -210.5t-95 -210.5t-233 -84.5t-232.5 84.5t-94.5 210.5zM295 1137q0 -26 16.5 -43t40.5 -17t41 17t17 43q0 25 -17 42t-41 17t-40.5 -16.5t-16.5 -42.5z" />
<glyph unicode="&#xbb;" horiz-adv-x="1374" d="M41 119l283 422l-283 422h430l281 -422l-281 -422h-430zM637 119l283 422l-283 422h430l281 -422l-281 -422h-430z" />
<glyph unicode="&#xbc;" horiz-adv-x="1728" d="M0 1260l274 153h191v-848h-266v531l-84 -49zM219 0l946 1413h334l-946 -1413h-334zM979 338l330 510h295v-477h57v-250h-57v-121h-267v121h-297zM1239 371h98v166z" />
<glyph unicode="&#xbd;" horiz-adv-x="1755" d="M0 1260l274 153h191v-848h-266v531l-84 -49zM219 0l946 1413h334l-946 -1413h-334zM1092 713q48 67 131.5 108t179.5 41q136 0 219.5 -79t83.5 -201q0 -136 -104 -240l-93 -92h203v-250h-579v217l235 244q68 68 68 104q0 15 -14.5 24t-35.5 9q-47 0 -116 -59z" />
<glyph unicode="&#xbe;" horiz-adv-x="1820" d="M4 668l150 196q29 -26 73.5 -42.5t87.5 -16.5q38 0 61 11t23 30q0 20 -23.5 31.5t-60.5 11.5h-112v225h112q70 0 70 27q0 15 -24 24t-60 9q-66 0 -129 -29l-139 192q53 40 135.5 65t165.5 25q144 0 233.5 -68t89.5 -177q0 -111 -96 -178q111 -68 111 -197 q0 -115 -94 -185.5t-244 -70.5q-94 0 -184 31t-146 86zM311 0l946 1413h334l-946 -1413h-334zM1071 338l330 510h295v-477h57v-250h-57v-121h-266v121h-297zM1331 371h99v166z" />
<glyph unicode="&#xbf;" horiz-adv-x="966" d="M18 20q0 65 22.5 123.5t56.5 98.5t74 78.5t74 66t56.5 58t22.5 57.5v30h389v-30q0 -48 -16 -93t-42 -80t-57 -66.5t-62.5 -59t-57.5 -52t-42 -50t-16 -48.5q0 -32 26 -50.5t76 -18.5q132 0 254 131l250 -260q-105 -119 -239.5 -183.5t-284.5 -64.5q-207 0 -345.5 120.5 t-138.5 292.5zM279 831q0 101 68.5 169.5t170.5 68.5q103 0 171.5 -68.5t68.5 -169.5t-68.5 -169t-171.5 -68t-171 68t-68 169z" />
<glyph unicode="&#xc0;" horiz-adv-x="1476" d="M0 0l508 1413h461l508 -1413h-428l-64 195h-502l-63 -195h-420zM285 1827h458l201 -324h-385zM598 555h272l-135 424z" />
<glyph unicode="&#xc1;" horiz-adv-x="1476" d="M0 0l508 1413h461l508 -1413h-428l-64 195h-502l-63 -195h-420zM530 1503l201 324h459l-275 -324h-385zM598 555h272l-135 424z" />
<glyph unicode="&#xc2;" horiz-adv-x="1476" d="M0 0l508 1413h461l508 -1413h-428l-64 195h-502l-63 -195h-420zM315 1503l201 324h442l201 -324h-344l-78 123l-78 -123h-344zM598 555h272l-135 424z" />
<glyph unicode="&#xc3;" horiz-adv-x="1476" d="M0 0l508 1413h461l508 -1413h-428l-64 195h-502l-63 -195h-420zM346 1516q0 152 67 248t195 96q47 0 88.5 -14.5t71.5 -29t49 -14.5q23 0 38 16t15 40h256q0 -155 -66.5 -250t-195.5 -95q-48 0 -90 14t-71.5 28t-47.5 14q-24 0 -38.5 -15.5t-14.5 -37.5h-256zM598 555 h272l-135 424z" />
<glyph unicode="&#xc4;" horiz-adv-x="1476" d="M0 0l508 1413h461l508 -1413h-428l-64 195h-502l-63 -195h-420zM307 1681q0 85 57 141t142 56t142 -56t57 -141q0 -84 -57 -140t-142 -56t-142 56t-57 140zM598 555h272l-135 424zM770 1681q0 85 57 141t142 56t141.5 -56t56.5 -141t-56.5 -140.5t-141.5 -55.5t-142 56 t-57 140z" />
<glyph unicode="&#xc5;" horiz-adv-x="1476" d="M0 0l508 1413h461l508 -1413h-428l-64 195h-502l-63 -195h-420zM492 1720q0 101 70.5 169.5t174.5 68.5t175 -68.5t71 -169.5t-71 -169t-175 -68t-174.5 68t-70.5 169zM598 555h272l-135 424zM680 1720q0 -26 16 -42.5t41 -16.5t41.5 16.5t16.5 42.5t-16.5 43t-41.5 17 t-41 -17t-16 -43z" />
<glyph unicode="&#xc6;" horiz-adv-x="1873" d="M-82 0l784 1413h1092v-369h-504v-149h439v-369h-439v-157h514v-369h-905v186h-434l-103 -186h-444zM662 547h237v432z" />
<glyph unicode="&#xc7;" horiz-adv-x="1454" d="M51 707q0 205 98 372.5t270.5 263t383.5 95.5q198 0 363 -85t266 -233l-338 -209q-48 70 -124 110t-167 40q-150 0 -250 -101t-100 -253t100.5 -253.5t249.5 -101.5q91 0 167 40t124 110l338 -209q-84 -122 -212 -202t-284 -105l-37 -41q83 -14 137 -79.5t54 -154.5 q0 -108 -80.5 -181t-204.5 -73q-150 0 -266 107l120 153q70 -63 140 -63q32 0 52.5 16t20.5 41q0 23 -17.5 39.5t-43.5 16.5q-35 0 -53 -25l-203 90l125 152q-275 40 -452 241.5t-177 481.5z" />
<glyph unicode="&#xc8;" horiz-adv-x="1173" d="M117 0v1413h977v-369h-586v-149h520v-369h-520v-157h596v-369h-987zM158 1827h458l201 -324h-385z" />
<glyph unicode="&#xc9;" horiz-adv-x="1173" d="M117 0v1413h977v-369h-586v-149h520v-369h-520v-157h596v-369h-987zM403 1503l201 324h459l-275 -324h-385z" />
<glyph unicode="&#xca;" horiz-adv-x="1173" d="M117 0v1413h977v-369h-586v-149h520v-369h-520v-157h596v-369h-987zM188 1503l201 324h442l201 -324h-344l-78 123l-78 -123h-344z" />
<glyph unicode="&#xcb;" horiz-adv-x="1173" d="M117 0v1413h977v-369h-586v-149h520v-369h-520v-157h596v-369h-987zM180 1681q0 85 57 141t142 56t142 -56t57 -141q0 -84 -57 -140t-142 -56t-142 56t-57 140zM643 1681q0 85 57 141t142 56t141.5 -56t56.5 -141t-56.5 -140.5t-141.5 -55.5t-142 56t-57 140z" />
<glyph unicode="&#xcc;" horiz-adv-x="624" d="M-139 1827h458l201 -324h-385zM117 0v1413h391v-1413h-391z" />
<glyph unicode="&#xcd;" horiz-adv-x="624" d="M106 1503l201 324h459l-274 -324h-386zM117 0v1413h391v-1413h-391z" />
<glyph unicode="&#xce;" horiz-adv-x="624" d="M-109 1503l201 324h443l200 -324h-344l-78 123l-77 -123h-345zM117 0v1413h391v-1413h-391z" />
<glyph unicode="&#xcf;" horiz-adv-x="624" d="M-117 1681q0 85 57 141t142 56t142 -56t57 -141q0 -84 -57 -140t-142 -56t-142 56t-57 140zM117 0v1413h391v-1413h-391zM346 1681q0 85 57 141t142 56t141.5 -56t56.5 -141t-56.5 -140.5t-141.5 -55.5t-142 56t-57 140z" />
<glyph unicode="&#xd0;" horiz-adv-x="1458" d="M0 575v263h117v575h563q205 0 371.5 -92t261 -253.5t94.5 -360.5t-94.5 -361t-261 -254t-371.5 -92h-563v575h-117zM508 369h164q143 0 238.5 96.5t95.5 241.5t-95.5 241t-238.5 96h-164v-206h156v-263h-156v-206z" />
<glyph unicode="&#xd1;" horiz-adv-x="1482" d="M117 0v1413h391l467 -723v723h391v-1413h-391l-467 723v-723h-391zM360 1516q0 152 67.5 248t195.5 96q47 0 88.5 -14.5t71 -29t48.5 -14.5q23 0 38.5 16.5t15.5 39.5h256q0 -155 -66.5 -250t-195.5 -95q-63 0 -128 28t-81 28q-24 0 -39 -15.5t-15 -37.5h-256z" />
<glyph unicode="&#xd2;" horiz-adv-x="1605" d="M51 707q0 205 98 372.5t270.5 263t383.5 95.5t383 -95.5t270 -263t98 -372.5t-98 -373t-270 -263.5t-383 -95.5q-158 0 -297.5 56.5t-239.5 153.5t-157.5 232.5t-57.5 289.5zM350 1827h459l201 -324h-385zM453 707q0 -152 100.5 -253.5t249.5 -101.5t249.5 101.5 t100.5 253.5t-100 253t-250 101t-250 -101t-100 -253z" />
<glyph unicode="&#xd3;" horiz-adv-x="1605" d="M51 707q0 205 98 372.5t270.5 263t383.5 95.5t383 -95.5t270 -263t98 -372.5t-98 -373t-270 -263.5t-383 -95.5q-158 0 -297.5 56.5t-239.5 153.5t-157.5 232.5t-57.5 289.5zM453 707q0 -152 100.5 -253.5t249.5 -101.5t249.5 101.5t100.5 253.5t-100 253t-250 101 t-250 -101t-100 -253zM596 1503l201 324h458l-274 -324h-385z" />
<glyph unicode="&#xd4;" horiz-adv-x="1605" d="M51 707q0 205 98 372.5t270.5 263t383.5 95.5t383 -95.5t270 -263t98 -372.5t-98 -373t-270 -263.5t-383 -95.5q-158 0 -297.5 56.5t-239.5 153.5t-157.5 232.5t-57.5 289.5zM381 1503l201 324h442l201 -324h-344l-78 123l-78 -123h-344zM453 707q0 -152 100.5 -253.5 t249.5 -101.5t249.5 101.5t100.5 253.5t-100 253t-250 101t-250 -101t-100 -253z" />
<glyph unicode="&#xd5;" horiz-adv-x="1605" d="M51 707q0 205 98 372.5t270.5 263t383.5 95.5t383 -95.5t270 -263t98 -372.5t-98 -373t-270 -263.5t-383 -95.5q-158 0 -297.5 56.5t-239.5 153.5t-157.5 232.5t-57.5 289.5zM412 1516q0 152 67 248t195 96q47 0 88.5 -14.5t71.5 -29t49 -14.5q23 0 38 16t15 40h256 q0 -155 -66.5 -250t-195.5 -95q-48 0 -90 14t-71.5 28t-47.5 14q-24 0 -38.5 -15.5t-14.5 -37.5h-256zM453 707q0 -152 100.5 -253.5t249.5 -101.5t249.5 101.5t100.5 253.5t-100 253t-250 101t-250 -101t-100 -253z" />
<glyph unicode="&#xd6;" horiz-adv-x="1605" d="M51 707q0 205 98 372.5t270.5 263t383.5 95.5t383 -95.5t270 -263t98 -372.5t-98 -373t-270 -263.5t-383 -95.5q-158 0 -297.5 56.5t-239.5 153.5t-157.5 232.5t-57.5 289.5zM373 1681q0 85 56.5 141t141.5 56t142 -56t57 -141q0 -84 -57 -140t-142 -56t-141.5 55.5 t-56.5 140.5zM453 707q0 -152 100.5 -253.5t249.5 -101.5t249.5 101.5t100.5 253.5t-100 253t-250 101t-250 -101t-100 -253zM836 1681q0 85 56.5 141t141.5 56t142 -56t57 -141q0 -84 -57 -140t-142 -56t-141.5 55.5t-56.5 140.5z" />
<glyph unicode="&#xd7;" horiz-adv-x="1077" d="M106 414l191 190l-191 191l242 241l191 -190l190 190l242 -241l-191 -191l191 -190l-242 -242l-190 190l-191 -190z" />
<glyph unicode="&#xd8;" horiz-adv-x="1605" d="M47 0l186 221q-182 201 -182 486q0 205 98 372.5t270.5 263t383.5 95.5q206 0 379 -95l57 70h317l-184 -219q182 -201 182 -487q0 -205 -98 -373t-270 -263.5t-383 -95.5q-203 0 -379 95l-59 -70h-318zM453 707q0 -97 43 -175l428 508q-55 21 -121 21q-150 0 -250 -101 t-100 -253zM680 373q65 -21 123 -21q149 0 249.5 101.5t100.5 253.5q0 95 -43 176z" />
<glyph unicode="&#xd9;" horiz-adv-x="1388" d="M96 553v860h391v-854q0 -89 59 -148t148 -59t148 59t59 148v854h391v-860q0 -122 -46 -229.5t-125 -184t-190 -120.5t-237 -44t-237 44t-190 120.5t-125 184t-46 229.5zM242 1827h458l201 -324h-385z" />
<glyph unicode="&#xda;" horiz-adv-x="1388" d="M96 553v860h391v-854q0 -89 59 -148t148 -59t148 59t59 148v854h391v-860q0 -122 -46 -229.5t-125 -184t-190 -120.5t-237 -44t-237 44t-190 120.5t-125 184t-46 229.5zM487 1503l201 324h459l-275 -324h-385z" />
<glyph unicode="&#xdb;" horiz-adv-x="1388" d="M96 553v860h391v-854q0 -89 59 -148t148 -59t148 59t59 148v854h391v-860q0 -122 -46 -229.5t-125 -184t-190 -120.5t-237 -44t-237 44t-190 120.5t-125 184t-46 229.5zM272 1503l201 324h442l201 -324h-344l-78 123l-78 -123h-344z" />
<glyph unicode="&#xdc;" horiz-adv-x="1388" d="M96 553v860h391v-854q0 -89 59 -148t148 -59t148 59t59 148v854h391v-860q0 -122 -46 -229.5t-125 -184t-190 -120.5t-237 -44t-237 44t-190 120.5t-125 184t-46 229.5zM264 1681q0 85 57 141t142 56t142 -56t57 -141q0 -84 -57 -140t-142 -56t-142 56t-57 140zM727 1681 q0 85 57 141t142 56t141.5 -56t56.5 -141t-56.5 -140.5t-141.5 -55.5t-142 56t-57 140z" />
<glyph unicode="&#xdd;" horiz-adv-x="1382" d="M-25 1413h445l276 -534l275 534h436l-520 -948v-465h-391v465zM485 1503l201 324h459l-275 -324h-385z" />
<glyph unicode="&#xde;" horiz-adv-x="1308" d="M117 0v1413h391v-205h264q223 0 372.5 -143t149.5 -358t-149.5 -358.5t-372.5 -143.5h-264v-205h-391zM508 573h256q55 0 92 38.5t37 95.5t-37 95t-92 38h-256v-267z" />
<glyph unicode="&#xdf;" horiz-adv-x="1161" d="M96 0v1042q0 195 142 326t360 131q214 0 359 -125.5t145 -306.5q0 -98 -47 -183.5t-127 -135.5q95 -43 154 -135t59 -210q0 -181 -132 -304.5t-329 -123.5q-81 0 -135 15v356q40 -14 88 -14q62 0 95.5 35.5t33.5 83.5q0 51 -34.5 84.5t-84.5 33.5h-70v353h43 q44 0 75.5 31t31.5 77q0 49 -35.5 81t-89.5 32q-57 0 -95 -37t-38 -94v-1012h-369z" />
<glyph unicode="&#xe0;" d="M49 522q0 153 64 278.5t177.5 197t252.5 71.5q148 0 262 -90v65h369v-1044h-369v66q-115 -91 -262 -91q-139 0 -252.5 71.5t-177.5 197t-64 278.5zM197 1458h458l201 -323h-385zM428 522q0 -82 53 -136t135 -54t135.5 54t53.5 136t-53.5 136.5t-135.5 54.5 q-81 0 -134.5 -54.5t-53.5 -136.5z" />
<glyph unicode="&#xe1;" d="M49 522q0 153 64 278.5t177.5 197t252.5 71.5q148 0 262 -90v65h369v-1044h-369v66q-115 -91 -262 -91q-139 0 -252.5 71.5t-177.5 197t-64 278.5zM428 522q0 -82 53 -136t135 -54t135.5 54t53.5 136t-53.5 136.5t-135.5 54.5q-81 0 -134.5 -54.5t-53.5 -136.5zM442 1135 l201 323h459l-275 -323h-385z" />
<glyph unicode="&#xe2;" d="M49 522q0 153 64 278.5t177.5 197t252.5 71.5q148 0 262 -90v65h369v-1044h-369v66q-115 -91 -262 -91q-139 0 -252.5 71.5t-177.5 197t-64 278.5zM227 1135l201 323h442l201 -323h-344l-78 122l-78 -122h-344zM428 522q0 -82 53 -136t135 -54t135.5 54t53.5 136 t-53.5 136.5t-135.5 54.5q-81 0 -134.5 -54.5t-53.5 -136.5z" />
<glyph unicode="&#xe3;" d="M49 522q0 153 64 278.5t177.5 197t252.5 71.5q148 0 262 -90v65h369v-1044h-369v66q-115 -91 -262 -91q-139 0 -252.5 71.5t-177.5 197t-64 278.5zM258 1147q0 152 67 248t195 96q47 0 88.5 -14.5t71.5 -28.5t49 -14q23 0 38 16t15 39h256q0 -155 -66.5 -249.5 t-195.5 -94.5q-48 0 -90 13.5t-71.5 27.5t-47.5 14q-24 0 -38.5 -15.5t-14.5 -37.5h-256zM428 522q0 -82 53 -136t135 -54t135.5 54t53.5 136t-53.5 136.5t-135.5 54.5q-81 0 -134.5 -54.5t-53.5 -136.5z" />
<glyph unicode="&#xe4;" d="M49 522q0 153 64 278.5t177.5 197t252.5 71.5q148 0 262 -90v65h369v-1044h-369v66q-115 -91 -262 -91q-139 0 -252.5 71.5t-177.5 197t-64 278.5zM219 1313q0 84 57 140t142 56t141.5 -55.5t56.5 -140.5t-56.5 -141t-141.5 -56t-142 56t-57 141zM428 522q0 -82 53 -136 t135 -54t135.5 54t53.5 136t-53.5 136.5t-135.5 54.5q-81 0 -134.5 -54.5t-53.5 -136.5zM682 1313q0 84 57 140t142 56t141.5 -55.5t56.5 -140.5t-56.5 -141t-141.5 -56t-142 56t-57 141z" />
<glyph unicode="&#xe5;" d="M49 522q0 153 64 278.5t177.5 197t252.5 71.5q148 0 262 -90v65h369v-1044h-369v66q-115 -91 -262 -91q-139 0 -252.5 71.5t-177.5 197t-64 278.5zM403 1352q0 101 71 169t175 68t175 -68t71 -169t-71 -169.5t-175 -68.5t-175 68.5t-71 169.5zM428 522q0 -82 53 -136 t135 -54t135.5 54t53.5 136t-53.5 136.5t-135.5 54.5q-81 0 -134.5 -54.5t-53.5 -136.5zM592 1352q0 -26 16 -43t41 -17t41.5 17t16.5 43t-16.5 42.5t-41.5 16.5t-41 -16.5t-16 -42.5z" />
<glyph unicode="&#xe6;" horiz-adv-x="1792" d="M33 313q0 139 107 227.5t280 88.5h237v14q0 60 -46.5 95.5t-123.5 35.5q-102 0 -182 -80l-209 209q68 77 174 121.5t234 44.5q211 0 352 -115q147 115 342 115q237 0 395 -157.5t158 -397.5q0 -60 -8 -96h-709q25 -62 77.5 -96.5t123.5 -34.5q66 0 121 27t90 63l242 -213 q-86 -89 -206 -139t-257 -50q-218 0 -375 131q-135 -131 -377 -131q-200 0 -320 95t-120 243zM412 330q0 -40 37.5 -66t97.5 -26q90 0 162 55q-31 66 -41 125h-148q-46 0 -77 -25.5t-31 -62.5zM1030 629h328q-20 61 -64 95t-100 34t-99 -34t-65 -95z" />
<glyph unicode="&#xe7;" horiz-adv-x="1103" d="M43 522q0 153 73.5 278.5t203.5 197t290 71.5q157 0 285 -69t201 -189l-320 -195q-24 44 -68 70.5t-98 26.5q-81 0 -134.5 -54.5t-53.5 -136.5t53 -136t135 -54q54 0 98 26t68 70l320 -195q-56 -92 -146 -155t-202 -88l-41 -45q83 -14 136.5 -79.5t53.5 -154.5 q0 -108 -80.5 -181t-204.5 -73q-150 0 -266 107l121 153q70 -63 139 -63q32 0 53 16t21 41q0 23 -18 39.5t-44 16.5q-35 0 -53 -25l-203 90l127 154q-198 39 -322 186t-124 350z" />
<glyph unicode="&#xe8;" horiz-adv-x="1198" d="M43 528q0 230 161 385.5t400 155.5q237 0 395 -157.5t158 -397.5q0 -60 -8 -96h-709q25 -62 77.5 -96.5t123.5 -34.5q66 0 121 27t90 63l242 -213q-86 -89 -206 -139t-257 -50q-252 0 -420 158.5t-168 394.5zM158 1458h458l201 -323h-385zM436 629h328q-20 61 -64 95 t-100 34t-99 -34t-65 -95z" />
<glyph unicode="&#xe9;" horiz-adv-x="1198" d="M43 528q0 230 161 385.5t400 155.5q237 0 395 -157.5t158 -397.5q0 -60 -8 -96h-709q25 -62 77.5 -96.5t123.5 -34.5q66 0 121 27t90 63l242 -213q-86 -89 -206 -139t-257 -50q-252 0 -420 158.5t-168 394.5zM403 1135l201 323h459l-275 -323h-385zM436 629h328 q-20 61 -64 95t-100 34t-99 -34t-65 -95z" />
<glyph unicode="&#xea;" horiz-adv-x="1198" d="M43 528q0 230 161 385.5t400 155.5q237 0 395 -157.5t158 -397.5q0 -60 -8 -96h-709q25 -62 77.5 -96.5t123.5 -34.5q66 0 121 27t90 63l242 -213q-86 -89 -206 -139t-257 -50q-252 0 -420 158.5t-168 394.5zM188 1135l201 323h442l201 -323h-344l-78 122l-78 -122h-344z M436 629h328q-20 61 -64 95t-100 34t-99 -34t-65 -95z" />
<glyph unicode="&#xeb;" horiz-adv-x="1198" d="M43 528q0 230 161 385.5t400 155.5q237 0 395 -157.5t158 -397.5q0 -60 -8 -96h-709q25 -62 77.5 -96.5t123.5 -34.5q66 0 121 27t90 63l242 -213q-86 -89 -206 -139t-257 -50q-252 0 -420 158.5t-168 394.5zM180 1313q0 84 57 140t142 56t142 -56t57 -140 q0 -85 -57 -141t-142 -56t-142 56t-57 141zM436 629h328q-20 61 -64 95t-100 34t-99 -34t-65 -95zM643 1313q0 84 57 140t142 56t141.5 -55.5t56.5 -140.5t-56.5 -141t-141.5 -56t-142 56t-57 141z" />
<glyph unicode="&#xec;" horiz-adv-x="573" d="M-166 1458h459l201 -323h-385zM102 0v1044h369v-1044h-369z" />
<glyph unicode="&#xed;" horiz-adv-x="573" d="M80 1135l201 323h458l-274 -323h-385zM102 0v1044h369v-1044h-369z" />
<glyph unicode="&#xee;" horiz-adv-x="573" d="M-135 1135l201 323h442l201 -323h-344l-78 122l-78 -122h-344zM102 0v1044h369v-1044h-369z" />
<glyph unicode="&#xef;" horiz-adv-x="573" d="M-143 1313q0 85 56.5 140.5t141.5 55.5t142 -56t57 -140q0 -85 -57 -141t-142 -56t-141.5 56t-56.5 141zM102 0v1044h369v-1044h-369zM319 1313q0 84 57 140t142 56t142 -56t57 -140q0 -85 -57 -141t-142 -56t-142 56t-57 141z" />
<glyph unicode="&#xf0;" horiz-adv-x="1138" d="M43 483q0 140 64 256.5t171.5 182t233.5 65.5q57 0 106 -14q-66 60 -145 100l-47 -61h-260l100 131q-47 8 -104 8v348q176 0 330 -63l49 63h260l-125 -162q194 -135 307 -349.5t113 -448.5q0 -136 -40 -244t-110.5 -177.5t-165 -106t-205.5 -36.5q-231 0 -381.5 144.5 t-150.5 363.5zM422 481q0 -64 42 -106.5t105 -42.5t105.5 42.5t42.5 106.5t-42.5 107t-105.5 43t-105 -43t-42 -107z" />
<glyph unicode="&#xf1;" horiz-adv-x="1220" d="M102 0v1044h369v-77q117 102 283 102q173 0 279 -105t106 -278v-686h-369v561q0 69 -38.5 110.5t-104.5 41.5q-69 0 -112.5 -43t-43.5 -113v-557h-369zM233 1147q0 152 67.5 248t195.5 96q47 0 88.5 -14.5t71.5 -28.5t49 -14q23 0 38 16t15 39h256q0 -155 -66.5 -249.5 t-195.5 -94.5q-48 0 -90 13.5t-71.5 27.5t-47.5 14q-24 0 -39 -15.5t-15 -37.5h-256z" />
<glyph unicode="&#xf2;" horiz-adv-x="1220" d="M43 522q0 153 73.5 278.5t203.5 197t290 71.5q243 0 405.5 -157t162.5 -390t-162.5 -390t-405.5 -157q-160 0 -290 71.5t-203.5 197t-73.5 278.5zM158 1458h458l201 -323h-385zM422 522q0 -82 53 -136t135 -54t135.5 54t53.5 136t-53.5 136.5t-135.5 54.5 q-81 0 -134.5 -54.5t-53.5 -136.5z" />
<glyph unicode="&#xf3;" horiz-adv-x="1220" d="M43 522q0 153 73.5 278.5t203.5 197t290 71.5q243 0 405.5 -157t162.5 -390t-162.5 -390t-405.5 -157q-160 0 -290 71.5t-203.5 197t-73.5 278.5zM403 1135l201 323h459l-275 -323h-385zM422 522q0 -82 53 -136t135 -54t135.5 54t53.5 136t-53.5 136.5t-135.5 54.5 q-81 0 -134.5 -54.5t-53.5 -136.5z" />
<glyph unicode="&#xf4;" horiz-adv-x="1220" d="M43 522q0 153 73.5 278.5t203.5 197t290 71.5q243 0 405.5 -157t162.5 -390t-162.5 -390t-405.5 -157q-160 0 -290 71.5t-203.5 197t-73.5 278.5zM188 1135l201 323h442l201 -323h-344l-78 122l-78 -122h-344zM422 522q0 -82 53 -136t135 -54t135.5 54t53.5 136 t-53.5 136.5t-135.5 54.5q-81 0 -134.5 -54.5t-53.5 -136.5z" />
<glyph unicode="&#xf5;" horiz-adv-x="1220" d="M43 522q0 153 73.5 278.5t203.5 197t290 71.5q243 0 405.5 -157t162.5 -390t-162.5 -390t-405.5 -157q-160 0 -290 71.5t-203.5 197t-73.5 278.5zM219 1147q0 152 67 248t195 96q47 0 88.5 -14.5t71.5 -28.5t49 -14q23 0 38 16t15 39h256q0 -155 -66.5 -249.5 t-195.5 -94.5q-63 0 -128 27.5t-81 27.5q-24 0 -38.5 -15.5t-14.5 -37.5h-256zM422 522q0 -82 53 -136t135 -54t135.5 54t53.5 136t-53.5 136.5t-135.5 54.5q-81 0 -134.5 -54.5t-53.5 -136.5z" />
<glyph unicode="&#xf6;" horiz-adv-x="1220" d="M43 522q0 153 73.5 278.5t203.5 197t290 71.5q243 0 405.5 -157t162.5 -390t-162.5 -390t-405.5 -157q-160 0 -290 71.5t-203.5 197t-73.5 278.5zM180 1313q0 84 57 140t142 56t142 -56t57 -140q0 -85 -57 -141t-142 -56t-142 56t-57 141zM422 522q0 -82 53 -136t135 -54 t135.5 54t53.5 136t-53.5 136.5t-135.5 54.5q-81 0 -134.5 -54.5t-53.5 -136.5zM643 1313q0 84 57 140t142 56t141.5 -55.5t56.5 -140.5t-56.5 -141t-141.5 -56t-142 56t-57 141z" />
<glyph unicode="&#xf7;" horiz-adv-x="1093" d="M106 455v303h881v-303h-881zM358 211q0 78 54.5 131t134.5 53t134 -53t54 -131t-54 -131t-134 -53t-134.5 53t-54.5 131zM358 999q0 78 54.5 131.5t134.5 53.5q79 0 133.5 -53.5t54.5 -131.5t-54 -131t-134 -53t-134.5 53t-54.5 131z" />
<glyph unicode="&#xf8;" horiz-adv-x="1220" d="M20 0l150 170q-127 149 -127 352q0 153 73.5 278.5t203.5 197t290 71.5q157 0 291 -72l41 47h256l-149 -167q129 -148 129 -355q0 -233 -162.5 -390t-405.5 -157q-159 0 -291 74l-43 -49h-256zM422 522q0 -33 8 -57l217 244q-24 4 -37 4q-81 0 -134.5 -54.5t-53.5 -136.5 zM571 336q24 -4 39 -4q82 0 135.5 54t53.5 136q0 36 -8 60z" />
<glyph unicode="&#xf9;" horiz-adv-x="1175" d="M82 420v624h369v-573q0 -63 37.5 -101t99.5 -38t99.5 38t37.5 101v573h369v-624q0 -201 -138.5 -323t-367.5 -122t-367.5 122t-138.5 323zM135 1458h459l201 -323h-385z" />
<glyph unicode="&#xfa;" horiz-adv-x="1175" d="M82 420v624h369v-573q0 -63 37.5 -101t99.5 -38t99.5 38t37.5 101v573h369v-624q0 -201 -138.5 -323t-367.5 -122t-367.5 122t-138.5 323zM381 1135l201 323h458l-274 -323h-385z" />
<glyph unicode="&#xfb;" horiz-adv-x="1175" d="M82 420v624h369v-573q0 -63 37.5 -101t99.5 -38t99.5 38t37.5 101v573h369v-624q0 -201 -138.5 -323t-367.5 -122t-367.5 122t-138.5 323zM166 1135l201 323h442l201 -323h-344l-78 122l-78 -122h-344z" />
<glyph unicode="&#xfc;" horiz-adv-x="1175" d="M82 420v624h369v-573q0 -63 37.5 -101t99.5 -38t99.5 38t37.5 101v573h369v-624q0 -201 -138.5 -323t-367.5 -122t-367.5 122t-138.5 323zM158 1313q0 85 56.5 140.5t141.5 55.5t142 -56t57 -140q0 -85 -57 -141t-142 -56t-141.5 56t-56.5 141zM621 1313q0 85 56.5 140.5 t141.5 55.5t142 -56t57 -140q0 -85 -57 -141t-142 -56t-141.5 56t-56.5 141z" />
<glyph unicode="&#xfd;" horiz-adv-x="1163" d="M-12 1044h420l178 -552l178 552h412l-461 -1183q-50 -125 -151.5 -200t-225.5 -75q-79 0 -165.5 30.5t-147.5 80.5l139 289q49 -43 112 -43q72 0 101 67l6 15zM375 1135l200 323h459l-274 -323h-385z" />
<glyph unicode="&#xfe;" d="M102 -389v1864h369v-496q114 90 262 90q139 0 252.5 -71.5t177.5 -197t64 -278.5t-64 -278.5t-177.5 -197t-252.5 -71.5q-147 0 -262 91v-455h-369zM471 522q0 -82 53 -136t135 -54t135.5 54t53.5 136t-53.5 136.5t-135.5 54.5q-81 0 -134.5 -54.5t-53.5 -136.5z" />
<glyph unicode="&#xff;" horiz-adv-x="1163" d="M-12 1044h420l178 -552l178 552h412l-461 -1183q-50 -125 -151.5 -200t-225.5 -75q-79 0 -165.5 30.5t-147.5 80.5l139 289q49 -43 112 -43q72 0 101 67l6 15zM152 1313q0 85 56.5 140.5t141.5 55.5t142 -56t57 -140q0 -85 -57 -141t-142 -56t-141.5 56t-56.5 141z M614 1313q0 84 57 140t142 56t142 -56t57 -140q0 -85 -57 -141t-142 -56t-142 56t-57 141z" />
<glyph unicode="&#x152;" horiz-adv-x="1812" d="M51 707q0 199 94.5 360.5t261 253.5t371.5 92h955v-369h-504v-149h438v-369h-438v-157h514v-369h-965q-205 0 -371.5 92t-261 254t-94.5 361zM453 707q0 -145 95 -241.5t238 -96.5h52v675h-52q-143 0 -238 -96t-95 -241z" />
<glyph unicode="&#x153;" horiz-adv-x="1953" d="M43 522q0 153 73 278.5t198.5 197t277.5 71.5q121 0 223.5 -47t173.5 -133q71 86 174.5 133t225.5 47q148 0 267.5 -71t188 -198.5t68.5 -285.5q0 -60 -8 -96h-709q25 -62 77.5 -96.5t123.5 -34.5q66 0 121 27t90 63l241 -213q-81 -89 -193.5 -139t-240.5 -50 q-127 0 -236.5 48.5t-185.5 136.5q-72 -88 -175 -136.5t-226 -48.5q-152 0 -277.5 71.5t-198.5 197t-73 278.5zM422 522q0 -82 53 -136t135 -54t135.5 54t53.5 136t-53.5 136.5t-135.5 54.5q-81 0 -134.5 -54.5t-53.5 -136.5zM1192 629h328q-20 61 -64 95t-100 34t-99 -34 t-65 -95z" />
<glyph unicode="&#x178;" horiz-adv-x="1382" d="M-25 1413h445l276 -534l275 534h436l-520 -948v-465h-391v465zM262 1681q0 85 57 141t142 56t141.5 -56t56.5 -141t-56.5 -140.5t-141.5 -55.5t-142 56t-57 140zM725 1681q0 85 57 141t142 56t141.5 -56t56.5 -141t-56.5 -140.5t-141.5 -55.5t-142 56t-57 140z" />
<glyph unicode="&#x2c6;" horiz-adv-x="843" d="M0 1135l201 323h442l201 -323h-344l-78 122l-78 -122h-344z" />
<glyph unicode="&#x2dc;" horiz-adv-x="780" d="M0 1147q0 152 67 248t195 96q47 0 88.5 -14.5t71.5 -28.5t49 -14q23 0 38 16t15 39h256q0 -155 -66.5 -249.5t-195.5 -94.5q-48 0 -90 13.5t-71.5 27.5t-47.5 14q-24 0 -38.5 -15.5t-14.5 -37.5h-256z" />
<glyph unicode="&#x2000;" horiz-adv-x="979" />
<glyph unicode="&#x2001;" horiz-adv-x="1958" />
<glyph unicode="&#x2002;" horiz-adv-x="979" />
<glyph unicode="&#x2003;" horiz-adv-x="1958" />
<glyph unicode="&#x2004;" horiz-adv-x="652" />
<glyph unicode="&#x2005;" horiz-adv-x="489" />
<glyph unicode="&#x2006;" horiz-adv-x="326" />
<glyph unicode="&#x2007;" horiz-adv-x="326" />
<glyph unicode="&#x2008;" horiz-adv-x="244" />
<glyph unicode="&#x2009;" horiz-adv-x="391" />
<glyph unicode="&#x200a;" horiz-adv-x="108" />
<glyph unicode="&#x2010;" horiz-adv-x="835" d="M106 383v356h623v-356h-623z" />
<glyph unicode="&#x2011;" horiz-adv-x="835" d="M106 383v356h623v-356h-623z" />
<glyph unicode="&#x2012;" horiz-adv-x="835" d="M106 383v356h623v-356h-623z" />
<glyph unicode="&#x2013;" horiz-adv-x="1245" d="M106 395v332h1033v-332h-1033z" />
<glyph unicode="&#x2014;" horiz-adv-x="2187" d="M106 395v332h1975v-332h-1975z" />
<glyph unicode="&#x2018;" horiz-adv-x="630" d="M51 780l258 633h316l-146 -633h-428z" />
<glyph unicode="&#x2019;" horiz-adv-x="630" d="M51 780l146 633h428l-258 -633h-316z" />
<glyph unicode="&#x201a;" horiz-adv-x="575" d="M-25 -276l146 632h428l-258 -632h-316z" />
<glyph unicode="&#x201c;" horiz-adv-x="1163" d="M51 780l258 633h316l-146 -633h-428zM584 780l258 633h315l-145 -633h-428z" />
<glyph unicode="&#x201d;" horiz-adv-x="1163" d="M51 780l146 633h428l-258 -633h-316zM584 780l145 633h428l-258 -633h-315z" />
<glyph unicode="&#x201e;" horiz-adv-x="1107" d="M-25 -276l146 632h428l-258 -632h-316zM508 -276l145 632h428l-258 -632h-315z" />
<glyph unicode="&#x2022;" horiz-adv-x="790" d="M106 561q0 123 83 205t206 82t206 -82t83 -205t-83 -205t-206 -82t-206 82t-83 205z" />
<glyph unicode="&#x2026;" horiz-adv-x="1798" d="M37 221q0 104 71 175t177 71q105 0 176 -70.5t71 -175.5t-71 -175.5t-176 -70.5q-106 0 -177 71t-71 175zM651 221q0 104 71 175t177 71t177 -71t71 -175t-71 -175t-177 -71t-177 71t-71 175zM1266 221q0 105 71 175.5t176 70.5q106 0 177 -71t71 -175t-71 -175t-177 -71 q-105 0 -176 70.5t-71 175.5z" />
<glyph unicode="&#x202f;" horiz-adv-x="391" />
<glyph unicode="&#x2039;" horiz-adv-x="778" d="M41 541l281 422h430l-283 -422l283 -422h-430z" />
<glyph unicode="&#x203a;" horiz-adv-x="778" d="M41 119l283 422l-283 422h430l281 -422l-281 -422h-430z" />
<glyph unicode="&#x205f;" horiz-adv-x="489" />
<glyph unicode="&#x20ac;" horiz-adv-x="1525" d="M51 489l39 181h88v37v36h-127l39 181h119q69 229 265 371.5t458 142.5q280 0 491 -160v-412q-82 88 -200 141.5t-244 53.5q-102 0 -185.5 -36t-138.5 -101h584l-39 -181h-618q-2 -12 -2 -36q0 -25 2 -37h606l-39 -181h-494q55 -65 138.5 -101t185.5 -36q126 0 244 53.5 t200 141.5v-412q-211 -160 -493 -160q-259 0 -455 142t-266 372h-158z" />
<glyph unicode="&#x2122;" horiz-adv-x="1304" d="M4 1229v184h469v-184h-137v-430h-195v430h-137zM541 799v614h243l111 -262l109 262h235v-614h-192v319l-101 -237h-110l-101 237v-319h-194z" />
<glyph unicode="&#x25fc;" horiz-adv-x="1045" d="M0 0v1045h1045v-1045h-1045z" />
</font>
</defs>
</svg>
