<?xml version="1.0" standalone="no"?>
<!DOCTYPE svg PUBLIC "-//W3C//DTD SVG 1.1//EN" "http://www.w3.org/Graphics/SVG/1.1/DTD/svg11.dtd" >
<svg xmlns="http://www.w3.org/2000/svg" xmlns:xlink="http://www.w3.org/1999/xlink" version="1.1">
<metadata></metadata>
<defs>
<font id="lufgabold" horiz-adv-x="1298" >
<font-face units-per-em="2048" ascent="1597" descent="-451" />
<missing-glyph horiz-adv-x="450" />
<glyph unicode="&#xfb01;" horiz-adv-x="1345" d="M51 772v272h158v78q0 174 92 275.5t277 101.5q112 0 198 -45v-264q-58 37 -131 37q-137 0 -137 -125v-58h248v-272h-248v-772h-299v772h-158zM893 1362q0 78 53 130t131 52q80 0 133.5 -52t53.5 -130q0 -79 -53.5 -131.5t-133.5 -52.5q-78 0 -131 52.5t-53 131.5zM928 0 v1044h299v-1044h-299z" />
<glyph unicode="&#xfb02;" horiz-adv-x="1345" d="M51 772v272h158v78q0 174 92 275.5t277 101.5q112 0 198 -45v-264q-58 37 -131 37q-137 0 -137 -125v-58h248v-272h-248v-772h-299v772h-158zM928 0v1475h299v-1475h-299z" />
<glyph horiz-adv-x="0" />
<glyph unicode="&#xd;" horiz-adv-x="682" />
<glyph unicode=" "  horiz-adv-x="450" />
<glyph unicode="&#x09;" horiz-adv-x="450" />
<glyph unicode="&#xa0;" horiz-adv-x="450" />
<glyph unicode="!" horiz-adv-x="571" d="M86 176q0 85 57.5 142t143.5 57q85 0 141.5 -57t56.5 -142t-56.5 -140.5t-141.5 -55.5q-86 0 -143.5 55.5t-57.5 140.5zM129 1065v348h315v-348l-18 -594h-279z" />
<glyph unicode="&#x22;" horiz-adv-x="919" d="M88 1413h295l-18 -569h-259zM537 1413h297l-21 -569h-256z" />
<glyph unicode="#" horiz-adv-x="1574" d="M47 332v258h287l67 233h-243v258h321l99 332h276l-98 -332h268l98 332h277l-99 -332h209v-258h-286l-70 -233h246v-258h-324l-98 -332h-275l99 332h-266l-99 -332h-278l98 332h-209zM610 590h269l67 233h-266z" />
<glyph unicode="$" horiz-adv-x="1200" d="M63 207l156 215q68 -63 159.5 -107.5t184.5 -56.5v322q-206 55 -326 163.5t-120 274.5t122 278t324 129v131h131v-131q122 -10 226.5 -56.5t173.5 -115.5l-146 -213q-44 41 -112.5 73t-141.5 42v-307q36 -9 70 -20.5t82 -32t88.5 -44t82 -58.5t70.5 -75t47.5 -94 t18.5 -114q0 -170 -129 -285.5t-330 -134.5v-131h-131v129q-138 12 -273 71t-227 148zM420 1024q0 -87 143 -139v268q-65 -12 -104 -47t-39 -82zM694 260q69 14 111.5 51t42.5 90q0 91 -154 142v-283z" />
<glyph unicode="%" horiz-adv-x="1781" d="M78 1090q0 149 102 248.5t254 99.5t254.5 -99.5t102.5 -248.5q0 -151 -102.5 -252t-254.5 -101t-254 101t-102 252zM221 0l1024 1413h318l-1024 -1413h-318zM324 1090q0 -47 31.5 -79t78.5 -32q46 0 77.5 32t31.5 79q0 46 -31.5 77t-77.5 31q-47 0 -78.5 -31t-31.5 -77z M993 328q0 148 102 248t255 100q152 0 254 -100t102 -248q0 -151 -102 -252t-254 -101q-153 0 -255 101t-102 252zM1239 328q0 -47 32 -80t79 -33q46 0 77 33t31 80q0 46 -31 76t-77 30q-47 0 -79 -30t-32 -76z" />
<glyph unicode="&#x26;" horiz-adv-x="1341" d="M53 434q0 132 62.5 223.5t171.5 161.5q-105 157 -105 289q0 142 111 236t276 94q166 0 279 -93.5t113 -234.5q0 -58 -21 -109t-61.5 -93t-84 -74.5t-104.5 -67.5l271 -301q66 102 108 240l260 -78q-61 -217 -180 -371l229 -256h-368l-72 80q-139 -105 -346 -105 q-239 0 -389 127.5t-150 331.5zM352 453q0 -89 70.5 -148t179.5 -59q81 0 156 35l-309 342q-97 -77 -97 -170zM461 1106q0 -62 71 -156q71 40 108.5 77t37.5 81q0 43 -31.5 69.5t-77.5 26.5q-45 0 -76.5 -26.5t-31.5 -71.5z" />
<glyph unicode="'" horiz-adv-x="471" d="M88 1413h295l-18 -569h-259z" />
<glyph unicode="(" horiz-adv-x="714" d="M133 573q0 262 80.5 525.5t212.5 437.5h301q-127 -173 -204 -436.5t-77 -526.5t77 -526t204 -436h-301q-132 174 -212.5 437t-80.5 525z" />
<glyph unicode=")" horiz-adv-x="714" d="M-12 -389q126 174 203 437t77 525t-77 525.5t-203 437.5h301q131 -174 212 -438t81 -525t-81 -524.5t-212 -437.5h-301z" />
<glyph unicode="*" horiz-adv-x="765" d="M47 1065l113 63l59 21l-59 25l-113 59l92 158l115 -60l49 -41l-12 64v121h184v-121l-10 -64l51 41l111 60l94 -158l-113 -62l-63 -22l63 -25l113 -59l-94 -158l-113 60l-49 41l10 -64v-121h-184v121l12 64l-51 -41l-113 -60z" />
<glyph unicode="+" horiz-adv-x="1093" d="M115 469v270h295v297h274v-297h295v-270h-295v-297h-274v297h-295z" />
<glyph unicode="," horiz-adv-x="544" d="M0 -297l143 602h349l-236 -602h-256z" />
<glyph unicode="-" horiz-adv-x="835" d="M115 416v289h606v-289h-606z" />
<glyph unicode="." horiz-adv-x="536" d="M63 184q0 86 58.5 144.5t146.5 58.5q89 0 148 -58t59 -145q0 -88 -59 -146t-148 -58q-88 0 -146.5 58t-58.5 146z" />
<glyph unicode="/" horiz-adv-x="1103" d="M-8 -307l819 1843h301l-819 -1843h-301z" />
<glyph unicode="0" horiz-adv-x="1292" d="M88 707q0 213 70.5 380t197.5 259t289 92q163 0 290.5 -92t198 -258.5t70.5 -380.5q0 -324 -156 -528t-403 -204q-162 0 -289 92.5t-197.5 259.5t-70.5 380zM414 707q0 -187 65 -306.5t166 -119.5q104 0 169 119t65 307t-65 307t-169 119q-101 0 -166 -119.5t-65 -306.5z " />
<glyph unicode="1" horiz-adv-x="823" d="M14 1171l439 242h225v-1413h-318v1034l-210 -119z" />
<glyph unicode="2" horiz-adv-x="1093" d="M29 1184q75 115 206.5 184.5t286.5 69.5q209 0 341 -123.5t132 -313.5q0 -207 -180 -395l-295 -307h496v-299h-942v258l463 494q39 44 62.5 73t47 74.5t23.5 81.5q0 62 -47 100.5t-121 38.5q-136 0 -256 -143z" />
<glyph unicode="3" horiz-adv-x="1169" d="M41 174l180 234q58 -58 146 -92.5t178 -34.5q103 0 168 44t65 113q0 70 -63.5 115t-161.5 45h-201v272h201q86 0 139 35.5t53 91.5q0 59 -60 97.5t-157 38.5q-75 0 -147.5 -25t-122.5 -68l-168 230q85 77 213 122.5t264 45.5q224 0 364 -110t140 -284q0 -97 -48.5 -176 t-135.5 -131q101 -52 159 -142t58 -202q0 -185 -149.5 -301.5t-387.5 -116.5q-154 0 -295.5 53.5t-230.5 145.5z" />
<glyph unicode="4" horiz-adv-x="1200" d="M41 518l618 895h351v-856h141v-299h-141v-258h-318v258h-577zM381 557h311v457z" />
<glyph unicode="5" horiz-adv-x="1173" d="M70 162l155 254q67 -64 154 -99.5t174 -35.5q112 0 179 53t67 131q0 74 -56.5 122t-144.5 48q-112 0 -186 -74l-281 84l72 768h823v-299h-555l-18 -227q79 37 184 37q206 0 346.5 -133.5t140.5 -333.5q0 -207 -154.5 -344.5t-394.5 -137.5q-279 0 -505 187z" />
<glyph unicode="6" horiz-adv-x="1153" d="M47 559q0 165 62 315t175.5 267.5t282 196t371.5 100.5l59 -295q-190 -27 -329.5 -106.5t-208.5 -188.5q102 61 229 61q186 0 312 -130.5t126 -319.5q0 -137 -70 -248t-192.5 -173.5t-273.5 -62.5q-246 0 -394.5 160t-148.5 424zM373 457q0 -76 60.5 -126t154.5 -50 q92 0 152.5 49t60.5 123q0 72 -59.5 120t-149.5 48q-89 0 -154 -44.5t-65 -119.5z" />
<glyph unicode="7" horiz-adv-x="1071" d="M74 1114v299h948v-250l-518 -1163h-357l500 1114h-573z" />
<glyph unicode="8" horiz-adv-x="1216" d="M66 401q0 103 54.5 189.5t151.5 142.5q-84 55 -131 133.5t-47 171.5q0 169 145.5 284.5t366.5 115.5t368.5 -115.5t147.5 -284.5q0 -93 -47.5 -171.5t-132.5 -133.5q98 -56 153.5 -142.5t55.5 -189.5q0 -118 -71 -216t-196 -154t-278 -56q-151 0 -275 55.5t-194.5 153.5 t-70.5 217zM391 432q0 -64 62 -107.5t153 -43.5q94 0 155.5 43t61.5 108t-62 108.5t-155 43.5q-91 0 -153 -44t-62 -108zM420 1006q0 -55 53 -92t133 -37q82 0 136.5 37t54.5 92t-54.5 91t-136.5 36q-80 0 -133 -36t-53 -91z" />
<glyph unicode="9" horiz-adv-x="1153" d="M27 954q0 137 70 248t192.5 173.5t273.5 62.5q246 0 394.5 -160t148.5 -424q0 -166 -61.5 -318t-174 -271.5t-281.5 -197t-372 -92.5l-61 295q191 16 331 98.5t209 198.5q-101 -63 -231 -63q-186 0 -312 130.5t-126 319.5zM352 961q0 -72 59.5 -120t149.5 -48t154.5 44 t64.5 119q0 76 -60.5 126.5t-154.5 50.5q-91 0 -152 -49.5t-61 -122.5z" />
<glyph unicode=":" horiz-adv-x="557" d="M74 184q0 86 58.5 144.5t146.5 58.5q89 0 147.5 -58t58.5 -145q0 -88 -58.5 -146t-147.5 -58q-88 0 -146.5 58t-58.5 146zM74 829q0 88 58.5 146.5t146.5 58.5q89 0 147.5 -58.5t58.5 -146.5q0 -87 -58.5 -144.5t-147.5 -57.5q-88 0 -146.5 58t-58.5 144z" />
<glyph unicode=";" horiz-adv-x="587" d="M-2 -297l145 602h349l-236 -602h-258zM104 829q0 88 59 146.5t148 58.5q88 0 146.5 -58.5t58.5 -146.5q0 -86 -58.5 -144t-146.5 -58q-89 0 -148 58t-59 144z" />
<glyph unicode="&#x3c;" horiz-adv-x="950" d="M115 471v270l721 349v-299l-418 -185l418 -184v-299z" />
<glyph unicode="=" horiz-adv-x="1093" d="M115 262v270h864v-270h-864zM115 680v268h864v-268h-864z" />
<glyph unicode="&#x3e;" horiz-adv-x="950" d="M115 123v299l417 184l-417 185v299l721 -349v-270z" />
<glyph unicode="?" horiz-adv-x="1009" d="M-4 1188q98 119 228.5 184.5t277.5 65.5q198 0 330.5 -116.5t132.5 -283.5q0 -78 -33 -147.5t-79.5 -118.5t-93 -91.5t-79.5 -84.5t-33 -80v-43h-315v43q0 49 17 95.5t44 83t59.5 71t65.5 65t60 59.5t44 60.5t17 61.5q0 53 -42 87t-112 34q-75 0 -148.5 -40t-135.5 -114z M289 176q0 85 57 142t143 57q85 0 142 -57t57 -142q0 -84 -57 -140t-142 -56q-86 0 -143 55.5t-57 140.5z" />
<glyph unicode="@" horiz-adv-x="1701" d="M82 551q0 160 59 301.5t161.5 243t247 160.5t308.5 59q212 0 387 -92t276 -255t101 -364q0 -190 -91.5 -305t-252.5 -115q-85 0 -155.5 31t-110.5 86q-74 -119 -230 -119q-150 0 -247 105t-97 262q0 160 96 266.5t234 106.5q117 0 197 -86v61h249v-440q0 -33 21.5 -54.5 t54.5 -21.5q55 0 88 63t33 164q0 217 -159.5 362.5t-393.5 145.5q-162 0 -291.5 -73.5t-202.5 -202.5t-73 -289q0 -240 161.5 -400.5t407.5 -160.5q203 0 334 94l92 -182q-196 -113 -430 -113q-164 0 -308 58.5t-246 160t-161 242.5t-59 301zM692 551q0 -56 39.5 -93.5 t97.5 -37.5t97 37.5t39 93.5q0 57 -39 94t-97 37t-97.5 -37.5t-39.5 -93.5z" />
<glyph unicode="A" horiz-adv-x="1470" d="M16 0l531 1413h375l532 -1413h-348l-88 248h-574l-88 -248h-340zM547 541h368l-184 522z" />
<glyph unicode="B" horiz-adv-x="1300" d="M135 0v1413h684q160 0 268.5 -102.5t108.5 -259.5q0 -95 -43.5 -176t-112.5 -125q99 -38 161.5 -140t62.5 -227q0 -167 -114 -275t-286 -108h-729zM442 287h344q65 0 108.5 43.5t43.5 107.5q0 65 -44 109.5t-108 44.5h-344v-305zM442 860h297q55 0 93 38t38 95 q0 58 -37.5 95.5t-93.5 37.5h-297v-266z" />
<glyph unicode="C" horiz-adv-x="1478" d="M66 707q0 154 57 289.5t156 232.5t238 153t296 56q197 0 360.5 -84.5t264.5 -233.5l-275 -170q-58 85 -150 134t-200 49q-180 0 -301 -121.5t-121 -304.5t121 -304.5t301 -121.5q109 0 200.5 48.5t149.5 133.5l275 -170q-101 -149 -264.5 -233.5t-360.5 -84.5 q-157 0 -296 56.5t-238 153.5t-156 232.5t-57 289.5z" />
<glyph unicode="D" horiz-adv-x="1478" d="M135 0v1413h557q152 0 286 -54t229.5 -147.5t150.5 -224.5t55 -280t-55 -280t-150.5 -225t-229.5 -148t-286 -54h-557zM453 299h231q173 0 288 117t115 291t-115 290.5t-288 116.5h-231v-815z" />
<glyph unicode="E" horiz-adv-x="1183" d="M135 0v1413h959v-299h-641v-254h573v-299h-573v-262h651v-299h-969z" />
<glyph unicode="F" horiz-adv-x="1118" d="M135 0v1413h928v-299h-610v-268h530v-299h-530v-547h-318z" />
<glyph unicode="G" horiz-adv-x="1576" d="M66 707q0 154 57 289.5t156 232.5t238 153t296 56q182 0 336.5 -72.5t251.5 -198.5l-240 -190q-60 74 -149 116t-193 42q-183 0 -305.5 -122.5t-122.5 -305.5t122 -305.5t304 -122.5q133 0 233 68t134 179h-348v283h688v-109q0 -206 -92.5 -372t-256.5 -259.5t-368 -93.5 q-156 0 -294 56.5t-236 153.5t-154.5 232.5t-56.5 289.5z" />
<glyph unicode="H" horiz-adv-x="1472" d="M135 0v1413h318v-553h567v553h317v-1413h-317v561h-567v-561h-318z" />
<glyph unicode="I" horiz-adv-x="587" d="M135 0v1413h318v-1413h-318z" />
<glyph unicode="J" horiz-adv-x="886" d="M51 18v301q105 -38 191 -38q104 0 160.5 51t56.5 147v934h317v-950q0 -228 -136 -358t-364 -130q-131 0 -225 43z" />
<glyph unicode="K" horiz-adv-x="1380" d="M135 0v1413h318v-610l526 610h403l-606 -680l637 -733h-414l-428 504l-118 -133v-371h-318z" />
<glyph unicode="L" horiz-adv-x="1087" d="M135 0v1413h318v-1114h589v-299h-907z" />
<glyph unicode="M" horiz-adv-x="1798" d="M135 0v1413h393l373 -698l375 698h387v-1413h-317v907l-357 -669h-180l-356 669v-907h-318z" />
<glyph unicode="N" horiz-adv-x="1492" d="M135 0v1413h320l587 -864v864h318v-1413h-322l-585 864v-864h-318z" />
<glyph unicode="O" horiz-adv-x="1624" d="M66 707q0 154 57 289.5t156 232.5t238 153t296 56q209 0 380.5 -95.5t269.5 -263t98 -372.5q0 -154 -57.5 -289.5t-157 -232.5t-238 -153.5t-295.5 -56.5t-296 56.5t-238 153.5t-156 232.5t-57 289.5zM391 707q0 -183 121 -304.5t301 -121.5t301 121.5t121 304.5 t-121 304.5t-301 121.5t-301 -121.5t-121 -304.5z" />
<glyph unicode="P" horiz-adv-x="1296" d="M135 0v1413h629q212 0 354 -137.5t142 -343.5t-142 -343.5t-354 -137.5h-311v-451h-318zM453 750h305q75 0 125.5 52.5t50.5 129.5q0 78 -50.5 130t-125.5 52h-305v-364z" />
<glyph unicode="Q" horiz-adv-x="1624" d="M66 707q0 154 57 289.5t156 232.5t238 153t296 56q209 0 380.5 -95.5t269.5 -263t98 -372.5q0 -159 -61.5 -298t-170.5 -239l133 -188l-235 -166l-146 204q-127 -45 -268 -45q-157 0 -296 56.5t-238 153.5t-156 232.5t-57 289.5zM391 707q0 -183 121 -304.5t301 -121.5 q46 0 82 8l-115 162l238 165l127 -180q90 114 90 271q0 183 -121 304.5t-301 121.5t-301 -121.5t-121 -304.5z" />
<glyph unicode="R" horiz-adv-x="1304" d="M135 0v1413h613q211 0 351 -135t140 -338q0 -147 -79 -258.5t-212 -163.5l330 -518h-381l-291 483h-153v-483h-318zM453 760h288q73 0 122.5 50.5t49.5 125.5q0 76 -49 127t-123 51h-288v-354z" />
<glyph unicode="S" horiz-adv-x="1234" d="M39 197l164 241q88 -81 205.5 -130.5t228.5 -49.5q98 0 166.5 39t68.5 100q0 24 -9.5 43.5t-32 35.5t-43 27.5t-60.5 24t-64.5 19t-74.5 18.5q-494 119 -494 451q0 190 150 306t395 116q157 0 287.5 -48t212.5 -126l-148 -242q-62 59 -159 96t-195 37q-95 0 -156 -35.5 t-61 -91.5q0 -33 21 -60t60.5 -46t81 -32t95.5 -24q37 -8 69 -16.5t88 -28t101 -42t96 -59t85.5 -79t57.5 -102t23 -127.5q0 -127 -74 -227.5t-201 -155t-284 -54.5q-163 0 -326 61t-274 161z" />
<glyph unicode="T" horiz-adv-x="1206" d="M51 1114v299h1104v-299h-393v-1114h-318v1114h-393z" />
<glyph unicode="U" horiz-adv-x="1398" d="M111 549v864h317v-860q0 -117 77 -194.5t195 -77.5q117 0 195 77.5t78 194.5v860h317v-864q0 -161 -77.5 -293t-212.5 -206.5t-300 -74.5q-124 0 -233.5 44t-187.5 120t-123 182.5t-45 227.5z" />
<glyph unicode="V" horiz-adv-x="1458" d="M12 1413h355l366 -989l365 989h348l-553 -1413h-328z" />
<glyph unicode="W" horiz-adv-x="2058" d="M23 1413h335l269 -977l268 977h279l268 -977l266 977h328l-437 -1413h-317l-252 922l-254 -922h-315z" />
<glyph unicode="X" horiz-adv-x="1476" d="M16 0l502 711l-493 702h391l325 -479l322 479h387l-492 -702l500 -711h-389l-332 489l-331 -489h-390z" />
<glyph unicode="Y" horiz-adv-x="1382" d="M-8 1413h360l342 -602l342 602h355l-541 -928v-485h-318v485z" />
<glyph unicode="Z" horiz-adv-x="1257" d="M70 0v227l667 887h-659v299h1096v-227l-668 -887h682v-299h-1118z" />
<glyph unicode="[" horiz-adv-x="729" d="M154 -389v1925h532v-283h-225v-1359h225v-283h-532z" />
<glyph unicode="\" horiz-adv-x="1103" d="M-8 1536h301l819 -1843h-301z" />
<glyph unicode="]" horiz-adv-x="729" d="M45 -106h223v1359h-223v283h533v-1925h-533v283z" />
<glyph unicode="^" horiz-adv-x="890" d="M47 889l262 524h273l262 -524h-269l-129 276l-131 -276h-268z" />
<glyph unicode="_" horiz-adv-x="997" d="M33 -113h934v-254h-934v254z" />
<glyph unicode="`" horiz-adv-x="579" d="M0 1454h375l205 -303h-314z" />
<glyph unicode="a" d="M61 522q0 233 144.5 390t359.5 157q190 0 316 -129v104h299v-1044h-299v104q-126 -129 -316 -129q-215 0 -359.5 157t-144.5 390zM371 522q0 -110 72.5 -184t181.5 -74q110 0 183 74t73 184t-73 184t-183 74q-109 0 -181.5 -74t-72.5 -184z" />
<glyph unicode="b" d="M119 0v1475h299v-535q126 129 315 129q216 0 360 -156.5t144 -390.5t-144 -390.5t-360 -156.5q-189 0 -315 129v-104h-299zM418 522q0 -110 73 -184t183 -74t183 74t73 184t-73 184t-183 74t-183 -74t-73 -184z" />
<glyph unicode="c" horiz-adv-x="1132" d="M57 522q0 233 161.5 390t402.5 157q156 0 283 -69.5t200 -190.5l-260 -158q-33 59 -92 94t-131 35q-110 0 -183 -74t-73 -184t73 -184t183 -74q72 0 131 35t92 94l260 -157q-73 -122 -200 -191.5t-283 -69.5q-241 0 -402.5 157t-161.5 390z" />
<glyph unicode="d" d="M61 522q0 233 144.5 390t359.5 157q190 0 316 -129v535h299v-1475h-299v104q-126 -129 -316 -129q-215 0 -359.5 157t-144.5 390zM371 522q0 -110 72.5 -184t181.5 -74q110 0 183 74t73 184t-73 184t-183 74q-109 0 -181.5 -74t-72.5 -184z" />
<glyph unicode="e" horiz-adv-x="1216" d="M57 528q0 151 72.5 275t200.5 195t284 71q235 0 392 -157t157 -394q0 -54 -6 -94h-778q28 -88 99 -138t169 -50q84 0 153 33t109 83l201 -174q-85 -96 -207 -149.5t-264 -53.5q-249 0 -415.5 158.5t-166.5 394.5zM377 623h469q-25 88 -88 138t-148 50q-84 0 -147 -50.5 t-86 -137.5z" />
<glyph unicode="f" horiz-adv-x="792" d="M51 772v272h158v78q0 174 92 275.5t277 101.5q112 0 198 -45v-264q-58 37 -131 37q-137 0 -137 -125v-58h248v-272h-248v-772h-299v772h-158z" />
<glyph unicode="g" horiz-adv-x="1157" d="M66 12q0 84 38.5 157.5t104.5 113.5q-137 131 -137 325q0 198 140.5 329.5t352.5 131.5q114 0 219 -43q23 85 97.5 134.5t181.5 49.5h88v-276h-74q-37 0 -64 -17.5t-34 -46.5q82 -119 82 -262q0 -198 -142 -329.5t-354 -131.5q-79 0 -153 21q-47 -30 -47 -80 q0 -35 26 -56.5t68 -21.5h325q159 0 265 -83.5t135 -233.5l-307 -84q-6 51 -46.5 81.5t-103.5 30.5h-326q-152 0 -243.5 80t-91.5 211zM379 608q0 -76 53 -127t133 -51t134.5 51t54.5 127t-54.5 127t-134.5 51q-81 0 -133.5 -50.5t-52.5 -127.5z" />
<glyph unicode="h" horiz-adv-x="1234" d="M119 0v1475h299v-541q126 135 317 135q180 0 290 -108.5t110 -288.5v-672h-299v571q0 95 -55 152t-146 57q-97 0 -157 -58.5t-60 -154.5v-567h-299z" />
<glyph unicode="i" horiz-adv-x="536" d="M84 1362q0 78 53 130t131 52q80 0 133.5 -52t53.5 -130q0 -79 -53.5 -131.5t-133.5 -52.5q-78 0 -131 52.5t-53 131.5zM119 0v1044h299v-1044h-299z" />
<glyph unicode="j" horiz-adv-x="546" d="M-66 -121q52 -20 93 -20q102 0 102 100v1085h299v-1120q0 -156 -87 -247t-259 -91q-81 0 -148 25v268zM92 1362q0 78 53.5 130t133.5 52q78 0 131 -52t53 -130q0 -79 -53 -131.5t-131 -52.5q-80 0 -133.5 52.5t-53.5 131.5z" />
<glyph unicode="k" horiz-adv-x="1140" d="M119 0v1475h299v-820l344 389h387l-442 -481l456 -563h-393l-274 336l-78 -84v-252h-299z" />
<glyph unicode="l" horiz-adv-x="536" d="M119 0v1475h299v-1475h-299z" />
<glyph unicode="m" horiz-adv-x="1869" d="M119 0v1044h299v-100q116 125 297 125q105 0 187 -42.5t132 -119.5q128 162 348 162q176 0 281.5 -106t105.5 -281v-682h-299v592q0 85 -49.5 136.5t-132.5 51.5q-86 0 -140 -53t-54 -139v-588h-299v592q0 85 -50 136.5t-133 51.5q-86 0 -140 -53t-54 -139v-588h-299z " />
<glyph unicode="n" horiz-adv-x="1234" d="M119 0v1044h299v-104q126 129 317 129q180 0 290 -108.5t110 -288.5v-672h-299v571q0 95 -55.5 152t-147.5 57q-96 0 -155.5 -58.5t-59.5 -154.5v-567h-299z" />
<glyph unicode="o" horiz-adv-x="1241" d="M57 522q0 233 161.5 390t402.5 157q159 0 288 -71.5t202 -197t73 -278.5t-73 -278.5t-202 -197t-288 -71.5q-241 0 -402.5 157t-161.5 390zM365 522q0 -110 73 -184t183 -74t183 74t73 184t-73 184t-183 74t-183 -74t-73 -184z" />
<glyph unicode="p" d="M119 -389v1433h299v-104q126 129 315 129q216 0 360 -156.5t144 -390.5t-144 -390.5t-360 -156.5q-189 0 -315 129v-493h-299zM418 522q0 -110 73 -184t183 -74t183 74t73 184t-73 184t-183 74t-183 -74t-73 -184z" />
<glyph unicode="q" d="M61 522q0 233 144.5 390t359.5 157q190 0 316 -129v104h299v-1433h-299v493q-126 -129 -316 -129q-215 0 -359.5 157t-144.5 390zM371 522q0 -110 72.5 -184t181.5 -74q110 0 183 74t73 184t-73 184t-183 74q-109 0 -181.5 -74t-72.5 -184z" />
<glyph unicode="r" horiz-adv-x="772" d="M119 0v1044h299v-118q116 135 282 135h45v-307h-45q-135 0 -208.5 -72t-73.5 -195v-487h-299z" />
<glyph unicode="s" horiz-adv-x="985" d="M39 133l139 193q133 -113 299 -113q75 0 120.5 22t45.5 62q0 21 -12.5 37t-42.5 28.5t-55.5 19.5t-75.5 19q-37 8 -57.5 13t-57.5 15.5t-59 19.5t-54 24.5t-51.5 32t-42 40.5t-34.5 50.5t-20.5 61.5t-8.5 75q0 109 59.5 186.5t156 113.5t218.5 36q230 0 416 -137 l-140 -193q-135 92 -266 92q-64 0 -104.5 -18.5t-40.5 -56.5q0 -17 10 -31t24 -23t41.5 -18.5t49.5 -14.5t61 -14q40 -9 64 -14.5t64.5 -17t66 -24t58.5 -30.5t54 -41t40.5 -52t28.5 -67t9 -83q0 -166 -128.5 -258.5t-326.5 -92.5q-256 0 -448 158z" />
<glyph unicode="t" horiz-adv-x="843" d="M53 772v272h158v259h299v-259h268v-272h-268v-383q0 -125 131 -125q65 0 137 37v-281q-89 -45 -200 -45q-184 0 -275.5 98.5t-91.5 266.5v432h-158z" />
<glyph unicode="u" horiz-adv-x="1189" d="M100 418v626h299v-585q0 -88 53.5 -141.5t141.5 -53.5t141 53.5t53 141.5v585h299v-626q0 -200 -134.5 -321.5t-358.5 -121.5q-223 0 -358.5 121.5t-135.5 321.5z" />
<glyph unicode="v" horiz-adv-x="1163" d="M2 1044h342l242 -665l239 665h334l-424 -1044h-307z" />
<glyph unicode="w" horiz-adv-x="1759" d="M8 1044h334l193 -655l196 655h303l197 -657l192 657h326l-367 -1044h-307l-196 674l-197 -674h-307z" />
<glyph unicode="x" horiz-adv-x="1159" d="M12 0l367 524l-361 520h363l201 -309l200 309h359l-361 -520l367 -524h-363l-206 315l-207 -315h-359z" />
<glyph unicode="y" horiz-adv-x="1163" d="M2 1044h342l242 -663l239 663h334l-497 -1212q-44 -113 -135.5 -179.5t-200.5 -66.5q-74 0 -153 29t-134 78l115 233q51 -51 122 -51q75 0 113 78l31 65z" />
<glyph unicode="z" horiz-adv-x="1015" d="M72 0v217l436 539h-428v288h850v-217l-436 -538h450v-289h-872z" />
<glyph unicode="{" horiz-adv-x="874" d="M113 434v283h80q50 0 80 31t30 83v404q0 135 82 218t215 83h229v-283h-112q-47 0 -77 -30.5t-30 -79.5v-391q0 -59 -33 -106.5t-90 -70.5q57 -25 90 -72.5t33 -105.5v-393q0 -49 30 -79.5t77 -30.5h112v-283h-229q-133 0 -215 83t-82 218v407q0 52 -30 83.5t-80 31.5h-80 z" />
<glyph unicode="|" horiz-adv-x="624" d="M176 -389v1925h273v-1925h-273z" />
<glyph unicode="}" horiz-adv-x="874" d="M45 -106h111q47 0 76.5 30.5t29.5 79.5v393q0 59 33.5 106t91.5 72q-58 23 -91.5 70.5t-33.5 106.5v391q0 49 -29.5 79.5t-76.5 30.5h-111v283h227q134 0 216.5 -83t82.5 -218v-404q0 -52 30.5 -83t80.5 -31h80v-283h-80q-50 0 -80.5 -31.5t-30.5 -83.5v-407 q0 -135 -82.5 -218t-216.5 -83h-227v283z" />
<glyph unicode="~" horiz-adv-x="1208" d="M115 426q0 174 75 277.5t234 103.5q66 0 127 -23t106.5 -46t75.5 -23q38 0 62 23.5t24 60.5h273q0 -83 -17 -150.5t-53 -120t-96.5 -81.5t-141.5 -29q-53 0 -103 14.5t-81.5 31.5t-65.5 31.5t-59 14.5q-38 0 -63 -23.5t-25 -60.5h-272z" />
<glyph unicode="&#xa1;" horiz-adv-x="571" d="M86 868q0 85 57.5 141t143.5 56q85 0 141.5 -56t56.5 -141t-56.5 -141.5t-141.5 -56.5q-86 0 -143.5 56.5t-57.5 141.5zM129 -20l18 593h279l18 -593v-349h-315v349z" />
<glyph unicode="&#xa2;" horiz-adv-x="1200" d="M86 705q0 211 134.5 361.5t344.5 178.5v168h172v-168q127 -19 230 -85t163 -167l-256 -147q-49 80 -137 110v-501q87 27 137 112l259 -149q-62 -102 -165 -168.5t-231 -85.5v-164h-172v164q-210 28 -344.5 179t-134.5 362zM387 705q0 -90 49 -157.5t129 -94.5v505 q-80 -27 -129 -95t-49 -158z" />
<glyph unicode="&#xa3;" horiz-adv-x="1200" d="M98 0v299h105v246h-105v274h105v139q0 204 146 342t364 138q122 0 232.5 -46t193.5 -124l-162 -232q-55 44 -125 70.5t-135 26.5q-87 0 -142 -49.5t-55 -125.5v-139h377v-274h-377v-246h621v-299h-1043z" />
<glyph unicode="&#xa4;" horiz-adv-x="1130" d="M74 403l125 125q-43 84 -43 181q0 98 45 180l-127 127l182 180l135 -133q81 35 174 35q96 0 174 -35l135 135l183 -184l-125 -125q45 -82 45 -180q0 -99 -45 -181l125 -125l-183 -182l-135 133q-85 -32 -174 -32q-88 0 -170 32l-137 -133zM410 709q0 -67 44.5 -112.5 t110.5 -45.5q67 0 112.5 45.5t45.5 112.5t-45 112t-113 45q-66 0 -110.5 -45.5t-44.5 -111.5z" />
<glyph unicode="&#xa5;" horiz-adv-x="1333" d="M16 1413h355l301 -600l299 600h346l-414 -780h164v-176h-242v-86h242v-174h-242v-197h-317v197h-240v174h240v86h-240v176h162z" />
<glyph unicode="&#xa6;" horiz-adv-x="624" d="M176 -389v840h273v-840h-273zM176 696v840h273v-840h-273z" />
<glyph unicode="&#xa7;" horiz-adv-x="1087" d="M111 600q0 166 129 260q-117 87 -117 236q0 106 59 185t155.5 118t217.5 39q115 0 221 -33.5t174 -93.5l-112 -183q-42 36 -112 60t-140 24q-76 0 -122 -28.5t-46 -73.5q0 -87 211 -133q74 -16 132 -39t111.5 -60t83 -96t29.5 -135q0 -164 -133 -260q121 -88 121 -235 q0 -161 -125 -254t-311 -93q-124 0 -236.5 39.5t-183.5 106.5l121 182q39 -43 112 -72.5t156 -29.5q77 0 124.5 29t47.5 75q0 26 -18 48t-51.5 38t-66 26.5t-75.5 20.5q-59 14 -104.5 29.5t-95 42.5t-82 61t-53.5 85t-21 114zM406 633q0 -87 149 -125q59 5 97 35t38 73 q0 86 -153 123q-57 -5 -94 -34.5t-37 -71.5z" />
<glyph unicode="&#xa8;" horiz-adv-x="780" d="M0 1309q0 70 47.5 117t118.5 47t118.5 -47t47.5 -117q0 -71 -48 -118.5t-118 -47.5t-118 47.5t-48 118.5zM449 1309q0 70 47 117t118 47t118.5 -47t47.5 -117q0 -71 -48 -118.5t-118 -47.5t-117.5 47.5t-47.5 118.5z" />
<glyph unicode="&#xa9;" horiz-adv-x="1634" d="M86 707q0 205 95.5 372.5t263 263t372.5 95.5t372.5 -95.5t263 -263t95.5 -372.5t-95.5 -373t-263 -263.5t-372.5 -95.5t-372.5 95.5t-263 263.5t-95.5 373zM293 707q0 -227 150.5 -380t373.5 -153t373.5 153t150.5 380t-150.5 379.5t-373.5 152.5t-373.5 -152.5 t-150.5 -379.5zM451 707q0 161 107.5 268.5t268.5 107.5q109 0 197.5 -51t136.5 -139l-209 -105q-41 68 -125 68q-62 0 -102.5 -43.5t-40.5 -105.5q0 -63 40.5 -106.5t102.5 -43.5q80 0 125 68l209 -105q-48 -88 -136.5 -139t-197.5 -51q-161 0 -268.5 108t-107.5 269z" />
<glyph unicode="&#xaa;" horiz-adv-x="751" d="M47 1137q0 126 76 210.5t190 84.5q86 0 152 -66v51h221v-561h-221v51q-65 -65 -152 -65q-114 0 -190 84.5t-76 210.5zM268 1137q0 -44 29 -73.5t72 -29.5q40 0 68 29.5t28 73.5t-28 73t-68 29q-43 0 -72 -29t-29 -73z" />
<glyph unicode="&#xab;" horiz-adv-x="1323" d="M57 541l303 420h351l-303 -420l303 -420h-351zM621 541l301 420h350l-303 -420l303 -420h-350z" />
<glyph unicode="&#xac;" horiz-adv-x="1093" d="M115 469v270h864v-567h-272v297h-592z" />
<glyph unicode="&#xad;" horiz-adv-x="835" d="M115 416v289h606v-289h-606z" />
<glyph unicode="&#xae;" horiz-adv-x="851" d="M47 1057q0 163 109 272t272 109q161 0 270 -109t109 -272q0 -162 -108.5 -270.5t-270.5 -108.5q-163 0 -272 108t-109 271zM158 1057q0 -117 76.5 -195t193.5 -78q114 0 191 78t77 195q0 118 -77 197t-191 79q-117 0 -193.5 -78.5t-76.5 -197.5zM301 883v379h152 q57 0 95 -38t38 -94q0 -75 -66 -114l76 -133h-115l-57 116h-23v-116h-100zM401 1090h43q18 0 29.5 11t11.5 29q0 17 -12 28t-29 11h-43v-79z" />
<glyph unicode="&#xaf;" horiz-adv-x="561" d="M0 1169v252h561v-252h-561z" />
<glyph unicode="&#xb0;" horiz-adv-x="790" d="M57 1108q0 140 97 235t241 95q145 0 242.5 -95t97.5 -235q0 -144 -97.5 -239t-242.5 -95t-241.5 95t-96.5 239zM297 1108q0 -43 28 -72.5t70 -29.5q43 0 72 29.5t29 72.5q0 41 -29 69.5t-72 28.5q-42 0 -70 -28t-28 -70z" />
<glyph unicode="&#xb1;" horiz-adv-x="1093" d="M115 41v270h864v-270h-864zM115 637v270h295v228h274v-228h295v-270h-295v-227h-274v227h-295z" />
<glyph unicode="&#xb2;" horiz-adv-x="663" d="M16 1460q47 69 127 110.5t174 41.5q129 0 210 -76t81 -193q0 -127 -106 -237l-148 -152h264v-204h-571v178l264 276q76 82 76 127q0 29 -23.5 46.5t-58.5 17.5q-72 0 -141 -76z" />
<glyph unicode="&#xb3;" horiz-adv-x="700" d="M14 854l123 160q32 -32 82 -51t100 -19q53 0 86 20.5t33 53.5q0 35 -32.5 56.5t-83.5 21.5h-117v186h117q44 0 72 16t28 41q0 29 -32.5 46.5t-82.5 17.5q-88 0 -149 -45l-115 158q51 44 130 70t161 26q138 0 224.5 -67t86.5 -173q0 -116 -106 -182q58 -31 90.5 -84.5 t32.5 -118.5q0 -112 -91.5 -182t-236.5 -70q-92 0 -178.5 31.5t-141.5 87.5z" />
<glyph unicode="&#xb4;" horiz-adv-x="579" d="M0 1151l205 303h375l-267 -303h-313z" />
<glyph unicode="&#xb6;" horiz-adv-x="1339" d="M53 981q0 184 124.5 308t307.5 124h723v-1802h-256v1548h-133v-1548h-256v938h-78q-183 0 -307.5 124t-124.5 308z" />
<glyph unicode="&#xb7;" horiz-adv-x="641" d="M115 561q0 88 59 146.5t148 58.5q88 0 146 -58.5t58 -146.5t-58 -146.5t-146 -58.5q-89 0 -148 58.5t-59 146.5z" />
<glyph unicode="&#xb8;" horiz-adv-x="501" d="M0 -408l100 125q28 -31 65.5 -49t72.5 -18q37 0 60.5 20t23.5 51t-21.5 51.5t-52.5 20.5q-42 0 -62 -26l-166 73l130 160v4h208v-4l-49 -57q83 -7 138 -70.5t55 -151.5q0 -99 -73.5 -166t-186.5 -67q-143 0 -242 104z" />
<glyph unicode="&#xb9;" horiz-adv-x="514" d="M8 1448l266 149h156v-847h-217v589l-111 -65z" />
<glyph unicode="&#xba;" horiz-adv-x="735" d="M47 1137q0 126 92.5 210.5t229.5 84.5q135 0 227 -84.5t92 -210.5t-92 -210.5t-227 -84.5q-137 0 -229.5 84.5t-92.5 210.5zM268 1137q0 -44 29.5 -73.5t71.5 -29.5q40 0 69 29.5t29 73.5q0 42 -29 72t-69 30q-42 0 -71.5 -29t-29.5 -73z" />
<glyph unicode="&#xbb;" horiz-adv-x="1323" d="M63 121l304 420l-304 420h351l301 -420l-301 -420h-351zM625 121l303 420l-303 420h350l303 -420l-303 -420h-350z" />
<glyph unicode="&#xbc;" horiz-adv-x="1662" d="M8 1264l266 149h156v-848h-217v590l-111 -65zM205 0l962 1413h273l-961 -1413h-274zM938 319l356 529h240v-500h74v-205h-74v-143h-217v143h-330zM1157 348h160v248z" />
<glyph unicode="&#xbd;" horiz-adv-x="1703" d="M8 1264l266 149h156v-848h-217v590l-111 -65zM205 0l962 1413h273l-961 -1413h-274zM1057 711q47 69 127 110t174 41q129 0 210 -75.5t81 -192.5q0 -127 -107 -238l-147 -151h264v-205h-572v178l265 277q75 81 75 127q0 29 -23 46t-58 17q-73 0 -142 -76z" />
<glyph unicode="&#xbe;" horiz-adv-x="1767" d="M14 670l123 159q32 -32 82 -50.5t100 -18.5q53 0 86 20.5t33 53.5q0 35 -32 56t-84 21h-117v187h117q44 0 72 16t28 41q0 29 -32.5 46.5t-82.5 17.5q-88 0 -149 -45l-115 157q51 44 130 70t161 26q138 0 224.5 -66.5t86.5 -172.5q0 -116 -106 -182q58 -31 90.5 -84.5 t32.5 -118.5q0 -112 -91.5 -182t-236.5 -70q-92 0 -178.5 31.5t-141.5 87.5zM309 0l963 1413h272l-960 -1413h-275zM1042 319l357 529h239v-500h74v-205h-74v-143h-217v143h-329zM1262 348h159v248z" />
<glyph unicode="&#xbf;" horiz-adv-x="964" d="M39 6q0 66 23.5 126.5t59 102.5t77 84t77 73.5t59 67t23.5 68.5v43h316v-43q0 -67 -32 -129t-77 -108t-90.5 -87.5t-77.5 -85.5t-32 -85q0 -53 41.5 -87t111.5 -34q156 0 285 154l205 -209q-98 -119 -228.5 -184.5t-277.5 -65.5q-198 0 -330.5 116t-132.5 283zM315 868 q0 85 57.5 141t143.5 56q85 0 142 -56t57 -141t-57 -141.5t-142 -56.5q-86 0 -143.5 56.5t-57.5 141.5z" />
<glyph unicode="&#xc0;" horiz-adv-x="1470" d="M16 0l531 1413h375l532 -1413h-348l-88 248h-574l-88 -248h-340zM326 1823h374l205 -303h-313zM547 541h368l-184 522z" />
<glyph unicode="&#xc1;" horiz-adv-x="1470" d="M16 0l531 1413h375l532 -1413h-348l-88 248h-574l-88 -248h-340zM547 541h368l-184 522zM563 1520l205 303h375l-266 -303h-314z" />
<glyph unicode="&#xc2;" horiz-adv-x="1470" d="M16 0l531 1413h375l532 -1413h-348l-88 248h-574l-88 -248h-340zM352 1520l203 303h360l201 -303h-278l-103 141l-102 -141h-281zM547 541h368l-184 522z" />
<glyph unicode="&#xc3;" horiz-adv-x="1470" d="M16 0l531 1413h375l532 -1413h-348l-88 248h-574l-88 -248h-340zM358 1536q0 135 63 221t179 86q49 0 92.5 -19t76.5 -38t58 -19q31 0 50.5 20.5t19.5 51.5h211q0 -137 -63 -222t-181 -85q-49 0 -92.5 19t-76 38t-56.5 19q-32 0 -52 -21t-20 -51h-209zM547 541h368 l-184 522z" />
<glyph unicode="&#xc4;" horiz-adv-x="1470" d="M16 0l531 1413h375l532 -1413h-348l-88 248h-574l-88 -248h-340zM344 1677q0 70 47.5 117t118.5 47t118.5 -47t47.5 -117q0 -71 -48 -118.5t-118 -47.5t-118 47.5t-48 118.5zM547 541h368l-184 522zM793 1677q0 70 47 117t118 47t118.5 -47t47.5 -117q0 -71 -48 -118.5 t-118 -47.5t-117.5 47.5t-47.5 118.5z" />
<glyph unicode="&#xc5;" horiz-adv-x="1470" d="M16 0l531 1413h375l532 -1413h-348l-88 248h-574l-88 -248h-340zM512 1712q0 92 63.5 153.5t157.5 61.5t157.5 -61.5t63.5 -153.5t-63.5 -153.5t-157.5 -61.5t-157.5 61.5t-63.5 153.5zM547 541h368l-184 522zM668 1712q0 -29 18.5 -48t46.5 -19t47 19t19 48t-19 48.5 t-47 19.5t-46.5 -19.5t-18.5 -48.5z" />
<glyph unicode="&#xc6;" horiz-adv-x="1867" d="M-70 0l809 1413h1037v-299h-559v-254h493v-299h-493v-262h569v-299h-887v242h-471l-137 -242h-361zM594 535h305v536z" />
<glyph unicode="&#xc7;" horiz-adv-x="1478" d="M66 707q0 154 57 289.5t156 232.5t238 153t296 56q197 0 360.5 -84.5t264.5 -233.5l-275 -170q-58 85 -150 134t-200 49q-180 0 -301 -121.5t-121 -304.5t121 -304.5t301 -121.5q109 0 200.5 48.5t149.5 133.5l275 -170q-87 -127 -221.5 -208t-298.5 -103l-35 -41 q83 -7 137.5 -70.5t54.5 -151.5q0 -99 -73.5 -166t-186.5 -67q-143 0 -242 104l101 125q28 -31 65 -49t72 -18q37 0 60.5 20t23.5 51t-21.5 51.5t-52.5 20.5q-41 0 -61 -27l-166 74l117 144q-139 17 -258.5 79.5t-204.5 157.5t-133.5 221t-48.5 267z" />
<glyph unicode="&#xc8;" horiz-adv-x="1183" d="M135 0v1413h959v-299h-641v-254h573v-299h-573v-262h651v-299h-969zM211 1823h375l205 -303h-314z" />
<glyph unicode="&#xc9;" horiz-adv-x="1183" d="M135 0v1413h959v-299h-641v-254h573v-299h-573v-262h651v-299h-969zM449 1520l204 303h375l-266 -303h-313z" />
<glyph unicode="&#xca;" horiz-adv-x="1183" d="M135 0v1413h959v-299h-641v-254h573v-299h-573v-262h651v-299h-969zM238 1520l202 303h361l200 -303h-278l-102 141l-103 -141h-280z" />
<glyph unicode="&#xcb;" horiz-adv-x="1183" d="M135 0v1413h959v-299h-641v-254h573v-299h-573v-262h651v-299h-969zM229 1677q0 70 47.5 117t118.5 47t118.5 -47t47.5 -117q0 -71 -47.5 -118.5t-118.5 -47.5t-118.5 47.5t-47.5 118.5zM678 1677q0 70 47.5 117t118.5 47t118.5 -47t47.5 -117q0 -71 -48 -118.5 t-118 -47.5t-118 47.5t-48 118.5z" />
<glyph unicode="&#xcc;" horiz-adv-x="587" d="M-115 1823h375l205 -303h-313zM135 0v1413h318v-1413h-318z" />
<glyph unicode="&#xcd;" horiz-adv-x="587" d="M123 1520l205 303h374l-266 -303h-313zM135 0v1413h318v-1413h-318z" />
<glyph unicode="&#xce;" horiz-adv-x="587" d="M-88 1520l203 303h360l201 -303h-279l-102 141l-102 -141h-281zM135 0v1413h318v-1413h-318z" />
<glyph unicode="&#xcf;" horiz-adv-x="587" d="M-96 1677q0 70 47.5 117t118.5 47t118.5 -47t47.5 -117q0 -71 -48 -118.5t-118 -47.5t-118 47.5t-48 118.5zM135 0v1413h318v-1413h-318zM352 1677q0 70 47.5 117t118.5 47t118.5 -47t47.5 -117q0 -71 -48 -118.5t-118 -47.5t-118 47.5t-48 118.5z" />
<glyph unicode="&#xd0;" horiz-adv-x="1478" d="M8 598v215h127v600h557q152 0 286 -54t229.5 -147.5t150.5 -224.5t55 -280t-55 -280t-150.5 -225t-229.5 -148t-286 -54h-557v598h-127zM453 299h231q173 0 288 117t115 291t-115 290.5t-288 116.5h-231v-301h194v-215h-194v-299z" />
<glyph unicode="&#xd1;" horiz-adv-x="1492" d="M135 0v1413h320l587 -864v864h318v-1413h-322l-585 864v-864h-318zM379 1536q0 135 63 221t179 86q49 0 92.5 -19t76.5 -38t58 -19q31 0 50.5 20.5t19.5 51.5h210q0 -137 -62.5 -222t-180.5 -85q-49 0 -92.5 19t-76.5 38t-57 19q-31 0 -51 -21t-20 -51h-209z" />
<glyph unicode="&#xd2;" horiz-adv-x="1624" d="M66 707q0 154 57 289.5t156 232.5t238 153t296 56q209 0 380.5 -95.5t269.5 -263t98 -372.5q0 -154 -57.5 -289.5t-157 -232.5t-238 -153.5t-295.5 -56.5t-296 56.5t-238 153.5t-156 232.5t-57 289.5zM391 707q0 -183 121 -304.5t301 -121.5t301 121.5t121 304.5 t-121 304.5t-301 121.5t-301 -121.5t-121 -304.5zM403 1823h375l205 -303h-313z" />
<glyph unicode="&#xd3;" horiz-adv-x="1624" d="M66 707q0 154 57 289.5t156 232.5t238 153t296 56q209 0 380.5 -95.5t269.5 -263t98 -372.5q0 -154 -57.5 -289.5t-157 -232.5t-238 -153.5t-295.5 -56.5t-296 56.5t-238 153.5t-156 232.5t-57 289.5zM391 707q0 -183 121 -304.5t301 -121.5t301 121.5t121 304.5 t-121 304.5t-301 121.5t-301 -121.5t-121 -304.5zM641 1520l205 303h375l-267 -303h-313z" />
<glyph unicode="&#xd4;" horiz-adv-x="1624" d="M66 707q0 154 57 289.5t156 232.5t238 153t296 56q209 0 380.5 -95.5t269.5 -263t98 -372.5q0 -154 -57.5 -289.5t-157 -232.5t-238 -153.5t-295.5 -56.5t-296 56.5t-238 153.5t-156 232.5t-57 289.5zM391 707q0 -183 121 -304.5t301 -121.5t301 121.5t121 304.5 t-121 304.5t-301 121.5t-301 -121.5t-121 -304.5zM430 1520l203 303h360l201 -303h-279l-102 141l-102 -141h-281z" />
<glyph unicode="&#xd5;" horiz-adv-x="1624" d="M66 707q0 154 57 289.5t156 232.5t238 153t296 56q209 0 380.5 -95.5t269.5 -263t98 -372.5q0 -154 -57.5 -289.5t-157 -232.5t-238 -153.5t-295.5 -56.5t-296 56.5t-238 153.5t-156 232.5t-57 289.5zM391 707q0 -183 121 -304.5t301 -121.5t301 121.5t121 304.5 t-121 304.5t-301 121.5t-301 -121.5t-121 -304.5zM436 1536q0 135 63 221t179 86q49 0 92.5 -19t76.5 -38t58 -19q31 0 50.5 20.5t19.5 51.5h211q0 -137 -63 -222t-181 -85q-49 0 -92.5 19t-76 38t-56.5 19q-32 0 -52 -21t-20 -51h-209z" />
<glyph unicode="&#xd6;" horiz-adv-x="1624" d="M66 707q0 154 57 289.5t156 232.5t238 153t296 56q209 0 380.5 -95.5t269.5 -263t98 -372.5q0 -154 -57.5 -289.5t-157 -232.5t-238 -153.5t-295.5 -56.5t-296 56.5t-238 153.5t-156 232.5t-57 289.5zM391 707q0 -183 121 -304.5t301 -121.5t301 121.5t121 304.5 t-121 304.5t-301 121.5t-301 -121.5t-121 -304.5zM422 1677q0 70 47.5 117t118.5 47t118.5 -47t47.5 -117q0 -71 -48 -118.5t-118 -47.5t-118 47.5t-48 118.5zM870 1677q0 70 47.5 117t118.5 47t118.5 -47t47.5 -117q0 -71 -48 -118.5t-118 -47.5t-118 47.5t-48 118.5z" />
<glyph unicode="&#xd7;" horiz-adv-x="1036" d="M115 397l207 207l-207 207l196 197l207 -207l207 207l197 -197l-207 -207l207 -207l-197 -196l-207 207l-207 -207z" />
<glyph unicode="&#xd8;" horiz-adv-x="1624" d="M66 707q0 154 57 289.5t156 232.5t238 153t296 56q220 0 399 -109l72 84h262l-178 -209q193 -206 193 -497q0 -154 -57.5 -289.5t-157 -232.5t-238 -153.5t-295.5 -56.5q-224 0 -403 109l-72 -84h-262l180 211q-91 97 -140.5 224.5t-49.5 271.5zM391 707q0 -141 76 -250 l539 630q-90 46 -193 46q-180 0 -301 -121.5t-121 -304.5zM616 326q92 -45 197 -45q180 0 301 121.5t121 304.5q0 140 -78 251z" />
<glyph unicode="&#xd9;" horiz-adv-x="1398" d="M111 549v864h317v-860q0 -117 77 -194.5t195 -77.5q117 0 195 77.5t78 194.5v860h317v-864q0 -161 -77.5 -293t-212.5 -206.5t-300 -74.5q-124 0 -233.5 44t-187.5 120t-123 182.5t-45 227.5zM291 1823h375l204 -303h-313z" />
<glyph unicode="&#xda;" horiz-adv-x="1398" d="M111 549v864h317v-860q0 -117 77 -194.5t195 -77.5q117 0 195 77.5t78 194.5v860h317v-864q0 -161 -77.5 -293t-212.5 -206.5t-300 -74.5q-124 0 -233.5 44t-187.5 120t-123 182.5t-45 227.5zM528 1520l205 303h375l-266 -303h-314z" />
<glyph unicode="&#xdb;" horiz-adv-x="1398" d="M111 549v864h317v-860q0 -117 77 -194.5t195 -77.5q117 0 195 77.5t78 194.5v860h317v-864q0 -161 -77.5 -293t-212.5 -206.5t-300 -74.5q-124 0 -233.5 44t-187.5 120t-123 182.5t-45 227.5zM317 1520l203 303h361l200 -303h-278l-103 141l-102 -141h-281z" />
<glyph unicode="&#xdc;" horiz-adv-x="1398" d="M111 549v864h317v-860q0 -117 77 -194.5t195 -77.5q117 0 195 77.5t78 194.5v860h317v-864q0 -161 -77.5 -293t-212.5 -206.5t-300 -74.5q-124 0 -233.5 44t-187.5 120t-123 182.5t-45 227.5zM309 1677q0 70 47.5 117t118.5 47t118.5 -47t47.5 -117q0 -71 -47.5 -118.5 t-118.5 -47.5t-118.5 47.5t-47.5 118.5zM758 1677q0 70 47.5 117t118.5 47t118.5 -47t47.5 -117q0 -71 -48 -118.5t-118 -47.5t-118 47.5t-48 118.5z" />
<glyph unicode="&#xdd;" horiz-adv-x="1382" d="M-8 1413h360l342 -602l342 602h355l-541 -928v-485h-318v485zM520 1520l205 303h375l-266 -303h-314z" />
<glyph unicode="&#xde;" horiz-adv-x="1290" d="M135 0v1413h318v-225h311q212 0 354 -137.5t142 -343.5q0 -205 -142 -342.5t-354 -137.5h-311v-227h-318zM453 526h305q75 0 125.5 52t50.5 129q0 78 -50.5 130t-125.5 52h-305v-363z" />
<glyph unicode="&#xdf;" horiz-adv-x="1157" d="M113 0v1057q0 189 136 315.5t345 126.5q203 0 342 -121t139 -295q0 -101 -50 -188t-134 -135q102 -41 166.5 -137.5t64.5 -221.5q0 -181 -128.5 -303.5t-323.5 -122.5q-89 0 -154 21v291q51 -23 117 -23q84 0 133 50.5t49 123.5q0 75 -51 126.5t-123 51.5h-86v285h63 q62 0 106 45t44 109q0 67 -50 111t-124 44q-78 0 -130 -51t-52 -127v-1032h-299z" />
<glyph unicode="&#xe0;" d="M61 522q0 233 144.5 390t359.5 157q190 0 316 -129v104h299v-1044h-299v104q-126 -129 -316 -129q-215 0 -359.5 157t-144.5 390zM250 1454h375l204 -303h-313zM371 522q0 -110 72.5 -184t181.5 -74q110 0 183 74t73 184t-73 184t-183 74q-109 0 -181.5 -74t-72.5 -184z " />
<glyph unicode="&#xe1;" d="M61 522q0 233 144.5 390t359.5 157q190 0 316 -129v104h299v-1044h-299v104q-126 -129 -316 -129q-215 0 -359.5 157t-144.5 390zM371 522q0 -110 72.5 -184t181.5 -74q110 0 183 74t73 184t-73 184t-183 74q-109 0 -181.5 -74t-72.5 -184zM487 1151l205 303h375 l-266 -303h-314z" />
<glyph unicode="&#xe2;" d="M61 522q0 233 144.5 390t359.5 157q190 0 316 -129v104h299v-1044h-299v104q-126 -129 -316 -129q-215 0 -359.5 157t-144.5 390zM276 1151l203 303h361l200 -303h-278l-103 141l-102 -141h-281zM371 522q0 -110 72.5 -184t181.5 -74q110 0 183 74t73 184t-73 184 t-183 74q-109 0 -181.5 -74t-72.5 -184z" />
<glyph unicode="&#xe3;" d="M61 522q0 233 144.5 390t359.5 157q190 0 316 -129v104h299v-1044h-299v104q-126 -129 -316 -129q-215 0 -359.5 157t-144.5 390zM283 1167q0 135 62.5 221.5t178.5 86.5q49 0 92.5 -19t77 -38t58.5 -19q31 0 50 20t19 51h211q0 -137 -63 -222t-181 -85q-49 0 -92.5 19 t-76 38t-56.5 19q-31 0 -51 -21t-20 -51h-209zM371 522q0 -110 72.5 -184t181.5 -74q110 0 183 74t73 184t-73 184t-183 74q-109 0 -181.5 -74t-72.5 -184z" />
<glyph unicode="&#xe4;" d="M61 522q0 233 144.5 390t359.5 157q190 0 316 -129v104h299v-1044h-299v104q-126 -129 -316 -129q-215 0 -359.5 157t-144.5 390zM268 1309q0 70 47.5 117t118.5 47t118.5 -47t47.5 -117q0 -71 -48 -118.5t-118 -47.5t-118 47.5t-48 118.5zM371 522q0 -110 72.5 -184 t181.5 -74q110 0 183 74t73 184t-73 184t-183 74q-109 0 -181.5 -74t-72.5 -184zM717 1309q0 70 47.5 117t118.5 47t118.5 -47t47.5 -117q0 -71 -47.5 -118.5t-118.5 -47.5t-118.5 47.5t-47.5 118.5z" />
<glyph unicode="&#xe5;" d="M61 522q0 233 144.5 390t359.5 157q190 0 316 -129v104h299v-1044h-299v104q-126 -129 -316 -129q-215 0 -359.5 157t-144.5 390zM371 522q0 -110 72.5 -184t181.5 -74q110 0 183 74t73 184t-73 184t-183 74q-109 0 -181.5 -74t-72.5 -184zM436 1343q0 92 63.5 154 t157.5 62t158 -62t64 -154t-64 -153.5t-158 -61.5t-157.5 61.5t-63.5 153.5zM592 1343q0 -29 18.5 -48t46.5 -19t47 19t19 48t-19 48.5t-47 19.5t-46.5 -19.5t-18.5 -48.5z" />
<glyph unicode="&#xe6;" horiz-adv-x="1857" d="M45 307q0 139 109 229.5t280 90.5h281v24q0 77 -59 123.5t-156 46.5q-133 0 -219 -96l-172 170q63 81 168 127.5t235 46.5q235 0 373 -141q154 141 370 141q116 0 217.5 -42t174.5 -114.5t115 -175.5t42 -221q0 -65 -6 -88h-778q26 -90 97.5 -141t170.5 -51 q81 0 148.5 32.5t107.5 81.5l203 -172q-85 -96 -206 -149.5t-261 -53.5q-118 0 -221.5 41.5t-181.5 116.5q-65 -71 -171 -114.5t-237 -43.5q-191 0 -307.5 94.5t-116.5 237.5zM352 319q0 -50 46.5 -82t121.5 -32q68 0 132 26.5t110 69.5q-27 58 -39 127h-225 q-63 0 -104.5 -32t-41.5 -77zM1020 627h465q-23 84 -86.5 134t-147.5 50q-83 0 -145.5 -49.5t-85.5 -134.5z" />
<glyph unicode="&#xe7;" horiz-adv-x="1132" d="M57 522q0 233 161.5 390t402.5 157q156 0 283 -69.5t200 -190.5l-260 -158q-33 59 -92 94t-131 35q-110 0 -183 -74t-73 -184t73 -184t183 -74q72 0 131 35t92 94l260 -157q-61 -99 -158 -164.5t-219 -87.5l-37 -43q83 -7 138 -70.5t55 -151.5q0 -99 -73.5 -166 t-186.5 -67q-143 0 -242 104l100 125q28 -31 65 -49t72 -18q37 0 60.5 20t23.5 51t-21 51.5t-52 20.5q-42 0 -62 -27l-166 74l117 146q-202 32 -331.5 182t-129.5 356z" />
<glyph unicode="&#xe8;" horiz-adv-x="1216" d="M57 528q0 151 72.5 275t200.5 195t284 71q235 0 392 -157t157 -394q0 -54 -6 -94h-778q28 -88 99 -138t169 -50q84 0 153 33t109 83l201 -174q-85 -96 -207 -149.5t-264 -53.5q-249 0 -415.5 158.5t-166.5 394.5zM213 1454h375l205 -303h-314zM377 623h469 q-25 88 -88 138t-148 50q-84 0 -147 -50.5t-86 -137.5z" />
<glyph unicode="&#xe9;" horiz-adv-x="1216" d="M57 528q0 151 72.5 275t200.5 195t284 71q235 0 392 -157t157 -394q0 -54 -6 -94h-778q28 -88 99 -138t169 -50q84 0 153 33t109 83l201 -174q-85 -96 -207 -149.5t-264 -53.5q-249 0 -415.5 158.5t-166.5 394.5zM377 623h469q-25 88 -88 138t-148 50q-84 0 -147 -50.5 t-86 -137.5zM451 1151l204 303h375l-266 -303h-313z" />
<glyph unicode="&#xea;" horiz-adv-x="1216" d="M57 528q0 151 72.5 275t200.5 195t284 71q235 0 392 -157t157 -394q0 -54 -6 -94h-778q28 -88 99 -138t169 -50q84 0 153 33t109 83l201 -174q-85 -96 -207 -149.5t-264 -53.5q-249 0 -415.5 158.5t-166.5 394.5zM238 1151l202 303h361l200 -303h-278l-102 141l-103 -141 h-280zM377 623h469q-25 88 -88 138t-148 50q-84 0 -147 -50.5t-86 -137.5z" />
<glyph unicode="&#xeb;" horiz-adv-x="1216" d="M57 528q0 151 72.5 275t200.5 195t284 71q235 0 392 -157t157 -394q0 -54 -6 -94h-778q28 -88 99 -138t169 -50q84 0 153 33t109 83l201 -174q-85 -96 -207 -149.5t-264 -53.5q-249 0 -415.5 158.5t-166.5 394.5zM229 1309q0 70 47.5 117t118.5 47t118.5 -47t47.5 -117 q0 -71 -47.5 -118.5t-118.5 -47.5t-118.5 47.5t-47.5 118.5zM377 623h469q-25 88 -88 138t-148 50q-84 0 -147 -50.5t-86 -137.5zM678 1309q0 70 47.5 117t118.5 47t118.5 -47t47.5 -117q0 -71 -48 -118.5t-118 -47.5t-118 47.5t-48 118.5z" />
<glyph unicode="&#xec;" horiz-adv-x="536" d="M-139 1454h375l204 -303h-313zM119 0v1044h299v-1044h-299z" />
<glyph unicode="&#xed;" horiz-adv-x="536" d="M98 1151l205 303h375l-266 -303h-314zM119 0v1044h299v-1044h-299z" />
<glyph unicode="&#xee;" horiz-adv-x="536" d="M-115 1151l203 303h361l200 -303h-278l-103 141l-102 -141h-281zM119 0v1044h299v-1044h-299z" />
<glyph unicode="&#xef;" horiz-adv-x="536" d="M-123 1309q0 70 47.5 117t118.5 47t118.5 -47t47.5 -117q0 -71 -47.5 -118.5t-118.5 -47.5t-118.5 47.5t-47.5 118.5zM119 0v1044h299v-1044h-299zM326 1309q0 70 47.5 117t118.5 47t118 -47t47 -117q0 -71 -47.5 -118.5t-117.5 -47.5t-118 47.5t-48 118.5z" />
<glyph unicode="&#xf0;" horiz-adv-x="1175" d="M57 492q0 216 142.5 364t343.5 148q99 0 176 -39q-84 98 -209 163l-61 -73h-218l113 135q-75 17 -135 20v285q171 -9 328 -76l63 76h217l-131 -156q201 -133 316.5 -348.5t115.5 -453.5q0 -132 -40.5 -239t-111.5 -177.5t-166.5 -108t-207.5 -37.5q-231 0 -383 147.5 t-152 369.5zM365 489q0 -97 64 -161t159 -64t159 64t64 161t-64 161.5t-159 64.5t-159 -64.5t-64 -161.5z" />
<glyph unicode="&#xf1;" horiz-adv-x="1234" d="M119 0v1044h299v-104q126 129 317 129q180 0 290 -108.5t110 -288.5v-672h-299v571q0 95 -55.5 152t-147.5 57q-96 0 -155.5 -58.5t-59.5 -154.5v-567h-299zM254 1167q0 135 63 221.5t179 86.5q49 0 92.5 -19t76.5 -38t58 -19q31 0 50.5 20t19.5 51h211q0 -137 -63 -222 t-181 -85q-49 0 -92.5 19t-76 38t-56.5 19q-32 0 -52 -21t-20 -51h-209z" />
<glyph unicode="&#xf2;" horiz-adv-x="1241" d="M57 522q0 233 161.5 390t402.5 157q159 0 288 -71.5t202 -197t73 -278.5t-73 -278.5t-202 -197t-288 -71.5q-241 0 -402.5 157t-161.5 390zM211 1454h375l205 -303h-314zM365 522q0 -110 73 -184t183 -74t183 74t73 184t-73 184t-183 74t-183 -74t-73 -184z" />
<glyph unicode="&#xf3;" horiz-adv-x="1241" d="M57 522q0 233 161.5 390t402.5 157q159 0 288 -71.5t202 -197t73 -278.5t-73 -278.5t-202 -197t-288 -71.5q-241 0 -402.5 157t-161.5 390zM365 522q0 -110 73 -184t183 -74t183 74t73 184t-73 184t-183 74t-183 -74t-73 -184zM449 1151l204 303h375l-266 -303h-313z" />
<glyph unicode="&#xf4;" horiz-adv-x="1241" d="M57 522q0 233 161.5 390t402.5 157q159 0 288 -71.5t202 -197t73 -278.5t-73 -278.5t-202 -197t-288 -71.5q-241 0 -402.5 157t-161.5 390zM238 1151l202 303h361l200 -303h-278l-102 141l-103 -141h-280zM365 522q0 -110 73 -184t183 -74t183 74t73 184t-73 184t-183 74 t-183 -74t-73 -184z" />
<glyph unicode="&#xf5;" horiz-adv-x="1241" d="M57 522q0 233 161.5 390t402.5 157q159 0 288 -71.5t202 -197t73 -278.5t-73 -278.5t-202 -197t-288 -71.5q-241 0 -402.5 157t-161.5 390zM246 1167q0 135 62.5 221.5t178.5 86.5q49 0 92.5 -19t77 -38t58.5 -19q31 0 50 20t19 51h211q0 -137 -62.5 -222t-180.5 -85 q-49 0 -92.5 19t-76.5 38t-57 19q-31 0 -51 -21t-20 -51h-209zM365 522q0 -110 73 -184t183 -74t183 74t73 184t-73 184t-183 74t-183 -74t-73 -184z" />
<glyph unicode="&#xf6;" horiz-adv-x="1241" d="M57 522q0 233 161.5 390t402.5 157q159 0 288 -71.5t202 -197t73 -278.5t-73 -278.5t-202 -197t-288 -71.5q-241 0 -402.5 157t-161.5 390zM229 1309q0 70 47.5 117t118.5 47t118.5 -47t47.5 -117q0 -71 -47.5 -118.5t-118.5 -47.5t-118.5 47.5t-47.5 118.5zM365 522 q0 -110 73 -184t183 -74t183 74t73 184t-73 184t-183 74t-183 -74t-73 -184zM678 1309q0 70 47.5 117t118.5 47t118.5 -47t47.5 -117q0 -71 -48 -118.5t-118 -47.5t-118 47.5t-48 118.5z" />
<glyph unicode="&#xf7;" horiz-adv-x="1093" d="M115 483v246h864v-246h-864zM389 233q0 66 45.5 111t112.5 45t112.5 -45t45.5 -111t-45.5 -110.5t-112.5 -44.5t-112.5 44.5t-45.5 110.5zM389 977q0 66 45.5 111t112.5 45t112.5 -45t45.5 -111t-45.5 -111t-112.5 -45t-112.5 45t-45.5 111z" />
<glyph unicode="&#xf8;" horiz-adv-x="1241" d="M51 0l142 160q-136 149 -136 362q0 233 161.5 390t402.5 157q167 0 305 -82l51 57h211l-139 -157q135 -154 135 -365q0 -153 -73 -278.5t-202 -197t-288 -71.5q-167 0 -308 82l-51 -57h-211zM365 522q0 -72 32 -131l328 369q-52 20 -104 20q-110 0 -183 -74t-73 -184z M514 285q58 -21 107 -21q110 0 183 74t73 184q0 74 -35 133z" />
<glyph unicode="&#xf9;" horiz-adv-x="1189" d="M100 418v626h299v-585q0 -88 53.5 -141.5t141.5 -53.5t141 53.5t53 141.5v585h299v-626q0 -200 -134.5 -321.5t-358.5 -121.5q-223 0 -358.5 121.5t-135.5 321.5zM186 1454h375l205 -303h-313z" />
<glyph unicode="&#xfa;" horiz-adv-x="1189" d="M100 418v626h299v-585q0 -88 53.5 -141.5t141.5 -53.5t141 53.5t53 141.5v585h299v-626q0 -200 -134.5 -321.5t-358.5 -121.5q-223 0 -358.5 121.5t-135.5 321.5zM424 1151l205 303h375l-267 -303h-313z" />
<glyph unicode="&#xfb;" horiz-adv-x="1189" d="M100 418v626h299v-585q0 -88 53.5 -141.5t141.5 -53.5t141 53.5t53 141.5v585h299v-626q0 -200 -134.5 -321.5t-358.5 -121.5q-223 0 -358.5 121.5t-135.5 321.5zM213 1151l203 303h360l201 -303h-279l-102 141l-102 -141h-281z" />
<glyph unicode="&#xfc;" horiz-adv-x="1189" d="M100 418v626h299v-585q0 -88 53.5 -141.5t141.5 -53.5t141 53.5t53 141.5v585h299v-626q0 -200 -134.5 -321.5t-358.5 -121.5q-223 0 -358.5 121.5t-135.5 321.5zM205 1309q0 70 47.5 117t118.5 47t118.5 -47t47.5 -117q0 -71 -47.5 -118.5t-118.5 -47.5t-118.5 47.5 t-47.5 118.5zM653 1309q0 70 47.5 117t118.5 47t118.5 -47t47.5 -117q0 -71 -47.5 -118.5t-118.5 -47.5t-118.5 47.5t-47.5 118.5z" />
<glyph unicode="&#xfd;" horiz-adv-x="1163" d="M2 1044h342l242 -663l239 663h334l-497 -1212q-44 -113 -135.5 -179.5t-200.5 -66.5q-74 0 -153 29t-134 78l115 233q51 -51 122 -51q75 0 113 78l31 65zM410 1151l204 303h375l-266 -303h-313z" />
<glyph unicode="&#xfe;" d="M119 -389v1864h299v-535q126 129 315 129q216 0 360 -156.5t144 -390.5t-144 -390.5t-360 -156.5q-189 0 -315 129v-493h-299zM418 522q0 -110 73 -184t183 -74t183 74t73 184t-73 184t-183 74t-183 -74t-73 -184z" />
<glyph unicode="&#xff;" horiz-adv-x="1163" d="M2 1044h342l242 -663l239 663h334l-497 -1212q-44 -113 -135.5 -179.5t-200.5 -66.5q-74 0 -153 29t-134 78l115 233q51 -51 122 -51q75 0 113 78l31 65zM190 1309q0 70 47.5 117t118.5 47t118.5 -47t47.5 -117q0 -71 -48 -118.5t-118 -47.5t-118 47.5t-48 118.5z M639 1309q0 70 47.5 117t118.5 47t118.5 -47t47.5 -117q0 -71 -47.5 -118.5t-118.5 -47.5t-118.5 47.5t-47.5 118.5z" />
<glyph unicode="&#x152;" horiz-adv-x="1847" d="M66 707q0 199 93.5 360.5t259 253.5t369.5 92h969v-299h-559v-254h492v-299h-492v-262h569v-299h-979q-153 0 -287 54t-229.5 148t-150.5 225t-55 280zM391 707q0 -174 115.5 -291t288.5 -117h86v815h-86q-173 0 -288.5 -116.5t-115.5 -290.5z" />
<glyph unicode="&#x153;" horiz-adv-x="2035" d="M57 522q0 153 72.5 278.5t198.5 197t278 71.5q131 0 241.5 -56t182.5 -155q72 99 182.5 155t241.5 56q150 0 270.5 -71t189 -198t68.5 -284q0 -53 -6 -88h-778q26 -90 97.5 -141t170.5 -51q81 0 148.5 32.5t107.5 81.5l203 -172q-81 -96 -196.5 -149.5t-249.5 -53.5 q-137 0 -253.5 58t-191.5 160q-72 -102 -183 -160t-245 -58q-152 0 -278 71.5t-198.5 197t-72.5 278.5zM365 522q0 -110 73 -184t183 -74q109 0 182.5 74t73.5 184t-73.5 184t-182.5 74q-110 0 -183 -74t-73 -184zM1198 627h465q-23 84 -87 134t-146 50q-83 0 -146 -49.5 t-86 -134.5z" />
<glyph unicode="&#x178;" horiz-adv-x="1382" d="M-8 1413h360l342 -602l342 602h355l-541 -928v-485h-318v485zM301 1677q0 70 47.5 117t118.5 47t118.5 -47t47.5 -117q0 -71 -47.5 -118.5t-118.5 -47.5t-118.5 47.5t-47.5 118.5zM750 1677q0 70 47 117t118 47t118.5 -47t47.5 -117q0 -71 -47.5 -118.5t-118.5 -47.5 q-70 0 -117.5 47.5t-47.5 118.5z" />
<glyph unicode="&#x2c6;" horiz-adv-x="763" d="M0 1151l203 303h360l201 -303h-279l-102 141l-102 -141h-281z" />
<glyph unicode="&#x2dc;" horiz-adv-x="749" d="M0 1167q0 135 63 221.5t179 86.5q49 0 92.5 -19t76.5 -38t58 -19q31 0 50.5 20t19.5 51h211q0 -137 -63 -222t-181 -85q-49 0 -92.5 19t-76 38t-56.5 19q-32 0 -52 -21t-20 -51h-209z" />
<glyph unicode="&#x2000;" horiz-adv-x="963" />
<glyph unicode="&#x2001;" horiz-adv-x="1927" />
<glyph unicode="&#x2002;" horiz-adv-x="963" />
<glyph unicode="&#x2003;" horiz-adv-x="1927" />
<glyph unicode="&#x2004;" horiz-adv-x="642" />
<glyph unicode="&#x2005;" horiz-adv-x="481" />
<glyph unicode="&#x2006;" horiz-adv-x="321" />
<glyph unicode="&#x2007;" horiz-adv-x="321" />
<glyph unicode="&#x2008;" horiz-adv-x="240" />
<glyph unicode="&#x2009;" horiz-adv-x="385" />
<glyph unicode="&#x200a;" horiz-adv-x="107" />
<glyph unicode="&#x2010;" horiz-adv-x="835" d="M115 416v289h606v-289h-606z" />
<glyph unicode="&#x2011;" horiz-adv-x="835" d="M115 416v289h606v-289h-606z" />
<glyph unicode="&#x2012;" horiz-adv-x="835" d="M115 416v289h606v-289h-606z" />
<glyph unicode="&#x2013;" horiz-adv-x="1245" d="M115 426v270h1015v-270h-1015z" />
<glyph unicode="&#x2014;" horiz-adv-x="2187" d="M115 426v270h1958v-270h-1958z" />
<glyph unicode="&#x2018;" horiz-adv-x="583" d="M70 827l237 586h256l-143 -586h-350z" />
<glyph unicode="&#x2019;" horiz-adv-x="583" d="M70 827l145 586h348l-235 -586h-258z" />
<glyph unicode="&#x201a;" horiz-adv-x="544" d="M0 -281l143 586h349l-236 -586h-256z" />
<glyph unicode="&#x201c;" horiz-adv-x="1079" d="M70 827l237 586h256l-143 -586h-350zM565 827l236 586h256l-144 -586h-348z" />
<glyph unicode="&#x201d;" horiz-adv-x="1079" d="M70 827l145 586h348l-235 -586h-258zM565 827l144 586h348l-236 -586h-256z" />
<glyph unicode="&#x201e;" horiz-adv-x="1040" d="M0 -281l143 586h349l-236 -586h-256zM494 -281l145 586h348l-235 -586h-258z" />
<glyph unicode="&#x2022;" horiz-adv-x="739" d="M115 561q0 109 73.5 181.5t182.5 72.5q108 0 181 -73t73 -181t-73 -181t-181 -73q-109 0 -182.5 72.5t-73.5 181.5z" />
<glyph unicode="&#x2026;" horiz-adv-x="1681" d="M63 184q0 86 58.5 144.5t146.5 58.5q89 0 148 -58t59 -145q0 -88 -59 -146t-148 -58q-88 0 -146.5 58t-58.5 146zM635 184q0 87 59 145t148 58q88 0 146.5 -58.5t58.5 -144.5q0 -88 -58.5 -146t-146.5 -58q-89 0 -148 58t-59 146zM1208 184q0 86 58.5 144.5t146.5 58.5 q89 0 148 -58t59 -145q0 -88 -59 -146t-148 -58q-88 0 -146.5 58t-58.5 146z" />
<glyph unicode="&#x202f;" horiz-adv-x="385" />
<glyph unicode="&#x2039;" horiz-adv-x="761" d="M57 541l303 420h351l-303 -420l303 -420h-351z" />
<glyph unicode="&#x203a;" horiz-adv-x="761" d="M63 121l304 420l-304 420h351l301 -420l-301 -420h-351z" />
<glyph unicode="&#x205f;" horiz-adv-x="481" />
<glyph unicode="&#x20ac;" horiz-adv-x="1536" d="M57 489l43 175h95q-2 14 -2 43t2 43h-138l43 174h123q68 230 263.5 372t455.5 142q139 0 266 -43.5t226 -120.5v-338q-84 90 -204 142t-251 52q-133 0 -238 -55t-163 -151h673l-43 -174h-688q-2 -14 -2 -43t2 -43h670l-43 -175h-569q58 -96 163 -151t238 -55 q131 0 251 52t204 142v-338q-212 -164 -494 -164q-258 0 -453.5 142t-263.5 372h-166z" />
<glyph unicode="&#x2122;" horiz-adv-x="1329" d="M18 1262v151h463v-151h-151v-459h-160v459h-152zM567 803v610h203l137 -309l140 309h194v-610h-158v373l-131 -291h-94l-131 291v-373h-160z" />
<glyph unicode="&#x25fc;" horiz-adv-x="1045" d="M0 0v1045h1045v-1045h-1045z" />
</font>
</defs>
</svg>
