<?xml version="1.0" standalone="no"?>
<!DOCTYPE svg PUBLIC "-//W3C//DTD SVG 1.1//EN" "http://www.w3.org/Graphics/SVG/1.1/DTD/svg11.dtd" >
<svg xmlns="http://www.w3.org/2000/svg" xmlns:xlink="http://www.w3.org/1999/xlink" version="1.1">
<metadata></metadata>
<defs>
<font id="lufgasemibold" horiz-adv-x="1310" >
<font-face units-per-em="2048" ascent="1597" descent="-451" />
<missing-glyph horiz-adv-x="466" />
<glyph unicode="&#xfb01;" horiz-adv-x="1327" d="M57 801v243h164v95q0 168 88.5 264t263.5 96q111 0 197 -45v-233q-61 34 -137 34q-71 0 -108.5 -33.5t-37.5 -99.5v-78h263v-243h-263v-801h-266v801h-164zM899 1364q0 70 48.5 118t119.5 48t119.5 -48t48.5 -118t-48.5 -118t-119.5 -48t-119.5 48t-48.5 118zM934 0v1044 h266v-1044h-266z" />
<glyph unicode="&#xfb02;" horiz-adv-x="1327" d="M57 801v243h164v95q0 168 88.5 264t263.5 96q111 0 197 -45v-233q-61 34 -137 34q-71 0 -108.5 -33.5t-37.5 -99.5v-78h263v-243h-263v-801h-266v801h-164zM934 0v1475h266v-1475h-266z" />
<glyph horiz-adv-x="0" />
<glyph unicode="&#xd;" horiz-adv-x="682" />
<glyph unicode=" "  horiz-adv-x="466" />
<glyph unicode="&#x09;" horiz-adv-x="466" />
<glyph unicode="&#xa0;" horiz-adv-x="466" />
<glyph unicode="!" horiz-adv-x="557" d="M98 160q0 76 52 127t129 51q78 0 129 -50.5t51 -127.5t-51 -127.5t-129 -50.5q-77 0 -129 51t-52 127zM139 1065v348h281v-348l-17 -614h-247z" />
<glyph unicode="&#x22;" horiz-adv-x="894" d="M98 1413h264l-18 -549h-229zM532 1413h265l-19 -549h-227z" />
<glyph unicode="#" horiz-adv-x="1570" d="M53 346v232h287l76 258h-254v231h323l103 346h246l-103 -346h303l103 346h245l-102 -346h219v-231h-287l-77 -258h254v-232h-322l-102 -346h-246l102 346h-303l-102 -346h-248l102 346h-217zM586 578h303l78 258h-303z" />
<glyph unicode="$" horiz-adv-x="1191" d="M68 211l139 195q71 -65 162 -111t184 -59v360q-95 26 -170.5 62.5t-136.5 87.5t-94 121t-33 153q0 163 118.5 271.5t315.5 127.5v137h139v-135q121 -12 222.5 -58t168.5 -114l-131 -194q-44 44 -114 77.5t-146 45.5v-344q54 -14 104.5 -31.5t117.5 -53.5t115 -79.5 t82 -112t34 -149.5q0 -168 -127.5 -281.5t-325.5 -132.5v-135h-139v135q-137 12 -266.5 70t-218.5 147zM393 1028q0 -98 160 -158v306q-73 -14 -116.5 -53.5t-43.5 -94.5zM692 238q79 12 127.5 53.5t48.5 105.5q0 59 -47.5 97t-128.5 65v-321z" />
<glyph unicode="%" horiz-adv-x="1763" d="M82 1096q0 146 100.5 244t249.5 98t249.5 -98t100.5 -244q0 -148 -100.5 -247t-249.5 -99t-249.5 99t-100.5 247zM227 0l1024 1413h285l-1024 -1413h-285zM303 1096q0 -56 37 -93.5t92 -37.5t92 37.5t37 93.5q0 54 -37 90.5t-92 36.5t-92 -36.5t-37 -90.5zM981 322 q0 146 100.5 244t249.5 98t249.5 -98t100.5 -244q0 -148 -100.5 -247.5t-249.5 -99.5t-249.5 99.5t-100.5 247.5zM1202 322q0 -57 36.5 -94.5t92.5 -37.5t92.5 37.5t36.5 94.5q0 54 -37 90.5t-92 36.5t-92 -36.5t-37 -90.5z" />
<glyph unicode="&#x26;" horiz-adv-x="1333" d="M59 432q0 70 19 130.5t54.5 108.5t76 84t94.5 70q-110 152 -110 291t108 230.5t268 91.5t269.5 -90.5t109.5 -227.5q0 -58 -21.5 -109.5t-62 -93.5t-85.5 -74t-105 -65l297 -332q69 108 114 252l234 -73q-68 -220 -182 -365l233 -260h-338l-80 90q-147 -115 -362 -115 q-234 0 -382.5 128t-148.5 329zM332 449q0 -100 75.5 -165t192.5 -65q103 0 191 51l-340 379q-119 -88 -119 -200zM449 1114q0 -64 79 -170q78 41 120 82.5t42 91.5q0 47 -35.5 78t-85.5 31q-51 0 -85.5 -31t-34.5 -82z" />
<glyph unicode="'" horiz-adv-x="460" d="M98 1413h264l-18 -549h-229z" />
<glyph unicode="(" horiz-adv-x="698" d="M139 573q0 262 80 525.5t211 437.5h268q-126 -174 -203 -437.5t-77 -525.5t77 -525t203 -437h-268q-131 174 -211 437.5t-80 524.5z" />
<glyph unicode=")" horiz-adv-x="698" d="M-2 -389q128 174 205.5 437t77.5 525t-77.5 525.5t-205.5 437.5h268q132 -174 212.5 -437.5t80.5 -525.5t-80.5 -525t-212.5 -437h-268z" />
<glyph unicode="*" horiz-adv-x="768" d="M57 1063l125 72l56 20l-56 21l-125 67l84 141l125 -65l45 -39l-10 59v136h166v-136l-10 -57l47 37l125 65l82 -141l-125 -67l-60 -21l60 -25l125 -67l-82 -141l-127 67l-45 39l10 -59v-138h-166v138l10 59l-47 -39l-123 -67z" />
<glyph unicode="+" horiz-adv-x="1093" d="M119 485v240h307v307h242v-307h307v-240h-307v-309h-242v309h-307z" />
<glyph unicode="," horiz-adv-x="530" d="M10 -297l144 578h311l-225 -578h-230z" />
<glyph unicode="-" horiz-adv-x="835" d="M119 432v258h598v-258h-598z" />
<glyph unicode="." horiz-adv-x="522" d="M76 166q0 78 53.5 131t132.5 53q78 0 131 -53t53 -131t-53 -131t-131 -53q-79 0 -132.5 53t-53.5 131z" />
<glyph unicode="/" horiz-adv-x="1087" d="M0 -307l819 1843h268l-819 -1843h-268z" />
<glyph unicode="0" horiz-adv-x="1298" d="M94 707q0 213 70.5 380t197 259t287.5 92q162 0 288.5 -92t196.5 -258.5t70 -380.5t-70 -380.5t-196.5 -259t-288.5 -92.5q-161 0 -287.5 92.5t-197 259.5t-70.5 380zM385 707q0 -202 74 -330.5t190 -128.5q117 0 190.5 128t73.5 331t-73.5 330.5t-190.5 127.5 q-116 0 -190 -128t-74 -330z" />
<glyph unicode="1" horiz-adv-x="806" d="M20 1174l435 239h200v-1413h-282v1077l-232 -131z" />
<glyph unicode="2" horiz-adv-x="1095" d="M41 1182q73 116 202.5 186t282.5 70q204 0 333.5 -120.5t129.5 -307.5q0 -118 -49 -212.5t-131 -181.5l-334 -350h541v-266h-938v229l483 519q64 70 101.5 128.5t37.5 116.5q0 73 -54 117.5t-138 44.5q-153 0 -275 -158z" />
<glyph unicode="3" horiz-adv-x="1171" d="M51 174l162 209q61 -64 152 -99.5t186 -35.5q115 0 186.5 51t71.5 131q0 81 -69 132.5t-177 51.5h-205v244h205q93 0 153 43t60 109q0 68 -66 111.5t-171 43.5q-83 0 -160 -27.5t-127 -76.5l-152 205q83 80 209.5 126t261.5 46q219 0 357.5 -108t138.5 -279 q0 -99 -51.5 -180.5t-141.5 -131.5q105 -50 165.5 -142t60.5 -206q0 -183 -148 -299.5t-381 -116.5q-151 0 -290 53.5t-230 145.5z" />
<glyph unicode="4" horiz-adv-x="1198" d="M45 504l641 909h309v-872h152v-267h-152v-274h-282v274h-600zM352 541h361v516z" />
<glyph unicode="5" horiz-adv-x="1179" d="M78 168l141 227q67 -70 157.5 -108.5t184.5 -38.5q121 0 195.5 61.5t74.5 151.5q0 85 -65 141.5t-166 56.5q-123 0 -211 -81l-250 73l72 762h813v-266h-575l-23 -279q89 50 209 50q206 0 346.5 -133t140.5 -332q0 -205 -153 -341.5t-389 -136.5q-131 0 -260.5 48 t-241.5 145z" />
<glyph unicode="6" horiz-adv-x="1150" d="M49 551q0 164 62 314t174.5 268t279 198.5t365.5 106.5l55 -264q-208 -33 -356 -127t-215 -224q116 82 264 82q188 0 315 -130.5t127 -319.5q0 -207 -151.5 -343.5t-380.5 -136.5q-245 0 -392 157t-147 419zM338 455q0 -90 70 -148.5t180 -58.5q103 0 172 57.5t69 143.5 q0 85 -67 140.5t-170 55.5q-102 0 -178 -50t-76 -140z" />
<glyph unicode="7" horiz-adv-x="1073" d="M78 1147v266h942v-221l-539 -1192h-319l522 1147h-606z" />
<glyph unicode="8" horiz-adv-x="1212" d="M72 395q0 107 58 195t161 143q-90 54 -140.5 134t-50.5 175q0 168 144 282t362 114q217 0 361.5 -114t144.5 -282q0 -96 -50 -175.5t-140 -133.5q102 -55 160.5 -143t58.5 -195q0 -179 -153.5 -299.5t-381.5 -120.5t-381 120.5t-153 299.5zM362 424q0 -75 70 -125.5 t174 -50.5t174 50.5t70 125.5q0 74 -70 124t-174 50t-174 -50t-70 -124zM389 1014q0 -65 62 -108.5t155 -43.5q92 0 153.5 43.5t61.5 108.5q0 66 -61 108.5t-154 42.5q-94 0 -155.5 -42.5t-61.5 -108.5z" />
<glyph unicode="9" horiz-adv-x="1150" d="M31 958q0 207 151.5 343.5t380.5 136.5q245 0 392 -157t147 -419q0 -165 -61.5 -317.5t-173 -272.5t-279 -199.5t-367.5 -97.5l-55 265q209 22 357.5 119t215.5 233q-115 -84 -266 -84q-188 0 -315 130.5t-127 319.5zM322 965q0 -85 67 -141t168 -56q103 0 178.5 50 t75.5 140t-69.5 148.5t-178.5 58.5q-104 0 -172.5 -57t-68.5 -143z" />
<glyph unicode=":" horiz-adv-x="542" d="M86 166q0 78 53.5 131t132.5 53q78 0 131.5 -53t53.5 -131t-53.5 -131t-131.5 -53q-79 0 -132.5 53t-53.5 131zM86 834q0 78 53.5 131t132.5 53q78 0 131.5 -53t53.5 -131t-53.5 -131.5t-131.5 -53.5q-79 0 -132.5 53.5t-53.5 131.5z" />
<glyph unicode=";" horiz-adv-x="573" d="M10 -297l144 578h311l-227 -578h-228zM117 834q0 78 53.5 131t132.5 53q78 0 132 -53t54 -131t-54 -131.5t-132 -53.5q-79 0 -132.5 53.5t-53.5 131.5z" />
<glyph unicode="&#x3c;" horiz-adv-x="950" d="M119 485v242l712 348v-266l-444 -203l444 -203v-266z" />
<glyph unicode="=" horiz-adv-x="1093" d="M119 285v239h856v-239h-856zM119 686v240h856v-240h-856z" />
<glyph unicode="&#x3e;" horiz-adv-x="950" d="M119 137v266l444 203l-444 203v266l712 -348v-242z" />
<glyph unicode="?" horiz-adv-x="1005" d="M2 1188q93 118 222 184t274 66q193 0 322.5 -114t129.5 -280q0 -78 -33.5 -148.5t-81 -120.5t-94.5 -94.5t-80.5 -89.5t-33.5 -87v-49h-281v49q0 67 32.5 129.5t79 110.5t93 92.5t79 92.5t32.5 93q0 64 -49 103.5t-130 39.5t-158 -43t-139 -121zM307 160q0 77 51 127.5 t129 50.5q77 0 129 -51t52 -127t-52 -127t-129 -51q-78 0 -129 50.5t-51 127.5z" />
<glyph unicode="@" horiz-adv-x="1710" d="M88 551q0 213 100.5 387t278 273.5t395.5 99.5q158 0 298.5 -54t242 -147.5t160.5 -226t59 -283.5q0 -188 -89 -302t-245 -114q-86 0 -154 32t-106 89q-77 -125 -237 -125q-151 0 -250 106t-99 263q0 160 97.5 266.5t236.5 106.5q131 0 215 -97v72h228v-453 q0 -36 21.5 -57.5t57.5 -21.5q58 0 93.5 66.5t35.5 172.5q0 110 -44 207.5t-119.5 166t-180 108.5t-221.5 40q-165 0 -297.5 -74.5t-207 -206t-74.5 -294.5q0 -121 43.5 -227t119.5 -182.5t184 -120.5t232 -44q99 0 189.5 27t154.5 74l90 -166q-199 -119 -436 -119 q-163 0 -306.5 58.5t-245.5 159t-161 241t-59 299.5zM676 551q0 -66 44.5 -110t110.5 -44q69 0 114.5 44.5t45.5 109.5q0 66 -46 110t-114 44q-66 0 -110.5 -43.5t-44.5 -110.5z" />
<glyph unicode="A" horiz-adv-x="1466" d="M23 0l544 1413h334l543 -1413h-309l-101 274h-606l-100 -274h-305zM522 535h416l-207 567z" />
<glyph unicode="B" horiz-adv-x="1294" d="M143 0v1413h664q159 0 267 -102t108 -258q0 -98 -46 -180t-118 -123q103 -37 168 -139t65 -228q0 -167 -113 -275t-284 -108h-711zM418 254h366q75 0 126 51.5t51 126.5q0 74 -51 125t-126 51h-366v-354zM418 848h319q63 0 108.5 45t45.5 111t-44 110.5t-110 44.5h-319 v-311z" />
<glyph unicode="C" horiz-adv-x="1488" d="M72 707q0 154 57 289.5t156 232.5t237 153t295 56q196 0 360 -85t263 -233l-244 -151q-62 92 -161 144t-218 52q-194 0 -324.5 -131t-130.5 -327t130.5 -327.5t324.5 -131.5q119 0 218 52t161 144l244 -151q-99 -148 -263 -233t-360 -85q-157 0 -295 56.5t-237 153.5 t-156 232.5t-57 289.5z" />
<glyph unicode="D" horiz-adv-x="1488" d="M143 0v1413h553q152 0 286 -54t229.5 -147.5t150.5 -224.5t55 -280t-55 -280t-150.5 -225t-229.5 -148t-286 -54h-553zM426 266h264q187 0 311.5 126t124.5 315t-124.5 314.5t-311.5 125.5h-264v-881z" />
<glyph unicode="E" horiz-adv-x="1189" d="M143 0v1413h951v-266h-668v-303h600v-266h-600v-312h678v-266h-961z" />
<glyph unicode="F" horiz-adv-x="1122" d="M143 0v1413h920v-266h-637v-318h555v-266h-555v-563h-283z" />
<glyph unicode="G" horiz-adv-x="1589" d="M72 707q0 154 57 289.5t156 232.5t237 153t295 56q184 0 339.5 -74t250.5 -203l-213 -170q-64 83 -160.5 129.5t-210.5 46.5q-197 0 -329 -131t-132 -329t131 -329.5t328 -131.5q152 0 265 82.5t145 214.5h-383v252h680v-99q0 -205 -92.5 -370t-256.5 -258t-368 -93 q-156 0 -293 56.5t-235 153.5t-154.5 232.5t-56.5 289.5z" />
<glyph unicode="H" horiz-adv-x="1478" d="M143 0v1413h283v-569h627v569h282v-1413h-282v578h-627v-578h-283z" />
<glyph unicode="I" horiz-adv-x="569" d="M143 0v1413h283v-1413h-283z" />
<glyph unicode="J" horiz-adv-x="884" d="M53 20v271q95 -43 199 -43q109 0 171 56.5t62 158.5v950h283v-964q0 -221 -132 -347.5t-353 -126.5q-128 0 -230 45z" />
<glyph unicode="K" horiz-adv-x="1363" d="M143 0v1413h283v-645l580 645h360l-625 -682l652 -731h-369l-467 528l-131 -143v-385h-283z" />
<glyph unicode="L" horiz-adv-x="1091" d="M143 0v1413h283v-1147h616v-266h-899z" />
<glyph unicode="M" horiz-adv-x="1792" d="M143 0v1413h353l401 -735l403 735h349v-1413h-283v971l-391 -717h-160l-389 717v-971h-283z" />
<glyph unicode="N" horiz-adv-x="1499" d="M143 0v1413h287l643 -928v928h283v-1413h-287l-643 928v-928h-283z" />
<glyph unicode="O" horiz-adv-x="1634" d="M72 707q0 154 57 289.5t156 232.5t237 153t295 56q209 0 380 -95.5t268.5 -263t97.5 -372.5q0 -154 -57.5 -289.5t-156 -232.5t-237 -153.5t-295.5 -56.5t-295 56.5t-237 153.5t-156 232.5t-57 289.5zM362 707q0 -196 130.5 -327.5t324.5 -131.5t324.5 131.5t130.5 327.5 t-130.5 327t-324.5 131t-324.5 -131t-130.5 -327z" />
<glyph unicode="P" horiz-adv-x="1288" d="M143 0v1413h617q206 0 345.5 -135t139.5 -336t-139.5 -336t-345.5 -135h-334v-471h-283zM426 737h328q86 0 143 58.5t57 146.5t-57 146.5t-143 58.5h-328v-410z" />
<glyph unicode="Q" horiz-adv-x="1634" d="M72 707q0 154 57 289.5t156 232.5t237 153t295 56q209 0 380 -95.5t268.5 -263t97.5 -372.5q0 -164 -63 -304.5t-177 -240.5l135 -195l-211 -147l-145 207q-136 -52 -285 -52q-157 0 -295 56.5t-237 153.5t-156 232.5t-57 289.5zM362 707q0 -196 130.5 -327.5 t324.5 -131.5q67 0 119 14l-123 176l213 148l131 -189q115 128 115 310q0 196 -130.5 327t-324.5 131t-324.5 -131t-130.5 -327z" />
<glyph unicode="R" horiz-adv-x="1296" d="M143 0v1413h602q204 0 342 -132.5t138 -330.5q0 -150 -87.5 -264.5t-230.5 -159.5l353 -526h-340l-326 504h-168v-504h-283zM426 750h313q83 0 139 56.5t56 141.5t-56 142t-139 57h-313v-397z" />
<glyph unicode="S" horiz-adv-x="1228" d="M47 197l146 215q88 -84 206.5 -134.5t235.5 -50.5q108 0 184 46t76 118q0 25 -10.5 46.5t-23.5 37t-41.5 31t-48 24t-59 20.5t-59 16.5t-63.5 15.5q-84 20 -155 46t-134.5 64.5t-107.5 85.5t-69.5 109.5t-25.5 134.5q0 188 149 302t388 114q153 0 280.5 -48t208.5 -128 l-131 -213q-62 60 -160.5 98.5t-201.5 38.5q-106 0 -174 -43t-68 -109q0 -39 24 -70t68 -52.5t87 -35t100 -26.5q37 -8 70.5 -16.5t88.5 -27.5t100.5 -41.5t95.5 -58.5t84 -77.5t56.5 -100t22.5 -125.5q0 -124 -73 -222.5t-198.5 -152t-279.5 -53.5q-161 0 -320.5 60.5 t-267.5 161.5z" />
<glyph unicode="T" horiz-adv-x="1206" d="M53 1147v266h1100v-266h-408v-1147h-282v1147h-410z" />
<glyph unicode="U" horiz-adv-x="1404" d="M117 547v866h282v-862q0 -129 86.5 -216t216.5 -87t217 87t87 216v862h282v-866q0 -161 -76.5 -292t-210.5 -205.5t-299 -74.5t-299 74.5t-210 205.5t-76 292z" />
<glyph unicode="V" horiz-adv-x="1454" d="M20 1413h316l395 -1038l393 1038h310l-562 -1413h-290z" />
<glyph unicode="W" horiz-adv-x="2066" d="M31 1413h299l291 -1028l292 1028h248l293 -1028l291 1028h291l-441 -1413h-282l-279 981l-280 -981h-281z" />
<glyph unicode="X" horiz-adv-x="1472" d="M27 0l516 709l-508 704h348l356 -508l353 508h346l-508 -704l516 -709h-348l-363 514l-362 -514h-346z" />
<glyph unicode="Y" horiz-adv-x="1380" d="M-2 1413h324l372 -631l373 631h315l-551 -917v-496h-282v496z" />
<glyph unicode="Z" horiz-adv-x="1257" d="M74 0v203l708 944h-700v266h1087v-203l-708 -944h723v-266h-1110z" />
<glyph unicode="[" horiz-adv-x="716" d="M160 -389v1925h508v-252h-234v-1421h234v-252h-508z" />
<glyph unicode="\" horiz-adv-x="1087" d="M0 1536h268l819 -1843h-268z" />
<glyph unicode="]" horiz-adv-x="716" d="M49 -137h234v1421h-234v252h508v-1925h-508v252z" />
<glyph unicode="^" horiz-adv-x="878" d="M57 897l260 516h244l260 -516h-239l-142 297l-141 -297h-242z" />
<glyph unicode="_" horiz-adv-x="1013" d="M45 -127h926v-225h-926v225z" />
<glyph unicode="`" horiz-adv-x="542" d="M0 1452h336l207 -293h-281z" />
<glyph unicode="a" d="M68 522q0 233 146 390t364 157q204 0 340 -149v124h266v-1044h-266v125q-137 -150 -340 -150q-218 0 -364 157t-146 390zM342 522q0 -123 82 -206t205 -83q124 0 206.5 83t82.5 206t-82.5 206t-206.5 83q-123 0 -205 -83t-82 -206z" />
<glyph unicode="b" d="M127 0v1475h266v-555q133 149 340 149q143 0 259.5 -71.5t182.5 -197t66 -278.5t-66 -278.5t-182.5 -197t-259.5 -71.5q-206 0 -340 150v-125h-266zM393 522q0 -123 82 -206t205 -83q124 0 205.5 82.5t81.5 206.5t-81.5 206.5t-205.5 82.5q-123 0 -205 -83t-82 -206z" />
<glyph unicode="c" horiz-adv-x="1144" d="M63 522q0 233 161.5 390t400.5 157q156 0 282.5 -70t198.5 -190l-232 -139q-36 64 -101.5 102.5t-147.5 38.5q-123 0 -205 -83t-82 -206t82 -206t205 -83q81 0 147 38.5t102 103.5l232 -139q-72 -121 -198.5 -191t-282.5 -70q-239 0 -400.5 157t-161.5 390z" />
<glyph unicode="d" d="M68 522q0 233 146 390t364 157q204 0 340 -149v555h266v-1475h-266v125q-137 -150 -340 -150q-218 0 -364 157t-146 390zM342 522q0 -123 82 -206t205 -83q124 0 206.5 83t82.5 206t-82.5 206t-206.5 83q-123 0 -205 -83t-82 -206z" />
<glyph unicode="e" horiz-adv-x="1226" d="M63 526q0 152 72.5 276.5t200 195.5t282.5 71q235 0 392 -156.5t157 -392.5q0 -50 -6 -94h-809q28 -99 107 -157t192 -58q91 0 167 36.5t120 92.5l178 -156q-83 -99 -205.5 -154t-267.5 -55q-164 0 -297 72t-208 198.5t-75 280.5zM350 621h533q-25 98 -97.5 156.5 t-169.5 58.5t-169 -58.5t-97 -156.5z" />
<glyph unicode="f" horiz-adv-x="788" d="M57 801v243h164v95q0 168 88.5 264t263.5 96q111 0 197 -45v-233q-61 34 -137 34q-71 0 -108.5 -33.5t-37.5 -99.5v-78h263v-243h-263v-801h-266v801h-164z" />
<glyph unicode="g" horiz-adv-x="1155" d="M74 23q0 80 38.5 151t102.5 111q-139 130 -139 325q0 197 139.5 328t349.5 131q121 0 228 -49q23 85 94.5 133.5t173.5 48.5h86v-246h-74q-40 0 -69.5 -20t-36.5 -55q90 -117 90 -271q0 -196 -141 -327t-351 -131q-86 0 -172 26q-53 -32 -53 -90q0 -38 31 -63t80 -25h340 q156 0 259.5 -81.5t129.5 -225.5l-275 -74q-6 57 -51 91t-115 34h-342q-146 0 -234.5 77t-88.5 202zM348 610q0 -89 61.5 -148t155.5 -59q93 0 155 59t62 148t-62 148t-155 59q-94 0 -155.5 -59t-61.5 -148z" />
<glyph unicode="h" horiz-adv-x="1243" d="M127 0v1475h266v-553q126 147 332 147q185 0 296.5 -110.5t111.5 -294.5v-664h-267v578q0 106 -62 169.5t-165 63.5q-110 0 -178 -65.5t-68 -172.5v-573h-266z" />
<glyph unicode="i" horiz-adv-x="520" d="M92 1364q0 70 48.5 118t119.5 48t119.5 -48t48.5 -118t-48.5 -118t-119.5 -48t-119.5 48t-48.5 118zM127 0v1044h266v-1044h-266z" />
<glyph unicode="j" horiz-adv-x="530" d="M-68 -150q41 -20 93 -20q112 0 112 111v1103h266v-1134q0 -150 -83 -237t-244 -87q-83 0 -144 25v239zM102 1364q0 70 48.5 118t119.5 48t119.5 -48t48.5 -118t-48.5 -118t-119.5 -48t-119.5 48t-48.5 118z" />
<glyph unicode="k" horiz-adv-x="1122" d="M127 0v1475h266v-859l385 428h344l-448 -483l463 -561h-349l-303 360l-92 -100v-260h-266z" />
<glyph unicode="l" horiz-adv-x="520" d="M127 0v1475h266v-1475h-266z" />
<glyph unicode="m" horiz-adv-x="1886" d="M127 0v1044h266v-108q118 133 309 133q109 0 193.5 -44.5t134.5 -125.5q129 170 356 170q177 0 283.5 -106t106.5 -283v-680h-267v600q0 96 -55.5 153.5t-148.5 57.5q-98 0 -159 -59t-61 -156v-596h-266v600q0 95 -56.5 153t-150.5 58q-97 0 -158 -59.5t-61 -155.5v-596 h-266z" />
<glyph unicode="n" horiz-adv-x="1243" d="M127 0v1044h266v-116q126 141 332 141q185 0 296.5 -110.5t111.5 -294.5v-664h-267v578q0 106 -62.5 169.5t-166.5 63.5q-109 0 -176.5 -65.5t-67.5 -172.5v-573h-266z" />
<glyph unicode="o" horiz-adv-x="1249" d="M63 522q0 233 161.5 390t400.5 157t400 -157t161 -390t-161 -390t-400 -157t-400.5 157t-161.5 390zM338 522q0 -123 82 -206t205 -83q124 0 205 82.5t81 206.5t-81 206.5t-205 82.5q-123 0 -205 -83t-82 -206z" />
<glyph unicode="p" d="M127 -389v1433h266v-124q133 149 340 149q143 0 259.5 -71.5t182.5 -197t66 -278.5t-66 -278.5t-182.5 -197t-259.5 -71.5q-206 0 -340 150v-514h-266zM393 522q0 -123 82 -206t205 -83q124 0 205.5 82.5t81.5 206.5t-81.5 206.5t-205.5 82.5q-123 0 -205 -83t-82 -206z " />
<glyph unicode="q" d="M68 522q0 233 146 390t364 157q204 0 340 -149v124h266v-1433h-266v514q-137 -150 -340 -150q-218 0 -364 157t-146 390zM342 522q0 -123 82 -206t205 -83q124 0 206.5 83t82.5 206t-82.5 206t-206.5 83q-123 0 -205 -83t-82 -206z" />
<glyph unicode="r" horiz-adv-x="768" d="M127 0v1044h266v-135q120 152 301 152h45v-275h-45q-142 0 -221.5 -78t-79.5 -212v-496h-266z" />
<glyph unicode="s" horiz-adv-x="985" d="M47 135l129 176q133 -116 305 -116q82 0 133.5 26t51.5 72q0 25 -14.5 44t-46.5 33t-61.5 23t-82.5 21q-36 8 -57 13t-57.5 15.5t-59 19.5t-53.5 24.5t-50.5 31.5t-41 39t-34 49t-20.5 60t-8 73q0 107 59 183t153.5 111.5t213.5 35.5q231 0 405 -137l-129 -178 q-128 96 -270 96q-72 0 -118 -23t-46 -67q0 -25 14 -43.5t46 -32t62 -22t83 -19.5q46 -10 74 -17t73 -22t73.5 -30t62 -40.5t52.5 -54.5t32.5 -71t13.5 -91q0 -107 -60 -186t-160 -117.5t-227 -38.5q-254 0 -440 160z" />
<glyph unicode="t" horiz-adv-x="839" d="M57 801v243h166v265h266v-265h281v-243h-281v-434q0 -134 144 -134q61 0 137 35v-248q-83 -45 -195 -45q-175 0 -263.5 93.5t-88.5 255.5v477h-166z" />
<glyph unicode="u" horiz-adv-x="1196" d="M111 416v628h266v-591q0 -100 60.5 -160t160.5 -60t160.5 60t60.5 160v591h266v-628q0 -199 -133.5 -320t-353.5 -121q-221 0 -354 120.5t-133 320.5z" />
<glyph unicode="v" horiz-adv-x="1163" d="M10 1044h303l273 -710l270 710h297l-434 -1044h-275z" />
<glyph unicode="w" horiz-adv-x="1765" d="M16 1044h297l217 -704l220 704h272l221 -704l215 704h291l-371 -1044h-274l-221 721l-221 -721h-275z" />
<glyph unicode="x" horiz-adv-x="1161" d="M25 0l374 524l-368 520h323l228 -335l227 335h321l-370 -520l377 -524h-324l-233 342l-236 -342h-319z" />
<glyph unicode="y" horiz-adv-x="1163" d="M10 1044h303l273 -710l270 710h297l-516 -1226q-43 -107 -129 -169.5t-189 -62.5q-71 0 -146.5 29t-127.5 76l102 209q53 -56 127 -56q81 0 119 82l43 90z" />
<glyph unicode="z" horiz-adv-x="1017" d="M78 0v195l475 591h-467v258h840v-194l-475 -592h489v-258h-862z" />
<glyph unicode="{" horiz-adv-x="860" d="M119 449v251h80q49 0 79.5 32t30.5 83v434q0 129 78.5 208t206.5 79h217v-252h-115q-51 0 -81.5 -32t-30.5 -85v-422q0 -58 -32.5 -103t-88.5 -67q56 -24 88.5 -69t32.5 -103v-423q0 -53 30.5 -85t81.5 -32h115v-252h-217q-128 0 -206.5 79t-78.5 208v436q0 52 -30 83.5 t-80 31.5h-80z" />
<glyph unicode="|" horiz-adv-x="612" d="M184 -389v1925h244v-1925h-244z" />
<glyph unicode="}" horiz-adv-x="860" d="M49 -137h115q51 0 81.5 32t30.5 85v423q0 58 31.5 103.5t87.5 68.5q-56 22 -87.5 67t-31.5 103v422q0 53 -30.5 85t-81.5 32h-115v252h217q128 0 206.5 -79t78.5 -208v-434q0 -51 31 -83t80 -32h79v-251h-79q-50 0 -80.5 -31.5t-30.5 -83.5v-436q0 -129 -78.5 -208 t-206.5 -79h-217v252z" />
<glyph unicode="~" horiz-adv-x="1187" d="M119 438q0 162 73 260.5t222 98.5q53 0 103 -16.5t81.5 -36t67.5 -36t63 -16.5q41 0 68.5 27t27.5 67h244q0 -162 -73 -260t-222 -98q-67 0 -127.5 26t-107.5 52t-80 26q-43 0 -70 -26.5t-27 -67.5h-243z" />
<glyph unicode="&#xa1;" horiz-adv-x="557" d="M98 885q0 76 52 127t129 51q78 0 129 -50.5t51 -127.5t-51 -127.5t-129 -50.5q-77 0 -129 51t-52 127zM139 -20l17 614h247l17 -614v-349h-281v349z" />
<glyph unicode="&#xa2;" horiz-adv-x="1212" d="M92 705q0 214 135.5 366t347.5 178v164h162v-166q128 -17 232 -84.5t166 -169.5l-232 -129q-61 97 -166 123v-565q107 30 166 127l234 -131q-64 -104 -167.5 -170.5t-232.5 -83.5v-164h-162v162q-211 26 -347 178t-136 365zM362 705q0 -103 59 -180.5t154 -102.5v567 q-95 -25 -154 -102.5t-59 -181.5z" />
<glyph unicode="&#xa3;" horiz-adv-x="1196" d="M98 0v266h113v291h-113v242h113v168q0 201 142.5 336t355.5 135q121 0 230.5 -46.5t188.5 -125.5l-145 -207q-55 48 -127 77t-143 29q-96 0 -157.5 -55.5t-61.5 -142.5v-168h393v-242h-393v-291h639v-266h-1035z" />
<glyph unicode="&#xa4;" horiz-adv-x="1122" d="M80 393l127 127q-49 87 -49 189q0 101 49 188l-127 127l164 162l133 -131q86 39 184 39t184 -39l136 133l161 -166l-124 -123q49 -87 49 -190q0 -104 -49 -191l124 -125l-161 -162l-133 131q-84 -38 -187 -38q-101 0 -182 38l-135 -131zM385 709q0 -76 50.5 -127.5 t125.5 -51.5q77 0 128.5 51.5t51.5 127.5t-51.5 127t-128.5 51q-75 0 -125.5 -51.5t-50.5 -126.5z" />
<glyph unicode="&#xa5;" horiz-adv-x="1327" d="M25 1413h317l326 -629l325 629h310l-418 -772h174v-174h-254v-90h254v-174h-254v-203h-281v203h-254v174h254v90h-254v174h174z" />
<glyph unicode="&#xa6;" horiz-adv-x="612" d="M184 -389v840h244v-840h-244zM184 696v840h244v-840h-244z" />
<glyph unicode="&#xa7;" horiz-adv-x="1085" d="M123 604q0 170 137 260q-129 92 -129 240q0 154 121.5 244t304.5 90q110 0 213.5 -34t171.5 -93l-102 -162q-42 38 -113 62t-145 24q-84 0 -135.5 -33t-51.5 -84q0 -100 223 -147q60 -13 108.5 -30t96 -43.5t79.5 -60.5t51.5 -83t19.5 -109q0 -169 -144 -262 q134 -88 134 -240q0 -105 -58 -183.5t-154.5 -117.5t-215.5 -39q-121 0 -229.5 39t-178.5 105l106 164q42 -45 116 -75t157 -30q87 0 140.5 34.5t53.5 88.5q0 56 -61.5 91t-163.5 59q-59 13 -106.5 29.5t-95 43t-79 60t-51.5 83t-20 109.5zM385 631q0 -99 170 -139 q67 3 111.5 39t44.5 87q0 103 -174 138q-66 -3 -109 -38t-43 -87z" />
<glyph unicode="&#xa8;" horiz-adv-x="743" d="M0 1307q0 63 44 106t108 43t107.5 -43t43.5 -106q0 -64 -43 -107t-108 -43t-108.5 43t-43.5 107zM442 1307q0 63 44 106t108 43q63 0 106 -43t43 -106q0 -64 -43 -107t-106 -43q-65 0 -108.5 43t-43.5 107z" />
<glyph unicode="&#xa9;" horiz-adv-x="1648" d="M94 707q0 205 95.5 372.5t263 263t372.5 95.5t372.5 -95.5t263 -263t95.5 -372.5t-95.5 -373t-263 -263.5t-372.5 -95.5t-372.5 95.5t-263 263.5t-95.5 373zM279 707q0 -155 71.5 -282t197 -199t277.5 -72q151 0 276 72t197 199t72 282t-72 282t-197 199t-276 72 q-152 0 -277.5 -72t-197 -199t-71.5 -282zM449 707q0 164 110.5 274.5t276.5 110.5q111 0 200.5 -51.5t137.5 -139.5l-187 -96q-50 82 -151 82q-76 0 -127.5 -52.5t-51.5 -127.5q0 -76 51.5 -128.5t127.5 -52.5q101 0 151 82l187 -96q-48 -88 -137.5 -139t-200.5 -51 q-166 0 -276.5 110.5t-110.5 274.5z" />
<glyph unicode="&#xaa;" horiz-adv-x="768" d="M57 1137q0 126 77.5 210.5t193.5 84.5q96 0 166 -76v59h196v-557h-196v60q-70 -76 -166 -76q-116 0 -193.5 84.5t-77.5 210.5zM256 1137q0 -52 34 -86.5t85 -34.5t85 34.5t34 86.5t-34 86t-85 34t-85 -34t-34 -86z" />
<glyph unicode="&#xab;" horiz-adv-x="1300" d="M66 541l313 417h311l-311 -417l311 -418h-311zM612 541l312 417h313l-313 -417l313 -418h-313z" />
<glyph unicode="&#xac;" horiz-adv-x="1093" d="M119 485v240h856v-549h-244v309h-612z" />
<glyph unicode="&#xad;" horiz-adv-x="835" d="M119 432v258h598v-258h-598z" />
<glyph unicode="&#xae;" horiz-adv-x="870" d="M57 1059q0 163 108 271t271 108q161 0 269 -108t108 -271q0 -161 -108 -269t-269 -108q-163 0 -271 108t-108 269zM158 1059q0 -120 79 -200.5t199 -80.5q117 0 196 80.5t79 200.5q0 121 -79 201.5t-196 80.5q-120 0 -199 -80t-79 -202zM309 883v383h156q55 0 92 -37 t37 -92q0 -39 -19.5 -70.5t-52.5 -46.5l82 -137h-102l-72 125h-29v-125h-92zM401 1090h56q20 0 33.5 13.5t13.5 33.5t-13.5 32.5t-33.5 12.5h-56v-92z" />
<glyph unicode="&#xaf;" horiz-adv-x="540" d="M0 1182v223h541v-223h-541z" />
<glyph unicode="&#xb0;" horiz-adv-x="792" d="M68 1116q0 137 94 229.5t233 92.5q141 0 235.5 -92.5t94.5 -229.5q0 -138 -94.5 -230.5t-235.5 -92.5q-140 0 -233.5 92.5t-93.5 230.5zM281 1116q0 -50 32.5 -83.5t81.5 -33.5t82 33.5t33 83.5t-33 82.5t-82 32.5t-81.5 -32.5t-32.5 -82.5z" />
<glyph unicode="&#xb1;" horiz-adv-x="1093" d="M119 61v240h856v-240h-856zM119 645v240h307v233h242v-233h307v-240h-307v-235h-242v235h-307z" />
<glyph unicode="&#xb2;" horiz-adv-x="661" d="M23 1458q45 70 124.5 112t171.5 42q126 0 204.5 -73.5t78.5 -188.5q0 -128 -106 -238l-174 -180h294v-182h-567v157l277 293q80 85 80 137q0 36 -29 58t-70 22q-82 0 -153 -84z" />
<glyph unicode="&#xb3;" horiz-adv-x="696" d="M18 854l111 143q35 -35 87 -55t106 -20q60 0 98.5 26t38.5 66q0 41 -38 67.5t-95 26.5h-119v166h119q51 0 82.5 21t31.5 53q0 34 -36.5 55.5t-92.5 21.5q-96 0 -159 -53l-105 139q51 46 129.5 73.5t159.5 27.5q134 0 218.5 -66t84.5 -170q0 -119 -111 -184 q60 -31 94.5 -85.5t34.5 -121.5q0 -110 -90.5 -180t-232.5 -70q-91 0 -176 31.5t-140 87.5z" />
<glyph unicode="&#xb4;" horiz-adv-x="542" d="M0 1159l207 293h336l-262 -293h-281z" />
<glyph unicode="&#xb6;" d="M57 985q0 183 122.5 305.5t305.5 122.5h689v-1802h-230v1577h-143v-1577h-228v946h-88q-183 0 -305.5 122.5t-122.5 305.5z" />
<glyph unicode="&#xb7;" horiz-adv-x="610" d="M119 561q0 78 53.5 131t132.5 53t133 -53t54 -131t-54 -131t-133 -53t-132.5 53t-53.5 131z" />
<glyph unicode="&#xb8;" horiz-adv-x="477" d="M0 -395l92 110q59 -69 133 -69q40 0 66 23t26 57t-23.5 56.5t-57.5 22.5q-43 0 -64 -28l-147 67l125 156v4h184v-4l-49 -59q82 -6 137 -67t55 -148q0 -96 -70.5 -161t-175.5 -65q-140 0 -231 105z" />
<glyph unicode="&#xb9;" horiz-adv-x="503" d="M10 1452l264 145h140v-847h-195v614l-123 -70z" />
<glyph unicode="&#xba;" horiz-adv-x="749" d="M57 1137q0 126 92 210.5t226 84.5q135 0 226 -84.5t91 -210.5t-91 -210.5t-226 -84.5q-134 0 -226 84.5t-92 210.5zM256 1137q0 -52 34.5 -86.5t84.5 -34.5q51 0 86 34.5t35 86.5q0 51 -35 85.5t-86 34.5q-50 0 -84.5 -34t-34.5 -86z" />
<glyph unicode="&#xbb;" horiz-adv-x="1300" d="M74 123l313 418l-313 417h311l313 -417l-313 -418h-311zM621 123l311 418l-311 417h311l313 -417l-313 -418h-311z" />
<glyph unicode="&#xbc;" horiz-adv-x="1634" d="M10 1268l264 145h140v-848h-195v615l-123 -70zM201 0l968 1413h246l-971 -1413h-243zM918 311l368 537h215v-512h82v-182h-82v-154h-194v154h-344zM1114 336h193v289z" />
<glyph unicode="&#xbd;" horiz-adv-x="1681" d="M10 1268l264 145h140v-848h-195v615l-123 -70zM201 0l968 1413h246l-971 -1413h-243zM1040 709q45 70 124.5 111.5t172.5 41.5q126 0 204.5 -73.5t78.5 -188.5q0 -127 -107 -238l-174 -180h295v-182h-567v158l276 293q80 85 80 137q0 36 -28.5 58t-69.5 22 q-83 0 -154 -84z" />
<glyph unicode="&#xbe;" horiz-adv-x="1744" d="M18 670l111 143q35 -35 87 -55.5t106 -20.5q60 0 98.5 26t38.5 66q0 41 -38 68t-95 27h-119v166h119q51 0 82.5 20.5t31.5 52.5q0 34 -36.5 56t-92.5 22q-96 0 -159 -53l-105 139q51 46 129 73t160 27q134 0 218.5 -65.5t84.5 -169.5q0 -119 -111 -184q60 -31 94.5 -85.5 t34.5 -121.5q0 -110 -90.5 -180t-232.5 -70q-91 0 -176 31.5t-140 87.5zM311 0l969 1413h246l-971 -1413h-244zM1028 311l369 537h215v-512h82v-182h-82v-154h-195v154h-344zM1225 336h192v289z" />
<glyph unicode="&#xbf;" horiz-adv-x="962" d="M49 0q0 78 33.5 148.5t81 121t95 95t81 89.5t33.5 87v49h280v-49q0 -57 -23 -111t-58 -94t-75.5 -82.5t-75.5 -76.5t-58 -74.5t-23 -79.5q0 -63 48.5 -103.5t127.5 -40.5q83 0 160 42.5t139 121.5l182 -186q-92 -118 -221 -184t-274 -66q-194 0 -323.5 114t-129.5 279z M334 885q0 77 51 127.5t129 50.5q77 0 128.5 -51t51.5 -127t-51.5 -127t-128.5 -51q-78 0 -129 50.5t-51 127.5z" />
<glyph unicode="&#xc0;" horiz-adv-x="1466" d="M23 0l544 1413h334l543 -1413h-309l-101 274h-606l-100 -274h-305zM346 1821h336l207 -293h-281zM522 535h416l-207 567z" />
<glyph unicode="&#xc1;" horiz-adv-x="1466" d="M23 0l544 1413h334l543 -1413h-309l-101 274h-606l-100 -274h-305zM522 535h416l-207 567zM578 1528l206 293h336l-262 -293h-280z" />
<glyph unicode="&#xc2;" horiz-adv-x="1466" d="M23 0l544 1413h334l543 -1413h-309l-101 274h-606l-100 -274h-305zM369 1528l202 293h322l203 -293h-250l-113 149l-115 -149h-249zM522 535h416l-207 567z" />
<glyph unicode="&#xc3;" horiz-adv-x="1466" d="M23 0l544 1413h334l543 -1413h-309l-101 274h-606l-100 -274h-305zM365 1546q0 127 61 209t172 82q39 0 75.5 -13.5t59 -30.5t49 -30.5t49.5 -13.5q34 0 57 24t23 58h187q0 -129 -60.5 -210t-171.5 -81q-40 0 -77 13t-59 29t-49 29t-50 13q-35 0 -56.5 -22.5t-21.5 -55.5 h-188zM522 535h416l-207 567z" />
<glyph unicode="&#xc4;" horiz-adv-x="1466" d="M23 0l544 1413h334l543 -1413h-309l-101 274h-606l-100 -274h-305zM360 1675q0 63 44 106.5t108 43.5t108 -43.5t44 -106.5q0 -64 -43.5 -106.5t-108.5 -42.5t-108.5 42.5t-43.5 106.5zM522 535h416l-207 567zM803 1675q0 63 43.5 106.5t107.5 43.5q63 0 106.5 -43.5 t43.5 -106.5q0 -64 -43.5 -106.5t-106.5 -42.5q-65 0 -108 42.5t-43 106.5z" />
<glyph unicode="&#xc5;" horiz-adv-x="1466" d="M23 0l544 1413h334l543 -1413h-309l-101 274h-606l-100 -274h-305zM522 535h416l-207 567zM522 1708q0 88 60 146.5t151 58.5q89 0 149 -58.5t60 -146.5t-60 -146.5t-149 -58.5q-91 0 -151 58.5t-60 146.5zM664 1708q0 -31 19.5 -51.5t49.5 -20.5q29 0 49.5 20.5 t20.5 51.5t-20.5 51.5t-49.5 20.5q-30 0 -49.5 -20.5t-19.5 -51.5z" />
<glyph unicode="&#xc6;" horiz-adv-x="1863" d="M-66 0l824 1413h1009v-266h-583v-303h518v-266h-518v-312h594v-266h-877v268h-489l-156 -268h-322zM561 528h340v588z" />
<glyph unicode="&#xc7;" horiz-adv-x="1488" d="M72 707q0 154 57 289.5t156 232.5t237 153t295 56q196 0 360 -85t263 -233l-244 -151q-62 92 -161 144t-218 52q-194 0 -324.5 -131t-130.5 -327t130.5 -327.5t324.5 -131.5q119 0 218 52t161 144l244 -151q-87 -129 -225 -211t-306 -102l-35 -41q82 -6 137.5 -67 t55.5 -148q0 -96 -70.5 -161t-175.5 -65q-140 0 -231 105l92 110q59 -69 133 -69q40 0 66 23t26 57q0 33 -24 56t-58 23q-42 0 -63 -28l-148 67l111 138q-187 21 -335.5 120.5t-233 258t-84.5 348.5z" />
<glyph unicode="&#xc8;" horiz-adv-x="1189" d="M143 0v1413h951v-266h-668v-303h600v-266h-600v-312h678v-266h-961zM238 1821h335l207 -293h-280z" />
<glyph unicode="&#xc9;" horiz-adv-x="1189" d="M143 0v1413h951v-266h-668v-303h600v-266h-600v-312h678v-266h-961zM471 1528l207 293h336l-262 -293h-281z" />
<glyph unicode="&#xca;" horiz-adv-x="1189" d="M143 0v1413h951v-266h-668v-303h600v-266h-600v-312h678v-266h-961zM260 1528l203 293h321l203 -293h-250l-112 149l-115 -149h-250z" />
<glyph unicode="&#xcb;" horiz-adv-x="1189" d="M143 0v1413h951v-266h-668v-303h600v-266h-600v-312h678v-266h-961zM252 1675q0 63 43.5 106.5t107.5 43.5t108 -43.5t44 -106.5q0 -64 -43.5 -106.5t-108.5 -42.5t-108 42.5t-43 106.5zM694 1675q0 63 44 106.5t108 43.5q63 0 106 -43.5t43 -106.5q0 -64 -43 -106.5 t-106 -42.5q-65 0 -108.5 42.5t-43.5 106.5z" />
<glyph unicode="&#xcc;" horiz-adv-x="569" d="M-102 1821h335l207 -293h-280zM143 0v1413h283v-1413h-283z" />
<glyph unicode="&#xcd;" horiz-adv-x="569" d="M131 1528l207 293h336l-262 -293h-281zM143 0v1413h283v-1413h-283z" />
<glyph unicode="&#xce;" horiz-adv-x="569" d="M-78 1528l203 293h321l203 -293h-250l-112 149l-115 -149h-250zM143 0v1413h283v-1413h-283z" />
<glyph unicode="&#xcf;" horiz-adv-x="569" d="M-86 1675q0 63 44 106.5t108 43.5t107.5 -43.5t43.5 -106.5q0 -64 -43 -106.5t-108 -42.5t-108.5 42.5t-43.5 106.5zM143 0v1413h283v-1413h-283zM356 1675q0 63 44 106.5t108 43.5q63 0 106 -43.5t43 -106.5q0 -64 -43 -106.5t-106 -42.5q-65 0 -108.5 42.5t-43.5 106.5 z" />
<glyph unicode="&#xd0;" horiz-adv-x="1488" d="M12 610v191h131v612h553q152 0 286 -54t229.5 -147.5t150.5 -224.5t55 -280t-55 -280t-150.5 -225t-229.5 -148t-286 -54h-553v610h-131zM426 266h264q187 0 311.5 126t124.5 315t-124.5 314.5t-311.5 125.5h-264v-346h213v-191h-213v-344z" />
<glyph unicode="&#xd1;" horiz-adv-x="1499" d="M143 0v1413h287l643 -928v928h283v-1413h-287l-643 928v-928h-283zM389 1546q0 127 61.5 209t172.5 82q39 0 75.5 -13.5t59 -30.5t49 -30.5t49.5 -13.5q34 0 57 24t23 58h186q0 -129 -60.5 -210t-170.5 -81q-51 0 -95 21t-78.5 42t-62.5 21q-34 0 -55.5 -22.5 t-21.5 -55.5h-189z" />
<glyph unicode="&#xd2;" horiz-adv-x="1634" d="M72 707q0 154 57 289.5t156 232.5t237 153t295 56q209 0 380 -95.5t268.5 -263t97.5 -372.5q0 -154 -57.5 -289.5t-156 -232.5t-237 -153.5t-295.5 -56.5t-295 56.5t-237 153.5t-156 232.5t-57 289.5zM362 707q0 -196 130.5 -327.5t324.5 -131.5t324.5 131.5t130.5 327.5 t-130.5 327t-324.5 131t-324.5 -131t-130.5 -327zM430 1821h336l207 -293h-281z" />
<glyph unicode="&#xd3;" horiz-adv-x="1634" d="M72 707q0 154 57 289.5t156 232.5t237 153t295 56q209 0 380 -95.5t268.5 -263t97.5 -372.5q0 -154 -57.5 -289.5t-156 -232.5t-237 -153.5t-295.5 -56.5t-295 56.5t-237 153.5t-156 232.5t-57 289.5zM362 707q0 -196 130.5 -327.5t324.5 -131.5t324.5 131.5t130.5 327.5 t-130.5 327t-324.5 131t-324.5 -131t-130.5 -327zM664 1528l206 293h336l-262 -293h-280z" />
<glyph unicode="&#xd4;" horiz-adv-x="1634" d="M72 707q0 154 57 289.5t156 232.5t237 153t295 56q209 0 380 -95.5t268.5 -263t97.5 -372.5q0 -154 -57.5 -289.5t-156 -232.5t-237 -153.5t-295.5 -56.5t-295 56.5t-237 153.5t-156 232.5t-57 289.5zM362 707q0 -196 130.5 -327.5t324.5 -131.5t324.5 131.5t130.5 327.5 t-130.5 327t-324.5 131t-324.5 -131t-130.5 -327zM453 1528l202 293h322l203 -293h-250l-113 149l-115 -149h-249z" />
<glyph unicode="&#xd5;" horiz-adv-x="1634" d="M72 707q0 154 57 289.5t156 232.5t237 153t295 56q209 0 380 -95.5t268.5 -263t97.5 -372.5q0 -154 -57.5 -289.5t-156 -232.5t-237 -153.5t-295.5 -56.5t-295 56.5t-237 153.5t-156 232.5t-57 289.5zM362 707q0 -196 130.5 -327.5t324.5 -131.5t324.5 131.5t130.5 327.5 t-130.5 327t-324.5 131t-324.5 -131t-130.5 -327zM449 1546q0 127 61 209t172 82q39 0 75.5 -13.5t59 -30.5t49 -30.5t49.5 -13.5q34 0 57 24t23 58h187q0 -129 -60.5 -210t-171.5 -81q-40 0 -77 13t-59 29t-49 29t-50 13q-35 0 -56.5 -22.5t-21.5 -55.5h-188z" />
<glyph unicode="&#xd6;" horiz-adv-x="1634" d="M72 707q0 154 57 289.5t156 232.5t237 153t295 56q209 0 380 -95.5t268.5 -263t97.5 -372.5q0 -154 -57.5 -289.5t-156 -232.5t-237 -153.5t-295.5 -56.5t-295 56.5t-237 153.5t-156 232.5t-57 289.5zM362 707q0 -196 130.5 -327.5t324.5 -131.5t324.5 131.5t130.5 327.5 t-130.5 327t-324.5 131t-324.5 -131t-130.5 -327zM444 1675q0 63 44 106.5t108 43.5t108 -43.5t44 -106.5q0 -64 -43.5 -106.5t-108.5 -42.5t-108.5 42.5t-43.5 106.5zM887 1675q0 63 43.5 106.5t107.5 43.5q63 0 106.5 -43.5t43.5 -106.5q0 -64 -43.5 -106.5t-106.5 -42.5 q-65 0 -108 42.5t-43 106.5z" />
<glyph unicode="&#xd7;" horiz-adv-x="1017" d="M119 389l215 215l-215 215l174 176l217 -215l215 215l174 -176l-215 -215l215 -215l-174 -176l-215 217l-217 -217z" />
<glyph unicode="&#xd8;" horiz-adv-x="1634" d="M72 707q0 154 57 289.5t156 232.5t237 153t295 56q230 0 412 -115l78 90h235l-176 -203q197 -210 197 -503q0 -154 -57.5 -289.5t-156 -232.5t-237 -153.5t-295.5 -56.5q-229 0 -414 117l-77 -92h-236l176 205q-194 207 -194 502zM362 707q0 -159 93 -283l589 684 q-105 57 -227 57q-194 0 -324.5 -131t-130.5 -327zM590 305q102 -57 227 -57q194 0 324.5 131.5t130.5 327.5q0 158 -92 284z" />
<glyph unicode="&#xd9;" horiz-adv-x="1404" d="M117 547v866h282v-862q0 -129 86.5 -216t216.5 -87t217 87t87 216v862h282v-866q0 -161 -76.5 -292t-210.5 -205.5t-299 -74.5t-299 74.5t-210 205.5t-76 292zM315 1821h336l207 -293h-280z" />
<glyph unicode="&#xda;" horiz-adv-x="1404" d="M117 547v866h282v-862q0 -129 86.5 -216t216.5 -87t217 87t87 216v862h282v-866q0 -161 -76.5 -292t-210.5 -205.5t-299 -74.5t-299 74.5t-210 205.5t-76 292zM549 1528l207 293h336l-263 -293h-280z" />
<glyph unicode="&#xdb;" horiz-adv-x="1404" d="M117 547v866h282v-862q0 -129 86.5 -216t216.5 -87t217 87t87 216v862h282v-866q0 -161 -76.5 -292t-210.5 -205.5t-299 -74.5t-299 74.5t-210 205.5t-76 292zM338 1528l203 293h321l203 -293h-250l-113 149l-114 -149h-250z" />
<glyph unicode="&#xdc;" horiz-adv-x="1404" d="M117 547v866h282v-862q0 -129 86.5 -216t216.5 -87t217 87t87 216v862h282v-866q0 -161 -76.5 -292t-210.5 -205.5t-299 -74.5t-299 74.5t-210 205.5t-76 292zM330 1675q0 63 43.5 106.5t107.5 43.5t108 -43.5t44 -106.5q0 -64 -43.5 -106.5t-108.5 -42.5t-108 42.5 t-43 106.5zM772 1675q0 63 44 106.5t108 43.5q63 0 106 -43.5t43 -106.5q0 -64 -43 -106.5t-106 -42.5q-65 0 -108.5 42.5t-43.5 106.5z" />
<glyph unicode="&#xdd;" horiz-adv-x="1380" d="M-2 1413h324l372 -631l373 631h315l-551 -917v-496h-282v496zM537 1528l206 293h336l-262 -293h-280z" />
<glyph unicode="&#xde;" horiz-adv-x="1282" d="M143 0v1413h283v-233h334q206 0 345.5 -135t139.5 -336q0 -202 -139.5 -336.5t-345.5 -134.5h-334v-238h-283zM426 504h328q86 0 143 58t57 147q0 88 -57 146t-143 58h-328v-409z" />
<glyph unicode="&#xdf;" horiz-adv-x="1157" d="M121 0v1063q0 186 133.5 311t337.5 125q199 0 335 -118t136 -289q0 -103 -52 -190.5t-139 -135.5q107 -39 174.5 -138.5t67.5 -228.5q0 -181 -127.5 -302.5t-322.5 -121.5q-90 0 -160 25v258q55 -25 127 -25q95 0 152 57t57 142q0 87 -58.5 146t-142.5 59h-92v256h74 q70 0 118.5 49.5t48.5 122.5q0 76 -55.5 126t-140.5 50q-88 0 -146.5 -57.5t-58.5 -143.5v-1040h-266z" />
<glyph unicode="&#xe0;" d="M68 522q0 233 146 390t364 157q204 0 340 -149v124h266v-1044h-266v125q-137 -150 -340 -150q-218 0 -364 157t-146 390zM274 1452h336l207 -293h-280zM342 522q0 -123 82 -206t205 -83q124 0 206.5 83t82.5 206t-82.5 206t-206.5 83q-123 0 -205 -83t-82 -206z" />
<glyph unicode="&#xe1;" d="M68 522q0 233 146 390t364 157q204 0 340 -149v124h266v-1044h-266v125q-137 -150 -340 -150q-218 0 -364 157t-146 390zM342 522q0 -123 82 -206t205 -83q124 0 206.5 83t82.5 206t-82.5 206t-206.5 83q-123 0 -205 -83t-82 -206zM508 1159l207 293h336l-263 -293h-280z " />
<glyph unicode="&#xe2;" d="M68 522q0 233 146 390t364 157q204 0 340 -149v124h266v-1044h-266v125q-137 -150 -340 -150q-218 0 -364 157t-146 390zM299 1159l203 293h321l203 -293h-250l-112 150l-115 -150h-250zM342 522q0 -123 82 -206t205 -83q124 0 206.5 83t82.5 206t-82.5 206t-206.5 83 q-123 0 -205 -83t-82 -206z" />
<glyph unicode="&#xe3;" d="M68 522q0 233 146 390t364 157q204 0 340 -149v124h266v-1044h-266v125q-137 -150 -340 -150q-218 0 -364 157t-146 390zM295 1178q0 127 61 208.5t172 81.5q50 0 93.5 -22t78 -44t62.5 -22q34 0 57 24t23 58h186q0 -129 -60.5 -210t-170.5 -81q-51 0 -95 21t-78.5 42 t-62.5 21q-35 0 -56.5 -22t-21.5 -55h-188zM342 522q0 -123 82 -206t205 -83q124 0 206.5 83t82.5 206t-82.5 206t-206.5 83q-123 0 -205 -83t-82 -206z" />
<glyph unicode="&#xe4;" d="M68 522q0 233 146 390t364 157q204 0 340 -149v124h266v-1044h-266v125q-137 -150 -340 -150q-218 0 -364 157t-146 390zM291 1307q0 63 43.5 106t107.5 43t108 -43t44 -106q0 -64 -43.5 -107t-108.5 -43t-108 43t-43 107zM342 522q0 -123 82 -206t205 -83 q124 0 206.5 83t82.5 206t-82.5 206t-206.5 83q-123 0 -205 -83t-82 -206zM733 1307q0 63 44 106t108 43q63 0 106 -43t43 -106q0 -64 -43 -107t-106 -43q-65 0 -108.5 43t-43.5 107z" />
<glyph unicode="&#xe5;" d="M68 522q0 233 146 390t364 157q204 0 340 -149v124h266v-1044h-266v125q-137 -150 -340 -150q-218 0 -364 157t-146 390zM342 522q0 -123 82 -206t205 -83q124 0 206.5 83t82.5 206t-82.5 206t-206.5 83q-123 0 -205 -83t-82 -206zM453 1339q0 88 60 146.5t151 58.5 q89 0 148.5 -58.5t59.5 -146.5t-59.5 -146t-148.5 -58q-91 0 -151 58t-60 146zM594 1339q0 -31 19.5 -51t50.5 -20q29 0 49 20t20 51t-20 51.5t-49 20.5q-31 0 -50.5 -20.5t-19.5 -51.5z" />
<glyph unicode="&#xe6;" horiz-adv-x="1890" d="M49 305q0 138 111.5 230t279.5 92h303v28q0 85 -65.5 136t-173.5 51q-147 0 -234 -103l-155 152q61 83 165.5 130.5t235.5 47.5q120 0 218.5 -41t164.5 -115q153 156 383 156q116 0 217.5 -42t174.5 -114.5t115 -175.5t42 -221q0 -50 -6 -84h-811q26 -102 106.5 -161.5 t192.5 -59.5q88 0 161.5 36t116.5 91l185 -154q-85 -99 -206 -154t-263 -55q-124 0 -232 45.5t-184 126.5q-66 -77 -177 -124.5t-245 -47.5q-189 0 -304.5 94t-115.5 236zM324 315q0 -54 51.5 -89.5t132.5 -35.5q80 0 153 31.5t125 83.5q-26 66 -34 127h-267 q-71 0 -116 -33.5t-45 -83.5zM1016 627h530q-26 95 -98.5 152t-167.5 57q-96 0 -166.5 -57t-97.5 -152z" />
<glyph unicode="&#xe7;" horiz-adv-x="1144" d="M63 522q0 233 161.5 390t400.5 157q156 0 282.5 -70t198.5 -190l-232 -139q-36 64 -101.5 102.5t-147.5 38.5q-123 0 -205 -83t-82 -206t82 -206t205 -83q81 0 147 38.5t102 103.5l232 -139q-61 -101 -161.5 -167.5t-225.5 -86.5l-37 -43q82 -6 137 -67t55 -148 q0 -96 -70 -161t-175 -65q-141 0 -232 105l92 110q27 -31 63 -50t71 -19q40 0 66 23t26 57q0 33 -24 56t-58 23q-43 0 -64 -28l-147 67l113 140q-207 31 -339.5 181t-132.5 359z" />
<glyph unicode="&#xe8;" horiz-adv-x="1226" d="M63 526q0 152 72.5 276.5t200 195.5t282.5 71q235 0 392 -156.5t157 -392.5q0 -50 -6 -94h-809q28 -99 107 -157t192 -58q91 0 167 36.5t120 92.5l178 -156q-83 -99 -205.5 -154t-267.5 -55q-164 0 -297 72t-208 198.5t-75 280.5zM238 1452h335l207 -293h-280zM350 621 h533q-25 98 -97.5 156.5t-169.5 58.5t-169 -58.5t-97 -156.5z" />
<glyph unicode="&#xe9;" horiz-adv-x="1226" d="M63 526q0 152 72.5 276.5t200 195.5t282.5 71q235 0 392 -156.5t157 -392.5q0 -50 -6 -94h-809q28 -99 107 -157t192 -58q91 0 167 36.5t120 92.5l178 -156q-83 -99 -205.5 -154t-267.5 -55q-164 0 -297 72t-208 198.5t-75 280.5zM350 621h533q-25 98 -97.5 156.5 t-169.5 58.5t-169 -58.5t-97 -156.5zM471 1159l207 293h336l-262 -293h-281z" />
<glyph unicode="&#xea;" horiz-adv-x="1226" d="M63 526q0 152 72.5 276.5t200 195.5t282.5 71q235 0 392 -156.5t157 -392.5q0 -50 -6 -94h-809q28 -99 107 -157t192 -58q91 0 167 36.5t120 92.5l178 -156q-83 -99 -205.5 -154t-267.5 -55q-164 0 -297 72t-208 198.5t-75 280.5zM262 1159l203 293h321l203 -293h-250 l-112 150l-115 -150h-250zM350 621h533q-25 98 -97.5 156.5t-169.5 58.5t-169 -58.5t-97 -156.5z" />
<glyph unicode="&#xeb;" horiz-adv-x="1226" d="M63 526q0 152 72.5 276.5t200 195.5t282.5 71q235 0 392 -156.5t157 -392.5q0 -50 -6 -94h-809q28 -99 107 -157t192 -58q91 0 167 36.5t120 92.5l178 -156q-83 -99 -205.5 -154t-267.5 -55q-164 0 -297 72t-208 198.5t-75 280.5zM254 1307q0 63 44 106t108 43t107.5 -43 t43.5 -106q0 -64 -43 -107t-108 -43t-108.5 43t-43.5 107zM350 621h533q-25 98 -97.5 156.5t-169.5 58.5t-169 -58.5t-97 -156.5zM696 1307q0 63 44 106t108 43q63 0 106 -43t43 -106q0 -64 -43 -107t-106 -43q-65 0 -108.5 43t-43.5 107z" />
<glyph unicode="&#xec;" horiz-adv-x="520" d="M-127 1452h336l207 -293h-281zM127 0v1044h266v-1044h-266z" />
<glyph unicode="&#xed;" horiz-adv-x="520" d="M106 1159l207 293h336l-262 -293h-281zM127 0v1044h266v-1044h-266z" />
<glyph unicode="&#xee;" horiz-adv-x="520" d="M-104 1159l202 293h322l203 -293h-250l-113 150l-115 -150h-249zM127 0v1044h266v-1044h-266z" />
<glyph unicode="&#xef;" horiz-adv-x="520" d="M-113 1307q0 63 44 106t108 43t107.5 -43t43.5 -106q0 -64 -43 -107t-108 -43t-108.5 43t-43.5 107zM127 0v1044h266v-1044h-266zM330 1307q0 63 43.5 106t107.5 43q63 0 106.5 -43t43.5 -106q0 -64 -43.5 -107t-106.5 -43q-65 0 -108 43t-43 107z" />
<glyph unicode="&#xf0;" horiz-adv-x="1193" d="M63 496q0 108 39 204t105.5 164t157 108t190.5 40q118 0 213 -56q-93 122 -240 197l-69 -78h-197l121 137q-91 22 -152 27v252q177 -12 328 -80l70 80h196l-133 -152q202 -133 319 -349t117 -455q0 -130 -40.5 -236.5t-111.5 -177t-167.5 -108.5t-208.5 -38 q-231 0 -384 149t-153 372zM338 494q0 -112 74 -186.5t184 -74.5t184 74.5t74 186.5t-73.5 186t-184.5 74t-184.5 -74t-73.5 -186z" />
<glyph unicode="&#xf1;" horiz-adv-x="1243" d="M127 0v1044h266v-116q126 141 332 141q185 0 296.5 -110.5t111.5 -294.5v-664h-267v578q0 106 -62.5 169.5t-166.5 63.5q-109 0 -176.5 -65.5t-67.5 -172.5v-573h-266zM264 1178q0 127 61.5 208.5t172.5 81.5q39 0 75.5 -14t59 -30t49 -30t49.5 -14q34 0 57 24t23 58h186 q0 -129 -60.5 -210t-170.5 -81q-51 0 -95 21t-78.5 42t-62.5 21q-35 0 -56 -22t-21 -55h-189z" />
<glyph unicode="&#xf2;" horiz-adv-x="1249" d="M63 522q0 233 161.5 390t400.5 157t400 -157t161 -390t-161 -390t-400 -157t-400.5 157t-161.5 390zM238 1452h335l207 -293h-280zM338 522q0 -123 82 -206t205 -83q124 0 205 82.5t81 206.5t-81 206.5t-205 82.5q-123 0 -205 -83t-82 -206z" />
<glyph unicode="&#xf3;" horiz-adv-x="1249" d="M63 522q0 233 161.5 390t400.5 157t400 -157t161 -390t-161 -390t-400 -157t-400.5 157t-161.5 390zM338 522q0 -123 82 -206t205 -83q124 0 205 82.5t81 206.5t-81 206.5t-205 82.5q-123 0 -205 -83t-82 -206zM471 1159l207 293h336l-262 -293h-281z" />
<glyph unicode="&#xf4;" horiz-adv-x="1249" d="M63 522q0 233 161.5 390t400.5 157t400 -157t161 -390t-161 -390t-400 -157t-400.5 157t-161.5 390zM262 1159l203 293h321l203 -293h-250l-112 150l-115 -150h-250zM338 522q0 -123 82 -206t205 -83q124 0 205 82.5t81 206.5t-81 206.5t-205 82.5q-123 0 -205 -83 t-82 -206z" />
<glyph unicode="&#xf5;" horiz-adv-x="1249" d="M63 522q0 233 161.5 390t400.5 157t400 -157t161 -390t-161 -390t-400 -157t-400.5 157t-161.5 390zM258 1178q0 127 61.5 208.5t172.5 81.5q39 0 75.5 -14t59 -30t49 -30t49.5 -14q34 0 57 24t23 58h186q0 -129 -60.5 -210t-170.5 -81q-51 0 -95 21t-78.5 42t-62.5 21 q-35 0 -56.5 -22t-21.5 -55h-188zM338 522q0 -123 82 -206t205 -83q124 0 205 82.5t81 206.5t-81 206.5t-205 82.5q-123 0 -205 -83t-82 -206z" />
<glyph unicode="&#xf6;" horiz-adv-x="1249" d="M63 522q0 233 161.5 390t400.5 157t400 -157t161 -390t-161 -390t-400 -157t-400.5 157t-161.5 390zM254 1307q0 63 44 106t108 43t107.5 -43t43.5 -106q0 -64 -43 -107t-108 -43t-108.5 43t-43.5 107zM338 522q0 -123 82 -206t205 -83q124 0 205 82.5t81 206.5 t-81 206.5t-205 82.5q-123 0 -205 -83t-82 -206zM696 1307q0 63 44 106t108 43q63 0 106 -43t43 -106q0 -64 -43 -107t-106 -43q-65 0 -108.5 43t-43.5 107z" />
<glyph unicode="&#xf7;" horiz-adv-x="1093" d="M119 496v221h856v-221h-856zM401 246q0 60 42 100.5t104 40.5t103.5 -40.5t41.5 -100.5q0 -61 -41.5 -102.5t-103.5 -41.5t-104 41.5t-42 102.5zM401 965q0 61 42 102t104 41t103.5 -41t41.5 -102q0 -60 -42 -101t-103 -41q-62 0 -104 41t-42 101z" />
<glyph unicode="&#xf8;" horiz-adv-x="1249" d="M63 522q0 233 161.5 390t400.5 157q172 0 313 -88l55 63h191l-137 -153q139 -152 139 -369q0 -233 -161 -390t-400 -157q-173 0 -314 88l-55 -63h-190l137 154q-140 153 -140 368zM338 522q0 -94 47 -162l373 420q-60 31 -133 31q-123 0 -205 -83t-82 -206zM492 264 q60 -31 133 -31q124 0 205 82.5t81 206.5q0 93 -47 164z" />
<glyph unicode="&#xf9;" horiz-adv-x="1196" d="M111 416v628h266v-591q0 -100 60.5 -160t160.5 -60t160.5 60t60.5 160v591h266v-628q0 -199 -133.5 -320t-353.5 -121q-221 0 -354 120.5t-133 320.5zM209 1452h336l207 -293h-281z" />
<glyph unicode="&#xfa;" horiz-adv-x="1196" d="M111 416v628h266v-591q0 -100 60.5 -160t160.5 -60t160.5 60t60.5 160v591h266v-628q0 -199 -133.5 -320t-353.5 -121q-221 0 -354 120.5t-133 320.5zM442 1159l207 293h336l-262 -293h-281z" />
<glyph unicode="&#xfb;" horiz-adv-x="1196" d="M111 416v628h266v-591q0 -100 60.5 -160t160.5 -60t160.5 60t60.5 160v591h266v-628q0 -199 -133.5 -320t-353.5 -121q-221 0 -354 120.5t-133 320.5zM233 1159l203 293h322l203 -293h-250l-113 150l-115 -150h-250z" />
<glyph unicode="&#xfc;" horiz-adv-x="1196" d="M111 416v628h266v-591q0 -100 60.5 -160t160.5 -60t160.5 60t60.5 160v591h266v-628q0 -199 -133.5 -320t-353.5 -121q-221 0 -354 120.5t-133 320.5zM225 1307q0 63 44 106t108 43t107.5 -43t43.5 -106q0 -64 -43 -107t-108 -43t-108.5 43t-43.5 107zM668 1307 q0 63 43.5 106t107.5 43q63 0 106.5 -43t43.5 -106q0 -64 -43.5 -107t-106.5 -43q-65 0 -108 43t-43 107z" />
<glyph unicode="&#xfd;" horiz-adv-x="1163" d="M10 1044h303l273 -710l270 710h297l-516 -1226q-43 -107 -129 -169.5t-189 -62.5q-71 0 -146.5 29t-127.5 76l102 209q53 -56 127 -56q81 0 119 82l43 90zM428 1159l207 293h336l-262 -293h-281z" />
<glyph unicode="&#xfe;" d="M127 -389v1864h266v-555q133 149 340 149q143 0 259.5 -71.5t182.5 -197t66 -278.5t-66 -278.5t-182.5 -197t-259.5 -71.5q-206 0 -340 150v-514h-266zM393 522q0 -123 82 -206t205 -83q124 0 205.5 82.5t81.5 206.5t-81.5 206.5t-205.5 82.5q-123 0 -205 -83t-82 -206z " />
<glyph unicode="&#xff;" horiz-adv-x="1163" d="M10 1044h303l273 -710l270 710h297l-516 -1226q-43 -107 -129 -169.5t-189 -62.5q-71 0 -146.5 29t-127.5 76l102 209q53 -56 127 -56q81 0 119 82l43 90zM209 1307q0 63 43.5 106t107.5 43t108 -43t44 -106q0 -64 -43.5 -107t-108.5 -43t-108 43t-43 107zM651 1307 q0 63 44 106t108 43q63 0 106 -43t43 -106q0 -64 -43 -107t-106 -43q-65 0 -108.5 43t-43.5 107z" />
<glyph unicode="&#x152;" horiz-adv-x="1863" d="M72 707q0 149 55 280t150.5 224.5t229.5 147.5t286 54h974v-266h-583v-303h518v-266h-518v-312h594v-266h-985q-152 0 -286 54t-229.5 148t-150.5 225t-55 280zM362 707q0 -189 125 -315t312 -126h102v881h-102q-188 0 -312.5 -125.5t-124.5 -314.5z" />
<glyph unicode="&#x153;" horiz-adv-x="2074" d="M63 522q0 153 72.5 278.5t198.5 197t278 71.5q139 0 253 -60.5t184 -166.5q72 106 186.5 166.5t251.5 60.5q226 0 377 -157t151 -396q0 -61 -6 -84h-811q26 -102 106.5 -161.5t192.5 -59.5q89 0 162.5 36t116.5 91l184 -154q-81 -98 -198 -153.5t-253 -55.5 q-143 0 -262 62t-194 170q-70 -108 -185.5 -170t-255.5 -62q-152 0 -278 71.5t-198.5 197t-72.5 278.5zM338 522q0 -123 82.5 -206t206.5 -83q122 0 204 83t82 206q0 124 -82 206.5t-204 82.5q-125 0 -207 -82.5t-82 -206.5zM1200 627h531q-26 95 -99 152t-168 57 q-96 0 -166.5 -57t-97.5 -152z" />
<glyph unicode="&#x178;" horiz-adv-x="1380" d="M-2 1413h324l372 -631l373 631h315l-551 -917v-496h-282v496zM319 1675q0 63 44 106.5t108 43.5t108 -43.5t44 -106.5q0 -64 -43.5 -106.5t-108.5 -42.5t-108.5 42.5t-43.5 106.5zM762 1675q0 63 43.5 106.5t107.5 43.5q63 0 106.5 -43.5t43.5 -106.5q0 -64 -43.5 -106.5 t-106.5 -42.5q-65 0 -108 42.5t-43 106.5z" />
<glyph unicode="&#x2c6;" horiz-adv-x="727" d="M0 1159l203 293h321l203 -293h-250l-112 150l-115 -150h-250z" />
<glyph unicode="&#x2dc;" horiz-adv-x="733" d="M0 1178q0 127 61 208.5t172 81.5q50 0 93.5 -22t78 -44t62.5 -22q34 0 57 24t23 58h186q0 -129 -60.5 -210t-170.5 -81q-51 0 -95 21t-78.5 42t-62.5 21q-35 0 -56.5 -22t-21.5 -55h-188z" />
<glyph unicode="&#x2000;" horiz-adv-x="956" />
<glyph unicode="&#x2001;" horiz-adv-x="1913" />
<glyph unicode="&#x2002;" horiz-adv-x="956" />
<glyph unicode="&#x2003;" horiz-adv-x="1913" />
<glyph unicode="&#x2004;" horiz-adv-x="637" />
<glyph unicode="&#x2005;" horiz-adv-x="478" />
<glyph unicode="&#x2006;" horiz-adv-x="318" />
<glyph unicode="&#x2007;" horiz-adv-x="318" />
<glyph unicode="&#x2008;" horiz-adv-x="239" />
<glyph unicode="&#x2009;" horiz-adv-x="382" />
<glyph unicode="&#x200a;" horiz-adv-x="106" />
<glyph unicode="&#x2010;" horiz-adv-x="835" d="M119 432v258h598v-258h-598z" />
<glyph unicode="&#x2011;" horiz-adv-x="835" d="M119 432v258h598v-258h-598z" />
<glyph unicode="&#x2012;" horiz-adv-x="835" d="M119 432v258h598v-258h-598z" />
<glyph unicode="&#x2013;" horiz-adv-x="1245" d="M119 440v240h1007v-240h-1007z" />
<glyph unicode="&#x2014;" horiz-adv-x="2187" d="M119 440v240h1949v-240h-1949z" />
<glyph unicode="&#x2018;" horiz-adv-x="563" d="M80 850l225 563h230l-144 -563h-311z" />
<glyph unicode="&#x2019;" horiz-adv-x="563" d="M80 850l143 563h312l-228 -563h-227z" />
<glyph unicode="&#x201a;" horiz-adv-x="530" d="M10 -283l144 564h311l-225 -564h-230z" />
<glyph unicode="&#x201c;" horiz-adv-x="1040" d="M80 850l225 563h230l-144 -563h-311zM555 850l227 563h230l-144 -563h-313z" />
<glyph unicode="&#x201d;" horiz-adv-x="1040" d="M80 850l143 563h312l-228 -563h-227zM555 850l145 563h312l-228 -563h-229z" />
<glyph unicode="&#x201e;" horiz-adv-x="1007" d="M10 -283l144 564h311l-225 -564h-230zM487 -283l144 564h311l-225 -564h-230z" />
<glyph unicode="&#x2022;" horiz-adv-x="716" d="M119 561q0 101 68.5 169.5t170.5 68.5q101 0 170.5 -68.5t69.5 -169.5t-69 -169t-171 -68q-103 0 -171 68t-68 169z" />
<glyph unicode="&#x2026;" horiz-adv-x="1628" d="M76 166q0 78 53.5 131t132.5 53q78 0 131 -53t53 -131t-53 -131t-131 -53q-79 0 -132.5 53t-53.5 131zM629 166q0 78 53 131t131 53q79 0 132.5 -53t53.5 -131t-53.5 -131t-132.5 -53q-78 0 -131 53t-53 131zM1180 166q0 78 53.5 131t132.5 53t132.5 -53t53.5 -131 t-53.5 -131t-132.5 -53t-132.5 53t-53.5 131z" />
<glyph unicode="&#x202f;" horiz-adv-x="382" />
<glyph unicode="&#x2039;" horiz-adv-x="753" d="M66 541l313 417h311l-311 -417l311 -418h-311z" />
<glyph unicode="&#x203a;" horiz-adv-x="753" d="M74 123l313 418l-313 417h311l313 -417l-313 -418h-311z" />
<glyph unicode="&#x205f;" horiz-adv-x="478" />
<glyph unicode="&#x20ac;" horiz-adv-x="1542" d="M59 487l47 175h97q-2 14 -2 45t2 45h-144l47 174h125q70 229 264.5 370.5t450.5 141.5q282 0 494 -164v-303q-87 90 -208 142t-251 52q-147 0 -262 -64t-174 -175h712l-45 -174h-720q-3 -21 -3 -45t3 -45h698l-45 -175h-600q59 -111 174 -175t262 -64q129 0 250 52 t209 142v-301q-210 -166 -494 -166q-258 0 -451.5 141t-263.5 371h-172z" />
<glyph unicode="&#x2122;" horiz-adv-x="1341" d="M25 1276v137h460v-137h-157v-471h-146v471h-157zM580 805v608h182l151 -332l152 332h178v-608h-143v395l-144 -313h-88l-145 317v-399h-143z" />
<glyph unicode="&#x25fc;" horiz-adv-x="1045" d="M0 0v1045h1045v-1045h-1045z" />
</font>
</defs>
</svg>
